G04 #@! TF.GenerationSoftware,KiCad,Pcbnew,(5.1.0)-1*
G04 #@! TF.CreationDate,2019-05-27T20:51:44+02:00*
G04 #@! TF.ProjectId,WELLER,57454c4c-4552-42e6-9b69-6361645f7063,rev?*
G04 #@! TF.SameCoordinates,Original*
G04 #@! TF.FileFunction,Soldermask,Bot*
G04 #@! TF.FilePolarity,Negative*
%FSLAX46Y46*%
G04 Gerber Fmt 4.6, Leading zero omitted, Abs format (unit mm)*
G04 Created by KiCad (PCBNEW (5.1.0)-1) date 2019-05-27 20:51:44*
%MOMM*%
%LPD*%
G04 APERTURE LIST*
%ADD10C,0.100000*%
G04 APERTURE END LIST*
D10*
G36*
X122144549Y-120791116D02*
G01*
X122255734Y-120813232D01*
X122465203Y-120899997D01*
X122653720Y-121025960D01*
X122814040Y-121186280D01*
X122940003Y-121374797D01*
X123026768Y-121584266D01*
X123071000Y-121806636D01*
X123071000Y-122033364D01*
X123026768Y-122255734D01*
X122940003Y-122465203D01*
X122814040Y-122653720D01*
X122653720Y-122814040D01*
X122465203Y-122940003D01*
X122255734Y-123026768D01*
X122144549Y-123048884D01*
X122033365Y-123071000D01*
X121806635Y-123071000D01*
X121695451Y-123048884D01*
X121584266Y-123026768D01*
X121374797Y-122940003D01*
X121186280Y-122814040D01*
X121025960Y-122653720D01*
X120899997Y-122465203D01*
X120813232Y-122255734D01*
X120769000Y-122033364D01*
X120769000Y-121806636D01*
X120813232Y-121584266D01*
X120899997Y-121374797D01*
X121025960Y-121186280D01*
X121186280Y-121025960D01*
X121374797Y-120899997D01*
X121584266Y-120813232D01*
X121695451Y-120791116D01*
X121806635Y-120769000D01*
X122033365Y-120769000D01*
X122144549Y-120791116D01*
X122144549Y-120791116D01*
G37*
G36*
X130665379Y-119347493D02*
G01*
X130799025Y-119388034D01*
X130922184Y-119453864D01*
X131030140Y-119542460D01*
X131118736Y-119650416D01*
X131184566Y-119773575D01*
X131225107Y-119907221D01*
X131239400Y-120052340D01*
X131239400Y-121716060D01*
X131225107Y-121861179D01*
X131184566Y-121994825D01*
X131118736Y-122117984D01*
X131030140Y-122225940D01*
X130922184Y-122314536D01*
X130799025Y-122380366D01*
X130665379Y-122420907D01*
X130520260Y-122435200D01*
X128356540Y-122435200D01*
X128211421Y-122420907D01*
X128077775Y-122380366D01*
X127954616Y-122314536D01*
X127846660Y-122225940D01*
X127758064Y-122117984D01*
X127692234Y-121994825D01*
X127651693Y-121861179D01*
X127637400Y-121716060D01*
X127637400Y-120052340D01*
X127651693Y-119907221D01*
X127692234Y-119773575D01*
X127758064Y-119650416D01*
X127846660Y-119542460D01*
X127954616Y-119453864D01*
X128077775Y-119388034D01*
X128211421Y-119347493D01*
X128356540Y-119333200D01*
X130520260Y-119333200D01*
X130665379Y-119347493D01*
X130665379Y-119347493D01*
G37*
G36*
X135264766Y-116099895D02*
G01*
X135421860Y-116147549D01*
X135566631Y-116224931D01*
X135693528Y-116329072D01*
X135797669Y-116455969D01*
X135875051Y-116600740D01*
X135922705Y-116757834D01*
X135939400Y-116927340D01*
X135939400Y-118841060D01*
X135922705Y-119010566D01*
X135875051Y-119167660D01*
X135797669Y-119312431D01*
X135693528Y-119439328D01*
X135566631Y-119543469D01*
X135421860Y-119620851D01*
X135264766Y-119668505D01*
X135095260Y-119685200D01*
X133181540Y-119685200D01*
X133012034Y-119668505D01*
X132854940Y-119620851D01*
X132710169Y-119543469D01*
X132583272Y-119439328D01*
X132479131Y-119312431D01*
X132401749Y-119167660D01*
X132354095Y-119010566D01*
X132337400Y-118841060D01*
X132337400Y-116927340D01*
X132354095Y-116757834D01*
X132401749Y-116600740D01*
X132479131Y-116455969D01*
X132583272Y-116329072D01*
X132710169Y-116224931D01*
X132854940Y-116147549D01*
X133012034Y-116099895D01*
X133181540Y-116083200D01*
X135095260Y-116083200D01*
X135264766Y-116099895D01*
X135264766Y-116099895D01*
G37*
G36*
X131239400Y-116685200D02*
G01*
X127637400Y-116685200D01*
X127637400Y-113083200D01*
X131239400Y-113083200D01*
X131239400Y-116685200D01*
X131239400Y-116685200D01*
G37*
G36*
X138527740Y-112128627D02*
G01*
X138576136Y-112138253D01*
X138613902Y-112153896D01*
X138667311Y-112176019D01*
X138667312Y-112176020D01*
X138749369Y-112230848D01*
X138819152Y-112300631D01*
X138819153Y-112300633D01*
X138873981Y-112382689D01*
X138911747Y-112473865D01*
X138931000Y-112570655D01*
X138931000Y-112669345D01*
X138911747Y-112766135D01*
X138873981Y-112857311D01*
X138873980Y-112857312D01*
X138819152Y-112939369D01*
X138749369Y-113009152D01*
X138708062Y-113036752D01*
X138667311Y-113063981D01*
X138620912Y-113083200D01*
X138576136Y-113101747D01*
X138527740Y-113111374D01*
X138479345Y-113121000D01*
X138380655Y-113121000D01*
X138332260Y-113111374D01*
X138283864Y-113101747D01*
X138239088Y-113083200D01*
X138192689Y-113063981D01*
X138151938Y-113036752D01*
X138110631Y-113009152D01*
X138040848Y-112939369D01*
X137986020Y-112857312D01*
X137986019Y-112857311D01*
X137948253Y-112766135D01*
X137929000Y-112669345D01*
X137929000Y-112570655D01*
X137948253Y-112473865D01*
X137986019Y-112382689D01*
X138040847Y-112300633D01*
X138040848Y-112300631D01*
X138110631Y-112230848D01*
X138192688Y-112176020D01*
X138192689Y-112176019D01*
X138246098Y-112153896D01*
X138283864Y-112138253D01*
X138332260Y-112128627D01*
X138380655Y-112119000D01*
X138479345Y-112119000D01*
X138527740Y-112128627D01*
X138527740Y-112128627D01*
G37*
G36*
X138527740Y-105328626D02*
G01*
X138576136Y-105338253D01*
X138613902Y-105353896D01*
X138667311Y-105376019D01*
X138667312Y-105376020D01*
X138749369Y-105430848D01*
X138819152Y-105500631D01*
X138819153Y-105500633D01*
X138873981Y-105582689D01*
X138911747Y-105673865D01*
X138931000Y-105770655D01*
X138931000Y-105869345D01*
X138911747Y-105966135D01*
X138873981Y-106057311D01*
X138873980Y-106057312D01*
X138819152Y-106139369D01*
X138749369Y-106209152D01*
X138708062Y-106236752D01*
X138667311Y-106263981D01*
X138613902Y-106286104D01*
X138576136Y-106301747D01*
X138527740Y-106311373D01*
X138479345Y-106321000D01*
X138380655Y-106321000D01*
X138332260Y-106311374D01*
X138283864Y-106301747D01*
X138246098Y-106286104D01*
X138192689Y-106263981D01*
X138151938Y-106236752D01*
X138110631Y-106209152D01*
X138040848Y-106139369D01*
X137986020Y-106057312D01*
X137986019Y-106057311D01*
X137948253Y-105966135D01*
X137929000Y-105869345D01*
X137929000Y-105770655D01*
X137948253Y-105673865D01*
X137986019Y-105582689D01*
X138040847Y-105500633D01*
X138040848Y-105500631D01*
X138110631Y-105430848D01*
X138192688Y-105376020D01*
X138192689Y-105376019D01*
X138246098Y-105353896D01*
X138283864Y-105338253D01*
X138332260Y-105328626D01*
X138380655Y-105319000D01*
X138479345Y-105319000D01*
X138527740Y-105328626D01*
X138527740Y-105328626D01*
G37*
G36*
X125294149Y-91301716D02*
G01*
X125405334Y-91323832D01*
X125614803Y-91410597D01*
X125803320Y-91536560D01*
X125963640Y-91696880D01*
X126089603Y-91885397D01*
X126176368Y-92094866D01*
X126220600Y-92317236D01*
X126220600Y-92543964D01*
X126176368Y-92766334D01*
X126089603Y-92975803D01*
X125963640Y-93164320D01*
X125803320Y-93324640D01*
X125614803Y-93450603D01*
X125405334Y-93537368D01*
X125294149Y-93559484D01*
X125182965Y-93581600D01*
X124956235Y-93581600D01*
X124845051Y-93559484D01*
X124733866Y-93537368D01*
X124524397Y-93450603D01*
X124335880Y-93324640D01*
X124175560Y-93164320D01*
X124049597Y-92975803D01*
X123962832Y-92766334D01*
X123918600Y-92543964D01*
X123918600Y-92317236D01*
X123962832Y-92094866D01*
X124049597Y-91885397D01*
X124175560Y-91696880D01*
X124335880Y-91536560D01*
X124524397Y-91410597D01*
X124733866Y-91323832D01*
X124845051Y-91301716D01*
X124956235Y-91279600D01*
X125182965Y-91279600D01*
X125294149Y-91301716D01*
X125294149Y-91301716D01*
G37*
G36*
X138654549Y-77611116D02*
G01*
X138765734Y-77633232D01*
X138975203Y-77719997D01*
X139163720Y-77845960D01*
X139324040Y-78006280D01*
X139450003Y-78194797D01*
X139536768Y-78404266D01*
X139581000Y-78626636D01*
X139581000Y-78853364D01*
X139536768Y-79075734D01*
X139450003Y-79285203D01*
X139324040Y-79473720D01*
X139163720Y-79634040D01*
X138975203Y-79760003D01*
X138765734Y-79846768D01*
X138654549Y-79868884D01*
X138543365Y-79891000D01*
X138316635Y-79891000D01*
X138205451Y-79868884D01*
X138094266Y-79846768D01*
X137884797Y-79760003D01*
X137696280Y-79634040D01*
X137535960Y-79473720D01*
X137409997Y-79285203D01*
X137323232Y-79075734D01*
X137279000Y-78853364D01*
X137279000Y-78626636D01*
X137323232Y-78404266D01*
X137409997Y-78194797D01*
X137535960Y-78006280D01*
X137696280Y-77845960D01*
X137884797Y-77719997D01*
X138094266Y-77633232D01*
X138205451Y-77611116D01*
X138316635Y-77589000D01*
X138543365Y-77589000D01*
X138654549Y-77611116D01*
X138654549Y-77611116D01*
G37*
G36*
X126580200Y-73011600D02*
G01*
X124778200Y-73011600D01*
X124778200Y-71209600D01*
X126580200Y-71209600D01*
X126580200Y-73011600D01*
X126580200Y-73011600D01*
G37*
G36*
X128329643Y-71216119D02*
G01*
X128395827Y-71222637D01*
X128565666Y-71274157D01*
X128722191Y-71357822D01*
X128757929Y-71387152D01*
X128859386Y-71470414D01*
X128942648Y-71571871D01*
X128971978Y-71607609D01*
X129055643Y-71764134D01*
X129107163Y-71933973D01*
X129124559Y-72110600D01*
X129107163Y-72287227D01*
X129055643Y-72457066D01*
X128971978Y-72613591D01*
X128942648Y-72649329D01*
X128859386Y-72750786D01*
X128757929Y-72834048D01*
X128722191Y-72863378D01*
X128565666Y-72947043D01*
X128395827Y-72998563D01*
X128329643Y-73005081D01*
X128263460Y-73011600D01*
X128174940Y-73011600D01*
X128108757Y-73005081D01*
X128042573Y-72998563D01*
X127872734Y-72947043D01*
X127716209Y-72863378D01*
X127680471Y-72834048D01*
X127579014Y-72750786D01*
X127495752Y-72649329D01*
X127466422Y-72613591D01*
X127382757Y-72457066D01*
X127331237Y-72287227D01*
X127313841Y-72110600D01*
X127331237Y-71933973D01*
X127382757Y-71764134D01*
X127466422Y-71607609D01*
X127495752Y-71571871D01*
X127579014Y-71470414D01*
X127680471Y-71387152D01*
X127716209Y-71357822D01*
X127872734Y-71274157D01*
X128042573Y-71222637D01*
X128108757Y-71216119D01*
X128174940Y-71209600D01*
X128263460Y-71209600D01*
X128329643Y-71216119D01*
X128329643Y-71216119D01*
G37*
G36*
X130869643Y-71216119D02*
G01*
X130935827Y-71222637D01*
X131105666Y-71274157D01*
X131262191Y-71357822D01*
X131297929Y-71387152D01*
X131399386Y-71470414D01*
X131482648Y-71571871D01*
X131511978Y-71607609D01*
X131595643Y-71764134D01*
X131647163Y-71933973D01*
X131664559Y-72110600D01*
X131647163Y-72287227D01*
X131595643Y-72457066D01*
X131511978Y-72613591D01*
X131482648Y-72649329D01*
X131399386Y-72750786D01*
X131297929Y-72834048D01*
X131262191Y-72863378D01*
X131105666Y-72947043D01*
X130935827Y-72998563D01*
X130869643Y-73005081D01*
X130803460Y-73011600D01*
X130714940Y-73011600D01*
X130648757Y-73005081D01*
X130582573Y-72998563D01*
X130412734Y-72947043D01*
X130256209Y-72863378D01*
X130220471Y-72834048D01*
X130119014Y-72750786D01*
X130035752Y-72649329D01*
X130006422Y-72613591D01*
X129922757Y-72457066D01*
X129871237Y-72287227D01*
X129853841Y-72110600D01*
X129871237Y-71933973D01*
X129922757Y-71764134D01*
X130006422Y-71607609D01*
X130035752Y-71571871D01*
X130119014Y-71470414D01*
X130220471Y-71387152D01*
X130256209Y-71357822D01*
X130412734Y-71274157D01*
X130582573Y-71222637D01*
X130648757Y-71216119D01*
X130714940Y-71209600D01*
X130803460Y-71209600D01*
X130869643Y-71216119D01*
X130869643Y-71216119D01*
G37*
G36*
X133409643Y-71216119D02*
G01*
X133475827Y-71222637D01*
X133645666Y-71274157D01*
X133802191Y-71357822D01*
X133837929Y-71387152D01*
X133939386Y-71470414D01*
X134022648Y-71571871D01*
X134051978Y-71607609D01*
X134135643Y-71764134D01*
X134187163Y-71933973D01*
X134204559Y-72110600D01*
X134187163Y-72287227D01*
X134135643Y-72457066D01*
X134051978Y-72613591D01*
X134022648Y-72649329D01*
X133939386Y-72750786D01*
X133837929Y-72834048D01*
X133802191Y-72863378D01*
X133645666Y-72947043D01*
X133475827Y-72998563D01*
X133409643Y-73005081D01*
X133343460Y-73011600D01*
X133254940Y-73011600D01*
X133188757Y-73005081D01*
X133122573Y-72998563D01*
X132952734Y-72947043D01*
X132796209Y-72863378D01*
X132760471Y-72834048D01*
X132659014Y-72750786D01*
X132575752Y-72649329D01*
X132546422Y-72613591D01*
X132462757Y-72457066D01*
X132411237Y-72287227D01*
X132393841Y-72110600D01*
X132411237Y-71933973D01*
X132462757Y-71764134D01*
X132546422Y-71607609D01*
X132575752Y-71571871D01*
X132659014Y-71470414D01*
X132760471Y-71387152D01*
X132796209Y-71357822D01*
X132952734Y-71274157D01*
X133122573Y-71222637D01*
X133188757Y-71216119D01*
X133254940Y-71209600D01*
X133343460Y-71209600D01*
X133409643Y-71216119D01*
X133409643Y-71216119D01*
G37*
G36*
X125869200Y-67578600D02*
G01*
X123367200Y-67578600D01*
X123367200Y-66736600D01*
X125869200Y-66736600D01*
X125869200Y-67578600D01*
X125869200Y-67578600D01*
G37*
G36*
X129769200Y-67578600D02*
G01*
X127267200Y-67578600D01*
X127267200Y-66736600D01*
X129769200Y-66736600D01*
X129769200Y-67578600D01*
X129769200Y-67578600D01*
G37*
G36*
X125869200Y-66308600D02*
G01*
X123367200Y-66308600D01*
X123367200Y-65466600D01*
X125869200Y-65466600D01*
X125869200Y-66308600D01*
X125869200Y-66308600D01*
G37*
G36*
X129769200Y-66308600D02*
G01*
X127267200Y-66308600D01*
X127267200Y-65466600D01*
X129769200Y-65466600D01*
X129769200Y-66308600D01*
X129769200Y-66308600D01*
G37*
G36*
X125869200Y-65038600D02*
G01*
X123367200Y-65038600D01*
X123367200Y-64196600D01*
X125869200Y-64196600D01*
X125869200Y-65038600D01*
X125869200Y-65038600D01*
G37*
G36*
X129769200Y-65038600D02*
G01*
X127267200Y-65038600D01*
X127267200Y-64196600D01*
X129769200Y-64196600D01*
X129769200Y-65038600D01*
X129769200Y-65038600D01*
G37*
G36*
X129769200Y-63768600D02*
G01*
X127267200Y-63768600D01*
X127267200Y-62926600D01*
X129769200Y-62926600D01*
X129769200Y-63768600D01*
X129769200Y-63768600D01*
G37*
G36*
X125869200Y-63768600D02*
G01*
X123367200Y-63768600D01*
X123367200Y-62926600D01*
X125869200Y-62926600D01*
X125869200Y-63768600D01*
X125869200Y-63768600D01*
G37*
G36*
X123231768Y-47945365D02*
G01*
X123270438Y-47957096D01*
X123306077Y-47976146D01*
X123337317Y-48001783D01*
X123362954Y-48033023D01*
X123382004Y-48068662D01*
X123393735Y-48107332D01*
X123398300Y-48153688D01*
X123398300Y-49229912D01*
X123393735Y-49276268D01*
X123382004Y-49314938D01*
X123362954Y-49350577D01*
X123337317Y-49381817D01*
X123306077Y-49407454D01*
X123270438Y-49426504D01*
X123231768Y-49438235D01*
X123185412Y-49442800D01*
X122534188Y-49442800D01*
X122487832Y-49438235D01*
X122449162Y-49426504D01*
X122413523Y-49407454D01*
X122382283Y-49381817D01*
X122356646Y-49350577D01*
X122337596Y-49314938D01*
X122325865Y-49276268D01*
X122321300Y-49229912D01*
X122321300Y-48153688D01*
X122325865Y-48107332D01*
X122337596Y-48068662D01*
X122356646Y-48033023D01*
X122382283Y-48001783D01*
X122413523Y-47976146D01*
X122449162Y-47957096D01*
X122487832Y-47945365D01*
X122534188Y-47940800D01*
X123185412Y-47940800D01*
X123231768Y-47945365D01*
X123231768Y-47945365D01*
G37*
G36*
X121356768Y-47945365D02*
G01*
X121395438Y-47957096D01*
X121431077Y-47976146D01*
X121462317Y-48001783D01*
X121487954Y-48033023D01*
X121507004Y-48068662D01*
X121518735Y-48107332D01*
X121523300Y-48153688D01*
X121523300Y-49229912D01*
X121518735Y-49276268D01*
X121507004Y-49314938D01*
X121487954Y-49350577D01*
X121462317Y-49381817D01*
X121431077Y-49407454D01*
X121395438Y-49426504D01*
X121356768Y-49438235D01*
X121310412Y-49442800D01*
X120659188Y-49442800D01*
X120612832Y-49438235D01*
X120574162Y-49426504D01*
X120538523Y-49407454D01*
X120507283Y-49381817D01*
X120481646Y-49350577D01*
X120462596Y-49314938D01*
X120450865Y-49276268D01*
X120446300Y-49229912D01*
X120446300Y-48153688D01*
X120450865Y-48107332D01*
X120462596Y-48068662D01*
X120481646Y-48033023D01*
X120507283Y-48001783D01*
X120538523Y-47976146D01*
X120574162Y-47957096D01*
X120612832Y-47945365D01*
X120659188Y-47940800D01*
X121310412Y-47940800D01*
X121356768Y-47945365D01*
X121356768Y-47945365D01*
G37*
G36*
X127062811Y-46418605D02*
G01*
X127101867Y-46430453D01*
X127137862Y-46449693D01*
X127169414Y-46475586D01*
X127195307Y-46507138D01*
X127214547Y-46543133D01*
X127226395Y-46582189D01*
X127231000Y-46628949D01*
X127231000Y-47351051D01*
X127226395Y-47397811D01*
X127214547Y-47436867D01*
X127195307Y-47472862D01*
X127169414Y-47504414D01*
X127137862Y-47530307D01*
X127101867Y-47549547D01*
X127062811Y-47561395D01*
X127016051Y-47566000D01*
X126218949Y-47566000D01*
X126172189Y-47561395D01*
X126133133Y-47549547D01*
X126097138Y-47530307D01*
X126065586Y-47504414D01*
X126039693Y-47472862D01*
X126020453Y-47436867D01*
X126008605Y-47397811D01*
X126004000Y-47351051D01*
X126004000Y-46628949D01*
X126008605Y-46582189D01*
X126020453Y-46543133D01*
X126039693Y-46507138D01*
X126065586Y-46475586D01*
X126097138Y-46449693D01*
X126133133Y-46430453D01*
X126172189Y-46418605D01*
X126218949Y-46414000D01*
X127016051Y-46414000D01*
X127062811Y-46418605D01*
X127062811Y-46418605D01*
G37*
G36*
X125287811Y-46418605D02*
G01*
X125326867Y-46430453D01*
X125362862Y-46449693D01*
X125394414Y-46475586D01*
X125420307Y-46507138D01*
X125439547Y-46543133D01*
X125451395Y-46582189D01*
X125456000Y-46628949D01*
X125456000Y-47351051D01*
X125451395Y-47397811D01*
X125439547Y-47436867D01*
X125420307Y-47472862D01*
X125394414Y-47504414D01*
X125362862Y-47530307D01*
X125326867Y-47549547D01*
X125287811Y-47561395D01*
X125241051Y-47566000D01*
X124443949Y-47566000D01*
X124397189Y-47561395D01*
X124358133Y-47549547D01*
X124322138Y-47530307D01*
X124290586Y-47504414D01*
X124264693Y-47472862D01*
X124245453Y-47436867D01*
X124233605Y-47397811D01*
X124229000Y-47351051D01*
X124229000Y-46628949D01*
X124233605Y-46582189D01*
X124245453Y-46543133D01*
X124264693Y-46507138D01*
X124290586Y-46475586D01*
X124322138Y-46449693D01*
X124358133Y-46430453D01*
X124397189Y-46418605D01*
X124443949Y-46414000D01*
X125241051Y-46414000D01*
X125287811Y-46418605D01*
X125287811Y-46418605D01*
G37*
G36*
X123260299Y-46366845D02*
G01*
X123297795Y-46378220D01*
X123332354Y-46396692D01*
X123362647Y-46421553D01*
X123387508Y-46451846D01*
X123405980Y-46486405D01*
X123417355Y-46523901D01*
X123421800Y-46569038D01*
X123421800Y-47207762D01*
X123417355Y-47252899D01*
X123405980Y-47290395D01*
X123387508Y-47324954D01*
X123362647Y-47355247D01*
X123332354Y-47380108D01*
X123297795Y-47398580D01*
X123260299Y-47409955D01*
X123215162Y-47414400D01*
X122476438Y-47414400D01*
X122431301Y-47409955D01*
X122393805Y-47398580D01*
X122359246Y-47380108D01*
X122328953Y-47355247D01*
X122304092Y-47324954D01*
X122285620Y-47290395D01*
X122274245Y-47252899D01*
X122269800Y-47207762D01*
X122269800Y-46569038D01*
X122274245Y-46523901D01*
X122285620Y-46486405D01*
X122304092Y-46451846D01*
X122328953Y-46421553D01*
X122359246Y-46396692D01*
X122393805Y-46378220D01*
X122431301Y-46366845D01*
X122476438Y-46362400D01*
X123215162Y-46362400D01*
X123260299Y-46366845D01*
X123260299Y-46366845D01*
G37*
G36*
X121510299Y-46366845D02*
G01*
X121547795Y-46378220D01*
X121582354Y-46396692D01*
X121612647Y-46421553D01*
X121637508Y-46451846D01*
X121655980Y-46486405D01*
X121667355Y-46523901D01*
X121671800Y-46569038D01*
X121671800Y-47207762D01*
X121667355Y-47252899D01*
X121655980Y-47290395D01*
X121637508Y-47324954D01*
X121612647Y-47355247D01*
X121582354Y-47380108D01*
X121547795Y-47398580D01*
X121510299Y-47409955D01*
X121465162Y-47414400D01*
X120726438Y-47414400D01*
X120681301Y-47409955D01*
X120643805Y-47398580D01*
X120609246Y-47380108D01*
X120578953Y-47355247D01*
X120554092Y-47324954D01*
X120535620Y-47290395D01*
X120524245Y-47252899D01*
X120519800Y-47207762D01*
X120519800Y-46569038D01*
X120524245Y-46523901D01*
X120535620Y-46486405D01*
X120554092Y-46451846D01*
X120578953Y-46421553D01*
X120609246Y-46396692D01*
X120643805Y-46378220D01*
X120681301Y-46366845D01*
X120726438Y-46362400D01*
X121465162Y-46362400D01*
X121510299Y-46366845D01*
X121510299Y-46366845D01*
G37*
G36*
X130593312Y-37055727D02*
G01*
X130742612Y-37085424D01*
X130906584Y-37153344D01*
X131054154Y-37251947D01*
X131179653Y-37377446D01*
X131278256Y-37525016D01*
X131346176Y-37688988D01*
X131380800Y-37863059D01*
X131380800Y-38040541D01*
X131346176Y-38214612D01*
X131278256Y-38378584D01*
X131179653Y-38526154D01*
X131054154Y-38651653D01*
X130906584Y-38750256D01*
X130742612Y-38818176D01*
X130593312Y-38847873D01*
X130568542Y-38852800D01*
X130391058Y-38852800D01*
X130366288Y-38847873D01*
X130216988Y-38818176D01*
X130053016Y-38750256D01*
X129905446Y-38651653D01*
X129779947Y-38526154D01*
X129681344Y-38378584D01*
X129613424Y-38214612D01*
X129578800Y-38040541D01*
X129578800Y-37863059D01*
X129613424Y-37688988D01*
X129681344Y-37525016D01*
X129779947Y-37377446D01*
X129905446Y-37251947D01*
X130053016Y-37153344D01*
X130216988Y-37085424D01*
X130366288Y-37055727D01*
X130391058Y-37050800D01*
X130568542Y-37050800D01*
X130593312Y-37055727D01*
X130593312Y-37055727D01*
G37*
G36*
X130593312Y-30055727D02*
G01*
X130742612Y-30085424D01*
X130906584Y-30153344D01*
X131054154Y-30251947D01*
X131179653Y-30377446D01*
X131278256Y-30525016D01*
X131346176Y-30688988D01*
X131380800Y-30863059D01*
X131380800Y-31040541D01*
X131346176Y-31214612D01*
X131278256Y-31378584D01*
X131179653Y-31526154D01*
X131054154Y-31651653D01*
X130906584Y-31750256D01*
X130742612Y-31818176D01*
X130593312Y-31847873D01*
X130568542Y-31852800D01*
X130391058Y-31852800D01*
X130366288Y-31847873D01*
X130216988Y-31818176D01*
X130053016Y-31750256D01*
X129905446Y-31651653D01*
X129779947Y-31526154D01*
X129681344Y-31378584D01*
X129613424Y-31214612D01*
X129578800Y-31040541D01*
X129578800Y-30863059D01*
X129613424Y-30688988D01*
X129681344Y-30525016D01*
X129779947Y-30377446D01*
X129905446Y-30251947D01*
X130053016Y-30153344D01*
X130216988Y-30085424D01*
X130366288Y-30055727D01*
X130391058Y-30050800D01*
X130568542Y-30050800D01*
X130593312Y-30055727D01*
X130593312Y-30055727D01*
G37*
G36*
X138654549Y-26811116D02*
G01*
X138765734Y-26833232D01*
X138975203Y-26919997D01*
X139163720Y-27045960D01*
X139324040Y-27206280D01*
X139450003Y-27394797D01*
X139536768Y-27604266D01*
X139581000Y-27826636D01*
X139581000Y-28053364D01*
X139536768Y-28275734D01*
X139450003Y-28485203D01*
X139324040Y-28673720D01*
X139163720Y-28834040D01*
X138975203Y-28960003D01*
X138765734Y-29046768D01*
X138654549Y-29068884D01*
X138543365Y-29091000D01*
X138316635Y-29091000D01*
X138205451Y-29068884D01*
X138094266Y-29046768D01*
X137884797Y-28960003D01*
X137696280Y-28834040D01*
X137535960Y-28673720D01*
X137409997Y-28485203D01*
X137323232Y-28275734D01*
X137279000Y-28053364D01*
X137279000Y-27826636D01*
X137323232Y-27604266D01*
X137409997Y-27394797D01*
X137535960Y-27206280D01*
X137696280Y-27045960D01*
X137884797Y-26919997D01*
X138094266Y-26833232D01*
X138205451Y-26811116D01*
X138316635Y-26789000D01*
X138543365Y-26789000D01*
X138654549Y-26811116D01*
X138654549Y-26811116D01*
G37*
M02*
