G04 #@! TF.GenerationSoftware,KiCad,Pcbnew,(5.1.0)-1*
G04 #@! TF.CreationDate,2019-05-27T22:44:18+02:00*
G04 #@! TF.ProjectId,WELLER,57454c4c-4552-42e6-9b69-6361645f7063,rev?*
G04 #@! TF.SameCoordinates,Original*
G04 #@! TF.FileFunction,Copper,L2,Bot*
G04 #@! TF.FilePolarity,Positive*
%FSLAX46Y46*%
G04 Gerber Fmt 4.6, Leading zero omitted, Abs format (unit mm)*
G04 Created by KiCad (PCBNEW (5.1.0)-1) date 2019-05-27 22:44:18*
%MOMM*%
%LPD*%
G04 APERTURE LIST*
%ADD10O,1.700000X1.700000*%
%ADD11R,1.700000X1.700000*%
%ADD12C,0.100000*%
%ADD13C,1.050000*%
%ADD14C,0.975000*%
%ADD15C,3.500000*%
%ADD16C,3.000000*%
%ADD17R,3.500000X3.500000*%
%ADD18C,0.950000*%
%ADD19R,2.400000X0.740000*%
%ADD20C,0.800000*%
%ADD21C,1.000000*%
%ADD22C,2.000000*%
%ADD23C,0.500000*%
%ADD24C,0.250000*%
%ADD25C,0.254000*%
G04 APERTURE END LIST*
D10*
X133299200Y-72110600D03*
X130759200Y-72110600D03*
X128219200Y-72110600D03*
D11*
X125679200Y-72110600D03*
D12*
G36*
X126954505Y-46466204D02*
G01*
X126978773Y-46469804D01*
X127002572Y-46475765D01*
X127025671Y-46484030D01*
X127047850Y-46494520D01*
X127068893Y-46507132D01*
X127088599Y-46521747D01*
X127106777Y-46538223D01*
X127123253Y-46556401D01*
X127137868Y-46576107D01*
X127150480Y-46597150D01*
X127160970Y-46619329D01*
X127169235Y-46642428D01*
X127175196Y-46666227D01*
X127178796Y-46690495D01*
X127180000Y-46714999D01*
X127180000Y-47265001D01*
X127178796Y-47289505D01*
X127175196Y-47313773D01*
X127169235Y-47337572D01*
X127160970Y-47360671D01*
X127150480Y-47382850D01*
X127137868Y-47403893D01*
X127123253Y-47423599D01*
X127106777Y-47441777D01*
X127088599Y-47458253D01*
X127068893Y-47472868D01*
X127047850Y-47485480D01*
X127025671Y-47495970D01*
X127002572Y-47504235D01*
X126978773Y-47510196D01*
X126954505Y-47513796D01*
X126930001Y-47515000D01*
X126304999Y-47515000D01*
X126280495Y-47513796D01*
X126256227Y-47510196D01*
X126232428Y-47504235D01*
X126209329Y-47495970D01*
X126187150Y-47485480D01*
X126166107Y-47472868D01*
X126146401Y-47458253D01*
X126128223Y-47441777D01*
X126111747Y-47423599D01*
X126097132Y-47403893D01*
X126084520Y-47382850D01*
X126074030Y-47360671D01*
X126065765Y-47337572D01*
X126059804Y-47313773D01*
X126056204Y-47289505D01*
X126055000Y-47265001D01*
X126055000Y-46714999D01*
X126056204Y-46690495D01*
X126059804Y-46666227D01*
X126065765Y-46642428D01*
X126074030Y-46619329D01*
X126084520Y-46597150D01*
X126097132Y-46576107D01*
X126111747Y-46556401D01*
X126128223Y-46538223D01*
X126146401Y-46521747D01*
X126166107Y-46507132D01*
X126187150Y-46494520D01*
X126209329Y-46484030D01*
X126232428Y-46475765D01*
X126256227Y-46469804D01*
X126280495Y-46466204D01*
X126304999Y-46465000D01*
X126930001Y-46465000D01*
X126954505Y-46466204D01*
X126954505Y-46466204D01*
G37*
D13*
X126617500Y-46990000D03*
D12*
G36*
X125179505Y-46466204D02*
G01*
X125203773Y-46469804D01*
X125227572Y-46475765D01*
X125250671Y-46484030D01*
X125272850Y-46494520D01*
X125293893Y-46507132D01*
X125313599Y-46521747D01*
X125331777Y-46538223D01*
X125348253Y-46556401D01*
X125362868Y-46576107D01*
X125375480Y-46597150D01*
X125385970Y-46619329D01*
X125394235Y-46642428D01*
X125400196Y-46666227D01*
X125403796Y-46690495D01*
X125405000Y-46714999D01*
X125405000Y-47265001D01*
X125403796Y-47289505D01*
X125400196Y-47313773D01*
X125394235Y-47337572D01*
X125385970Y-47360671D01*
X125375480Y-47382850D01*
X125362868Y-47403893D01*
X125348253Y-47423599D01*
X125331777Y-47441777D01*
X125313599Y-47458253D01*
X125293893Y-47472868D01*
X125272850Y-47485480D01*
X125250671Y-47495970D01*
X125227572Y-47504235D01*
X125203773Y-47510196D01*
X125179505Y-47513796D01*
X125155001Y-47515000D01*
X124529999Y-47515000D01*
X124505495Y-47513796D01*
X124481227Y-47510196D01*
X124457428Y-47504235D01*
X124434329Y-47495970D01*
X124412150Y-47485480D01*
X124391107Y-47472868D01*
X124371401Y-47458253D01*
X124353223Y-47441777D01*
X124336747Y-47423599D01*
X124322132Y-47403893D01*
X124309520Y-47382850D01*
X124299030Y-47360671D01*
X124290765Y-47337572D01*
X124284804Y-47313773D01*
X124281204Y-47289505D01*
X124280000Y-47265001D01*
X124280000Y-46714999D01*
X124281204Y-46690495D01*
X124284804Y-46666227D01*
X124290765Y-46642428D01*
X124299030Y-46619329D01*
X124309520Y-46597150D01*
X124322132Y-46576107D01*
X124336747Y-46556401D01*
X124353223Y-46538223D01*
X124371401Y-46521747D01*
X124391107Y-46507132D01*
X124412150Y-46494520D01*
X124434329Y-46484030D01*
X124457428Y-46475765D01*
X124481227Y-46469804D01*
X124505495Y-46466204D01*
X124529999Y-46465000D01*
X125155001Y-46465000D01*
X125179505Y-46466204D01*
X125179505Y-46466204D01*
G37*
D13*
X124842500Y-46990000D03*
D12*
G36*
X123127442Y-47992974D02*
G01*
X123151103Y-47996484D01*
X123174307Y-48002296D01*
X123196829Y-48010354D01*
X123218453Y-48020582D01*
X123238970Y-48032879D01*
X123258183Y-48047129D01*
X123275907Y-48063193D01*
X123291971Y-48080917D01*
X123306221Y-48100130D01*
X123318518Y-48120647D01*
X123328746Y-48142271D01*
X123336804Y-48164793D01*
X123342616Y-48187997D01*
X123346126Y-48211658D01*
X123347300Y-48235550D01*
X123347300Y-49148050D01*
X123346126Y-49171942D01*
X123342616Y-49195603D01*
X123336804Y-49218807D01*
X123328746Y-49241329D01*
X123318518Y-49262953D01*
X123306221Y-49283470D01*
X123291971Y-49302683D01*
X123275907Y-49320407D01*
X123258183Y-49336471D01*
X123238970Y-49350721D01*
X123218453Y-49363018D01*
X123196829Y-49373246D01*
X123174307Y-49381304D01*
X123151103Y-49387116D01*
X123127442Y-49390626D01*
X123103550Y-49391800D01*
X122616050Y-49391800D01*
X122592158Y-49390626D01*
X122568497Y-49387116D01*
X122545293Y-49381304D01*
X122522771Y-49373246D01*
X122501147Y-49363018D01*
X122480630Y-49350721D01*
X122461417Y-49336471D01*
X122443693Y-49320407D01*
X122427629Y-49302683D01*
X122413379Y-49283470D01*
X122401082Y-49262953D01*
X122390854Y-49241329D01*
X122382796Y-49218807D01*
X122376984Y-49195603D01*
X122373474Y-49171942D01*
X122372300Y-49148050D01*
X122372300Y-48235550D01*
X122373474Y-48211658D01*
X122376984Y-48187997D01*
X122382796Y-48164793D01*
X122390854Y-48142271D01*
X122401082Y-48120647D01*
X122413379Y-48100130D01*
X122427629Y-48080917D01*
X122443693Y-48063193D01*
X122461417Y-48047129D01*
X122480630Y-48032879D01*
X122501147Y-48020582D01*
X122522771Y-48010354D01*
X122545293Y-48002296D01*
X122568497Y-47996484D01*
X122592158Y-47992974D01*
X122616050Y-47991800D01*
X123103550Y-47991800D01*
X123127442Y-47992974D01*
X123127442Y-47992974D01*
G37*
D14*
X122859800Y-48691800D03*
D12*
G36*
X121252442Y-47992974D02*
G01*
X121276103Y-47996484D01*
X121299307Y-48002296D01*
X121321829Y-48010354D01*
X121343453Y-48020582D01*
X121363970Y-48032879D01*
X121383183Y-48047129D01*
X121400907Y-48063193D01*
X121416971Y-48080917D01*
X121431221Y-48100130D01*
X121443518Y-48120647D01*
X121453746Y-48142271D01*
X121461804Y-48164793D01*
X121467616Y-48187997D01*
X121471126Y-48211658D01*
X121472300Y-48235550D01*
X121472300Y-49148050D01*
X121471126Y-49171942D01*
X121467616Y-49195603D01*
X121461804Y-49218807D01*
X121453746Y-49241329D01*
X121443518Y-49262953D01*
X121431221Y-49283470D01*
X121416971Y-49302683D01*
X121400907Y-49320407D01*
X121383183Y-49336471D01*
X121363970Y-49350721D01*
X121343453Y-49363018D01*
X121321829Y-49373246D01*
X121299307Y-49381304D01*
X121276103Y-49387116D01*
X121252442Y-49390626D01*
X121228550Y-49391800D01*
X120741050Y-49391800D01*
X120717158Y-49390626D01*
X120693497Y-49387116D01*
X120670293Y-49381304D01*
X120647771Y-49373246D01*
X120626147Y-49363018D01*
X120605630Y-49350721D01*
X120586417Y-49336471D01*
X120568693Y-49320407D01*
X120552629Y-49302683D01*
X120538379Y-49283470D01*
X120526082Y-49262953D01*
X120515854Y-49241329D01*
X120507796Y-49218807D01*
X120501984Y-49195603D01*
X120498474Y-49171942D01*
X120497300Y-49148050D01*
X120497300Y-48235550D01*
X120498474Y-48211658D01*
X120501984Y-48187997D01*
X120507796Y-48164793D01*
X120515854Y-48142271D01*
X120526082Y-48120647D01*
X120538379Y-48100130D01*
X120552629Y-48080917D01*
X120568693Y-48063193D01*
X120586417Y-48047129D01*
X120605630Y-48032879D01*
X120626147Y-48020582D01*
X120647771Y-48010354D01*
X120670293Y-48002296D01*
X120693497Y-47996484D01*
X120717158Y-47992974D01*
X120741050Y-47991800D01*
X121228550Y-47991800D01*
X121252442Y-47992974D01*
X121252442Y-47992974D01*
G37*
D14*
X120984800Y-48691800D03*
D12*
G36*
X135099165Y-116138413D02*
G01*
X135184104Y-116151013D01*
X135267399Y-116171877D01*
X135348248Y-116200805D01*
X135425872Y-116237519D01*
X135499524Y-116281664D01*
X135568494Y-116332816D01*
X135632118Y-116390482D01*
X135689784Y-116454106D01*
X135740936Y-116523076D01*
X135785081Y-116596728D01*
X135821795Y-116674352D01*
X135850723Y-116755201D01*
X135871587Y-116838496D01*
X135884187Y-116923435D01*
X135888400Y-117009200D01*
X135888400Y-118759200D01*
X135884187Y-118844965D01*
X135871587Y-118929904D01*
X135850723Y-119013199D01*
X135821795Y-119094048D01*
X135785081Y-119171672D01*
X135740936Y-119245324D01*
X135689784Y-119314294D01*
X135632118Y-119377918D01*
X135568494Y-119435584D01*
X135499524Y-119486736D01*
X135425872Y-119530881D01*
X135348248Y-119567595D01*
X135267399Y-119596523D01*
X135184104Y-119617387D01*
X135099165Y-119629987D01*
X135013400Y-119634200D01*
X133263400Y-119634200D01*
X133177635Y-119629987D01*
X133092696Y-119617387D01*
X133009401Y-119596523D01*
X132928552Y-119567595D01*
X132850928Y-119530881D01*
X132777276Y-119486736D01*
X132708306Y-119435584D01*
X132644682Y-119377918D01*
X132587016Y-119314294D01*
X132535864Y-119245324D01*
X132491719Y-119171672D01*
X132455005Y-119094048D01*
X132426077Y-119013199D01*
X132405213Y-118929904D01*
X132392613Y-118844965D01*
X132388400Y-118759200D01*
X132388400Y-117009200D01*
X132392613Y-116923435D01*
X132405213Y-116838496D01*
X132426077Y-116755201D01*
X132455005Y-116674352D01*
X132491719Y-116596728D01*
X132535864Y-116523076D01*
X132587016Y-116454106D01*
X132644682Y-116390482D01*
X132708306Y-116332816D01*
X132777276Y-116281664D01*
X132850928Y-116237519D01*
X132928552Y-116200805D01*
X133009401Y-116171877D01*
X133092696Y-116151013D01*
X133177635Y-116138413D01*
X133263400Y-116134200D01*
X135013400Y-116134200D01*
X135099165Y-116138413D01*
X135099165Y-116138413D01*
G37*
D15*
X134138400Y-117884200D03*
D12*
G36*
X130511913Y-119387811D02*
G01*
X130584718Y-119398611D01*
X130656114Y-119416495D01*
X130725413Y-119441290D01*
X130791948Y-119472759D01*
X130855078Y-119510598D01*
X130914195Y-119554442D01*
X130968730Y-119603870D01*
X131018158Y-119658405D01*
X131062002Y-119717522D01*
X131099841Y-119780652D01*
X131131310Y-119847187D01*
X131156105Y-119916486D01*
X131173989Y-119987882D01*
X131184789Y-120060687D01*
X131188400Y-120134200D01*
X131188400Y-121634200D01*
X131184789Y-121707713D01*
X131173989Y-121780518D01*
X131156105Y-121851914D01*
X131131310Y-121921213D01*
X131099841Y-121987748D01*
X131062002Y-122050878D01*
X131018158Y-122109995D01*
X130968730Y-122164530D01*
X130914195Y-122213958D01*
X130855078Y-122257802D01*
X130791948Y-122295641D01*
X130725413Y-122327110D01*
X130656114Y-122351905D01*
X130584718Y-122369789D01*
X130511913Y-122380589D01*
X130438400Y-122384200D01*
X128438400Y-122384200D01*
X128364887Y-122380589D01*
X128292082Y-122369789D01*
X128220686Y-122351905D01*
X128151387Y-122327110D01*
X128084852Y-122295641D01*
X128021722Y-122257802D01*
X127962605Y-122213958D01*
X127908070Y-122164530D01*
X127858642Y-122109995D01*
X127814798Y-122050878D01*
X127776959Y-121987748D01*
X127745490Y-121921213D01*
X127720695Y-121851914D01*
X127702811Y-121780518D01*
X127692011Y-121707713D01*
X127688400Y-121634200D01*
X127688400Y-120134200D01*
X127692011Y-120060687D01*
X127702811Y-119987882D01*
X127720695Y-119916486D01*
X127745490Y-119847187D01*
X127776959Y-119780652D01*
X127814798Y-119717522D01*
X127858642Y-119658405D01*
X127908070Y-119603870D01*
X127962605Y-119554442D01*
X128021722Y-119510598D01*
X128084852Y-119472759D01*
X128151387Y-119441290D01*
X128220686Y-119416495D01*
X128292082Y-119398611D01*
X128364887Y-119387811D01*
X128438400Y-119384200D01*
X130438400Y-119384200D01*
X130511913Y-119387811D01*
X130511913Y-119387811D01*
G37*
D16*
X129438400Y-120884200D03*
D17*
X129438400Y-114884200D03*
D12*
G36*
X123156579Y-46414544D02*
G01*
X123179634Y-46417963D01*
X123202243Y-46423627D01*
X123224187Y-46431479D01*
X123245257Y-46441444D01*
X123265248Y-46453426D01*
X123283968Y-46467310D01*
X123301238Y-46482962D01*
X123316890Y-46500232D01*
X123330774Y-46518952D01*
X123342756Y-46538943D01*
X123352721Y-46560013D01*
X123360573Y-46581957D01*
X123366237Y-46604566D01*
X123369656Y-46627621D01*
X123370800Y-46650900D01*
X123370800Y-47125900D01*
X123369656Y-47149179D01*
X123366237Y-47172234D01*
X123360573Y-47194843D01*
X123352721Y-47216787D01*
X123342756Y-47237857D01*
X123330774Y-47257848D01*
X123316890Y-47276568D01*
X123301238Y-47293838D01*
X123283968Y-47309490D01*
X123265248Y-47323374D01*
X123245257Y-47335356D01*
X123224187Y-47345321D01*
X123202243Y-47353173D01*
X123179634Y-47358837D01*
X123156579Y-47362256D01*
X123133300Y-47363400D01*
X122558300Y-47363400D01*
X122535021Y-47362256D01*
X122511966Y-47358837D01*
X122489357Y-47353173D01*
X122467413Y-47345321D01*
X122446343Y-47335356D01*
X122426352Y-47323374D01*
X122407632Y-47309490D01*
X122390362Y-47293838D01*
X122374710Y-47276568D01*
X122360826Y-47257848D01*
X122348844Y-47237857D01*
X122338879Y-47216787D01*
X122331027Y-47194843D01*
X122325363Y-47172234D01*
X122321944Y-47149179D01*
X122320800Y-47125900D01*
X122320800Y-46650900D01*
X122321944Y-46627621D01*
X122325363Y-46604566D01*
X122331027Y-46581957D01*
X122338879Y-46560013D01*
X122348844Y-46538943D01*
X122360826Y-46518952D01*
X122374710Y-46500232D01*
X122390362Y-46482962D01*
X122407632Y-46467310D01*
X122426352Y-46453426D01*
X122446343Y-46441444D01*
X122467413Y-46431479D01*
X122489357Y-46423627D01*
X122511966Y-46417963D01*
X122535021Y-46414544D01*
X122558300Y-46413400D01*
X123133300Y-46413400D01*
X123156579Y-46414544D01*
X123156579Y-46414544D01*
G37*
D18*
X122845800Y-46888400D03*
D12*
G36*
X121406579Y-46414544D02*
G01*
X121429634Y-46417963D01*
X121452243Y-46423627D01*
X121474187Y-46431479D01*
X121495257Y-46441444D01*
X121515248Y-46453426D01*
X121533968Y-46467310D01*
X121551238Y-46482962D01*
X121566890Y-46500232D01*
X121580774Y-46518952D01*
X121592756Y-46538943D01*
X121602721Y-46560013D01*
X121610573Y-46581957D01*
X121616237Y-46604566D01*
X121619656Y-46627621D01*
X121620800Y-46650900D01*
X121620800Y-47125900D01*
X121619656Y-47149179D01*
X121616237Y-47172234D01*
X121610573Y-47194843D01*
X121602721Y-47216787D01*
X121592756Y-47237857D01*
X121580774Y-47257848D01*
X121566890Y-47276568D01*
X121551238Y-47293838D01*
X121533968Y-47309490D01*
X121515248Y-47323374D01*
X121495257Y-47335356D01*
X121474187Y-47345321D01*
X121452243Y-47353173D01*
X121429634Y-47358837D01*
X121406579Y-47362256D01*
X121383300Y-47363400D01*
X120808300Y-47363400D01*
X120785021Y-47362256D01*
X120761966Y-47358837D01*
X120739357Y-47353173D01*
X120717413Y-47345321D01*
X120696343Y-47335356D01*
X120676352Y-47323374D01*
X120657632Y-47309490D01*
X120640362Y-47293838D01*
X120624710Y-47276568D01*
X120610826Y-47257848D01*
X120598844Y-47237857D01*
X120588879Y-47216787D01*
X120581027Y-47194843D01*
X120575363Y-47172234D01*
X120571944Y-47149179D01*
X120570800Y-47125900D01*
X120570800Y-46650900D01*
X120571944Y-46627621D01*
X120575363Y-46604566D01*
X120581027Y-46581957D01*
X120588879Y-46560013D01*
X120598844Y-46538943D01*
X120610826Y-46518952D01*
X120624710Y-46500232D01*
X120640362Y-46482962D01*
X120657632Y-46467310D01*
X120676352Y-46453426D01*
X120696343Y-46441444D01*
X120717413Y-46431479D01*
X120739357Y-46423627D01*
X120761966Y-46417963D01*
X120785021Y-46414544D01*
X120808300Y-46413400D01*
X121383300Y-46413400D01*
X121406579Y-46414544D01*
X121406579Y-46414544D01*
G37*
D18*
X121095800Y-46888400D03*
D19*
X124618200Y-67157600D03*
X128518200Y-67157600D03*
X124618200Y-65887600D03*
X128518200Y-65887600D03*
X124618200Y-64617600D03*
X128518200Y-64617600D03*
X124618200Y-63347600D03*
X128518200Y-63347600D03*
D20*
X131673600Y-66040000D03*
X135686800Y-69392800D03*
X136855200Y-70739000D03*
X138811000Y-71120000D03*
X132054600Y-69189600D03*
X135432800Y-72466200D03*
X133273800Y-74269600D03*
X135026400Y-73863200D03*
X132791200Y-80492600D03*
X132562600Y-82245200D03*
X132689600Y-84963000D03*
X132588000Y-86868000D03*
X132664200Y-89560400D03*
X136677400Y-90220800D03*
X138455400Y-90220800D03*
X123698000Y-99187000D03*
X125755400Y-96672400D03*
X121234200Y-108280200D03*
X122732800Y-108407200D03*
X121183400Y-112725200D03*
X123063000Y-112395000D03*
X125044200Y-112090200D03*
X125501400Y-110718600D03*
X122682000Y-116916200D03*
X122758200Y-119481600D03*
X128498600Y-49403000D03*
X126212600Y-51917600D03*
X123190000Y-54152800D03*
X133680200Y-53975000D03*
X137337800Y-47371000D03*
X137414000Y-43408600D03*
X137363200Y-45288200D03*
X130784600Y-49352200D03*
X132715000Y-49047400D03*
X134112000Y-49022000D03*
X134213600Y-47117000D03*
X134188200Y-44754800D03*
X123799600Y-29692600D03*
X124104400Y-28067000D03*
X125374400Y-27660600D03*
X127152400Y-27609800D03*
X128676400Y-27736800D03*
X129362200Y-28854400D03*
X128879600Y-32105600D03*
X127025400Y-32232600D03*
X125018800Y-32283400D03*
X123774200Y-31216600D03*
X123545600Y-57023000D03*
X124206000Y-50901600D03*
X125069600Y-52324000D03*
X131902200Y-53898800D03*
X135077200Y-53644800D03*
X134137400Y-54965600D03*
X135509000Y-56235600D03*
X135559800Y-38404800D03*
X135585200Y-40233600D03*
X135458200Y-34671000D03*
X134800778Y-63890118D03*
X135636000Y-64744600D03*
X139039600Y-66090800D03*
X137591800Y-60960000D03*
X123266200Y-78689200D03*
X123291600Y-81305400D03*
X123291600Y-84328000D03*
X123469400Y-86918800D03*
X123367800Y-89712800D03*
X125476000Y-87833200D03*
X133019800Y-91236800D03*
X124053600Y-95681800D03*
X128168400Y-90373200D03*
X130886200Y-90678000D03*
X136855200Y-88087200D03*
X136728200Y-84455000D03*
X136652000Y-81711800D03*
X138887200Y-82042000D03*
X138760200Y-87503000D03*
X138480800Y-84378800D03*
X129463800Y-118110000D03*
X127685800Y-118033800D03*
X126492000Y-118389400D03*
X126492000Y-120218200D03*
X126492000Y-122301000D03*
X126822200Y-123672600D03*
X129489200Y-123952000D03*
X131648200Y-123799600D03*
X132638800Y-121793000D03*
X132283200Y-120523000D03*
X130835400Y-118262400D03*
X135077200Y-122250200D03*
X137795000Y-123190000D03*
X137312400Y-116509800D03*
X125780800Y-115544600D03*
X124587000Y-123393200D03*
X124155200Y-118033800D03*
X136093200Y-76454000D03*
X138988800Y-75641200D03*
X138887200Y-74498200D03*
X136804400Y-74930000D03*
X126060200Y-79603600D03*
X128574800Y-82143600D03*
X129667000Y-80518000D03*
X127939800Y-80543400D03*
X125933200Y-83362800D03*
X127635000Y-85775800D03*
X130759200Y-85572600D03*
X122199400Y-26949400D03*
X121259600Y-33604200D03*
X128346200Y-34112200D03*
X133604000Y-34467800D03*
X133451600Y-40513000D03*
X134010400Y-37236400D03*
X133197600Y-27965400D03*
X135356600Y-27000200D03*
X125603000Y-42900600D03*
X128752600Y-43002200D03*
X128397000Y-45618400D03*
X126644400Y-48387000D03*
X129036482Y-68275200D03*
X132054600Y-77724000D03*
X125552200Y-75133200D03*
X126949200Y-76860400D03*
X120929400Y-52070000D03*
X121250010Y-83616800D03*
X121250010Y-84743990D03*
X121250010Y-85861590D03*
X121250010Y-86877590D03*
X121285000Y-87858600D03*
X124792500Y-45616100D03*
X121005600Y-45923200D03*
X122961398Y-61849000D03*
X125196600Y-55549798D03*
X138430000Y-102870000D03*
X135890000Y-102870000D03*
X132080000Y-102870000D03*
X129540000Y-102870000D03*
X129540000Y-95250000D03*
X138430000Y-95250000D03*
X138430000Y-99060000D03*
X135890000Y-96520000D03*
X135890000Y-99060000D03*
X135890000Y-100330000D03*
X135890000Y-101600000D03*
X135890000Y-97790000D03*
X130810000Y-96520000D03*
X132080000Y-97790000D03*
X132080000Y-100330000D03*
X130810000Y-101600000D03*
X138430000Y-96520000D03*
X138430000Y-97790000D03*
X138430000Y-100330000D03*
X138430000Y-101600000D03*
X137160000Y-101600000D03*
X137160000Y-99060000D03*
X137160000Y-96520000D03*
X134620000Y-102870000D03*
X134620000Y-95250000D03*
X135890000Y-95250000D03*
X132080000Y-95250000D03*
X136753600Y-66116200D03*
X129540000Y-96723200D03*
X126485853Y-54514547D03*
X135610600Y-51968400D03*
X122850020Y-56181952D03*
X122224800Y-38912800D03*
X125145800Y-36830000D03*
X126847600Y-36830000D03*
X128879600Y-36677600D03*
X129006600Y-39268400D03*
X128854200Y-41554400D03*
X126771400Y-41579800D03*
X124434600Y-41021000D03*
X124358400Y-39014400D03*
X123393200Y-36804600D03*
X121539000Y-36804600D03*
X122936000Y-41249600D03*
X121234200Y-41021000D03*
X122845800Y-46313400D03*
X132994400Y-64236600D03*
X129819400Y-45466000D03*
X130706600Y-69420000D03*
X123444000Y-77165200D03*
D21*
X123140700Y-48691800D02*
X124842500Y-46990000D01*
X122859800Y-48691800D02*
X123140700Y-48691800D01*
X122859800Y-48691800D02*
X122859800Y-50139600D01*
X122859800Y-50139600D02*
X120929400Y-52070000D01*
X120929400Y-52635685D02*
X120929400Y-52070000D01*
X120929400Y-53425790D02*
X120929400Y-52635685D01*
X121250010Y-53746400D02*
X120929400Y-53425790D01*
D22*
X121250010Y-83616800D02*
X121250010Y-83616800D01*
X121250010Y-83616800D02*
X121250010Y-84743990D01*
X121250010Y-84743990D02*
X121250010Y-85861590D01*
X121250010Y-85861590D02*
X121250010Y-86877590D01*
X121250010Y-86877590D02*
X121250010Y-87274400D01*
X121250010Y-83616800D02*
X121250010Y-53746400D01*
D23*
X124842500Y-45666100D02*
X124792500Y-45616100D01*
X124842500Y-46990000D02*
X124842500Y-45666100D01*
D24*
X120982500Y-47052500D02*
X120982500Y-48260000D01*
X121005600Y-45923200D02*
X121005600Y-46950600D01*
X121005600Y-46950600D02*
X121045000Y-46990000D01*
X121045000Y-46990000D02*
X120982500Y-47052500D01*
D23*
X120984800Y-46999400D02*
X121095800Y-46888400D01*
X120984800Y-48691800D02*
X120984800Y-46999400D01*
X121005600Y-46798200D02*
X121095800Y-46888400D01*
X121005600Y-45923200D02*
X121005600Y-46798200D01*
D24*
X122961398Y-63790798D02*
X122961398Y-62414685D01*
X122961398Y-62414685D02*
X122961398Y-61849000D01*
X123788200Y-64617600D02*
X122961398Y-63790798D01*
X124618200Y-64617600D02*
X123788200Y-64617600D01*
X124618200Y-56128198D02*
X124796601Y-55949797D01*
X124796601Y-55949797D02*
X125196600Y-55549798D01*
X124618200Y-63347600D02*
X124618200Y-56128198D01*
D21*
X136753600Y-66116200D02*
X130759200Y-72110600D01*
D23*
X135610600Y-52534085D02*
X139014200Y-55937685D01*
X135610600Y-51968400D02*
X135610600Y-52534085D01*
X139014200Y-63855600D02*
X136753600Y-66116200D01*
X139014200Y-55937685D02*
X139014200Y-63855600D01*
X124517425Y-54514547D02*
X123250019Y-55781953D01*
X123250019Y-55781953D02*
X122850020Y-56181952D01*
X126485853Y-54514547D02*
X124517425Y-54514547D01*
D21*
X122845800Y-46313400D02*
X122859800Y-46299400D01*
X122845800Y-46888400D02*
X122845800Y-46313400D01*
X122859800Y-45491400D02*
X122859800Y-40894000D01*
X122859800Y-46299400D02*
X122859800Y-45491400D01*
X122859800Y-40894000D02*
X122859800Y-40894000D01*
D24*
X132994400Y-64236600D02*
X129819400Y-61061600D01*
X129819400Y-61061600D02*
X129819400Y-45466000D01*
X130140915Y-69420000D02*
X130706600Y-69420000D01*
X126084798Y-69420000D02*
X130140915Y-69420000D01*
X123843999Y-71660799D02*
X126084798Y-69420000D01*
X123843999Y-76765201D02*
X123843999Y-71660799D01*
X123444000Y-77165200D02*
X123843999Y-76765201D01*
D25*
G36*
X139315001Y-104013000D02*
G01*
X128397000Y-104013000D01*
X128397000Y-94107000D01*
X139315001Y-94107000D01*
X139315001Y-104013000D01*
X139315001Y-104013000D01*
G37*
X139315001Y-104013000D02*
X128397000Y-104013000D01*
X128397000Y-94107000D01*
X139315001Y-94107000D01*
X139315001Y-104013000D01*
G36*
X129318401Y-36004135D02*
G01*
X129323582Y-37009273D01*
X129163810Y-37248389D01*
X129051868Y-37518642D01*
X128994800Y-37805540D01*
X128994800Y-38098060D01*
X129051868Y-38384958D01*
X129163810Y-38655211D01*
X129326325Y-38898432D01*
X129333356Y-38905463D01*
X129348842Y-41909632D01*
X125875916Y-41899609D01*
X125704939Y-41865600D01*
X125501061Y-41865600D01*
X125337891Y-41898056D01*
X120801749Y-41884965D01*
X120771308Y-35979468D01*
X129318401Y-36004135D01*
X129318401Y-36004135D01*
G37*
X129318401Y-36004135D02*
X129323582Y-37009273D01*
X129163810Y-37248389D01*
X129051868Y-37518642D01*
X128994800Y-37805540D01*
X128994800Y-38098060D01*
X129051868Y-38384958D01*
X129163810Y-38655211D01*
X129326325Y-38898432D01*
X129333356Y-38905463D01*
X129348842Y-41909632D01*
X125875916Y-41899609D01*
X125704939Y-41865600D01*
X125501061Y-41865600D01*
X125337891Y-41898056D01*
X120801749Y-41884965D01*
X120771308Y-35979468D01*
X129318401Y-36004135D01*
G36*
X139315001Y-77244671D02*
G01*
X139251831Y-77202463D01*
X138936081Y-77071675D01*
X138600883Y-77005000D01*
X138259117Y-77005000D01*
X137923919Y-77071675D01*
X137608169Y-77202463D01*
X137324002Y-77392337D01*
X137082337Y-77634002D01*
X136892463Y-77918169D01*
X136761675Y-78233919D01*
X136695000Y-78569117D01*
X136695000Y-78910883D01*
X136761675Y-79246081D01*
X136892463Y-79561831D01*
X137082337Y-79845998D01*
X137324002Y-80087663D01*
X137608169Y-80277537D01*
X137923919Y-80408325D01*
X138259117Y-80475000D01*
X138600883Y-80475000D01*
X138936081Y-80408325D01*
X139251831Y-80277537D01*
X139315001Y-80235329D01*
X139315001Y-92989400D01*
X127787400Y-92989400D01*
X127762624Y-92991840D01*
X127738799Y-92999067D01*
X127716843Y-93010803D01*
X127697597Y-93026597D01*
X127681803Y-93045843D01*
X127670067Y-93067799D01*
X127662840Y-93091624D01*
X127660400Y-93116132D01*
X127635000Y-105155732D01*
X127637388Y-105180514D01*
X127644565Y-105204353D01*
X127656255Y-105226334D01*
X127672008Y-105245613D01*
X127691220Y-105261448D01*
X127713152Y-105273230D01*
X127736961Y-105280507D01*
X127759892Y-105282983D01*
X137411689Y-105443179D01*
X137386696Y-105503517D01*
X137345000Y-105713137D01*
X137345000Y-105926863D01*
X137386696Y-106136483D01*
X137468485Y-106333940D01*
X137587225Y-106511647D01*
X137738353Y-106662775D01*
X137916060Y-106781515D01*
X138113517Y-106863304D01*
X138323137Y-106905000D01*
X138536863Y-106905000D01*
X138746483Y-106863304D01*
X138943940Y-106781515D01*
X139121647Y-106662775D01*
X139272775Y-106511647D01*
X139315001Y-106448452D01*
X139315001Y-111991548D01*
X139272775Y-111928353D01*
X139121647Y-111777225D01*
X138943940Y-111658485D01*
X138746483Y-111576696D01*
X138536863Y-111535000D01*
X138323137Y-111535000D01*
X138113517Y-111576696D01*
X137916060Y-111658485D01*
X137738353Y-111777225D01*
X137587225Y-111928353D01*
X137468485Y-112106060D01*
X137386696Y-112303517D01*
X137345000Y-112513137D01*
X137345000Y-112726863D01*
X137386696Y-112936483D01*
X137468485Y-113133940D01*
X137587225Y-113311647D01*
X137738353Y-113462775D01*
X137916060Y-113581515D01*
X138113517Y-113663304D01*
X138323137Y-113705000D01*
X138536863Y-113705000D01*
X138746483Y-113663304D01*
X138943940Y-113581515D01*
X139121647Y-113462775D01*
X139272775Y-113311647D01*
X139315001Y-113248451D01*
X139315001Y-124315000D01*
X120685000Y-124315000D01*
X120685000Y-123138661D01*
X120814002Y-123267663D01*
X121098169Y-123457537D01*
X121413919Y-123588325D01*
X121749117Y-123655000D01*
X122090883Y-123655000D01*
X122426081Y-123588325D01*
X122741831Y-123457537D01*
X123025998Y-123267663D01*
X123267663Y-123025998D01*
X123457537Y-122741831D01*
X123588325Y-122426081D01*
X123596655Y-122384200D01*
X127050328Y-122384200D01*
X127062588Y-122508682D01*
X127098898Y-122628380D01*
X127157863Y-122738694D01*
X127237215Y-122835385D01*
X127333906Y-122914737D01*
X127444220Y-122973702D01*
X127563918Y-123010012D01*
X127688400Y-123022272D01*
X129152650Y-123019200D01*
X129311400Y-122860450D01*
X129311400Y-121011200D01*
X129565400Y-121011200D01*
X129565400Y-122860450D01*
X129724150Y-123019200D01*
X131188400Y-123022272D01*
X131312882Y-123010012D01*
X131432580Y-122973702D01*
X131542894Y-122914737D01*
X131639585Y-122835385D01*
X131718937Y-122738694D01*
X131777902Y-122628380D01*
X131814212Y-122508682D01*
X131826472Y-122384200D01*
X131823400Y-121169950D01*
X131664650Y-121011200D01*
X129565400Y-121011200D01*
X129311400Y-121011200D01*
X127212150Y-121011200D01*
X127053400Y-121169950D01*
X127050328Y-122384200D01*
X123596655Y-122384200D01*
X123655000Y-122090883D01*
X123655000Y-121749117D01*
X123588325Y-121413919D01*
X123457537Y-121098169D01*
X123267663Y-120814002D01*
X123025998Y-120572337D01*
X122741831Y-120382463D01*
X122426081Y-120251675D01*
X122090883Y-120185000D01*
X121749117Y-120185000D01*
X121413919Y-120251675D01*
X121098169Y-120382463D01*
X120814002Y-120572337D01*
X120685000Y-120701339D01*
X120685000Y-119384200D01*
X127050328Y-119384200D01*
X127053400Y-120598450D01*
X127212150Y-120757200D01*
X129311400Y-120757200D01*
X129311400Y-118907950D01*
X129565400Y-118907950D01*
X129565400Y-120757200D01*
X131664650Y-120757200D01*
X131823400Y-120598450D01*
X131826472Y-119384200D01*
X131814212Y-119259718D01*
X131777902Y-119140020D01*
X131718937Y-119029706D01*
X131639585Y-118933015D01*
X131542894Y-118853663D01*
X131432580Y-118794698D01*
X131312882Y-118758388D01*
X131188400Y-118746128D01*
X129724150Y-118749200D01*
X129565400Y-118907950D01*
X129311400Y-118907950D01*
X129152650Y-118749200D01*
X127688400Y-118746128D01*
X127563918Y-118758388D01*
X127444220Y-118794698D01*
X127333906Y-118853663D01*
X127237215Y-118933015D01*
X127157863Y-119029706D01*
X127098898Y-119140020D01*
X127062588Y-119259718D01*
X127050328Y-119384200D01*
X120685000Y-119384200D01*
X120685000Y-113134200D01*
X127050328Y-113134200D01*
X127050328Y-116634200D01*
X127062588Y-116758682D01*
X127098898Y-116878380D01*
X127157863Y-116988694D01*
X127237215Y-117085385D01*
X127333906Y-117164737D01*
X127444220Y-117223702D01*
X127563918Y-117260012D01*
X127688400Y-117272272D01*
X131188400Y-117272272D01*
X131312882Y-117260012D01*
X131432580Y-117223702D01*
X131542894Y-117164737D01*
X131639585Y-117085385D01*
X131718937Y-116988694D01*
X131759894Y-116912069D01*
X131750328Y-117009200D01*
X131750328Y-118759200D01*
X131779401Y-119054386D01*
X131865504Y-119338228D01*
X132005327Y-119599818D01*
X132193497Y-119829103D01*
X132422782Y-120017273D01*
X132684372Y-120157096D01*
X132968214Y-120243199D01*
X133263400Y-120272272D01*
X135013400Y-120272272D01*
X135308586Y-120243199D01*
X135592428Y-120157096D01*
X135854018Y-120017273D01*
X136083303Y-119829103D01*
X136271473Y-119599818D01*
X136411296Y-119338228D01*
X136497399Y-119054386D01*
X136526472Y-118759200D01*
X136526472Y-117009200D01*
X136497399Y-116714014D01*
X136411296Y-116430172D01*
X136271473Y-116168582D01*
X136083303Y-115939297D01*
X135854018Y-115751127D01*
X135592428Y-115611304D01*
X135308586Y-115525201D01*
X135013400Y-115496128D01*
X133263400Y-115496128D01*
X132968214Y-115525201D01*
X132684372Y-115611304D01*
X132422782Y-115751127D01*
X132193497Y-115939297D01*
X132005327Y-116168582D01*
X131865504Y-116430172D01*
X131826472Y-116558843D01*
X131826472Y-113134200D01*
X131814212Y-113009718D01*
X131777902Y-112890020D01*
X131718937Y-112779706D01*
X131639585Y-112683015D01*
X131542894Y-112603663D01*
X131432580Y-112544698D01*
X131312882Y-112508388D01*
X131188400Y-112496128D01*
X127688400Y-112496128D01*
X127563918Y-112508388D01*
X127444220Y-112544698D01*
X127333906Y-112603663D01*
X127237215Y-112683015D01*
X127157863Y-112779706D01*
X127098898Y-112890020D01*
X127062588Y-113009718D01*
X127050328Y-113134200D01*
X120685000Y-113134200D01*
X120685000Y-92259717D01*
X123334600Y-92259717D01*
X123334600Y-92601483D01*
X123401275Y-92936681D01*
X123532063Y-93252431D01*
X123721937Y-93536598D01*
X123963602Y-93778263D01*
X124247769Y-93968137D01*
X124563519Y-94098925D01*
X124898717Y-94165600D01*
X125240483Y-94165600D01*
X125575681Y-94098925D01*
X125891431Y-93968137D01*
X126175598Y-93778263D01*
X126417263Y-93536598D01*
X126607137Y-93252431D01*
X126737925Y-92936681D01*
X126804600Y-92601483D01*
X126804600Y-92259717D01*
X126737925Y-91924519D01*
X126607137Y-91608769D01*
X126417263Y-91324602D01*
X126175598Y-91082937D01*
X125891431Y-90893063D01*
X125575681Y-90762275D01*
X125240483Y-90695600D01*
X124898717Y-90695600D01*
X124563519Y-90762275D01*
X124247769Y-90893063D01*
X123963602Y-91082937D01*
X123721937Y-91324602D01*
X123532063Y-91608769D01*
X123401275Y-91924519D01*
X123334600Y-92259717D01*
X120685000Y-92259717D01*
X120685000Y-88811576D01*
X120929495Y-88885743D01*
X121250010Y-88917311D01*
X121570526Y-88885743D01*
X121878725Y-88792252D01*
X122162762Y-88640431D01*
X122411724Y-88436114D01*
X122616041Y-88187152D01*
X122767862Y-87903114D01*
X122861353Y-87594915D01*
X122885010Y-87354721D01*
X122885010Y-83697121D01*
X122892921Y-83616800D01*
X122885010Y-83536478D01*
X122885010Y-78036479D01*
X122953744Y-78082405D01*
X123142102Y-78160426D01*
X123342061Y-78200200D01*
X123545939Y-78200200D01*
X123745898Y-78160426D01*
X123934256Y-78082405D01*
X124103774Y-77969137D01*
X124247937Y-77824974D01*
X124361205Y-77655456D01*
X124439226Y-77467098D01*
X124479000Y-77267139D01*
X124479000Y-77189426D01*
X124549545Y-77057448D01*
X124593002Y-76914187D01*
X124603999Y-76802534D01*
X124603999Y-76802524D01*
X124607675Y-76765202D01*
X124603999Y-76727879D01*
X124603999Y-73555859D01*
X124704718Y-73586412D01*
X124829200Y-73598672D01*
X126529200Y-73598672D01*
X126653682Y-73586412D01*
X126773380Y-73550102D01*
X126883694Y-73491137D01*
X126980385Y-73411785D01*
X127059737Y-73315094D01*
X127118702Y-73204780D01*
X127139593Y-73135913D01*
X127164066Y-73165734D01*
X127390186Y-73351306D01*
X127648166Y-73489199D01*
X127928089Y-73574113D01*
X128146250Y-73595600D01*
X128292150Y-73595600D01*
X128510311Y-73574113D01*
X128790234Y-73489199D01*
X129048214Y-73351306D01*
X129274334Y-73165734D01*
X129459906Y-72939614D01*
X129489200Y-72884809D01*
X129518494Y-72939614D01*
X129704066Y-73165734D01*
X129930186Y-73351306D01*
X130188166Y-73489199D01*
X130468089Y-73574113D01*
X130686250Y-73595600D01*
X130832150Y-73595600D01*
X131050311Y-73574113D01*
X131330234Y-73489199D01*
X131588214Y-73351306D01*
X131814334Y-73165734D01*
X131999906Y-72939614D01*
X132034401Y-72875077D01*
X132104022Y-72991955D01*
X132298931Y-73208188D01*
X132532280Y-73382241D01*
X132795101Y-73507425D01*
X132942310Y-73552076D01*
X133172200Y-73430755D01*
X133172200Y-72237600D01*
X133426200Y-72237600D01*
X133426200Y-73430755D01*
X133656090Y-73552076D01*
X133803299Y-73507425D01*
X134066120Y-73382241D01*
X134299469Y-73208188D01*
X134494378Y-72991955D01*
X134643357Y-72741852D01*
X134740681Y-72467491D01*
X134620014Y-72237600D01*
X133426200Y-72237600D01*
X133172200Y-72237600D01*
X133152200Y-72237600D01*
X133152200Y-71983600D01*
X133172200Y-71983600D01*
X133172200Y-71963600D01*
X133426200Y-71963600D01*
X133426200Y-71983600D01*
X134620014Y-71983600D01*
X134740681Y-71753709D01*
X134643357Y-71479348D01*
X134494378Y-71229245D01*
X134299469Y-71013012D01*
X134066120Y-70838959D01*
X133803299Y-70713775D01*
X133770964Y-70703967D01*
X137595588Y-66879344D01*
X137701884Y-66749823D01*
X137807276Y-66552647D01*
X137872177Y-66338699D01*
X137881955Y-66239424D01*
X139315000Y-64806378D01*
X139315001Y-77244671D01*
X139315001Y-77244671D01*
G37*
X139315001Y-77244671D02*
X139251831Y-77202463D01*
X138936081Y-77071675D01*
X138600883Y-77005000D01*
X138259117Y-77005000D01*
X137923919Y-77071675D01*
X137608169Y-77202463D01*
X137324002Y-77392337D01*
X137082337Y-77634002D01*
X136892463Y-77918169D01*
X136761675Y-78233919D01*
X136695000Y-78569117D01*
X136695000Y-78910883D01*
X136761675Y-79246081D01*
X136892463Y-79561831D01*
X137082337Y-79845998D01*
X137324002Y-80087663D01*
X137608169Y-80277537D01*
X137923919Y-80408325D01*
X138259117Y-80475000D01*
X138600883Y-80475000D01*
X138936081Y-80408325D01*
X139251831Y-80277537D01*
X139315001Y-80235329D01*
X139315001Y-92989400D01*
X127787400Y-92989400D01*
X127762624Y-92991840D01*
X127738799Y-92999067D01*
X127716843Y-93010803D01*
X127697597Y-93026597D01*
X127681803Y-93045843D01*
X127670067Y-93067799D01*
X127662840Y-93091624D01*
X127660400Y-93116132D01*
X127635000Y-105155732D01*
X127637388Y-105180514D01*
X127644565Y-105204353D01*
X127656255Y-105226334D01*
X127672008Y-105245613D01*
X127691220Y-105261448D01*
X127713152Y-105273230D01*
X127736961Y-105280507D01*
X127759892Y-105282983D01*
X137411689Y-105443179D01*
X137386696Y-105503517D01*
X137345000Y-105713137D01*
X137345000Y-105926863D01*
X137386696Y-106136483D01*
X137468485Y-106333940D01*
X137587225Y-106511647D01*
X137738353Y-106662775D01*
X137916060Y-106781515D01*
X138113517Y-106863304D01*
X138323137Y-106905000D01*
X138536863Y-106905000D01*
X138746483Y-106863304D01*
X138943940Y-106781515D01*
X139121647Y-106662775D01*
X139272775Y-106511647D01*
X139315001Y-106448452D01*
X139315001Y-111991548D01*
X139272775Y-111928353D01*
X139121647Y-111777225D01*
X138943940Y-111658485D01*
X138746483Y-111576696D01*
X138536863Y-111535000D01*
X138323137Y-111535000D01*
X138113517Y-111576696D01*
X137916060Y-111658485D01*
X137738353Y-111777225D01*
X137587225Y-111928353D01*
X137468485Y-112106060D01*
X137386696Y-112303517D01*
X137345000Y-112513137D01*
X137345000Y-112726863D01*
X137386696Y-112936483D01*
X137468485Y-113133940D01*
X137587225Y-113311647D01*
X137738353Y-113462775D01*
X137916060Y-113581515D01*
X138113517Y-113663304D01*
X138323137Y-113705000D01*
X138536863Y-113705000D01*
X138746483Y-113663304D01*
X138943940Y-113581515D01*
X139121647Y-113462775D01*
X139272775Y-113311647D01*
X139315001Y-113248451D01*
X139315001Y-124315000D01*
X120685000Y-124315000D01*
X120685000Y-123138661D01*
X120814002Y-123267663D01*
X121098169Y-123457537D01*
X121413919Y-123588325D01*
X121749117Y-123655000D01*
X122090883Y-123655000D01*
X122426081Y-123588325D01*
X122741831Y-123457537D01*
X123025998Y-123267663D01*
X123267663Y-123025998D01*
X123457537Y-122741831D01*
X123588325Y-122426081D01*
X123596655Y-122384200D01*
X127050328Y-122384200D01*
X127062588Y-122508682D01*
X127098898Y-122628380D01*
X127157863Y-122738694D01*
X127237215Y-122835385D01*
X127333906Y-122914737D01*
X127444220Y-122973702D01*
X127563918Y-123010012D01*
X127688400Y-123022272D01*
X129152650Y-123019200D01*
X129311400Y-122860450D01*
X129311400Y-121011200D01*
X129565400Y-121011200D01*
X129565400Y-122860450D01*
X129724150Y-123019200D01*
X131188400Y-123022272D01*
X131312882Y-123010012D01*
X131432580Y-122973702D01*
X131542894Y-122914737D01*
X131639585Y-122835385D01*
X131718937Y-122738694D01*
X131777902Y-122628380D01*
X131814212Y-122508682D01*
X131826472Y-122384200D01*
X131823400Y-121169950D01*
X131664650Y-121011200D01*
X129565400Y-121011200D01*
X129311400Y-121011200D01*
X127212150Y-121011200D01*
X127053400Y-121169950D01*
X127050328Y-122384200D01*
X123596655Y-122384200D01*
X123655000Y-122090883D01*
X123655000Y-121749117D01*
X123588325Y-121413919D01*
X123457537Y-121098169D01*
X123267663Y-120814002D01*
X123025998Y-120572337D01*
X122741831Y-120382463D01*
X122426081Y-120251675D01*
X122090883Y-120185000D01*
X121749117Y-120185000D01*
X121413919Y-120251675D01*
X121098169Y-120382463D01*
X120814002Y-120572337D01*
X120685000Y-120701339D01*
X120685000Y-119384200D01*
X127050328Y-119384200D01*
X127053400Y-120598450D01*
X127212150Y-120757200D01*
X129311400Y-120757200D01*
X129311400Y-118907950D01*
X129565400Y-118907950D01*
X129565400Y-120757200D01*
X131664650Y-120757200D01*
X131823400Y-120598450D01*
X131826472Y-119384200D01*
X131814212Y-119259718D01*
X131777902Y-119140020D01*
X131718937Y-119029706D01*
X131639585Y-118933015D01*
X131542894Y-118853663D01*
X131432580Y-118794698D01*
X131312882Y-118758388D01*
X131188400Y-118746128D01*
X129724150Y-118749200D01*
X129565400Y-118907950D01*
X129311400Y-118907950D01*
X129152650Y-118749200D01*
X127688400Y-118746128D01*
X127563918Y-118758388D01*
X127444220Y-118794698D01*
X127333906Y-118853663D01*
X127237215Y-118933015D01*
X127157863Y-119029706D01*
X127098898Y-119140020D01*
X127062588Y-119259718D01*
X127050328Y-119384200D01*
X120685000Y-119384200D01*
X120685000Y-113134200D01*
X127050328Y-113134200D01*
X127050328Y-116634200D01*
X127062588Y-116758682D01*
X127098898Y-116878380D01*
X127157863Y-116988694D01*
X127237215Y-117085385D01*
X127333906Y-117164737D01*
X127444220Y-117223702D01*
X127563918Y-117260012D01*
X127688400Y-117272272D01*
X131188400Y-117272272D01*
X131312882Y-117260012D01*
X131432580Y-117223702D01*
X131542894Y-117164737D01*
X131639585Y-117085385D01*
X131718937Y-116988694D01*
X131759894Y-116912069D01*
X131750328Y-117009200D01*
X131750328Y-118759200D01*
X131779401Y-119054386D01*
X131865504Y-119338228D01*
X132005327Y-119599818D01*
X132193497Y-119829103D01*
X132422782Y-120017273D01*
X132684372Y-120157096D01*
X132968214Y-120243199D01*
X133263400Y-120272272D01*
X135013400Y-120272272D01*
X135308586Y-120243199D01*
X135592428Y-120157096D01*
X135854018Y-120017273D01*
X136083303Y-119829103D01*
X136271473Y-119599818D01*
X136411296Y-119338228D01*
X136497399Y-119054386D01*
X136526472Y-118759200D01*
X136526472Y-117009200D01*
X136497399Y-116714014D01*
X136411296Y-116430172D01*
X136271473Y-116168582D01*
X136083303Y-115939297D01*
X135854018Y-115751127D01*
X135592428Y-115611304D01*
X135308586Y-115525201D01*
X135013400Y-115496128D01*
X133263400Y-115496128D01*
X132968214Y-115525201D01*
X132684372Y-115611304D01*
X132422782Y-115751127D01*
X132193497Y-115939297D01*
X132005327Y-116168582D01*
X131865504Y-116430172D01*
X131826472Y-116558843D01*
X131826472Y-113134200D01*
X131814212Y-113009718D01*
X131777902Y-112890020D01*
X131718937Y-112779706D01*
X131639585Y-112683015D01*
X131542894Y-112603663D01*
X131432580Y-112544698D01*
X131312882Y-112508388D01*
X131188400Y-112496128D01*
X127688400Y-112496128D01*
X127563918Y-112508388D01*
X127444220Y-112544698D01*
X127333906Y-112603663D01*
X127237215Y-112683015D01*
X127157863Y-112779706D01*
X127098898Y-112890020D01*
X127062588Y-113009718D01*
X127050328Y-113134200D01*
X120685000Y-113134200D01*
X120685000Y-92259717D01*
X123334600Y-92259717D01*
X123334600Y-92601483D01*
X123401275Y-92936681D01*
X123532063Y-93252431D01*
X123721937Y-93536598D01*
X123963602Y-93778263D01*
X124247769Y-93968137D01*
X124563519Y-94098925D01*
X124898717Y-94165600D01*
X125240483Y-94165600D01*
X125575681Y-94098925D01*
X125891431Y-93968137D01*
X126175598Y-93778263D01*
X126417263Y-93536598D01*
X126607137Y-93252431D01*
X126737925Y-92936681D01*
X126804600Y-92601483D01*
X126804600Y-92259717D01*
X126737925Y-91924519D01*
X126607137Y-91608769D01*
X126417263Y-91324602D01*
X126175598Y-91082937D01*
X125891431Y-90893063D01*
X125575681Y-90762275D01*
X125240483Y-90695600D01*
X124898717Y-90695600D01*
X124563519Y-90762275D01*
X124247769Y-90893063D01*
X123963602Y-91082937D01*
X123721937Y-91324602D01*
X123532063Y-91608769D01*
X123401275Y-91924519D01*
X123334600Y-92259717D01*
X120685000Y-92259717D01*
X120685000Y-88811576D01*
X120929495Y-88885743D01*
X121250010Y-88917311D01*
X121570526Y-88885743D01*
X121878725Y-88792252D01*
X122162762Y-88640431D01*
X122411724Y-88436114D01*
X122616041Y-88187152D01*
X122767862Y-87903114D01*
X122861353Y-87594915D01*
X122885010Y-87354721D01*
X122885010Y-83697121D01*
X122892921Y-83616800D01*
X122885010Y-83536478D01*
X122885010Y-78036479D01*
X122953744Y-78082405D01*
X123142102Y-78160426D01*
X123342061Y-78200200D01*
X123545939Y-78200200D01*
X123745898Y-78160426D01*
X123934256Y-78082405D01*
X124103774Y-77969137D01*
X124247937Y-77824974D01*
X124361205Y-77655456D01*
X124439226Y-77467098D01*
X124479000Y-77267139D01*
X124479000Y-77189426D01*
X124549545Y-77057448D01*
X124593002Y-76914187D01*
X124603999Y-76802534D01*
X124603999Y-76802524D01*
X124607675Y-76765202D01*
X124603999Y-76727879D01*
X124603999Y-73555859D01*
X124704718Y-73586412D01*
X124829200Y-73598672D01*
X126529200Y-73598672D01*
X126653682Y-73586412D01*
X126773380Y-73550102D01*
X126883694Y-73491137D01*
X126980385Y-73411785D01*
X127059737Y-73315094D01*
X127118702Y-73204780D01*
X127139593Y-73135913D01*
X127164066Y-73165734D01*
X127390186Y-73351306D01*
X127648166Y-73489199D01*
X127928089Y-73574113D01*
X128146250Y-73595600D01*
X128292150Y-73595600D01*
X128510311Y-73574113D01*
X128790234Y-73489199D01*
X129048214Y-73351306D01*
X129274334Y-73165734D01*
X129459906Y-72939614D01*
X129489200Y-72884809D01*
X129518494Y-72939614D01*
X129704066Y-73165734D01*
X129930186Y-73351306D01*
X130188166Y-73489199D01*
X130468089Y-73574113D01*
X130686250Y-73595600D01*
X130832150Y-73595600D01*
X131050311Y-73574113D01*
X131330234Y-73489199D01*
X131588214Y-73351306D01*
X131814334Y-73165734D01*
X131999906Y-72939614D01*
X132034401Y-72875077D01*
X132104022Y-72991955D01*
X132298931Y-73208188D01*
X132532280Y-73382241D01*
X132795101Y-73507425D01*
X132942310Y-73552076D01*
X133172200Y-73430755D01*
X133172200Y-72237600D01*
X133426200Y-72237600D01*
X133426200Y-73430755D01*
X133656090Y-73552076D01*
X133803299Y-73507425D01*
X134066120Y-73382241D01*
X134299469Y-73208188D01*
X134494378Y-72991955D01*
X134643357Y-72741852D01*
X134740681Y-72467491D01*
X134620014Y-72237600D01*
X133426200Y-72237600D01*
X133172200Y-72237600D01*
X133152200Y-72237600D01*
X133152200Y-71983600D01*
X133172200Y-71983600D01*
X133172200Y-71963600D01*
X133426200Y-71963600D01*
X133426200Y-71983600D01*
X134620014Y-71983600D01*
X134740681Y-71753709D01*
X134643357Y-71479348D01*
X134494378Y-71229245D01*
X134299469Y-71013012D01*
X134066120Y-70838959D01*
X133803299Y-70713775D01*
X133770964Y-70703967D01*
X137595588Y-66879344D01*
X137701884Y-66749823D01*
X137807276Y-66552647D01*
X137872177Y-66338699D01*
X137881955Y-66239424D01*
X139315000Y-64806378D01*
X139315001Y-77244671D01*
G36*
X139315000Y-26444671D02*
G01*
X139251831Y-26402463D01*
X138936081Y-26271675D01*
X138600883Y-26205000D01*
X138259117Y-26205000D01*
X137923919Y-26271675D01*
X137608169Y-26402463D01*
X137324002Y-26592337D01*
X137082337Y-26834002D01*
X136892463Y-27118169D01*
X136761675Y-27433919D01*
X136695000Y-27769117D01*
X136695000Y-28110883D01*
X136761675Y-28446081D01*
X136892463Y-28761831D01*
X137082337Y-29045998D01*
X137324002Y-29287663D01*
X137608169Y-29477537D01*
X137923919Y-29608325D01*
X138259117Y-29675000D01*
X138600883Y-29675000D01*
X138936081Y-29608325D01*
X139251831Y-29477537D01*
X139315000Y-29435329D01*
X139315000Y-54986906D01*
X136603648Y-52275555D01*
X136605826Y-52270298D01*
X136645600Y-52070339D01*
X136645600Y-51866461D01*
X136605826Y-51666502D01*
X136527805Y-51478144D01*
X136414537Y-51308626D01*
X136270374Y-51164463D01*
X136100856Y-51051195D01*
X135912498Y-50973174D01*
X135712539Y-50933400D01*
X135508661Y-50933400D01*
X135308702Y-50973174D01*
X135120344Y-51051195D01*
X134950826Y-51164463D01*
X134806663Y-51308626D01*
X134693395Y-51478144D01*
X134615374Y-51666502D01*
X134575600Y-51866461D01*
X134575600Y-52070339D01*
X134615374Y-52270298D01*
X134693395Y-52458656D01*
X134724206Y-52504768D01*
X134721319Y-52534085D01*
X134725600Y-52577554D01*
X134725600Y-52577562D01*
X134738405Y-52707575D01*
X134789011Y-52874398D01*
X134849308Y-52987205D01*
X134871190Y-53028144D01*
X134954068Y-53129131D01*
X134954071Y-53129134D01*
X134981784Y-53162902D01*
X135015551Y-53190614D01*
X138129200Y-56304264D01*
X138129201Y-63489020D01*
X136630376Y-64987845D01*
X136531101Y-64997623D01*
X136317153Y-65062524D01*
X136119977Y-65167916D01*
X135990456Y-65274212D01*
X131741319Y-69523349D01*
X131741600Y-69521939D01*
X131741600Y-69318061D01*
X131701826Y-69118102D01*
X131623805Y-68929744D01*
X131510537Y-68760226D01*
X131366374Y-68616063D01*
X131196856Y-68502795D01*
X131008498Y-68424774D01*
X130808539Y-68385000D01*
X130604661Y-68385000D01*
X130404702Y-68424774D01*
X130216344Y-68502795D01*
X130046826Y-68616063D01*
X130002889Y-68660000D01*
X126122120Y-68660000D01*
X126084797Y-68656324D01*
X126047474Y-68660000D01*
X126047465Y-68660000D01*
X125935812Y-68670997D01*
X125792551Y-68714454D01*
X125660522Y-68785026D01*
X125544797Y-68879999D01*
X125520999Y-68908997D01*
X123332997Y-71097000D01*
X123303999Y-71120798D01*
X123280201Y-71149796D01*
X123280200Y-71149797D01*
X123209025Y-71236523D01*
X123138453Y-71368553D01*
X123094997Y-71511814D01*
X123080323Y-71660799D01*
X123084000Y-71698131D01*
X123083999Y-76194041D01*
X122953744Y-76247995D01*
X122885010Y-76293921D01*
X122885010Y-67877131D01*
X122887663Y-67882094D01*
X122967015Y-67978785D01*
X123063706Y-68058137D01*
X123174020Y-68117102D01*
X123293718Y-68153412D01*
X123418200Y-68165672D01*
X125818200Y-68165672D01*
X125942682Y-68153412D01*
X126062380Y-68117102D01*
X126172694Y-68058137D01*
X126269385Y-67978785D01*
X126348737Y-67882094D01*
X126407702Y-67771780D01*
X126444012Y-67652082D01*
X126456272Y-67527600D01*
X126680128Y-67527600D01*
X126692388Y-67652082D01*
X126728698Y-67771780D01*
X126787663Y-67882094D01*
X126867015Y-67978785D01*
X126963706Y-68058137D01*
X127074020Y-68117102D01*
X127193718Y-68153412D01*
X127318200Y-68165672D01*
X128232450Y-68162600D01*
X128391200Y-68003850D01*
X128391200Y-67284600D01*
X128645200Y-67284600D01*
X128645200Y-68003850D01*
X128803950Y-68162600D01*
X129718200Y-68165672D01*
X129842682Y-68153412D01*
X129962380Y-68117102D01*
X130072694Y-68058137D01*
X130169385Y-67978785D01*
X130248737Y-67882094D01*
X130307702Y-67771780D01*
X130344012Y-67652082D01*
X130356272Y-67527600D01*
X130353200Y-67443350D01*
X130194450Y-67284600D01*
X128645200Y-67284600D01*
X128391200Y-67284600D01*
X126841950Y-67284600D01*
X126683200Y-67443350D01*
X126680128Y-67527600D01*
X126456272Y-67527600D01*
X126456272Y-66787600D01*
X126444012Y-66663118D01*
X126407702Y-66543420D01*
X126396573Y-66522600D01*
X126407702Y-66501780D01*
X126444012Y-66382082D01*
X126456272Y-66257600D01*
X126680128Y-66257600D01*
X126692388Y-66382082D01*
X126728698Y-66501780D01*
X126739827Y-66522600D01*
X126728698Y-66543420D01*
X126692388Y-66663118D01*
X126680128Y-66787600D01*
X126683200Y-66871850D01*
X126841950Y-67030600D01*
X128391200Y-67030600D01*
X128391200Y-66014600D01*
X128645200Y-66014600D01*
X128645200Y-67030600D01*
X130194450Y-67030600D01*
X130353200Y-66871850D01*
X130356272Y-66787600D01*
X130344012Y-66663118D01*
X130307702Y-66543420D01*
X130296573Y-66522600D01*
X130307702Y-66501780D01*
X130344012Y-66382082D01*
X130356272Y-66257600D01*
X130353200Y-66173350D01*
X130194450Y-66014600D01*
X128645200Y-66014600D01*
X128391200Y-66014600D01*
X126841950Y-66014600D01*
X126683200Y-66173350D01*
X126680128Y-66257600D01*
X126456272Y-66257600D01*
X126456272Y-65517600D01*
X126444012Y-65393118D01*
X126407702Y-65273420D01*
X126396573Y-65252600D01*
X126407702Y-65231780D01*
X126444012Y-65112082D01*
X126456272Y-64987600D01*
X126680128Y-64987600D01*
X126692388Y-65112082D01*
X126728698Y-65231780D01*
X126739827Y-65252600D01*
X126728698Y-65273420D01*
X126692388Y-65393118D01*
X126680128Y-65517600D01*
X126683200Y-65601850D01*
X126841950Y-65760600D01*
X128391200Y-65760600D01*
X128391200Y-64744600D01*
X128645200Y-64744600D01*
X128645200Y-65760600D01*
X130194450Y-65760600D01*
X130353200Y-65601850D01*
X130356272Y-65517600D01*
X130344012Y-65393118D01*
X130307702Y-65273420D01*
X130296573Y-65252600D01*
X130307702Y-65231780D01*
X130344012Y-65112082D01*
X130356272Y-64987600D01*
X130353200Y-64903350D01*
X130194450Y-64744600D01*
X128645200Y-64744600D01*
X128391200Y-64744600D01*
X126841950Y-64744600D01*
X126683200Y-64903350D01*
X126680128Y-64987600D01*
X126456272Y-64987600D01*
X126456272Y-64247600D01*
X126444012Y-64123118D01*
X126407702Y-64003420D01*
X126396573Y-63982600D01*
X126407702Y-63961780D01*
X126444012Y-63842082D01*
X126456272Y-63717600D01*
X126456272Y-62977600D01*
X126680128Y-62977600D01*
X126680128Y-63717600D01*
X126692388Y-63842082D01*
X126728698Y-63961780D01*
X126739827Y-63982600D01*
X126728698Y-64003420D01*
X126692388Y-64123118D01*
X126680128Y-64247600D01*
X126683200Y-64331850D01*
X126841950Y-64490600D01*
X128391200Y-64490600D01*
X128391200Y-64470600D01*
X128645200Y-64470600D01*
X128645200Y-64490600D01*
X130194450Y-64490600D01*
X130353200Y-64331850D01*
X130356272Y-64247600D01*
X130344012Y-64123118D01*
X130307702Y-64003420D01*
X130296573Y-63982600D01*
X130307702Y-63961780D01*
X130344012Y-63842082D01*
X130356272Y-63717600D01*
X130356272Y-62977600D01*
X130344012Y-62853118D01*
X130307702Y-62733420D01*
X130248737Y-62623106D01*
X130169385Y-62526415D01*
X130072694Y-62447063D01*
X129962380Y-62388098D01*
X129842682Y-62351788D01*
X129718200Y-62339528D01*
X127318200Y-62339528D01*
X127193718Y-62351788D01*
X127074020Y-62388098D01*
X126963706Y-62447063D01*
X126867015Y-62526415D01*
X126787663Y-62623106D01*
X126728698Y-62733420D01*
X126692388Y-62853118D01*
X126680128Y-62977600D01*
X126456272Y-62977600D01*
X126444012Y-62853118D01*
X126407702Y-62733420D01*
X126348737Y-62623106D01*
X126269385Y-62526415D01*
X126172694Y-62447063D01*
X126062380Y-62388098D01*
X125942682Y-62351788D01*
X125818200Y-62339528D01*
X125378200Y-62339528D01*
X125378200Y-56568953D01*
X125498498Y-56545024D01*
X125686856Y-56467003D01*
X125856374Y-56353735D01*
X126000537Y-56209572D01*
X126113805Y-56040054D01*
X126191826Y-55851696D01*
X126231600Y-55651737D01*
X126231600Y-55519250D01*
X126383914Y-55549547D01*
X126587792Y-55549547D01*
X126787751Y-55509773D01*
X126976109Y-55431752D01*
X127145627Y-55318484D01*
X127289790Y-55174321D01*
X127403058Y-55004803D01*
X127481079Y-54816445D01*
X127520853Y-54616486D01*
X127520853Y-54412608D01*
X127481079Y-54212649D01*
X127403058Y-54024291D01*
X127289790Y-53854773D01*
X127145627Y-53710610D01*
X126976109Y-53597342D01*
X126787751Y-53519321D01*
X126587792Y-53479547D01*
X126383914Y-53479547D01*
X126183955Y-53519321D01*
X125995597Y-53597342D01*
X125947399Y-53629547D01*
X124560894Y-53629547D01*
X124517425Y-53625266D01*
X124473956Y-53629547D01*
X124473948Y-53629547D01*
X124343935Y-53642352D01*
X124177112Y-53692958D01*
X124077130Y-53746399D01*
X124023366Y-53775136D01*
X123922378Y-53858015D01*
X123922376Y-53858017D01*
X123888608Y-53885730D01*
X123860895Y-53919498D01*
X122885010Y-54895384D01*
X122885010Y-53666078D01*
X122861353Y-53425884D01*
X122767862Y-53117685D01*
X122616041Y-52833648D01*
X122411724Y-52584686D01*
X122196486Y-52408045D01*
X123622941Y-50981591D01*
X123666249Y-50946049D01*
X123808084Y-50773223D01*
X123913476Y-50576047D01*
X123978377Y-50362099D01*
X123994800Y-50195352D01*
X124000291Y-50139600D01*
X123994800Y-50083848D01*
X123994800Y-49442831D01*
X125298715Y-48138917D01*
X125328255Y-48136008D01*
X125494851Y-48085472D01*
X125648387Y-48003405D01*
X125648777Y-48003085D01*
X125700506Y-48045537D01*
X125810820Y-48104502D01*
X125930518Y-48140812D01*
X126055000Y-48153072D01*
X126331750Y-48150000D01*
X126490500Y-47991250D01*
X126490500Y-47117000D01*
X126744500Y-47117000D01*
X126744500Y-47991250D01*
X126903250Y-48150000D01*
X127180000Y-48153072D01*
X127304482Y-48140812D01*
X127424180Y-48104502D01*
X127534494Y-48045537D01*
X127631185Y-47966185D01*
X127710537Y-47869494D01*
X127769502Y-47759180D01*
X127805812Y-47639482D01*
X127818072Y-47515000D01*
X127815000Y-47275750D01*
X127656250Y-47117000D01*
X126744500Y-47117000D01*
X126490500Y-47117000D01*
X126470500Y-47117000D01*
X126470500Y-46863000D01*
X126490500Y-46863000D01*
X126490500Y-45988750D01*
X126744500Y-45988750D01*
X126744500Y-46863000D01*
X127656250Y-46863000D01*
X127815000Y-46704250D01*
X127818072Y-46465000D01*
X127805812Y-46340518D01*
X127769502Y-46220820D01*
X127710537Y-46110506D01*
X127631185Y-46013815D01*
X127534494Y-45934463D01*
X127424180Y-45875498D01*
X127304482Y-45839188D01*
X127180000Y-45826928D01*
X126903250Y-45830000D01*
X126744500Y-45988750D01*
X126490500Y-45988750D01*
X126331750Y-45830000D01*
X126055000Y-45826928D01*
X125930518Y-45839188D01*
X125810820Y-45875498D01*
X125794438Y-45884255D01*
X125827500Y-45718039D01*
X125827500Y-45514161D01*
X125797644Y-45364061D01*
X128784400Y-45364061D01*
X128784400Y-45567939D01*
X128824174Y-45767898D01*
X128902195Y-45956256D01*
X129015463Y-46125774D01*
X129059401Y-46169712D01*
X129059400Y-61024278D01*
X129055724Y-61061600D01*
X129059400Y-61098922D01*
X129059400Y-61098932D01*
X129070397Y-61210585D01*
X129100250Y-61308999D01*
X129113854Y-61353846D01*
X129184426Y-61485876D01*
X129224271Y-61534426D01*
X129279399Y-61601601D01*
X129308403Y-61625404D01*
X131959400Y-64276402D01*
X131959400Y-64338539D01*
X131999174Y-64538498D01*
X132077195Y-64726856D01*
X132190463Y-64896374D01*
X132334626Y-65040537D01*
X132504144Y-65153805D01*
X132692502Y-65231826D01*
X132892461Y-65271600D01*
X133096339Y-65271600D01*
X133296298Y-65231826D01*
X133484656Y-65153805D01*
X133654174Y-65040537D01*
X133798337Y-64896374D01*
X133911605Y-64726856D01*
X133989626Y-64538498D01*
X134029400Y-64338539D01*
X134029400Y-64134661D01*
X133989626Y-63934702D01*
X133911605Y-63746344D01*
X133798337Y-63576826D01*
X133654174Y-63432663D01*
X133484656Y-63319395D01*
X133296298Y-63241374D01*
X133096339Y-63201600D01*
X133034202Y-63201600D01*
X130579400Y-60746799D01*
X130579400Y-46169711D01*
X130623337Y-46125774D01*
X130736605Y-45956256D01*
X130814626Y-45767898D01*
X130854400Y-45567939D01*
X130854400Y-45364061D01*
X130814626Y-45164102D01*
X130736605Y-44975744D01*
X130623337Y-44806226D01*
X130479174Y-44662063D01*
X130309656Y-44548795D01*
X130121298Y-44470774D01*
X129921339Y-44431000D01*
X129717461Y-44431000D01*
X129517502Y-44470774D01*
X129329144Y-44548795D01*
X129159626Y-44662063D01*
X129015463Y-44806226D01*
X128902195Y-44975744D01*
X128824174Y-45164102D01*
X128784400Y-45364061D01*
X125797644Y-45364061D01*
X125787726Y-45314202D01*
X125709705Y-45125844D01*
X125596437Y-44956326D01*
X125452274Y-44812163D01*
X125282756Y-44698895D01*
X125094398Y-44620874D01*
X124894439Y-44581100D01*
X124690561Y-44581100D01*
X124490602Y-44620874D01*
X124302244Y-44698895D01*
X124132726Y-44812163D01*
X123994800Y-44950089D01*
X123994800Y-42494200D01*
X126276946Y-42494200D01*
X126281144Y-42497005D01*
X126469502Y-42575026D01*
X126669461Y-42614800D01*
X126873339Y-42614800D01*
X127073298Y-42575026D01*
X127261656Y-42497005D01*
X127265854Y-42494200D01*
X128418493Y-42494200D01*
X128552302Y-42549626D01*
X128752261Y-42589400D01*
X128956139Y-42589400D01*
X129156098Y-42549626D01*
X129289907Y-42494200D01*
X133135647Y-42494200D01*
X133160423Y-42491760D01*
X133184248Y-42484533D01*
X133206204Y-42472797D01*
X133225450Y-42457003D01*
X133241244Y-42437757D01*
X133252980Y-42415801D01*
X133260207Y-42391976D01*
X133262647Y-42367200D01*
X133260263Y-42342707D01*
X131849016Y-35162677D01*
X131841843Y-35138836D01*
X131830157Y-35116853D01*
X131814406Y-35097572D01*
X131795197Y-35081734D01*
X131773267Y-35069948D01*
X131749459Y-35062667D01*
X131724400Y-35060170D01*
X120685000Y-35060170D01*
X120685000Y-30805540D01*
X128994800Y-30805540D01*
X128994800Y-31098060D01*
X129051868Y-31384958D01*
X129163810Y-31655211D01*
X129326325Y-31898432D01*
X129533168Y-32105275D01*
X129776389Y-32267790D01*
X130046642Y-32379732D01*
X130333540Y-32436800D01*
X130626060Y-32436800D01*
X130912958Y-32379732D01*
X131183211Y-32267790D01*
X131426432Y-32105275D01*
X131633275Y-31898432D01*
X131795790Y-31655211D01*
X131907732Y-31384958D01*
X131964800Y-31098060D01*
X131964800Y-30805540D01*
X131907732Y-30518642D01*
X131795790Y-30248389D01*
X131633275Y-30005168D01*
X131426432Y-29798325D01*
X131183211Y-29635810D01*
X130912958Y-29523868D01*
X130626060Y-29466800D01*
X130333540Y-29466800D01*
X130046642Y-29523868D01*
X129776389Y-29635810D01*
X129533168Y-29798325D01*
X129326325Y-30005168D01*
X129163810Y-30248389D01*
X129051868Y-30518642D01*
X128994800Y-30805540D01*
X120685000Y-30805540D01*
X120685000Y-25685000D01*
X139315000Y-25685000D01*
X139315000Y-26444671D01*
X139315000Y-26444671D01*
G37*
X139315000Y-26444671D02*
X139251831Y-26402463D01*
X138936081Y-26271675D01*
X138600883Y-26205000D01*
X138259117Y-26205000D01*
X137923919Y-26271675D01*
X137608169Y-26402463D01*
X137324002Y-26592337D01*
X137082337Y-26834002D01*
X136892463Y-27118169D01*
X136761675Y-27433919D01*
X136695000Y-27769117D01*
X136695000Y-28110883D01*
X136761675Y-28446081D01*
X136892463Y-28761831D01*
X137082337Y-29045998D01*
X137324002Y-29287663D01*
X137608169Y-29477537D01*
X137923919Y-29608325D01*
X138259117Y-29675000D01*
X138600883Y-29675000D01*
X138936081Y-29608325D01*
X139251831Y-29477537D01*
X139315000Y-29435329D01*
X139315000Y-54986906D01*
X136603648Y-52275555D01*
X136605826Y-52270298D01*
X136645600Y-52070339D01*
X136645600Y-51866461D01*
X136605826Y-51666502D01*
X136527805Y-51478144D01*
X136414537Y-51308626D01*
X136270374Y-51164463D01*
X136100856Y-51051195D01*
X135912498Y-50973174D01*
X135712539Y-50933400D01*
X135508661Y-50933400D01*
X135308702Y-50973174D01*
X135120344Y-51051195D01*
X134950826Y-51164463D01*
X134806663Y-51308626D01*
X134693395Y-51478144D01*
X134615374Y-51666502D01*
X134575600Y-51866461D01*
X134575600Y-52070339D01*
X134615374Y-52270298D01*
X134693395Y-52458656D01*
X134724206Y-52504768D01*
X134721319Y-52534085D01*
X134725600Y-52577554D01*
X134725600Y-52577562D01*
X134738405Y-52707575D01*
X134789011Y-52874398D01*
X134849308Y-52987205D01*
X134871190Y-53028144D01*
X134954068Y-53129131D01*
X134954071Y-53129134D01*
X134981784Y-53162902D01*
X135015551Y-53190614D01*
X138129200Y-56304264D01*
X138129201Y-63489020D01*
X136630376Y-64987845D01*
X136531101Y-64997623D01*
X136317153Y-65062524D01*
X136119977Y-65167916D01*
X135990456Y-65274212D01*
X131741319Y-69523349D01*
X131741600Y-69521939D01*
X131741600Y-69318061D01*
X131701826Y-69118102D01*
X131623805Y-68929744D01*
X131510537Y-68760226D01*
X131366374Y-68616063D01*
X131196856Y-68502795D01*
X131008498Y-68424774D01*
X130808539Y-68385000D01*
X130604661Y-68385000D01*
X130404702Y-68424774D01*
X130216344Y-68502795D01*
X130046826Y-68616063D01*
X130002889Y-68660000D01*
X126122120Y-68660000D01*
X126084797Y-68656324D01*
X126047474Y-68660000D01*
X126047465Y-68660000D01*
X125935812Y-68670997D01*
X125792551Y-68714454D01*
X125660522Y-68785026D01*
X125544797Y-68879999D01*
X125520999Y-68908997D01*
X123332997Y-71097000D01*
X123303999Y-71120798D01*
X123280201Y-71149796D01*
X123280200Y-71149797D01*
X123209025Y-71236523D01*
X123138453Y-71368553D01*
X123094997Y-71511814D01*
X123080323Y-71660799D01*
X123084000Y-71698131D01*
X123083999Y-76194041D01*
X122953744Y-76247995D01*
X122885010Y-76293921D01*
X122885010Y-67877131D01*
X122887663Y-67882094D01*
X122967015Y-67978785D01*
X123063706Y-68058137D01*
X123174020Y-68117102D01*
X123293718Y-68153412D01*
X123418200Y-68165672D01*
X125818200Y-68165672D01*
X125942682Y-68153412D01*
X126062380Y-68117102D01*
X126172694Y-68058137D01*
X126269385Y-67978785D01*
X126348737Y-67882094D01*
X126407702Y-67771780D01*
X126444012Y-67652082D01*
X126456272Y-67527600D01*
X126680128Y-67527600D01*
X126692388Y-67652082D01*
X126728698Y-67771780D01*
X126787663Y-67882094D01*
X126867015Y-67978785D01*
X126963706Y-68058137D01*
X127074020Y-68117102D01*
X127193718Y-68153412D01*
X127318200Y-68165672D01*
X128232450Y-68162600D01*
X128391200Y-68003850D01*
X128391200Y-67284600D01*
X128645200Y-67284600D01*
X128645200Y-68003850D01*
X128803950Y-68162600D01*
X129718200Y-68165672D01*
X129842682Y-68153412D01*
X129962380Y-68117102D01*
X130072694Y-68058137D01*
X130169385Y-67978785D01*
X130248737Y-67882094D01*
X130307702Y-67771780D01*
X130344012Y-67652082D01*
X130356272Y-67527600D01*
X130353200Y-67443350D01*
X130194450Y-67284600D01*
X128645200Y-67284600D01*
X128391200Y-67284600D01*
X126841950Y-67284600D01*
X126683200Y-67443350D01*
X126680128Y-67527600D01*
X126456272Y-67527600D01*
X126456272Y-66787600D01*
X126444012Y-66663118D01*
X126407702Y-66543420D01*
X126396573Y-66522600D01*
X126407702Y-66501780D01*
X126444012Y-66382082D01*
X126456272Y-66257600D01*
X126680128Y-66257600D01*
X126692388Y-66382082D01*
X126728698Y-66501780D01*
X126739827Y-66522600D01*
X126728698Y-66543420D01*
X126692388Y-66663118D01*
X126680128Y-66787600D01*
X126683200Y-66871850D01*
X126841950Y-67030600D01*
X128391200Y-67030600D01*
X128391200Y-66014600D01*
X128645200Y-66014600D01*
X128645200Y-67030600D01*
X130194450Y-67030600D01*
X130353200Y-66871850D01*
X130356272Y-66787600D01*
X130344012Y-66663118D01*
X130307702Y-66543420D01*
X130296573Y-66522600D01*
X130307702Y-66501780D01*
X130344012Y-66382082D01*
X130356272Y-66257600D01*
X130353200Y-66173350D01*
X130194450Y-66014600D01*
X128645200Y-66014600D01*
X128391200Y-66014600D01*
X126841950Y-66014600D01*
X126683200Y-66173350D01*
X126680128Y-66257600D01*
X126456272Y-66257600D01*
X126456272Y-65517600D01*
X126444012Y-65393118D01*
X126407702Y-65273420D01*
X126396573Y-65252600D01*
X126407702Y-65231780D01*
X126444012Y-65112082D01*
X126456272Y-64987600D01*
X126680128Y-64987600D01*
X126692388Y-65112082D01*
X126728698Y-65231780D01*
X126739827Y-65252600D01*
X126728698Y-65273420D01*
X126692388Y-65393118D01*
X126680128Y-65517600D01*
X126683200Y-65601850D01*
X126841950Y-65760600D01*
X128391200Y-65760600D01*
X128391200Y-64744600D01*
X128645200Y-64744600D01*
X128645200Y-65760600D01*
X130194450Y-65760600D01*
X130353200Y-65601850D01*
X130356272Y-65517600D01*
X130344012Y-65393118D01*
X130307702Y-65273420D01*
X130296573Y-65252600D01*
X130307702Y-65231780D01*
X130344012Y-65112082D01*
X130356272Y-64987600D01*
X130353200Y-64903350D01*
X130194450Y-64744600D01*
X128645200Y-64744600D01*
X128391200Y-64744600D01*
X126841950Y-64744600D01*
X126683200Y-64903350D01*
X126680128Y-64987600D01*
X126456272Y-64987600D01*
X126456272Y-64247600D01*
X126444012Y-64123118D01*
X126407702Y-64003420D01*
X126396573Y-63982600D01*
X126407702Y-63961780D01*
X126444012Y-63842082D01*
X126456272Y-63717600D01*
X126456272Y-62977600D01*
X126680128Y-62977600D01*
X126680128Y-63717600D01*
X126692388Y-63842082D01*
X126728698Y-63961780D01*
X126739827Y-63982600D01*
X126728698Y-64003420D01*
X126692388Y-64123118D01*
X126680128Y-64247600D01*
X126683200Y-64331850D01*
X126841950Y-64490600D01*
X128391200Y-64490600D01*
X128391200Y-64470600D01*
X128645200Y-64470600D01*
X128645200Y-64490600D01*
X130194450Y-64490600D01*
X130353200Y-64331850D01*
X130356272Y-64247600D01*
X130344012Y-64123118D01*
X130307702Y-64003420D01*
X130296573Y-63982600D01*
X130307702Y-63961780D01*
X130344012Y-63842082D01*
X130356272Y-63717600D01*
X130356272Y-62977600D01*
X130344012Y-62853118D01*
X130307702Y-62733420D01*
X130248737Y-62623106D01*
X130169385Y-62526415D01*
X130072694Y-62447063D01*
X129962380Y-62388098D01*
X129842682Y-62351788D01*
X129718200Y-62339528D01*
X127318200Y-62339528D01*
X127193718Y-62351788D01*
X127074020Y-62388098D01*
X126963706Y-62447063D01*
X126867015Y-62526415D01*
X126787663Y-62623106D01*
X126728698Y-62733420D01*
X126692388Y-62853118D01*
X126680128Y-62977600D01*
X126456272Y-62977600D01*
X126444012Y-62853118D01*
X126407702Y-62733420D01*
X126348737Y-62623106D01*
X126269385Y-62526415D01*
X126172694Y-62447063D01*
X126062380Y-62388098D01*
X125942682Y-62351788D01*
X125818200Y-62339528D01*
X125378200Y-62339528D01*
X125378200Y-56568953D01*
X125498498Y-56545024D01*
X125686856Y-56467003D01*
X125856374Y-56353735D01*
X126000537Y-56209572D01*
X126113805Y-56040054D01*
X126191826Y-55851696D01*
X126231600Y-55651737D01*
X126231600Y-55519250D01*
X126383914Y-55549547D01*
X126587792Y-55549547D01*
X126787751Y-55509773D01*
X126976109Y-55431752D01*
X127145627Y-55318484D01*
X127289790Y-55174321D01*
X127403058Y-55004803D01*
X127481079Y-54816445D01*
X127520853Y-54616486D01*
X127520853Y-54412608D01*
X127481079Y-54212649D01*
X127403058Y-54024291D01*
X127289790Y-53854773D01*
X127145627Y-53710610D01*
X126976109Y-53597342D01*
X126787751Y-53519321D01*
X126587792Y-53479547D01*
X126383914Y-53479547D01*
X126183955Y-53519321D01*
X125995597Y-53597342D01*
X125947399Y-53629547D01*
X124560894Y-53629547D01*
X124517425Y-53625266D01*
X124473956Y-53629547D01*
X124473948Y-53629547D01*
X124343935Y-53642352D01*
X124177112Y-53692958D01*
X124077130Y-53746399D01*
X124023366Y-53775136D01*
X123922378Y-53858015D01*
X123922376Y-53858017D01*
X123888608Y-53885730D01*
X123860895Y-53919498D01*
X122885010Y-54895384D01*
X122885010Y-53666078D01*
X122861353Y-53425884D01*
X122767862Y-53117685D01*
X122616041Y-52833648D01*
X122411724Y-52584686D01*
X122196486Y-52408045D01*
X123622941Y-50981591D01*
X123666249Y-50946049D01*
X123808084Y-50773223D01*
X123913476Y-50576047D01*
X123978377Y-50362099D01*
X123994800Y-50195352D01*
X124000291Y-50139600D01*
X123994800Y-50083848D01*
X123994800Y-49442831D01*
X125298715Y-48138917D01*
X125328255Y-48136008D01*
X125494851Y-48085472D01*
X125648387Y-48003405D01*
X125648777Y-48003085D01*
X125700506Y-48045537D01*
X125810820Y-48104502D01*
X125930518Y-48140812D01*
X126055000Y-48153072D01*
X126331750Y-48150000D01*
X126490500Y-47991250D01*
X126490500Y-47117000D01*
X126744500Y-47117000D01*
X126744500Y-47991250D01*
X126903250Y-48150000D01*
X127180000Y-48153072D01*
X127304482Y-48140812D01*
X127424180Y-48104502D01*
X127534494Y-48045537D01*
X127631185Y-47966185D01*
X127710537Y-47869494D01*
X127769502Y-47759180D01*
X127805812Y-47639482D01*
X127818072Y-47515000D01*
X127815000Y-47275750D01*
X127656250Y-47117000D01*
X126744500Y-47117000D01*
X126490500Y-47117000D01*
X126470500Y-47117000D01*
X126470500Y-46863000D01*
X126490500Y-46863000D01*
X126490500Y-45988750D01*
X126744500Y-45988750D01*
X126744500Y-46863000D01*
X127656250Y-46863000D01*
X127815000Y-46704250D01*
X127818072Y-46465000D01*
X127805812Y-46340518D01*
X127769502Y-46220820D01*
X127710537Y-46110506D01*
X127631185Y-46013815D01*
X127534494Y-45934463D01*
X127424180Y-45875498D01*
X127304482Y-45839188D01*
X127180000Y-45826928D01*
X126903250Y-45830000D01*
X126744500Y-45988750D01*
X126490500Y-45988750D01*
X126331750Y-45830000D01*
X126055000Y-45826928D01*
X125930518Y-45839188D01*
X125810820Y-45875498D01*
X125794438Y-45884255D01*
X125827500Y-45718039D01*
X125827500Y-45514161D01*
X125797644Y-45364061D01*
X128784400Y-45364061D01*
X128784400Y-45567939D01*
X128824174Y-45767898D01*
X128902195Y-45956256D01*
X129015463Y-46125774D01*
X129059401Y-46169712D01*
X129059400Y-61024278D01*
X129055724Y-61061600D01*
X129059400Y-61098922D01*
X129059400Y-61098932D01*
X129070397Y-61210585D01*
X129100250Y-61308999D01*
X129113854Y-61353846D01*
X129184426Y-61485876D01*
X129224271Y-61534426D01*
X129279399Y-61601601D01*
X129308403Y-61625404D01*
X131959400Y-64276402D01*
X131959400Y-64338539D01*
X131999174Y-64538498D01*
X132077195Y-64726856D01*
X132190463Y-64896374D01*
X132334626Y-65040537D01*
X132504144Y-65153805D01*
X132692502Y-65231826D01*
X132892461Y-65271600D01*
X133096339Y-65271600D01*
X133296298Y-65231826D01*
X133484656Y-65153805D01*
X133654174Y-65040537D01*
X133798337Y-64896374D01*
X133911605Y-64726856D01*
X133989626Y-64538498D01*
X134029400Y-64338539D01*
X134029400Y-64134661D01*
X133989626Y-63934702D01*
X133911605Y-63746344D01*
X133798337Y-63576826D01*
X133654174Y-63432663D01*
X133484656Y-63319395D01*
X133296298Y-63241374D01*
X133096339Y-63201600D01*
X133034202Y-63201600D01*
X130579400Y-60746799D01*
X130579400Y-46169711D01*
X130623337Y-46125774D01*
X130736605Y-45956256D01*
X130814626Y-45767898D01*
X130854400Y-45567939D01*
X130854400Y-45364061D01*
X130814626Y-45164102D01*
X130736605Y-44975744D01*
X130623337Y-44806226D01*
X130479174Y-44662063D01*
X130309656Y-44548795D01*
X130121298Y-44470774D01*
X129921339Y-44431000D01*
X129717461Y-44431000D01*
X129517502Y-44470774D01*
X129329144Y-44548795D01*
X129159626Y-44662063D01*
X129015463Y-44806226D01*
X128902195Y-44975744D01*
X128824174Y-45164102D01*
X128784400Y-45364061D01*
X125797644Y-45364061D01*
X125787726Y-45314202D01*
X125709705Y-45125844D01*
X125596437Y-44956326D01*
X125452274Y-44812163D01*
X125282756Y-44698895D01*
X125094398Y-44620874D01*
X124894439Y-44581100D01*
X124690561Y-44581100D01*
X124490602Y-44620874D01*
X124302244Y-44698895D01*
X124132726Y-44812163D01*
X123994800Y-44950089D01*
X123994800Y-42494200D01*
X126276946Y-42494200D01*
X126281144Y-42497005D01*
X126469502Y-42575026D01*
X126669461Y-42614800D01*
X126873339Y-42614800D01*
X127073298Y-42575026D01*
X127261656Y-42497005D01*
X127265854Y-42494200D01*
X128418493Y-42494200D01*
X128552302Y-42549626D01*
X128752261Y-42589400D01*
X128956139Y-42589400D01*
X129156098Y-42549626D01*
X129289907Y-42494200D01*
X133135647Y-42494200D01*
X133160423Y-42491760D01*
X133184248Y-42484533D01*
X133206204Y-42472797D01*
X133225450Y-42457003D01*
X133241244Y-42437757D01*
X133252980Y-42415801D01*
X133260207Y-42391976D01*
X133262647Y-42367200D01*
X133260263Y-42342707D01*
X131849016Y-35162677D01*
X131841843Y-35138836D01*
X131830157Y-35116853D01*
X131814406Y-35097572D01*
X131795197Y-35081734D01*
X131773267Y-35069948D01*
X131749459Y-35062667D01*
X131724400Y-35060170D01*
X120685000Y-35060170D01*
X120685000Y-30805540D01*
X128994800Y-30805540D01*
X128994800Y-31098060D01*
X129051868Y-31384958D01*
X129163810Y-31655211D01*
X129326325Y-31898432D01*
X129533168Y-32105275D01*
X129776389Y-32267790D01*
X130046642Y-32379732D01*
X130333540Y-32436800D01*
X130626060Y-32436800D01*
X130912958Y-32379732D01*
X131183211Y-32267790D01*
X131426432Y-32105275D01*
X131633275Y-31898432D01*
X131795790Y-31655211D01*
X131907732Y-31384958D01*
X131964800Y-31098060D01*
X131964800Y-30805540D01*
X131907732Y-30518642D01*
X131795790Y-30248389D01*
X131633275Y-30005168D01*
X131426432Y-29798325D01*
X131183211Y-29635810D01*
X130912958Y-29523868D01*
X130626060Y-29466800D01*
X130333540Y-29466800D01*
X130046642Y-29523868D01*
X129776389Y-29635810D01*
X129533168Y-29798325D01*
X129326325Y-30005168D01*
X129163810Y-30248389D01*
X129051868Y-30518642D01*
X128994800Y-30805540D01*
X120685000Y-30805540D01*
X120685000Y-25685000D01*
X139315000Y-25685000D01*
X139315000Y-26444671D01*
G36*
X123858200Y-61328209D02*
G01*
X123765335Y-61189226D01*
X123621172Y-61045063D01*
X123451654Y-60931795D01*
X123263296Y-60853774D01*
X123063337Y-60814000D01*
X122885010Y-60814000D01*
X122885010Y-57216952D01*
X122951959Y-57216952D01*
X123151918Y-57177178D01*
X123340276Y-57099157D01*
X123509794Y-56985889D01*
X123653957Y-56841726D01*
X123767225Y-56672208D01*
X123845246Y-56483850D01*
X123856555Y-56426995D01*
X123858201Y-56425349D01*
X123858200Y-61328209D01*
X123858200Y-61328209D01*
G37*
X123858200Y-61328209D02*
X123765335Y-61189226D01*
X123621172Y-61045063D01*
X123451654Y-60931795D01*
X123263296Y-60853774D01*
X123063337Y-60814000D01*
X122885010Y-60814000D01*
X122885010Y-57216952D01*
X122951959Y-57216952D01*
X123151918Y-57177178D01*
X123340276Y-57099157D01*
X123509794Y-56985889D01*
X123653957Y-56841726D01*
X123767225Y-56672208D01*
X123845246Y-56483850D01*
X123856555Y-56426995D01*
X123858201Y-56425349D01*
X123858200Y-61328209D01*
M02*
