M48
; DRILL file {KiCad (5.1.0)-1} date 27.05.2019 20:51:46
; FORMAT={-:-/ absolute / inch / decimal}
; #@! TF.CreationDate,2019-05-27T20:51:46+02:00
; #@! TF.GenerationSoftware,Kicad,Pcbnew,(5.1.0)-1
; #@! TF.FileFunction,Plated,1,2,PTH
FMAT,2
INCH
T1C0.0157
T2C0.0394
%
G90
G05
T1
X4.761Y-2.05
X4.764Y-1.808
X4.771Y-4.438
X4.773Y-1.615
X4.773Y-4.263
X4.7736Y-3.292
X4.7736Y-3.3364
X4.7736Y-3.3804
X4.7736Y-3.4204
X4.774Y-1.323
X4.775Y-3.459
X4.785Y-1.449
X4.811Y-1.061
X4.812Y-1.532
X4.83Y-4.603
X4.832Y-4.268
X4.833Y-4.704
X4.8364Y-1.8234
X4.8366Y-2.2119
X4.84Y-1.624
X4.841Y-2.435
X4.845Y-4.425
X4.85Y-2.132
X4.853Y-3.098
X4.854Y-3.201
X4.854Y-3.32
X4.857Y-3.532
X4.858Y-1.449
X4.86Y-3.038
X4.861Y-3.422
X4.864Y-2.245
X4.87Y-3.905
X4.873Y-1.229
X4.874Y-1.169
X4.884Y-3.767
X4.886Y-1.105
X4.888Y-4.647
X4.89Y-2.004
X4.896Y-1.536
X4.899Y-1.615
X4.905Y-4.858
X4.9131Y-1.7959
X4.922Y-1.271
X4.923Y-4.413
X4.924Y-2.06
X4.927Y-1.45
X4.929Y-2.187
X4.936Y-1.089
X4.94Y-3.458
X4.941Y-4.359
X4.945Y-1.689
X4.951Y-3.806
X4.952Y-4.549
X4.958Y-3.282
X4.961Y-2.972
X4.963Y-3.134
X4.969Y-2.044
X4.9798Y-2.1462
X4.98Y-4.661
X4.98Y-4.733
X4.98Y-4.815
X4.986Y-1.905
X4.991Y-1.637
X4.993Y-4.869
X4.994Y-1.45
X5.001Y-1.269
X5.006Y-1.087
X5.025Y-3.377
X5.027Y-4.647
X5.036Y-3.036
X5.037Y-3.171
X5.046Y-3.558
X5.053Y-1.343
X5.055Y-1.796
X5.059Y-1.945
X5.062Y-3.234
X5.066Y-1.092
X5.069Y-1.693
X5.073Y-1.636
X5.074Y-1.264
X5.074Y-1.444
X5.079Y-1.546
X5.0802Y-2.688
X5.091Y-2.972
X5.093Y-1.136
X5.097Y-4.65
X5.098Y-4.88
X5.1Y-3.75
X5.1Y-3.808
X5.1Y-4.05
X5.105Y-3.17
X5.111Y-1.79
X5.134Y-3.031
X5.1459Y-2.7331
X5.148Y-3.369
X5.149Y-1.943
X5.15Y-3.8
X5.15Y-4.0
X5.151Y-4.656
X5.153Y-3.57
X5.183Y-4.874
X5.184Y-2.6
X5.193Y-2.122
X5.199Y-2.724
X5.2Y-3.75
X5.2Y-3.85
X5.2Y-3.95
X5.2Y-4.05
X5.208Y-4.745
X5.219Y-3.238
X5.22Y-3.42
X5.222Y-4.795
X5.223Y-3.526
X5.224Y-3.345
X5.225Y-1.931
X5.228Y-3.169
X5.236Y-2.529
X5.237Y-3.592
X5.244Y-1.101
X5.247Y-2.924
X5.254Y-1.595
X5.26Y-1.357
X5.263Y-2.125
X5.276Y-1.466
X5.28Y-1.93
X5.281Y-2.164
X5.283Y-1.762
X5.284Y-1.855
X5.3Y-3.75
X5.3Y-4.05
X5.3071Y-2.5154
X5.316Y-2.908
X5.318Y-2.112
X5.318Y-4.813
X5.329Y-1.063
X5.332Y-2.853
X5.333Y-1.365
X5.335Y-2.214
X5.337Y-1.512
X5.338Y-1.584
X5.339Y-2.046
X5.34Y-2.549
X5.342Y-2.732
X5.35Y-3.75
X5.35Y-3.8
X5.35Y-3.85
X5.35Y-3.9
X5.35Y-3.95
X5.35Y-4.0
X5.35Y-4.05
X5.358Y-3.01
X5.38Y-3.217
X5.381Y-3.552
X5.383Y-3.325
X5.384Y-2.603
X5.386Y-2.95
X5.388Y-2.785
X5.388Y-3.468
X5.4Y-3.8
X5.4Y-3.9
X5.4Y-4.0
X5.407Y-1.865
X5.408Y-1.783
X5.41Y-1.709
X5.417Y-2.4
X5.425Y-4.85
X5.439Y-4.578
X5.45Y-3.75
X5.45Y-3.8
X5.45Y-3.85
X5.45Y-3.9
X5.45Y-3.95
X5.45Y-4.0
X5.45Y-4.05
X5.451Y-3.552
X5.452Y-3.322
X5.463Y-3.445
X5.465Y-2.8
X5.468Y-2.933
X5.468Y-3.23
X5.472Y-2.978
X5.474Y-2.602
T2
X4.948Y-2.839
X5.048Y-2.839
X5.148Y-2.839
X5.248Y-2.839
T2
G00X5.0566Y-4.523
M15
G01X5.1354Y-4.523
M16
G05
G00X5.0566Y-4.7592
M15
G01X5.1354Y-4.7592
M16
G05
G00X5.281Y-4.6805
M15
G01X5.281Y-4.6017
M16
G05
T0
M30
