G04 #@! TF.GenerationSoftware,KiCad,Pcbnew,(5.1.0)-1*
G04 #@! TF.CreationDate,2019-05-29T20:43:47+02:00*
G04 #@! TF.ProjectId,WELLER,57454c4c-4552-42e6-9b69-6361645f7063,rev?*
G04 #@! TF.SameCoordinates,Original*
G04 #@! TF.FileFunction,Paste,Bot*
G04 #@! TF.FilePolarity,Positive*
%FSLAX46Y46*%
G04 Gerber Fmt 4.6, Leading zero omitted, Abs format (unit mm)*
G04 Created by KiCad (PCBNEW (5.1.0)-1) date 2019-05-29 20:43:47*
%MOMM*%
%LPD*%
G04 APERTURE LIST*
%ADD10C,0.100000*%
%ADD11C,1.800000*%
%ADD12C,2.800000*%
%ADD13C,1.200000*%
%ADD14R,4.000000X4.000000*%
%ADD15R,0.800000X0.900000*%
%ADD16C,0.875000*%
%ADD17R,0.740000X2.400000*%
%ADD18C,1.050000*%
%ADD19C,0.975000*%
%ADD20C,0.950000*%
G04 APERTURE END LIST*
D10*
G36*
X126539108Y-29852967D02*
G01*
X126582791Y-29859447D01*
X126625628Y-29870177D01*
X126667208Y-29885054D01*
X126707129Y-29903935D01*
X126745007Y-29926639D01*
X126780477Y-29952945D01*
X126813198Y-29982602D01*
X126842855Y-30015323D01*
X126869161Y-30050793D01*
X126891865Y-30088671D01*
X126910746Y-30128592D01*
X126925623Y-30170172D01*
X126936353Y-30213009D01*
X126942833Y-30256692D01*
X126945000Y-30300800D01*
X126945000Y-31200800D01*
X126942833Y-31244908D01*
X126936353Y-31288591D01*
X126925623Y-31331428D01*
X126910746Y-31373008D01*
X126891865Y-31412929D01*
X126869161Y-31450807D01*
X126842855Y-31486277D01*
X126813198Y-31518998D01*
X126780477Y-31548655D01*
X126745007Y-31574961D01*
X126707129Y-31597665D01*
X126667208Y-31616546D01*
X126625628Y-31631423D01*
X126582791Y-31642153D01*
X126539108Y-31648633D01*
X126495000Y-31650800D01*
X124495000Y-31650800D01*
X124450892Y-31648633D01*
X124407209Y-31642153D01*
X124364372Y-31631423D01*
X124322792Y-31616546D01*
X124282871Y-31597665D01*
X124244993Y-31574961D01*
X124209523Y-31548655D01*
X124176802Y-31518998D01*
X124147145Y-31486277D01*
X124120839Y-31450807D01*
X124098135Y-31412929D01*
X124079254Y-31373008D01*
X124064377Y-31331428D01*
X124053647Y-31288591D01*
X124047167Y-31244908D01*
X124045000Y-31200800D01*
X124045000Y-30300800D01*
X124047167Y-30256692D01*
X124053647Y-30213009D01*
X124064377Y-30170172D01*
X124079254Y-30128592D01*
X124098135Y-30088671D01*
X124120839Y-30050793D01*
X124147145Y-30015323D01*
X124176802Y-29982602D01*
X124209523Y-29952945D01*
X124244993Y-29926639D01*
X124282871Y-29903935D01*
X124322792Y-29885054D01*
X124364372Y-29870177D01*
X124407209Y-29859447D01*
X124450892Y-29852967D01*
X124495000Y-29850800D01*
X126495000Y-29850800D01*
X126539108Y-29852967D01*
X126539108Y-29852967D01*
G37*
D11*
X125495000Y-30750800D03*
D10*
G36*
X126539108Y-27052967D02*
G01*
X126582791Y-27059447D01*
X126625628Y-27070177D01*
X126667208Y-27085054D01*
X126707129Y-27103935D01*
X126745007Y-27126639D01*
X126780477Y-27152945D01*
X126813198Y-27182602D01*
X126842855Y-27215323D01*
X126869161Y-27250793D01*
X126891865Y-27288671D01*
X126910746Y-27328592D01*
X126925623Y-27370172D01*
X126936353Y-27413009D01*
X126942833Y-27456692D01*
X126945000Y-27500800D01*
X126945000Y-28400800D01*
X126942833Y-28444908D01*
X126936353Y-28488591D01*
X126925623Y-28531428D01*
X126910746Y-28573008D01*
X126891865Y-28612929D01*
X126869161Y-28650807D01*
X126842855Y-28686277D01*
X126813198Y-28718998D01*
X126780477Y-28748655D01*
X126745007Y-28774961D01*
X126707129Y-28797665D01*
X126667208Y-28816546D01*
X126625628Y-28831423D01*
X126582791Y-28842153D01*
X126539108Y-28848633D01*
X126495000Y-28850800D01*
X124495000Y-28850800D01*
X124450892Y-28848633D01*
X124407209Y-28842153D01*
X124364372Y-28831423D01*
X124322792Y-28816546D01*
X124282871Y-28797665D01*
X124244993Y-28774961D01*
X124209523Y-28748655D01*
X124176802Y-28718998D01*
X124147145Y-28686277D01*
X124120839Y-28650807D01*
X124098135Y-28612929D01*
X124079254Y-28573008D01*
X124064377Y-28531428D01*
X124053647Y-28488591D01*
X124047167Y-28444908D01*
X124045000Y-28400800D01*
X124045000Y-27500800D01*
X124047167Y-27456692D01*
X124053647Y-27413009D01*
X124064377Y-27370172D01*
X124079254Y-27328592D01*
X124098135Y-27288671D01*
X124120839Y-27250793D01*
X124147145Y-27215323D01*
X124176802Y-27182602D01*
X124209523Y-27152945D01*
X124244993Y-27126639D01*
X124282871Y-27103935D01*
X124322792Y-27085054D01*
X124364372Y-27070177D01*
X124407209Y-27059447D01*
X124450892Y-27052967D01*
X124495000Y-27050800D01*
X126495000Y-27050800D01*
X126539108Y-27052967D01*
X126539108Y-27052967D01*
G37*
D11*
X125495000Y-27950800D03*
D10*
G36*
X133663612Y-36754171D02*
G01*
X133731563Y-36764250D01*
X133798199Y-36780942D01*
X133862878Y-36804084D01*
X133924978Y-36833455D01*
X133983899Y-36868771D01*
X134039075Y-36909693D01*
X134089975Y-36955825D01*
X134136107Y-37006725D01*
X134177029Y-37061901D01*
X134212345Y-37120822D01*
X134241716Y-37182922D01*
X134264858Y-37247601D01*
X134281550Y-37314237D01*
X134291629Y-37382188D01*
X134295000Y-37450800D01*
X134295000Y-38850800D01*
X134291629Y-38919412D01*
X134281550Y-38987363D01*
X134264858Y-39053999D01*
X134241716Y-39118678D01*
X134212345Y-39180778D01*
X134177029Y-39239699D01*
X134136107Y-39294875D01*
X134089975Y-39345775D01*
X134039075Y-39391907D01*
X133983899Y-39432829D01*
X133924978Y-39468145D01*
X133862878Y-39497516D01*
X133798199Y-39520658D01*
X133731563Y-39537350D01*
X133663612Y-39547429D01*
X133595000Y-39550800D01*
X132095000Y-39550800D01*
X132026388Y-39547429D01*
X131958437Y-39537350D01*
X131891801Y-39520658D01*
X131827122Y-39497516D01*
X131765022Y-39468145D01*
X131706101Y-39432829D01*
X131650925Y-39391907D01*
X131600025Y-39345775D01*
X131553893Y-39294875D01*
X131512971Y-39239699D01*
X131477655Y-39180778D01*
X131448284Y-39118678D01*
X131425142Y-39053999D01*
X131408450Y-38987363D01*
X131398371Y-38919412D01*
X131395000Y-38850800D01*
X131395000Y-37450800D01*
X131398371Y-37382188D01*
X131408450Y-37314237D01*
X131425142Y-37247601D01*
X131448284Y-37182922D01*
X131477655Y-37120822D01*
X131512971Y-37061901D01*
X131553893Y-37006725D01*
X131600025Y-36955825D01*
X131650925Y-36909693D01*
X131706101Y-36868771D01*
X131765022Y-36833455D01*
X131827122Y-36804084D01*
X131891801Y-36780942D01*
X131958437Y-36764250D01*
X132026388Y-36754171D01*
X132095000Y-36750800D01*
X133595000Y-36750800D01*
X133663612Y-36754171D01*
X133663612Y-36754171D01*
G37*
D12*
X132845000Y-38150800D03*
D10*
G36*
X133889108Y-27952967D02*
G01*
X133932791Y-27959447D01*
X133975628Y-27970177D01*
X134017208Y-27985054D01*
X134057129Y-28003935D01*
X134095007Y-28026639D01*
X134130477Y-28052945D01*
X134163198Y-28082602D01*
X134192855Y-28115323D01*
X134219161Y-28150793D01*
X134241865Y-28188671D01*
X134260746Y-28228592D01*
X134275623Y-28270172D01*
X134286353Y-28313009D01*
X134292833Y-28356692D01*
X134295000Y-28400800D01*
X134295000Y-29300800D01*
X134292833Y-29344908D01*
X134286353Y-29388591D01*
X134275623Y-29431428D01*
X134260746Y-29473008D01*
X134241865Y-29512929D01*
X134219161Y-29550807D01*
X134192855Y-29586277D01*
X134163198Y-29618998D01*
X134130477Y-29648655D01*
X134095007Y-29674961D01*
X134057129Y-29697665D01*
X134017208Y-29716546D01*
X133975628Y-29731423D01*
X133932791Y-29742153D01*
X133889108Y-29748633D01*
X133845000Y-29750800D01*
X131845000Y-29750800D01*
X131800892Y-29748633D01*
X131757209Y-29742153D01*
X131714372Y-29731423D01*
X131672792Y-29716546D01*
X131632871Y-29697665D01*
X131594993Y-29674961D01*
X131559523Y-29648655D01*
X131526802Y-29618998D01*
X131497145Y-29586277D01*
X131470839Y-29550807D01*
X131448135Y-29512929D01*
X131429254Y-29473008D01*
X131414377Y-29431428D01*
X131403647Y-29388591D01*
X131397167Y-29344908D01*
X131395000Y-29300800D01*
X131395000Y-28400800D01*
X131397167Y-28356692D01*
X131403647Y-28313009D01*
X131414377Y-28270172D01*
X131429254Y-28228592D01*
X131448135Y-28188671D01*
X131470839Y-28150793D01*
X131497145Y-28115323D01*
X131526802Y-28082602D01*
X131559523Y-28052945D01*
X131594993Y-28026639D01*
X131632871Y-28003935D01*
X131672792Y-27985054D01*
X131714372Y-27970177D01*
X131757209Y-27959447D01*
X131800892Y-27952967D01*
X131845000Y-27950800D01*
X133845000Y-27950800D01*
X133889108Y-27952967D01*
X133889108Y-27952967D01*
G37*
D11*
X132845000Y-28850800D03*
D10*
G36*
X134074405Y-25452245D02*
G01*
X134103527Y-25456564D01*
X134132085Y-25463718D01*
X134159805Y-25473636D01*
X134186419Y-25486224D01*
X134211671Y-25501359D01*
X134235318Y-25518897D01*
X134257132Y-25538668D01*
X134276903Y-25560482D01*
X134294441Y-25584129D01*
X134309576Y-25609381D01*
X134322164Y-25635995D01*
X134332082Y-25663715D01*
X134339236Y-25692273D01*
X134343555Y-25721395D01*
X134345000Y-25750800D01*
X134345000Y-26350800D01*
X134343555Y-26380205D01*
X134339236Y-26409327D01*
X134332082Y-26437885D01*
X134322164Y-26465605D01*
X134309576Y-26492219D01*
X134294441Y-26517471D01*
X134276903Y-26541118D01*
X134257132Y-26562932D01*
X134235318Y-26582703D01*
X134211671Y-26600241D01*
X134186419Y-26615376D01*
X134159805Y-26627964D01*
X134132085Y-26637882D01*
X134103527Y-26645036D01*
X134074405Y-26649355D01*
X134045000Y-26650800D01*
X131745000Y-26650800D01*
X131715595Y-26649355D01*
X131686473Y-26645036D01*
X131657915Y-26637882D01*
X131630195Y-26627964D01*
X131603581Y-26615376D01*
X131578329Y-26600241D01*
X131554682Y-26582703D01*
X131532868Y-26562932D01*
X131513097Y-26541118D01*
X131495559Y-26517471D01*
X131480424Y-26492219D01*
X131467836Y-26465605D01*
X131457918Y-26437885D01*
X131450764Y-26409327D01*
X131446445Y-26380205D01*
X131445000Y-26350800D01*
X131445000Y-25750800D01*
X131446445Y-25721395D01*
X131450764Y-25692273D01*
X131457918Y-25663715D01*
X131467836Y-25635995D01*
X131480424Y-25609381D01*
X131495559Y-25584129D01*
X131513097Y-25560482D01*
X131532868Y-25538668D01*
X131554682Y-25518897D01*
X131578329Y-25501359D01*
X131603581Y-25486224D01*
X131630195Y-25473636D01*
X131657915Y-25463718D01*
X131686473Y-25456564D01*
X131715595Y-25452245D01*
X131745000Y-25450800D01*
X134045000Y-25450800D01*
X134074405Y-25452245D01*
X134074405Y-25452245D01*
G37*
D13*
X132895000Y-26050800D03*
D14*
X131275800Y-109861600D03*
D15*
X129743200Y-90135200D03*
X128793200Y-92135200D03*
X130693200Y-92135200D03*
D10*
G36*
X123755211Y-89249013D02*
G01*
X123776446Y-89252163D01*
X123797270Y-89257379D01*
X123817482Y-89264611D01*
X123836888Y-89273790D01*
X123855301Y-89284826D01*
X123872544Y-89297614D01*
X123888450Y-89312030D01*
X123902866Y-89327936D01*
X123915654Y-89345179D01*
X123926690Y-89363592D01*
X123935869Y-89382998D01*
X123943101Y-89403210D01*
X123948317Y-89424034D01*
X123951467Y-89445269D01*
X123952520Y-89466710D01*
X123952520Y-89979210D01*
X123951467Y-90000651D01*
X123948317Y-90021886D01*
X123943101Y-90042710D01*
X123935869Y-90062922D01*
X123926690Y-90082328D01*
X123915654Y-90100741D01*
X123902866Y-90117984D01*
X123888450Y-90133890D01*
X123872544Y-90148306D01*
X123855301Y-90161094D01*
X123836888Y-90172130D01*
X123817482Y-90181309D01*
X123797270Y-90188541D01*
X123776446Y-90193757D01*
X123755211Y-90196907D01*
X123733770Y-90197960D01*
X123296270Y-90197960D01*
X123274829Y-90196907D01*
X123253594Y-90193757D01*
X123232770Y-90188541D01*
X123212558Y-90181309D01*
X123193152Y-90172130D01*
X123174739Y-90161094D01*
X123157496Y-90148306D01*
X123141590Y-90133890D01*
X123127174Y-90117984D01*
X123114386Y-90100741D01*
X123103350Y-90082328D01*
X123094171Y-90062922D01*
X123086939Y-90042710D01*
X123081723Y-90021886D01*
X123078573Y-90000651D01*
X123077520Y-89979210D01*
X123077520Y-89466710D01*
X123078573Y-89445269D01*
X123081723Y-89424034D01*
X123086939Y-89403210D01*
X123094171Y-89382998D01*
X123103350Y-89363592D01*
X123114386Y-89345179D01*
X123127174Y-89327936D01*
X123141590Y-89312030D01*
X123157496Y-89297614D01*
X123174739Y-89284826D01*
X123193152Y-89273790D01*
X123212558Y-89264611D01*
X123232770Y-89257379D01*
X123253594Y-89252163D01*
X123274829Y-89249013D01*
X123296270Y-89247960D01*
X123733770Y-89247960D01*
X123755211Y-89249013D01*
X123755211Y-89249013D01*
G37*
D16*
X123515020Y-89722960D03*
D10*
G36*
X125330211Y-89249013D02*
G01*
X125351446Y-89252163D01*
X125372270Y-89257379D01*
X125392482Y-89264611D01*
X125411888Y-89273790D01*
X125430301Y-89284826D01*
X125447544Y-89297614D01*
X125463450Y-89312030D01*
X125477866Y-89327936D01*
X125490654Y-89345179D01*
X125501690Y-89363592D01*
X125510869Y-89382998D01*
X125518101Y-89403210D01*
X125523317Y-89424034D01*
X125526467Y-89445269D01*
X125527520Y-89466710D01*
X125527520Y-89979210D01*
X125526467Y-90000651D01*
X125523317Y-90021886D01*
X125518101Y-90042710D01*
X125510869Y-90062922D01*
X125501690Y-90082328D01*
X125490654Y-90100741D01*
X125477866Y-90117984D01*
X125463450Y-90133890D01*
X125447544Y-90148306D01*
X125430301Y-90161094D01*
X125411888Y-90172130D01*
X125392482Y-90181309D01*
X125372270Y-90188541D01*
X125351446Y-90193757D01*
X125330211Y-90196907D01*
X125308770Y-90197960D01*
X124871270Y-90197960D01*
X124849829Y-90196907D01*
X124828594Y-90193757D01*
X124807770Y-90188541D01*
X124787558Y-90181309D01*
X124768152Y-90172130D01*
X124749739Y-90161094D01*
X124732496Y-90148306D01*
X124716590Y-90133890D01*
X124702174Y-90117984D01*
X124689386Y-90100741D01*
X124678350Y-90082328D01*
X124669171Y-90062922D01*
X124661939Y-90042710D01*
X124656723Y-90021886D01*
X124653573Y-90000651D01*
X124652520Y-89979210D01*
X124652520Y-89466710D01*
X124653573Y-89445269D01*
X124656723Y-89424034D01*
X124661939Y-89403210D01*
X124669171Y-89382998D01*
X124678350Y-89363592D01*
X124689386Y-89345179D01*
X124702174Y-89327936D01*
X124716590Y-89312030D01*
X124732496Y-89297614D01*
X124749739Y-89284826D01*
X124768152Y-89273790D01*
X124787558Y-89264611D01*
X124807770Y-89257379D01*
X124828594Y-89252163D01*
X124849829Y-89249013D01*
X124871270Y-89247960D01*
X125308770Y-89247960D01*
X125330211Y-89249013D01*
X125330211Y-89249013D01*
G37*
D16*
X125090020Y-89722960D03*
D10*
G36*
X125335291Y-87598013D02*
G01*
X125356526Y-87601163D01*
X125377350Y-87606379D01*
X125397562Y-87613611D01*
X125416968Y-87622790D01*
X125435381Y-87633826D01*
X125452624Y-87646614D01*
X125468530Y-87661030D01*
X125482946Y-87676936D01*
X125495734Y-87694179D01*
X125506770Y-87712592D01*
X125515949Y-87731998D01*
X125523181Y-87752210D01*
X125528397Y-87773034D01*
X125531547Y-87794269D01*
X125532600Y-87815710D01*
X125532600Y-88328210D01*
X125531547Y-88349651D01*
X125528397Y-88370886D01*
X125523181Y-88391710D01*
X125515949Y-88411922D01*
X125506770Y-88431328D01*
X125495734Y-88449741D01*
X125482946Y-88466984D01*
X125468530Y-88482890D01*
X125452624Y-88497306D01*
X125435381Y-88510094D01*
X125416968Y-88521130D01*
X125397562Y-88530309D01*
X125377350Y-88537541D01*
X125356526Y-88542757D01*
X125335291Y-88545907D01*
X125313850Y-88546960D01*
X124876350Y-88546960D01*
X124854909Y-88545907D01*
X124833674Y-88542757D01*
X124812850Y-88537541D01*
X124792638Y-88530309D01*
X124773232Y-88521130D01*
X124754819Y-88510094D01*
X124737576Y-88497306D01*
X124721670Y-88482890D01*
X124707254Y-88466984D01*
X124694466Y-88449741D01*
X124683430Y-88431328D01*
X124674251Y-88411922D01*
X124667019Y-88391710D01*
X124661803Y-88370886D01*
X124658653Y-88349651D01*
X124657600Y-88328210D01*
X124657600Y-87815710D01*
X124658653Y-87794269D01*
X124661803Y-87773034D01*
X124667019Y-87752210D01*
X124674251Y-87731998D01*
X124683430Y-87712592D01*
X124694466Y-87694179D01*
X124707254Y-87676936D01*
X124721670Y-87661030D01*
X124737576Y-87646614D01*
X124754819Y-87633826D01*
X124773232Y-87622790D01*
X124792638Y-87613611D01*
X124812850Y-87606379D01*
X124833674Y-87601163D01*
X124854909Y-87598013D01*
X124876350Y-87596960D01*
X125313850Y-87596960D01*
X125335291Y-87598013D01*
X125335291Y-87598013D01*
G37*
D16*
X125095100Y-88071960D03*
D10*
G36*
X123760291Y-87598013D02*
G01*
X123781526Y-87601163D01*
X123802350Y-87606379D01*
X123822562Y-87613611D01*
X123841968Y-87622790D01*
X123860381Y-87633826D01*
X123877624Y-87646614D01*
X123893530Y-87661030D01*
X123907946Y-87676936D01*
X123920734Y-87694179D01*
X123931770Y-87712592D01*
X123940949Y-87731998D01*
X123948181Y-87752210D01*
X123953397Y-87773034D01*
X123956547Y-87794269D01*
X123957600Y-87815710D01*
X123957600Y-88328210D01*
X123956547Y-88349651D01*
X123953397Y-88370886D01*
X123948181Y-88391710D01*
X123940949Y-88411922D01*
X123931770Y-88431328D01*
X123920734Y-88449741D01*
X123907946Y-88466984D01*
X123893530Y-88482890D01*
X123877624Y-88497306D01*
X123860381Y-88510094D01*
X123841968Y-88521130D01*
X123822562Y-88530309D01*
X123802350Y-88537541D01*
X123781526Y-88542757D01*
X123760291Y-88545907D01*
X123738850Y-88546960D01*
X123301350Y-88546960D01*
X123279909Y-88545907D01*
X123258674Y-88542757D01*
X123237850Y-88537541D01*
X123217638Y-88530309D01*
X123198232Y-88521130D01*
X123179819Y-88510094D01*
X123162576Y-88497306D01*
X123146670Y-88482890D01*
X123132254Y-88466984D01*
X123119466Y-88449741D01*
X123108430Y-88431328D01*
X123099251Y-88411922D01*
X123092019Y-88391710D01*
X123086803Y-88370886D01*
X123083653Y-88349651D01*
X123082600Y-88328210D01*
X123082600Y-87815710D01*
X123083653Y-87794269D01*
X123086803Y-87773034D01*
X123092019Y-87752210D01*
X123099251Y-87731998D01*
X123108430Y-87712592D01*
X123119466Y-87694179D01*
X123132254Y-87676936D01*
X123146670Y-87661030D01*
X123162576Y-87646614D01*
X123179819Y-87633826D01*
X123198232Y-87622790D01*
X123217638Y-87613611D01*
X123237850Y-87606379D01*
X123258674Y-87601163D01*
X123279909Y-87598013D01*
X123301350Y-87596960D01*
X123738850Y-87596960D01*
X123760291Y-87598013D01*
X123760291Y-87598013D01*
G37*
D16*
X123520100Y-88071960D03*
D17*
X131780280Y-61690800D03*
X131780280Y-57790800D03*
X130510280Y-61690800D03*
X130510280Y-57790800D03*
X129240280Y-61690800D03*
X129240280Y-57790800D03*
X127970280Y-61690800D03*
X127970280Y-57790800D03*
X126700280Y-61690800D03*
X126700280Y-57790800D03*
D10*
G36*
X126954505Y-46466204D02*
G01*
X126978773Y-46469804D01*
X127002572Y-46475765D01*
X127025671Y-46484030D01*
X127047850Y-46494520D01*
X127068893Y-46507132D01*
X127088599Y-46521747D01*
X127106777Y-46538223D01*
X127123253Y-46556401D01*
X127137868Y-46576107D01*
X127150480Y-46597150D01*
X127160970Y-46619329D01*
X127169235Y-46642428D01*
X127175196Y-46666227D01*
X127178796Y-46690495D01*
X127180000Y-46714999D01*
X127180000Y-47265001D01*
X127178796Y-47289505D01*
X127175196Y-47313773D01*
X127169235Y-47337572D01*
X127160970Y-47360671D01*
X127150480Y-47382850D01*
X127137868Y-47403893D01*
X127123253Y-47423599D01*
X127106777Y-47441777D01*
X127088599Y-47458253D01*
X127068893Y-47472868D01*
X127047850Y-47485480D01*
X127025671Y-47495970D01*
X127002572Y-47504235D01*
X126978773Y-47510196D01*
X126954505Y-47513796D01*
X126930001Y-47515000D01*
X126304999Y-47515000D01*
X126280495Y-47513796D01*
X126256227Y-47510196D01*
X126232428Y-47504235D01*
X126209329Y-47495970D01*
X126187150Y-47485480D01*
X126166107Y-47472868D01*
X126146401Y-47458253D01*
X126128223Y-47441777D01*
X126111747Y-47423599D01*
X126097132Y-47403893D01*
X126084520Y-47382850D01*
X126074030Y-47360671D01*
X126065765Y-47337572D01*
X126059804Y-47313773D01*
X126056204Y-47289505D01*
X126055000Y-47265001D01*
X126055000Y-46714999D01*
X126056204Y-46690495D01*
X126059804Y-46666227D01*
X126065765Y-46642428D01*
X126074030Y-46619329D01*
X126084520Y-46597150D01*
X126097132Y-46576107D01*
X126111747Y-46556401D01*
X126128223Y-46538223D01*
X126146401Y-46521747D01*
X126166107Y-46507132D01*
X126187150Y-46494520D01*
X126209329Y-46484030D01*
X126232428Y-46475765D01*
X126256227Y-46469804D01*
X126280495Y-46466204D01*
X126304999Y-46465000D01*
X126930001Y-46465000D01*
X126954505Y-46466204D01*
X126954505Y-46466204D01*
G37*
D18*
X126617500Y-46990000D03*
D10*
G36*
X125179505Y-46466204D02*
G01*
X125203773Y-46469804D01*
X125227572Y-46475765D01*
X125250671Y-46484030D01*
X125272850Y-46494520D01*
X125293893Y-46507132D01*
X125313599Y-46521747D01*
X125331777Y-46538223D01*
X125348253Y-46556401D01*
X125362868Y-46576107D01*
X125375480Y-46597150D01*
X125385970Y-46619329D01*
X125394235Y-46642428D01*
X125400196Y-46666227D01*
X125403796Y-46690495D01*
X125405000Y-46714999D01*
X125405000Y-47265001D01*
X125403796Y-47289505D01*
X125400196Y-47313773D01*
X125394235Y-47337572D01*
X125385970Y-47360671D01*
X125375480Y-47382850D01*
X125362868Y-47403893D01*
X125348253Y-47423599D01*
X125331777Y-47441777D01*
X125313599Y-47458253D01*
X125293893Y-47472868D01*
X125272850Y-47485480D01*
X125250671Y-47495970D01*
X125227572Y-47504235D01*
X125203773Y-47510196D01*
X125179505Y-47513796D01*
X125155001Y-47515000D01*
X124529999Y-47515000D01*
X124505495Y-47513796D01*
X124481227Y-47510196D01*
X124457428Y-47504235D01*
X124434329Y-47495970D01*
X124412150Y-47485480D01*
X124391107Y-47472868D01*
X124371401Y-47458253D01*
X124353223Y-47441777D01*
X124336747Y-47423599D01*
X124322132Y-47403893D01*
X124309520Y-47382850D01*
X124299030Y-47360671D01*
X124290765Y-47337572D01*
X124284804Y-47313773D01*
X124281204Y-47289505D01*
X124280000Y-47265001D01*
X124280000Y-46714999D01*
X124281204Y-46690495D01*
X124284804Y-46666227D01*
X124290765Y-46642428D01*
X124299030Y-46619329D01*
X124309520Y-46597150D01*
X124322132Y-46576107D01*
X124336747Y-46556401D01*
X124353223Y-46538223D01*
X124371401Y-46521747D01*
X124391107Y-46507132D01*
X124412150Y-46494520D01*
X124434329Y-46484030D01*
X124457428Y-46475765D01*
X124481227Y-46469804D01*
X124505495Y-46466204D01*
X124529999Y-46465000D01*
X125155001Y-46465000D01*
X125179505Y-46466204D01*
X125179505Y-46466204D01*
G37*
D18*
X124842500Y-46990000D03*
D10*
G36*
X123127442Y-47992974D02*
G01*
X123151103Y-47996484D01*
X123174307Y-48002296D01*
X123196829Y-48010354D01*
X123218453Y-48020582D01*
X123238970Y-48032879D01*
X123258183Y-48047129D01*
X123275907Y-48063193D01*
X123291971Y-48080917D01*
X123306221Y-48100130D01*
X123318518Y-48120647D01*
X123328746Y-48142271D01*
X123336804Y-48164793D01*
X123342616Y-48187997D01*
X123346126Y-48211658D01*
X123347300Y-48235550D01*
X123347300Y-49148050D01*
X123346126Y-49171942D01*
X123342616Y-49195603D01*
X123336804Y-49218807D01*
X123328746Y-49241329D01*
X123318518Y-49262953D01*
X123306221Y-49283470D01*
X123291971Y-49302683D01*
X123275907Y-49320407D01*
X123258183Y-49336471D01*
X123238970Y-49350721D01*
X123218453Y-49363018D01*
X123196829Y-49373246D01*
X123174307Y-49381304D01*
X123151103Y-49387116D01*
X123127442Y-49390626D01*
X123103550Y-49391800D01*
X122616050Y-49391800D01*
X122592158Y-49390626D01*
X122568497Y-49387116D01*
X122545293Y-49381304D01*
X122522771Y-49373246D01*
X122501147Y-49363018D01*
X122480630Y-49350721D01*
X122461417Y-49336471D01*
X122443693Y-49320407D01*
X122427629Y-49302683D01*
X122413379Y-49283470D01*
X122401082Y-49262953D01*
X122390854Y-49241329D01*
X122382796Y-49218807D01*
X122376984Y-49195603D01*
X122373474Y-49171942D01*
X122372300Y-49148050D01*
X122372300Y-48235550D01*
X122373474Y-48211658D01*
X122376984Y-48187997D01*
X122382796Y-48164793D01*
X122390854Y-48142271D01*
X122401082Y-48120647D01*
X122413379Y-48100130D01*
X122427629Y-48080917D01*
X122443693Y-48063193D01*
X122461417Y-48047129D01*
X122480630Y-48032879D01*
X122501147Y-48020582D01*
X122522771Y-48010354D01*
X122545293Y-48002296D01*
X122568497Y-47996484D01*
X122592158Y-47992974D01*
X122616050Y-47991800D01*
X123103550Y-47991800D01*
X123127442Y-47992974D01*
X123127442Y-47992974D01*
G37*
D19*
X122859800Y-48691800D03*
D10*
G36*
X121252442Y-47992974D02*
G01*
X121276103Y-47996484D01*
X121299307Y-48002296D01*
X121321829Y-48010354D01*
X121343453Y-48020582D01*
X121363970Y-48032879D01*
X121383183Y-48047129D01*
X121400907Y-48063193D01*
X121416971Y-48080917D01*
X121431221Y-48100130D01*
X121443518Y-48120647D01*
X121453746Y-48142271D01*
X121461804Y-48164793D01*
X121467616Y-48187997D01*
X121471126Y-48211658D01*
X121472300Y-48235550D01*
X121472300Y-49148050D01*
X121471126Y-49171942D01*
X121467616Y-49195603D01*
X121461804Y-49218807D01*
X121453746Y-49241329D01*
X121443518Y-49262953D01*
X121431221Y-49283470D01*
X121416971Y-49302683D01*
X121400907Y-49320407D01*
X121383183Y-49336471D01*
X121363970Y-49350721D01*
X121343453Y-49363018D01*
X121321829Y-49373246D01*
X121299307Y-49381304D01*
X121276103Y-49387116D01*
X121252442Y-49390626D01*
X121228550Y-49391800D01*
X120741050Y-49391800D01*
X120717158Y-49390626D01*
X120693497Y-49387116D01*
X120670293Y-49381304D01*
X120647771Y-49373246D01*
X120626147Y-49363018D01*
X120605630Y-49350721D01*
X120586417Y-49336471D01*
X120568693Y-49320407D01*
X120552629Y-49302683D01*
X120538379Y-49283470D01*
X120526082Y-49262953D01*
X120515854Y-49241329D01*
X120507796Y-49218807D01*
X120501984Y-49195603D01*
X120498474Y-49171942D01*
X120497300Y-49148050D01*
X120497300Y-48235550D01*
X120498474Y-48211658D01*
X120501984Y-48187997D01*
X120507796Y-48164793D01*
X120515854Y-48142271D01*
X120526082Y-48120647D01*
X120538379Y-48100130D01*
X120552629Y-48080917D01*
X120568693Y-48063193D01*
X120586417Y-48047129D01*
X120605630Y-48032879D01*
X120626147Y-48020582D01*
X120647771Y-48010354D01*
X120670293Y-48002296D01*
X120693497Y-47996484D01*
X120717158Y-47992974D01*
X120741050Y-47991800D01*
X121228550Y-47991800D01*
X121252442Y-47992974D01*
X121252442Y-47992974D01*
G37*
D19*
X120984800Y-48691800D03*
D10*
G36*
X135652771Y-60861973D02*
G01*
X135674006Y-60865123D01*
X135694830Y-60870339D01*
X135715042Y-60877571D01*
X135734448Y-60886750D01*
X135752861Y-60897786D01*
X135770104Y-60910574D01*
X135786010Y-60924990D01*
X135800426Y-60940896D01*
X135813214Y-60958139D01*
X135824250Y-60976552D01*
X135833429Y-60995958D01*
X135840661Y-61016170D01*
X135845877Y-61036994D01*
X135849027Y-61058229D01*
X135850080Y-61079670D01*
X135850080Y-61592170D01*
X135849027Y-61613611D01*
X135845877Y-61634846D01*
X135840661Y-61655670D01*
X135833429Y-61675882D01*
X135824250Y-61695288D01*
X135813214Y-61713701D01*
X135800426Y-61730944D01*
X135786010Y-61746850D01*
X135770104Y-61761266D01*
X135752861Y-61774054D01*
X135734448Y-61785090D01*
X135715042Y-61794269D01*
X135694830Y-61801501D01*
X135674006Y-61806717D01*
X135652771Y-61809867D01*
X135631330Y-61810920D01*
X135193830Y-61810920D01*
X135172389Y-61809867D01*
X135151154Y-61806717D01*
X135130330Y-61801501D01*
X135110118Y-61794269D01*
X135090712Y-61785090D01*
X135072299Y-61774054D01*
X135055056Y-61761266D01*
X135039150Y-61746850D01*
X135024734Y-61730944D01*
X135011946Y-61713701D01*
X135000910Y-61695288D01*
X134991731Y-61675882D01*
X134984499Y-61655670D01*
X134979283Y-61634846D01*
X134976133Y-61613611D01*
X134975080Y-61592170D01*
X134975080Y-61079670D01*
X134976133Y-61058229D01*
X134979283Y-61036994D01*
X134984499Y-61016170D01*
X134991731Y-60995958D01*
X135000910Y-60976552D01*
X135011946Y-60958139D01*
X135024734Y-60940896D01*
X135039150Y-60924990D01*
X135055056Y-60910574D01*
X135072299Y-60897786D01*
X135090712Y-60886750D01*
X135110118Y-60877571D01*
X135130330Y-60870339D01*
X135151154Y-60865123D01*
X135172389Y-60861973D01*
X135193830Y-60860920D01*
X135631330Y-60860920D01*
X135652771Y-60861973D01*
X135652771Y-60861973D01*
G37*
D16*
X135412580Y-61335920D03*
D10*
G36*
X134077771Y-60861973D02*
G01*
X134099006Y-60865123D01*
X134119830Y-60870339D01*
X134140042Y-60877571D01*
X134159448Y-60886750D01*
X134177861Y-60897786D01*
X134195104Y-60910574D01*
X134211010Y-60924990D01*
X134225426Y-60940896D01*
X134238214Y-60958139D01*
X134249250Y-60976552D01*
X134258429Y-60995958D01*
X134265661Y-61016170D01*
X134270877Y-61036994D01*
X134274027Y-61058229D01*
X134275080Y-61079670D01*
X134275080Y-61592170D01*
X134274027Y-61613611D01*
X134270877Y-61634846D01*
X134265661Y-61655670D01*
X134258429Y-61675882D01*
X134249250Y-61695288D01*
X134238214Y-61713701D01*
X134225426Y-61730944D01*
X134211010Y-61746850D01*
X134195104Y-61761266D01*
X134177861Y-61774054D01*
X134159448Y-61785090D01*
X134140042Y-61794269D01*
X134119830Y-61801501D01*
X134099006Y-61806717D01*
X134077771Y-61809867D01*
X134056330Y-61810920D01*
X133618830Y-61810920D01*
X133597389Y-61809867D01*
X133576154Y-61806717D01*
X133555330Y-61801501D01*
X133535118Y-61794269D01*
X133515712Y-61785090D01*
X133497299Y-61774054D01*
X133480056Y-61761266D01*
X133464150Y-61746850D01*
X133449734Y-61730944D01*
X133436946Y-61713701D01*
X133425910Y-61695288D01*
X133416731Y-61675882D01*
X133409499Y-61655670D01*
X133404283Y-61634846D01*
X133401133Y-61613611D01*
X133400080Y-61592170D01*
X133400080Y-61079670D01*
X133401133Y-61058229D01*
X133404283Y-61036994D01*
X133409499Y-61016170D01*
X133416731Y-60995958D01*
X133425910Y-60976552D01*
X133436946Y-60958139D01*
X133449734Y-60940896D01*
X133464150Y-60924990D01*
X133480056Y-60910574D01*
X133497299Y-60897786D01*
X133515712Y-60886750D01*
X133535118Y-60877571D01*
X133555330Y-60870339D01*
X133576154Y-60865123D01*
X133597389Y-60861973D01*
X133618830Y-60860920D01*
X134056330Y-60860920D01*
X134077771Y-60861973D01*
X134077771Y-60861973D01*
G37*
D16*
X133837580Y-61335920D03*
D10*
G36*
X134147219Y-62441944D02*
G01*
X134170274Y-62445363D01*
X134192883Y-62451027D01*
X134214827Y-62458879D01*
X134235897Y-62468844D01*
X134255888Y-62480826D01*
X134274608Y-62494710D01*
X134291878Y-62510362D01*
X134307530Y-62527632D01*
X134321414Y-62546352D01*
X134333396Y-62566343D01*
X134343361Y-62587413D01*
X134351213Y-62609357D01*
X134356877Y-62631966D01*
X134360296Y-62655021D01*
X134361440Y-62678300D01*
X134361440Y-63153300D01*
X134360296Y-63176579D01*
X134356877Y-63199634D01*
X134351213Y-63222243D01*
X134343361Y-63244187D01*
X134333396Y-63265257D01*
X134321414Y-63285248D01*
X134307530Y-63303968D01*
X134291878Y-63321238D01*
X134274608Y-63336890D01*
X134255888Y-63350774D01*
X134235897Y-63362756D01*
X134214827Y-63372721D01*
X134192883Y-63380573D01*
X134170274Y-63386237D01*
X134147219Y-63389656D01*
X134123940Y-63390800D01*
X133548940Y-63390800D01*
X133525661Y-63389656D01*
X133502606Y-63386237D01*
X133479997Y-63380573D01*
X133458053Y-63372721D01*
X133436983Y-63362756D01*
X133416992Y-63350774D01*
X133398272Y-63336890D01*
X133381002Y-63321238D01*
X133365350Y-63303968D01*
X133351466Y-63285248D01*
X133339484Y-63265257D01*
X133329519Y-63244187D01*
X133321667Y-63222243D01*
X133316003Y-63199634D01*
X133312584Y-63176579D01*
X133311440Y-63153300D01*
X133311440Y-62678300D01*
X133312584Y-62655021D01*
X133316003Y-62631966D01*
X133321667Y-62609357D01*
X133329519Y-62587413D01*
X133339484Y-62566343D01*
X133351466Y-62546352D01*
X133365350Y-62527632D01*
X133381002Y-62510362D01*
X133398272Y-62494710D01*
X133416992Y-62480826D01*
X133436983Y-62468844D01*
X133458053Y-62458879D01*
X133479997Y-62451027D01*
X133502606Y-62445363D01*
X133525661Y-62441944D01*
X133548940Y-62440800D01*
X134123940Y-62440800D01*
X134147219Y-62441944D01*
X134147219Y-62441944D01*
G37*
D20*
X133836440Y-62915800D03*
D10*
G36*
X135897219Y-62441944D02*
G01*
X135920274Y-62445363D01*
X135942883Y-62451027D01*
X135964827Y-62458879D01*
X135985897Y-62468844D01*
X136005888Y-62480826D01*
X136024608Y-62494710D01*
X136041878Y-62510362D01*
X136057530Y-62527632D01*
X136071414Y-62546352D01*
X136083396Y-62566343D01*
X136093361Y-62587413D01*
X136101213Y-62609357D01*
X136106877Y-62631966D01*
X136110296Y-62655021D01*
X136111440Y-62678300D01*
X136111440Y-63153300D01*
X136110296Y-63176579D01*
X136106877Y-63199634D01*
X136101213Y-63222243D01*
X136093361Y-63244187D01*
X136083396Y-63265257D01*
X136071414Y-63285248D01*
X136057530Y-63303968D01*
X136041878Y-63321238D01*
X136024608Y-63336890D01*
X136005888Y-63350774D01*
X135985897Y-63362756D01*
X135964827Y-63372721D01*
X135942883Y-63380573D01*
X135920274Y-63386237D01*
X135897219Y-63389656D01*
X135873940Y-63390800D01*
X135298940Y-63390800D01*
X135275661Y-63389656D01*
X135252606Y-63386237D01*
X135229997Y-63380573D01*
X135208053Y-63372721D01*
X135186983Y-63362756D01*
X135166992Y-63350774D01*
X135148272Y-63336890D01*
X135131002Y-63321238D01*
X135115350Y-63303968D01*
X135101466Y-63285248D01*
X135089484Y-63265257D01*
X135079519Y-63244187D01*
X135071667Y-63222243D01*
X135066003Y-63199634D01*
X135062584Y-63176579D01*
X135061440Y-63153300D01*
X135061440Y-62678300D01*
X135062584Y-62655021D01*
X135066003Y-62631966D01*
X135071667Y-62609357D01*
X135079519Y-62587413D01*
X135089484Y-62566343D01*
X135101466Y-62546352D01*
X135115350Y-62527632D01*
X135131002Y-62510362D01*
X135148272Y-62494710D01*
X135166992Y-62480826D01*
X135186983Y-62468844D01*
X135208053Y-62458879D01*
X135229997Y-62451027D01*
X135252606Y-62445363D01*
X135275661Y-62441944D01*
X135298940Y-62440800D01*
X135873940Y-62440800D01*
X135897219Y-62441944D01*
X135897219Y-62441944D01*
G37*
D20*
X135586440Y-62915800D03*
D10*
G36*
X123156579Y-46414544D02*
G01*
X123179634Y-46417963D01*
X123202243Y-46423627D01*
X123224187Y-46431479D01*
X123245257Y-46441444D01*
X123265248Y-46453426D01*
X123283968Y-46467310D01*
X123301238Y-46482962D01*
X123316890Y-46500232D01*
X123330774Y-46518952D01*
X123342756Y-46538943D01*
X123352721Y-46560013D01*
X123360573Y-46581957D01*
X123366237Y-46604566D01*
X123369656Y-46627621D01*
X123370800Y-46650900D01*
X123370800Y-47125900D01*
X123369656Y-47149179D01*
X123366237Y-47172234D01*
X123360573Y-47194843D01*
X123352721Y-47216787D01*
X123342756Y-47237857D01*
X123330774Y-47257848D01*
X123316890Y-47276568D01*
X123301238Y-47293838D01*
X123283968Y-47309490D01*
X123265248Y-47323374D01*
X123245257Y-47335356D01*
X123224187Y-47345321D01*
X123202243Y-47353173D01*
X123179634Y-47358837D01*
X123156579Y-47362256D01*
X123133300Y-47363400D01*
X122558300Y-47363400D01*
X122535021Y-47362256D01*
X122511966Y-47358837D01*
X122489357Y-47353173D01*
X122467413Y-47345321D01*
X122446343Y-47335356D01*
X122426352Y-47323374D01*
X122407632Y-47309490D01*
X122390362Y-47293838D01*
X122374710Y-47276568D01*
X122360826Y-47257848D01*
X122348844Y-47237857D01*
X122338879Y-47216787D01*
X122331027Y-47194843D01*
X122325363Y-47172234D01*
X122321944Y-47149179D01*
X122320800Y-47125900D01*
X122320800Y-46650900D01*
X122321944Y-46627621D01*
X122325363Y-46604566D01*
X122331027Y-46581957D01*
X122338879Y-46560013D01*
X122348844Y-46538943D01*
X122360826Y-46518952D01*
X122374710Y-46500232D01*
X122390362Y-46482962D01*
X122407632Y-46467310D01*
X122426352Y-46453426D01*
X122446343Y-46441444D01*
X122467413Y-46431479D01*
X122489357Y-46423627D01*
X122511966Y-46417963D01*
X122535021Y-46414544D01*
X122558300Y-46413400D01*
X123133300Y-46413400D01*
X123156579Y-46414544D01*
X123156579Y-46414544D01*
G37*
D20*
X122845800Y-46888400D03*
D10*
G36*
X121406579Y-46414544D02*
G01*
X121429634Y-46417963D01*
X121452243Y-46423627D01*
X121474187Y-46431479D01*
X121495257Y-46441444D01*
X121515248Y-46453426D01*
X121533968Y-46467310D01*
X121551238Y-46482962D01*
X121566890Y-46500232D01*
X121580774Y-46518952D01*
X121592756Y-46538943D01*
X121602721Y-46560013D01*
X121610573Y-46581957D01*
X121616237Y-46604566D01*
X121619656Y-46627621D01*
X121620800Y-46650900D01*
X121620800Y-47125900D01*
X121619656Y-47149179D01*
X121616237Y-47172234D01*
X121610573Y-47194843D01*
X121602721Y-47216787D01*
X121592756Y-47237857D01*
X121580774Y-47257848D01*
X121566890Y-47276568D01*
X121551238Y-47293838D01*
X121533968Y-47309490D01*
X121515248Y-47323374D01*
X121495257Y-47335356D01*
X121474187Y-47345321D01*
X121452243Y-47353173D01*
X121429634Y-47358837D01*
X121406579Y-47362256D01*
X121383300Y-47363400D01*
X120808300Y-47363400D01*
X120785021Y-47362256D01*
X120761966Y-47358837D01*
X120739357Y-47353173D01*
X120717413Y-47345321D01*
X120696343Y-47335356D01*
X120676352Y-47323374D01*
X120657632Y-47309490D01*
X120640362Y-47293838D01*
X120624710Y-47276568D01*
X120610826Y-47257848D01*
X120598844Y-47237857D01*
X120588879Y-47216787D01*
X120581027Y-47194843D01*
X120575363Y-47172234D01*
X120571944Y-47149179D01*
X120570800Y-47125900D01*
X120570800Y-46650900D01*
X120571944Y-46627621D01*
X120575363Y-46604566D01*
X120581027Y-46581957D01*
X120588879Y-46560013D01*
X120598844Y-46538943D01*
X120610826Y-46518952D01*
X120624710Y-46500232D01*
X120640362Y-46482962D01*
X120657632Y-46467310D01*
X120676352Y-46453426D01*
X120696343Y-46441444D01*
X120717413Y-46431479D01*
X120739357Y-46423627D01*
X120761966Y-46417963D01*
X120785021Y-46414544D01*
X120808300Y-46413400D01*
X121383300Y-46413400D01*
X121406579Y-46414544D01*
X121406579Y-46414544D01*
G37*
D20*
X121095800Y-46888400D03*
M02*
