G04 #@! TF.GenerationSoftware,KiCad,Pcbnew,(5.1.0)-1*
G04 #@! TF.CreationDate,2019-05-29T20:43:47+02:00*
G04 #@! TF.ProjectId,WELLER,57454c4c-4552-42e6-9b69-6361645f7063,rev?*
G04 #@! TF.SameCoordinates,Original*
G04 #@! TF.FileFunction,Soldermask,Top*
G04 #@! TF.FilePolarity,Negative*
%FSLAX46Y46*%
G04 Gerber Fmt 4.6, Leading zero omitted, Abs format (unit mm)*
G04 Created by KiCad (PCBNEW (5.1.0)-1) date 2019-05-29 20:43:47*
%MOMM*%
%LPD*%
G04 APERTURE LIST*
%ADD10C,0.100000*%
G04 APERTURE END LIST*
D10*
G36*
X123125791Y-123506285D02*
G01*
X123159769Y-123516593D01*
X123191090Y-123533334D01*
X123218539Y-123555861D01*
X123241066Y-123583310D01*
X123257807Y-123614631D01*
X123268115Y-123648609D01*
X123272200Y-123690090D01*
X123272200Y-124366310D01*
X123268115Y-124407791D01*
X123257807Y-124441769D01*
X123241066Y-124473090D01*
X123218539Y-124500539D01*
X123191090Y-124523066D01*
X123159769Y-124539807D01*
X123125791Y-124550115D01*
X123084310Y-124554200D01*
X122483090Y-124554200D01*
X122441609Y-124550115D01*
X122407631Y-124539807D01*
X122376310Y-124523066D01*
X122348861Y-124500539D01*
X122326334Y-124473090D01*
X122309593Y-124441769D01*
X122299285Y-124407791D01*
X122295200Y-124366310D01*
X122295200Y-123690090D01*
X122299285Y-123648609D01*
X122309593Y-123614631D01*
X122326334Y-123583310D01*
X122348861Y-123555861D01*
X122376310Y-123533334D01*
X122407631Y-123516593D01*
X122441609Y-123506285D01*
X122483090Y-123502200D01*
X123084310Y-123502200D01*
X123125791Y-123506285D01*
X123125791Y-123506285D01*
G37*
G36*
X121550791Y-123506285D02*
G01*
X121584769Y-123516593D01*
X121616090Y-123533334D01*
X121643539Y-123555861D01*
X121666066Y-123583310D01*
X121682807Y-123614631D01*
X121693115Y-123648609D01*
X121697200Y-123690090D01*
X121697200Y-124366310D01*
X121693115Y-124407791D01*
X121682807Y-124441769D01*
X121666066Y-124473090D01*
X121643539Y-124500539D01*
X121616090Y-124523066D01*
X121584769Y-124539807D01*
X121550791Y-124550115D01*
X121509310Y-124554200D01*
X120908090Y-124554200D01*
X120866609Y-124550115D01*
X120832631Y-124539807D01*
X120801310Y-124523066D01*
X120773861Y-124500539D01*
X120751334Y-124473090D01*
X120734593Y-124441769D01*
X120724285Y-124407791D01*
X120720200Y-124366310D01*
X120720200Y-123690090D01*
X120724285Y-123648609D01*
X120734593Y-123614631D01*
X120751334Y-123583310D01*
X120773861Y-123555861D01*
X120801310Y-123533334D01*
X120832631Y-123516593D01*
X120866609Y-123506285D01*
X120908090Y-123502200D01*
X121509310Y-123502200D01*
X121550791Y-123506285D01*
X121550791Y-123506285D01*
G37*
G36*
X121626991Y-121804485D02*
G01*
X121660969Y-121814793D01*
X121692290Y-121831534D01*
X121719739Y-121854061D01*
X121742266Y-121881510D01*
X121759007Y-121912831D01*
X121769315Y-121946809D01*
X121773400Y-121988290D01*
X121773400Y-122664510D01*
X121769315Y-122705991D01*
X121759007Y-122739969D01*
X121742266Y-122771290D01*
X121719739Y-122798739D01*
X121692290Y-122821266D01*
X121660969Y-122838007D01*
X121626991Y-122848315D01*
X121585510Y-122852400D01*
X120984290Y-122852400D01*
X120942809Y-122848315D01*
X120908831Y-122838007D01*
X120877510Y-122821266D01*
X120850061Y-122798739D01*
X120827534Y-122771290D01*
X120810793Y-122739969D01*
X120800485Y-122705991D01*
X120796400Y-122664510D01*
X120796400Y-121988290D01*
X120800485Y-121946809D01*
X120810793Y-121912831D01*
X120827534Y-121881510D01*
X120850061Y-121854061D01*
X120877510Y-121831534D01*
X120908831Y-121814793D01*
X120942809Y-121804485D01*
X120984290Y-121800400D01*
X121585510Y-121800400D01*
X121626991Y-121804485D01*
X121626991Y-121804485D01*
G37*
G36*
X123201991Y-121804485D02*
G01*
X123235969Y-121814793D01*
X123267290Y-121831534D01*
X123294739Y-121854061D01*
X123317266Y-121881510D01*
X123334007Y-121912831D01*
X123344315Y-121946809D01*
X123348400Y-121988290D01*
X123348400Y-122664510D01*
X123344315Y-122705991D01*
X123334007Y-122739969D01*
X123317266Y-122771290D01*
X123294739Y-122798739D01*
X123267290Y-122821266D01*
X123235969Y-122838007D01*
X123201991Y-122848315D01*
X123160510Y-122852400D01*
X122559290Y-122852400D01*
X122517809Y-122848315D01*
X122483831Y-122838007D01*
X122452510Y-122821266D01*
X122425061Y-122798739D01*
X122402534Y-122771290D01*
X122385793Y-122739969D01*
X122375485Y-122705991D01*
X122371400Y-122664510D01*
X122371400Y-121988290D01*
X122375485Y-121946809D01*
X122385793Y-121912831D01*
X122402534Y-121881510D01*
X122425061Y-121854061D01*
X122452510Y-121831534D01*
X122483831Y-121814793D01*
X122517809Y-121804485D01*
X122559290Y-121800400D01*
X123160510Y-121800400D01*
X123201991Y-121804485D01*
X123201991Y-121804485D01*
G37*
G36*
X123866804Y-121032200D02*
G01*
X121446396Y-121032200D01*
X122063396Y-117330200D01*
X123249804Y-117330200D01*
X123866804Y-121032200D01*
X123866804Y-121032200D01*
G37*
G36*
X123249804Y-115232200D02*
G01*
X122063396Y-115232200D01*
X121446396Y-111530200D01*
X123866804Y-111530200D01*
X123249804Y-115232200D01*
X123249804Y-115232200D01*
G37*
G36*
X137867340Y-111138026D02*
G01*
X137915736Y-111147653D01*
X137953502Y-111163296D01*
X138006911Y-111185419D01*
X138006912Y-111185420D01*
X138088969Y-111240248D01*
X138158752Y-111310031D01*
X138158753Y-111310033D01*
X138213581Y-111392089D01*
X138251347Y-111483265D01*
X138270600Y-111580055D01*
X138270600Y-111678745D01*
X138251347Y-111775535D01*
X138213581Y-111866711D01*
X138213580Y-111866712D01*
X138158752Y-111948769D01*
X138088969Y-112018552D01*
X138047662Y-112046152D01*
X138006911Y-112073381D01*
X137953502Y-112095504D01*
X137915736Y-112111147D01*
X137867340Y-112120774D01*
X137818945Y-112130400D01*
X137720255Y-112130400D01*
X137671860Y-112120774D01*
X137623464Y-112111147D01*
X137585698Y-112095504D01*
X137532289Y-112073381D01*
X137491538Y-112046152D01*
X137450231Y-112018552D01*
X137380448Y-111948769D01*
X137325620Y-111866712D01*
X137325619Y-111866711D01*
X137287853Y-111775535D01*
X137268600Y-111678745D01*
X137268600Y-111580055D01*
X137287853Y-111483265D01*
X137325619Y-111392089D01*
X137380447Y-111310033D01*
X137380448Y-111310031D01*
X137450231Y-111240248D01*
X137532288Y-111185420D01*
X137532289Y-111185419D01*
X137585698Y-111163296D01*
X137623464Y-111147653D01*
X137671860Y-111138026D01*
X137720255Y-111128400D01*
X137818945Y-111128400D01*
X137867340Y-111138026D01*
X137867340Y-111138026D01*
G37*
G36*
X131276800Y-111912600D02*
G01*
X127174800Y-111912600D01*
X127174800Y-107810600D01*
X131276800Y-107810600D01*
X131276800Y-111912600D01*
X131276800Y-111912600D01*
G37*
G36*
X136320600Y-111405400D02*
G01*
X133718600Y-111405400D01*
X133718600Y-110053400D01*
X136320600Y-110053400D01*
X136320600Y-111405400D01*
X136320600Y-111405400D01*
G37*
G36*
X125667868Y-107584565D02*
G01*
X125706538Y-107596296D01*
X125742177Y-107615346D01*
X125773417Y-107640983D01*
X125799054Y-107672223D01*
X125818104Y-107707862D01*
X125829835Y-107746532D01*
X125834400Y-107792888D01*
X125834400Y-108869112D01*
X125829835Y-108915468D01*
X125818104Y-108954138D01*
X125799054Y-108989777D01*
X125773417Y-109021017D01*
X125742177Y-109046654D01*
X125706538Y-109065704D01*
X125667868Y-109077435D01*
X125621512Y-109082000D01*
X124970288Y-109082000D01*
X124923932Y-109077435D01*
X124885262Y-109065704D01*
X124849623Y-109046654D01*
X124818383Y-109021017D01*
X124792746Y-108989777D01*
X124773696Y-108954138D01*
X124761965Y-108915468D01*
X124757400Y-108869112D01*
X124757400Y-107792888D01*
X124761965Y-107746532D01*
X124773696Y-107707862D01*
X124792746Y-107672223D01*
X124818383Y-107640983D01*
X124849623Y-107615346D01*
X124885262Y-107596296D01*
X124923932Y-107584565D01*
X124970288Y-107580000D01*
X125621512Y-107580000D01*
X125667868Y-107584565D01*
X125667868Y-107584565D01*
G37*
G36*
X123792868Y-107584565D02*
G01*
X123831538Y-107596296D01*
X123867177Y-107615346D01*
X123898417Y-107640983D01*
X123924054Y-107672223D01*
X123943104Y-107707862D01*
X123954835Y-107746532D01*
X123959400Y-107792888D01*
X123959400Y-108869112D01*
X123954835Y-108915468D01*
X123943104Y-108954138D01*
X123924054Y-108989777D01*
X123898417Y-109021017D01*
X123867177Y-109046654D01*
X123831538Y-109065704D01*
X123792868Y-109077435D01*
X123746512Y-109082000D01*
X123095288Y-109082000D01*
X123048932Y-109077435D01*
X123010262Y-109065704D01*
X122974623Y-109046654D01*
X122943383Y-109021017D01*
X122917746Y-108989777D01*
X122898696Y-108954138D01*
X122886965Y-108915468D01*
X122882400Y-108869112D01*
X122882400Y-107792888D01*
X122886965Y-107746532D01*
X122898696Y-107707862D01*
X122917746Y-107672223D01*
X122943383Y-107640983D01*
X122974623Y-107615346D01*
X123010262Y-107596296D01*
X123048932Y-107584565D01*
X123095288Y-107580000D01*
X123746512Y-107580000D01*
X123792868Y-107584565D01*
X123792868Y-107584565D01*
G37*
G36*
X136320600Y-108905400D02*
G01*
X133718600Y-108905400D01*
X133718600Y-107553400D01*
X136320600Y-107553400D01*
X136320600Y-108905400D01*
X136320600Y-108905400D01*
G37*
G36*
X125520899Y-105980645D02*
G01*
X125558395Y-105992020D01*
X125592954Y-106010492D01*
X125623247Y-106035353D01*
X125648108Y-106065646D01*
X125666580Y-106100205D01*
X125677955Y-106137701D01*
X125682400Y-106182838D01*
X125682400Y-106821562D01*
X125677955Y-106866699D01*
X125666580Y-106904195D01*
X125648108Y-106938754D01*
X125623247Y-106969047D01*
X125592954Y-106993908D01*
X125558395Y-107012380D01*
X125520899Y-107023755D01*
X125475762Y-107028200D01*
X124737038Y-107028200D01*
X124691901Y-107023755D01*
X124654405Y-107012380D01*
X124619846Y-106993908D01*
X124589553Y-106969047D01*
X124564692Y-106938754D01*
X124546220Y-106904195D01*
X124534845Y-106866699D01*
X124530400Y-106821562D01*
X124530400Y-106182838D01*
X124534845Y-106137701D01*
X124546220Y-106100205D01*
X124564692Y-106065646D01*
X124589553Y-106035353D01*
X124619846Y-106010492D01*
X124654405Y-105992020D01*
X124691901Y-105980645D01*
X124737038Y-105976200D01*
X125475762Y-105976200D01*
X125520899Y-105980645D01*
X125520899Y-105980645D01*
G37*
G36*
X123770899Y-105980645D02*
G01*
X123808395Y-105992020D01*
X123842954Y-106010492D01*
X123873247Y-106035353D01*
X123898108Y-106065646D01*
X123916580Y-106100205D01*
X123927955Y-106137701D01*
X123932400Y-106182838D01*
X123932400Y-106821562D01*
X123927955Y-106866699D01*
X123916580Y-106904195D01*
X123898108Y-106938754D01*
X123873247Y-106969047D01*
X123842954Y-106993908D01*
X123808395Y-107012380D01*
X123770899Y-107023755D01*
X123725762Y-107028200D01*
X122987038Y-107028200D01*
X122941901Y-107023755D01*
X122904405Y-107012380D01*
X122869846Y-106993908D01*
X122839553Y-106969047D01*
X122814692Y-106938754D01*
X122796220Y-106904195D01*
X122784845Y-106866699D01*
X122780400Y-106821562D01*
X122780400Y-106182838D01*
X122784845Y-106137701D01*
X122796220Y-106100205D01*
X122814692Y-106065646D01*
X122839553Y-106035353D01*
X122869846Y-106010492D01*
X122904405Y-105992020D01*
X122941901Y-105980645D01*
X122987038Y-105976200D01*
X123725762Y-105976200D01*
X123770899Y-105980645D01*
X123770899Y-105980645D01*
G37*
G36*
X136320600Y-106405400D02*
G01*
X133718600Y-106405400D01*
X133718600Y-105053400D01*
X136320600Y-105053400D01*
X136320600Y-106405400D01*
X136320600Y-106405400D01*
G37*
G36*
X137867340Y-104338026D02*
G01*
X137915736Y-104347653D01*
X137953502Y-104363296D01*
X138006911Y-104385419D01*
X138006912Y-104385420D01*
X138088969Y-104440248D01*
X138158752Y-104510031D01*
X138158753Y-104510033D01*
X138213581Y-104592089D01*
X138251347Y-104683265D01*
X138270600Y-104780055D01*
X138270600Y-104878745D01*
X138251347Y-104975535D01*
X138213581Y-105066711D01*
X138213580Y-105066712D01*
X138158752Y-105148769D01*
X138088969Y-105218552D01*
X138054126Y-105241833D01*
X138006911Y-105273381D01*
X137953502Y-105295504D01*
X137915736Y-105311147D01*
X137867340Y-105320773D01*
X137818945Y-105330400D01*
X137720255Y-105330400D01*
X137671860Y-105320773D01*
X137623464Y-105311147D01*
X137585698Y-105295504D01*
X137532289Y-105273381D01*
X137485074Y-105241833D01*
X137450231Y-105218552D01*
X137380448Y-105148769D01*
X137325620Y-105066712D01*
X137325619Y-105066711D01*
X137287853Y-104975535D01*
X137268600Y-104878745D01*
X137268600Y-104780055D01*
X137287853Y-104683265D01*
X137325619Y-104592089D01*
X137380447Y-104510033D01*
X137380448Y-104510031D01*
X137450231Y-104440248D01*
X137532288Y-104385420D01*
X137532289Y-104385419D01*
X137585698Y-104363296D01*
X137623464Y-104347653D01*
X137671860Y-104338026D01*
X137720255Y-104328400D01*
X137818945Y-104328400D01*
X137867340Y-104338026D01*
X137867340Y-104338026D01*
G37*
G36*
X126966598Y-103799247D02*
G01*
X127002167Y-103810037D01*
X127034939Y-103827554D01*
X127063669Y-103851131D01*
X127087246Y-103879861D01*
X127104763Y-103912633D01*
X127115553Y-103948202D01*
X127119800Y-103991325D01*
X127119800Y-105050675D01*
X127115553Y-105093798D01*
X127104763Y-105129367D01*
X127087246Y-105162139D01*
X127063669Y-105190869D01*
X127034939Y-105214446D01*
X127002167Y-105231963D01*
X126966598Y-105242753D01*
X126923475Y-105247000D01*
X125814125Y-105247000D01*
X125771002Y-105242753D01*
X125735433Y-105231963D01*
X125702661Y-105214446D01*
X125673931Y-105190869D01*
X125650354Y-105162139D01*
X125632837Y-105129367D01*
X125622047Y-105093798D01*
X125617800Y-105050675D01*
X125617800Y-103991325D01*
X125622047Y-103948202D01*
X125632837Y-103912633D01*
X125650354Y-103879861D01*
X125673931Y-103851131D01*
X125702661Y-103827554D01*
X125735433Y-103810037D01*
X125771002Y-103799247D01*
X125814125Y-103795000D01*
X126923475Y-103795000D01*
X126966598Y-103799247D01*
X126966598Y-103799247D01*
G37*
G36*
X124266598Y-103799247D02*
G01*
X124302167Y-103810037D01*
X124334939Y-103827554D01*
X124363669Y-103851131D01*
X124387246Y-103879861D01*
X124404763Y-103912633D01*
X124415553Y-103948202D01*
X124419800Y-103991325D01*
X124419800Y-105050675D01*
X124415553Y-105093798D01*
X124404763Y-105129367D01*
X124387246Y-105162139D01*
X124363669Y-105190869D01*
X124334939Y-105214446D01*
X124302167Y-105231963D01*
X124266598Y-105242753D01*
X124223475Y-105247000D01*
X123114125Y-105247000D01*
X123071002Y-105242753D01*
X123035433Y-105231963D01*
X123002661Y-105214446D01*
X122973931Y-105190869D01*
X122950354Y-105162139D01*
X122932837Y-105129367D01*
X122922047Y-105093798D01*
X122917800Y-105050675D01*
X122917800Y-103991325D01*
X122922047Y-103948202D01*
X122932837Y-103912633D01*
X122950354Y-103879861D01*
X122973931Y-103851131D01*
X123002661Y-103827554D01*
X123035433Y-103810037D01*
X123071002Y-103799247D01*
X123114125Y-103795000D01*
X124223475Y-103795000D01*
X124266598Y-103799247D01*
X124266598Y-103799247D01*
G37*
G36*
X128711000Y-102161000D02*
G01*
X126609000Y-102161000D01*
X126609000Y-100559000D01*
X128711000Y-100559000D01*
X128711000Y-102161000D01*
X128711000Y-102161000D01*
G37*
G36*
X135011000Y-101011000D02*
G01*
X132909000Y-101011000D01*
X132909000Y-97109000D01*
X135011000Y-97109000D01*
X135011000Y-101011000D01*
X135011000Y-101011000D01*
G37*
G36*
X128711000Y-99861000D02*
G01*
X126609000Y-99861000D01*
X126609000Y-98259000D01*
X128711000Y-98259000D01*
X128711000Y-99861000D01*
X128711000Y-99861000D01*
G37*
G36*
X128711000Y-97561000D02*
G01*
X126609000Y-97561000D01*
X126609000Y-95959000D01*
X128711000Y-95959000D01*
X128711000Y-97561000D01*
X128711000Y-97561000D01*
G37*
G36*
X137744468Y-92656365D02*
G01*
X137783138Y-92668096D01*
X137818777Y-92687146D01*
X137850017Y-92712783D01*
X137875654Y-92744023D01*
X137894704Y-92779662D01*
X137906435Y-92818332D01*
X137911000Y-92864688D01*
X137911000Y-93515912D01*
X137906435Y-93562268D01*
X137894704Y-93600938D01*
X137875654Y-93636577D01*
X137850017Y-93667817D01*
X137818777Y-93693454D01*
X137783138Y-93712504D01*
X137744468Y-93724235D01*
X137698112Y-93728800D01*
X136621888Y-93728800D01*
X136575532Y-93724235D01*
X136536862Y-93712504D01*
X136501223Y-93693454D01*
X136469983Y-93667817D01*
X136444346Y-93636577D01*
X136425296Y-93600938D01*
X136413565Y-93562268D01*
X136409000Y-93515912D01*
X136409000Y-92864688D01*
X136413565Y-92818332D01*
X136425296Y-92779662D01*
X136444346Y-92744023D01*
X136469983Y-92712783D01*
X136501223Y-92687146D01*
X136536862Y-92668096D01*
X136575532Y-92656365D01*
X136621888Y-92651800D01*
X137698112Y-92651800D01*
X137744468Y-92656365D01*
X137744468Y-92656365D01*
G37*
G36*
X139378699Y-92556245D02*
G01*
X139416195Y-92567620D01*
X139450754Y-92586092D01*
X139481047Y-92610953D01*
X139505908Y-92641246D01*
X139524380Y-92675805D01*
X139535755Y-92713301D01*
X139540200Y-92758438D01*
X139540200Y-93497162D01*
X139535755Y-93542299D01*
X139524380Y-93579795D01*
X139505908Y-93614354D01*
X139481047Y-93644647D01*
X139450754Y-93669508D01*
X139416195Y-93687980D01*
X139378699Y-93699355D01*
X139333562Y-93703800D01*
X138694838Y-93703800D01*
X138649701Y-93699355D01*
X138612205Y-93687980D01*
X138577646Y-93669508D01*
X138547353Y-93644647D01*
X138522492Y-93614354D01*
X138504020Y-93579795D01*
X138492645Y-93542299D01*
X138488200Y-93497162D01*
X138488200Y-92758438D01*
X138492645Y-92713301D01*
X138504020Y-92675805D01*
X138522492Y-92641246D01*
X138547353Y-92610953D01*
X138577646Y-92586092D01*
X138612205Y-92567620D01*
X138649701Y-92556245D01*
X138694838Y-92551800D01*
X139333562Y-92551800D01*
X139378699Y-92556245D01*
X139378699Y-92556245D01*
G37*
G36*
X139378699Y-90806245D02*
G01*
X139416195Y-90817620D01*
X139450754Y-90836092D01*
X139481047Y-90860953D01*
X139505908Y-90891246D01*
X139524380Y-90925805D01*
X139535755Y-90963301D01*
X139540200Y-91008438D01*
X139540200Y-91747162D01*
X139535755Y-91792299D01*
X139524380Y-91829795D01*
X139505908Y-91864354D01*
X139481047Y-91894647D01*
X139450754Y-91919508D01*
X139416195Y-91937980D01*
X139378699Y-91949355D01*
X139333562Y-91953800D01*
X138694838Y-91953800D01*
X138649701Y-91949355D01*
X138612205Y-91937980D01*
X138577646Y-91919508D01*
X138547353Y-91894647D01*
X138522492Y-91864354D01*
X138504020Y-91829795D01*
X138492645Y-91792299D01*
X138488200Y-91747162D01*
X138488200Y-91008438D01*
X138492645Y-90963301D01*
X138504020Y-90925805D01*
X138522492Y-90891246D01*
X138547353Y-90860953D01*
X138577646Y-90836092D01*
X138612205Y-90817620D01*
X138649701Y-90806245D01*
X138694838Y-90801800D01*
X139333562Y-90801800D01*
X139378699Y-90806245D01*
X139378699Y-90806245D01*
G37*
G36*
X137744468Y-90781365D02*
G01*
X137783138Y-90793096D01*
X137818777Y-90812146D01*
X137850017Y-90837783D01*
X137875654Y-90869023D01*
X137894704Y-90904662D01*
X137906435Y-90943332D01*
X137911000Y-90989688D01*
X137911000Y-91640912D01*
X137906435Y-91687268D01*
X137894704Y-91725938D01*
X137875654Y-91761577D01*
X137850017Y-91792817D01*
X137818777Y-91818454D01*
X137783138Y-91837504D01*
X137744468Y-91849235D01*
X137698112Y-91853800D01*
X136621888Y-91853800D01*
X136575532Y-91849235D01*
X136536862Y-91837504D01*
X136501223Y-91818454D01*
X136469983Y-91792817D01*
X136444346Y-91761577D01*
X136425296Y-91725938D01*
X136413565Y-91687268D01*
X136409000Y-91640912D01*
X136409000Y-90989688D01*
X136413565Y-90943332D01*
X136425296Y-90904662D01*
X136444346Y-90869023D01*
X136469983Y-90837783D01*
X136501223Y-90812146D01*
X136536862Y-90793096D01*
X136575532Y-90781365D01*
X136621888Y-90776800D01*
X137698112Y-90776800D01*
X137744468Y-90781365D01*
X137744468Y-90781365D01*
G37*
G36*
X127672191Y-87489085D02*
G01*
X127706169Y-87499393D01*
X127737490Y-87516134D01*
X127764939Y-87538661D01*
X127787466Y-87566110D01*
X127804207Y-87597431D01*
X127814515Y-87631409D01*
X127818600Y-87672890D01*
X127818600Y-88349110D01*
X127814515Y-88390591D01*
X127804207Y-88424569D01*
X127787466Y-88455890D01*
X127764939Y-88483339D01*
X127737490Y-88505866D01*
X127706169Y-88522607D01*
X127672191Y-88532915D01*
X127630710Y-88537000D01*
X127029490Y-88537000D01*
X126988009Y-88532915D01*
X126954031Y-88522607D01*
X126922710Y-88505866D01*
X126895261Y-88483339D01*
X126872734Y-88455890D01*
X126855993Y-88424569D01*
X126845685Y-88390591D01*
X126841600Y-88349110D01*
X126841600Y-87672890D01*
X126845685Y-87631409D01*
X126855993Y-87597431D01*
X126872734Y-87566110D01*
X126895261Y-87538661D01*
X126922710Y-87516134D01*
X126954031Y-87499393D01*
X126988009Y-87489085D01*
X127029490Y-87485000D01*
X127630710Y-87485000D01*
X127672191Y-87489085D01*
X127672191Y-87489085D01*
G37*
G36*
X129247191Y-87489085D02*
G01*
X129281169Y-87499393D01*
X129312490Y-87516134D01*
X129339939Y-87538661D01*
X129362466Y-87566110D01*
X129379207Y-87597431D01*
X129389515Y-87631409D01*
X129393600Y-87672890D01*
X129393600Y-88349110D01*
X129389515Y-88390591D01*
X129379207Y-88424569D01*
X129362466Y-88455890D01*
X129339939Y-88483339D01*
X129312490Y-88505866D01*
X129281169Y-88522607D01*
X129247191Y-88532915D01*
X129205710Y-88537000D01*
X128604490Y-88537000D01*
X128563009Y-88532915D01*
X128529031Y-88522607D01*
X128497710Y-88505866D01*
X128470261Y-88483339D01*
X128447734Y-88455890D01*
X128430993Y-88424569D01*
X128420685Y-88390591D01*
X128416600Y-88349110D01*
X128416600Y-87672890D01*
X128420685Y-87631409D01*
X128430993Y-87597431D01*
X128447734Y-87566110D01*
X128470261Y-87538661D01*
X128497710Y-87516134D01*
X128529031Y-87499393D01*
X128563009Y-87489085D01*
X128604490Y-87485000D01*
X129205710Y-87485000D01*
X129247191Y-87489085D01*
X129247191Y-87489085D01*
G37*
G36*
X131228291Y-87463685D02*
G01*
X131262269Y-87473993D01*
X131293590Y-87490734D01*
X131321039Y-87513261D01*
X131343566Y-87540710D01*
X131360307Y-87572031D01*
X131370615Y-87606009D01*
X131374700Y-87647490D01*
X131374700Y-88323710D01*
X131370615Y-88365191D01*
X131360307Y-88399169D01*
X131343566Y-88430490D01*
X131321039Y-88457939D01*
X131293590Y-88480466D01*
X131262269Y-88497207D01*
X131228291Y-88507515D01*
X131186810Y-88511600D01*
X130585590Y-88511600D01*
X130544109Y-88507515D01*
X130510131Y-88497207D01*
X130478810Y-88480466D01*
X130451361Y-88457939D01*
X130428834Y-88430490D01*
X130412093Y-88399169D01*
X130401785Y-88365191D01*
X130397700Y-88323710D01*
X130397700Y-87647490D01*
X130401785Y-87606009D01*
X130412093Y-87572031D01*
X130428834Y-87540710D01*
X130451361Y-87513261D01*
X130478810Y-87490734D01*
X130510131Y-87473993D01*
X130544109Y-87463685D01*
X130585590Y-87459600D01*
X131186810Y-87459600D01*
X131228291Y-87463685D01*
X131228291Y-87463685D01*
G37*
G36*
X132803291Y-87463685D02*
G01*
X132837269Y-87473993D01*
X132868590Y-87490734D01*
X132896039Y-87513261D01*
X132918566Y-87540710D01*
X132935307Y-87572031D01*
X132945615Y-87606009D01*
X132949700Y-87647490D01*
X132949700Y-88323710D01*
X132945615Y-88365191D01*
X132935307Y-88399169D01*
X132918566Y-88430490D01*
X132896039Y-88457939D01*
X132868590Y-88480466D01*
X132837269Y-88497207D01*
X132803291Y-88507515D01*
X132761810Y-88511600D01*
X132160590Y-88511600D01*
X132119109Y-88507515D01*
X132085131Y-88497207D01*
X132053810Y-88480466D01*
X132026361Y-88457939D01*
X132003834Y-88430490D01*
X131987093Y-88399169D01*
X131976785Y-88365191D01*
X131972700Y-88323710D01*
X131972700Y-87647490D01*
X131976785Y-87606009D01*
X131987093Y-87572031D01*
X132003834Y-87540710D01*
X132026361Y-87513261D01*
X132053810Y-87490734D01*
X132085131Y-87473993D01*
X132119109Y-87463685D01*
X132160590Y-87459600D01*
X132761810Y-87459600D01*
X132803291Y-87463685D01*
X132803291Y-87463685D01*
G37*
G36*
X131202891Y-82847235D02*
G01*
X131236869Y-82857543D01*
X131268190Y-82874284D01*
X131295639Y-82896811D01*
X131318166Y-82924260D01*
X131334907Y-82955581D01*
X131345215Y-82989559D01*
X131349300Y-83031040D01*
X131349300Y-83707260D01*
X131345215Y-83748741D01*
X131334907Y-83782719D01*
X131318166Y-83814040D01*
X131295639Y-83841489D01*
X131268190Y-83864016D01*
X131236869Y-83880757D01*
X131202891Y-83891065D01*
X131161410Y-83895150D01*
X130560190Y-83895150D01*
X130518709Y-83891065D01*
X130484731Y-83880757D01*
X130453410Y-83864016D01*
X130425961Y-83841489D01*
X130403434Y-83814040D01*
X130386693Y-83782719D01*
X130376385Y-83748741D01*
X130372300Y-83707260D01*
X130372300Y-83031040D01*
X130376385Y-82989559D01*
X130386693Y-82955581D01*
X130403434Y-82924260D01*
X130425961Y-82896811D01*
X130453410Y-82874284D01*
X130484731Y-82857543D01*
X130518709Y-82847235D01*
X130560190Y-82843150D01*
X131161410Y-82843150D01*
X131202891Y-82847235D01*
X131202891Y-82847235D01*
G37*
G36*
X132777891Y-82847235D02*
G01*
X132811869Y-82857543D01*
X132843190Y-82874284D01*
X132870639Y-82896811D01*
X132893166Y-82924260D01*
X132909907Y-82955581D01*
X132920215Y-82989559D01*
X132924300Y-83031040D01*
X132924300Y-83707260D01*
X132920215Y-83748741D01*
X132909907Y-83782719D01*
X132893166Y-83814040D01*
X132870639Y-83841489D01*
X132843190Y-83864016D01*
X132811869Y-83880757D01*
X132777891Y-83891065D01*
X132736410Y-83895150D01*
X132135190Y-83895150D01*
X132093709Y-83891065D01*
X132059731Y-83880757D01*
X132028410Y-83864016D01*
X132000961Y-83841489D01*
X131978434Y-83814040D01*
X131961693Y-83782719D01*
X131951385Y-83748741D01*
X131947300Y-83707260D01*
X131947300Y-83031040D01*
X131951385Y-82989559D01*
X131961693Y-82955581D01*
X131978434Y-82924260D01*
X132000961Y-82896811D01*
X132028410Y-82874284D01*
X132059731Y-82857543D01*
X132093709Y-82847235D01*
X132135190Y-82843150D01*
X132736410Y-82843150D01*
X132777891Y-82847235D01*
X132777891Y-82847235D01*
G37*
G36*
X127773791Y-82815485D02*
G01*
X127807769Y-82825793D01*
X127839090Y-82842534D01*
X127866539Y-82865061D01*
X127889066Y-82892510D01*
X127905807Y-82923831D01*
X127916115Y-82957809D01*
X127920200Y-82999290D01*
X127920200Y-83675510D01*
X127916115Y-83716991D01*
X127905807Y-83750969D01*
X127889066Y-83782290D01*
X127866539Y-83809739D01*
X127839090Y-83832266D01*
X127807769Y-83849007D01*
X127773791Y-83859315D01*
X127732310Y-83863400D01*
X127131090Y-83863400D01*
X127089609Y-83859315D01*
X127055631Y-83849007D01*
X127024310Y-83832266D01*
X126996861Y-83809739D01*
X126974334Y-83782290D01*
X126957593Y-83750969D01*
X126947285Y-83716991D01*
X126943200Y-83675510D01*
X126943200Y-82999290D01*
X126947285Y-82957809D01*
X126957593Y-82923831D01*
X126974334Y-82892510D01*
X126996861Y-82865061D01*
X127024310Y-82842534D01*
X127055631Y-82825793D01*
X127089609Y-82815485D01*
X127131090Y-82811400D01*
X127732310Y-82811400D01*
X127773791Y-82815485D01*
X127773791Y-82815485D01*
G37*
G36*
X129348791Y-82815485D02*
G01*
X129382769Y-82825793D01*
X129414090Y-82842534D01*
X129441539Y-82865061D01*
X129464066Y-82892510D01*
X129480807Y-82923831D01*
X129491115Y-82957809D01*
X129495200Y-82999290D01*
X129495200Y-83675510D01*
X129491115Y-83716991D01*
X129480807Y-83750969D01*
X129464066Y-83782290D01*
X129441539Y-83809739D01*
X129414090Y-83832266D01*
X129382769Y-83849007D01*
X129348791Y-83859315D01*
X129307310Y-83863400D01*
X128706090Y-83863400D01*
X128664609Y-83859315D01*
X128630631Y-83849007D01*
X128599310Y-83832266D01*
X128571861Y-83809739D01*
X128549334Y-83782290D01*
X128532593Y-83750969D01*
X128522285Y-83716991D01*
X128518200Y-83675510D01*
X128518200Y-82999290D01*
X128522285Y-82957809D01*
X128532593Y-82923831D01*
X128549334Y-82892510D01*
X128571861Y-82865061D01*
X128599310Y-82842534D01*
X128630631Y-82825793D01*
X128664609Y-82815485D01*
X128706090Y-82811400D01*
X129307310Y-82811400D01*
X129348791Y-82815485D01*
X129348791Y-82815485D01*
G37*
G36*
X131228291Y-78230785D02*
G01*
X131262269Y-78241093D01*
X131293590Y-78257834D01*
X131321039Y-78280361D01*
X131343566Y-78307810D01*
X131360307Y-78339131D01*
X131370615Y-78373109D01*
X131374700Y-78414590D01*
X131374700Y-79090810D01*
X131370615Y-79132291D01*
X131360307Y-79166269D01*
X131343566Y-79197590D01*
X131321039Y-79225039D01*
X131293590Y-79247566D01*
X131262269Y-79264307D01*
X131228291Y-79274615D01*
X131186810Y-79278700D01*
X130585590Y-79278700D01*
X130544109Y-79274615D01*
X130510131Y-79264307D01*
X130478810Y-79247566D01*
X130451361Y-79225039D01*
X130428834Y-79197590D01*
X130412093Y-79166269D01*
X130401785Y-79132291D01*
X130397700Y-79090810D01*
X130397700Y-78414590D01*
X130401785Y-78373109D01*
X130412093Y-78339131D01*
X130428834Y-78307810D01*
X130451361Y-78280361D01*
X130478810Y-78257834D01*
X130510131Y-78241093D01*
X130544109Y-78230785D01*
X130585590Y-78226700D01*
X131186810Y-78226700D01*
X131228291Y-78230785D01*
X131228291Y-78230785D01*
G37*
G36*
X132803291Y-78230785D02*
G01*
X132837269Y-78241093D01*
X132868590Y-78257834D01*
X132896039Y-78280361D01*
X132918566Y-78307810D01*
X132935307Y-78339131D01*
X132945615Y-78373109D01*
X132949700Y-78414590D01*
X132949700Y-79090810D01*
X132945615Y-79132291D01*
X132935307Y-79166269D01*
X132918566Y-79197590D01*
X132896039Y-79225039D01*
X132868590Y-79247566D01*
X132837269Y-79264307D01*
X132803291Y-79274615D01*
X132761810Y-79278700D01*
X132160590Y-79278700D01*
X132119109Y-79274615D01*
X132085131Y-79264307D01*
X132053810Y-79247566D01*
X132026361Y-79225039D01*
X132003834Y-79197590D01*
X131987093Y-79166269D01*
X131976785Y-79132291D01*
X131972700Y-79090810D01*
X131972700Y-78414590D01*
X131976785Y-78373109D01*
X131987093Y-78339131D01*
X132003834Y-78307810D01*
X132026361Y-78280361D01*
X132053810Y-78257834D01*
X132085131Y-78241093D01*
X132119109Y-78230785D01*
X132160590Y-78226700D01*
X132761810Y-78226700D01*
X132803291Y-78230785D01*
X132803291Y-78230785D01*
G37*
G36*
X127748291Y-78218085D02*
G01*
X127782269Y-78228393D01*
X127813590Y-78245134D01*
X127841039Y-78267661D01*
X127863566Y-78295110D01*
X127880307Y-78326431D01*
X127890615Y-78360409D01*
X127894700Y-78401890D01*
X127894700Y-79078110D01*
X127890615Y-79119591D01*
X127880307Y-79153569D01*
X127863566Y-79184890D01*
X127841039Y-79212339D01*
X127813590Y-79234866D01*
X127782269Y-79251607D01*
X127748291Y-79261915D01*
X127706810Y-79266000D01*
X127105590Y-79266000D01*
X127064109Y-79261915D01*
X127030131Y-79251607D01*
X126998810Y-79234866D01*
X126971361Y-79212339D01*
X126948834Y-79184890D01*
X126932093Y-79153569D01*
X126921785Y-79119591D01*
X126917700Y-79078110D01*
X126917700Y-78401890D01*
X126921785Y-78360409D01*
X126932093Y-78326431D01*
X126948834Y-78295110D01*
X126971361Y-78267661D01*
X126998810Y-78245134D01*
X127030131Y-78228393D01*
X127064109Y-78218085D01*
X127105590Y-78214000D01*
X127706810Y-78214000D01*
X127748291Y-78218085D01*
X127748291Y-78218085D01*
G37*
G36*
X129323291Y-78218085D02*
G01*
X129357269Y-78228393D01*
X129388590Y-78245134D01*
X129416039Y-78267661D01*
X129438566Y-78295110D01*
X129455307Y-78326431D01*
X129465615Y-78360409D01*
X129469700Y-78401890D01*
X129469700Y-79078110D01*
X129465615Y-79119591D01*
X129455307Y-79153569D01*
X129438566Y-79184890D01*
X129416039Y-79212339D01*
X129388590Y-79234866D01*
X129357269Y-79251607D01*
X129323291Y-79261915D01*
X129281810Y-79266000D01*
X128680590Y-79266000D01*
X128639109Y-79261915D01*
X128605131Y-79251607D01*
X128573810Y-79234866D01*
X128546361Y-79212339D01*
X128523834Y-79184890D01*
X128507093Y-79153569D01*
X128496785Y-79119591D01*
X128492700Y-79078110D01*
X128492700Y-78401890D01*
X128496785Y-78360409D01*
X128507093Y-78326431D01*
X128523834Y-78295110D01*
X128546361Y-78267661D01*
X128573810Y-78245134D01*
X128605131Y-78228393D01*
X128639109Y-78218085D01*
X128680590Y-78214000D01*
X129281810Y-78214000D01*
X129323291Y-78218085D01*
X129323291Y-78218085D01*
G37*
G36*
X130440991Y-75805085D02*
G01*
X130474969Y-75815393D01*
X130506290Y-75832134D01*
X130533739Y-75854661D01*
X130556266Y-75882110D01*
X130573007Y-75913431D01*
X130583315Y-75947409D01*
X130587400Y-75988890D01*
X130587400Y-76665110D01*
X130583315Y-76706591D01*
X130573007Y-76740569D01*
X130556266Y-76771890D01*
X130533739Y-76799339D01*
X130506290Y-76821866D01*
X130474969Y-76838607D01*
X130440991Y-76848915D01*
X130399510Y-76853000D01*
X129798290Y-76853000D01*
X129756809Y-76848915D01*
X129722831Y-76838607D01*
X129691510Y-76821866D01*
X129664061Y-76799339D01*
X129641534Y-76771890D01*
X129624793Y-76740569D01*
X129614485Y-76706591D01*
X129610400Y-76665110D01*
X129610400Y-75988890D01*
X129614485Y-75947409D01*
X129624793Y-75913431D01*
X129641534Y-75882110D01*
X129664061Y-75854661D01*
X129691510Y-75832134D01*
X129722831Y-75815393D01*
X129756809Y-75805085D01*
X129798290Y-75801000D01*
X130399510Y-75801000D01*
X130440991Y-75805085D01*
X130440991Y-75805085D01*
G37*
G36*
X128865991Y-75805085D02*
G01*
X128899969Y-75815393D01*
X128931290Y-75832134D01*
X128958739Y-75854661D01*
X128981266Y-75882110D01*
X128998007Y-75913431D01*
X129008315Y-75947409D01*
X129012400Y-75988890D01*
X129012400Y-76665110D01*
X129008315Y-76706591D01*
X128998007Y-76740569D01*
X128981266Y-76771890D01*
X128958739Y-76799339D01*
X128931290Y-76821866D01*
X128899969Y-76838607D01*
X128865991Y-76848915D01*
X128824510Y-76853000D01*
X128223290Y-76853000D01*
X128181809Y-76848915D01*
X128147831Y-76838607D01*
X128116510Y-76821866D01*
X128089061Y-76799339D01*
X128066534Y-76771890D01*
X128049793Y-76740569D01*
X128039485Y-76706591D01*
X128035400Y-76665110D01*
X128035400Y-75988890D01*
X128039485Y-75947409D01*
X128049793Y-75913431D01*
X128066534Y-75882110D01*
X128089061Y-75854661D01*
X128116510Y-75832134D01*
X128147831Y-75815393D01*
X128181809Y-75805085D01*
X128223290Y-75801000D01*
X128824510Y-75801000D01*
X128865991Y-75805085D01*
X128865991Y-75805085D01*
G37*
G36*
X122416431Y-75451525D02*
G01*
X122450409Y-75461833D01*
X122481730Y-75478574D01*
X122509179Y-75501101D01*
X122531706Y-75528550D01*
X122548447Y-75559871D01*
X122558755Y-75593849D01*
X122562840Y-75635330D01*
X122562840Y-76236550D01*
X122558755Y-76278031D01*
X122548447Y-76312009D01*
X122531706Y-76343330D01*
X122509179Y-76370779D01*
X122481730Y-76393306D01*
X122450409Y-76410047D01*
X122416431Y-76420355D01*
X122374950Y-76424440D01*
X121698730Y-76424440D01*
X121657249Y-76420355D01*
X121623271Y-76410047D01*
X121591950Y-76393306D01*
X121564501Y-76370779D01*
X121541974Y-76343330D01*
X121525233Y-76312009D01*
X121514925Y-76278031D01*
X121510840Y-76236550D01*
X121510840Y-75635330D01*
X121514925Y-75593849D01*
X121525233Y-75559871D01*
X121541974Y-75528550D01*
X121564501Y-75501101D01*
X121591950Y-75478574D01*
X121623271Y-75461833D01*
X121657249Y-75451525D01*
X121698730Y-75447440D01*
X122374950Y-75447440D01*
X122416431Y-75451525D01*
X122416431Y-75451525D01*
G37*
G36*
X128865991Y-74230285D02*
G01*
X128899969Y-74240593D01*
X128931290Y-74257334D01*
X128958739Y-74279861D01*
X128981266Y-74307310D01*
X128998007Y-74338631D01*
X129008315Y-74372609D01*
X129012400Y-74414090D01*
X129012400Y-75090310D01*
X129008315Y-75131791D01*
X128998007Y-75165769D01*
X128981266Y-75197090D01*
X128958739Y-75224539D01*
X128931290Y-75247066D01*
X128899969Y-75263807D01*
X128865991Y-75274115D01*
X128824510Y-75278200D01*
X128223290Y-75278200D01*
X128181809Y-75274115D01*
X128147831Y-75263807D01*
X128116510Y-75247066D01*
X128089061Y-75224539D01*
X128066534Y-75197090D01*
X128049793Y-75165769D01*
X128039485Y-75131791D01*
X128035400Y-75090310D01*
X128035400Y-74414090D01*
X128039485Y-74372609D01*
X128049793Y-74338631D01*
X128066534Y-74307310D01*
X128089061Y-74279861D01*
X128116510Y-74257334D01*
X128147831Y-74240593D01*
X128181809Y-74230285D01*
X128223290Y-74226200D01*
X128824510Y-74226200D01*
X128865991Y-74230285D01*
X128865991Y-74230285D01*
G37*
G36*
X130440991Y-74230285D02*
G01*
X130474969Y-74240593D01*
X130506290Y-74257334D01*
X130533739Y-74279861D01*
X130556266Y-74307310D01*
X130573007Y-74338631D01*
X130583315Y-74372609D01*
X130587400Y-74414090D01*
X130587400Y-75090310D01*
X130583315Y-75131791D01*
X130573007Y-75165769D01*
X130556266Y-75197090D01*
X130533739Y-75224539D01*
X130506290Y-75247066D01*
X130474969Y-75263807D01*
X130440991Y-75274115D01*
X130399510Y-75278200D01*
X129798290Y-75278200D01*
X129756809Y-75274115D01*
X129722831Y-75263807D01*
X129691510Y-75247066D01*
X129664061Y-75224539D01*
X129641534Y-75197090D01*
X129624793Y-75165769D01*
X129614485Y-75131791D01*
X129610400Y-75090310D01*
X129610400Y-74414090D01*
X129614485Y-74372609D01*
X129624793Y-74338631D01*
X129641534Y-74307310D01*
X129664061Y-74279861D01*
X129691510Y-74257334D01*
X129722831Y-74240593D01*
X129756809Y-74230285D01*
X129798290Y-74226200D01*
X130399510Y-74226200D01*
X130440991Y-74230285D01*
X130440991Y-74230285D01*
G37*
G36*
X122416431Y-73876525D02*
G01*
X122450409Y-73886833D01*
X122481730Y-73903574D01*
X122509179Y-73926101D01*
X122531706Y-73953550D01*
X122548447Y-73984871D01*
X122558755Y-74018849D01*
X122562840Y-74060330D01*
X122562840Y-74661550D01*
X122558755Y-74703031D01*
X122548447Y-74737009D01*
X122531706Y-74768330D01*
X122509179Y-74795779D01*
X122481730Y-74818306D01*
X122450409Y-74835047D01*
X122416431Y-74845355D01*
X122374950Y-74849440D01*
X121698730Y-74849440D01*
X121657249Y-74845355D01*
X121623271Y-74835047D01*
X121591950Y-74818306D01*
X121564501Y-74795779D01*
X121541974Y-74768330D01*
X121525233Y-74737009D01*
X121514925Y-74703031D01*
X121510840Y-74661550D01*
X121510840Y-74060330D01*
X121514925Y-74018849D01*
X121525233Y-73984871D01*
X121541974Y-73953550D01*
X121564501Y-73926101D01*
X121591950Y-73903574D01*
X121623271Y-73886833D01*
X121657249Y-73876525D01*
X121698730Y-73872440D01*
X122374950Y-73872440D01*
X122416431Y-73876525D01*
X122416431Y-73876525D01*
G37*
G36*
X139127800Y-73321000D02*
G01*
X137325800Y-73321000D01*
X137325800Y-72319000D01*
X139127800Y-72319000D01*
X139127800Y-73321000D01*
X139127800Y-73321000D01*
G37*
G36*
X122719400Y-73321000D02*
G01*
X120917400Y-73321000D01*
X120917400Y-72319000D01*
X122719400Y-72319000D01*
X122719400Y-73321000D01*
X122719400Y-73321000D01*
G37*
G36*
X128329643Y-71216119D02*
G01*
X128395827Y-71222637D01*
X128565666Y-71274157D01*
X128722191Y-71357822D01*
X128757929Y-71387152D01*
X128859386Y-71470414D01*
X128942648Y-71571871D01*
X128971978Y-71607609D01*
X129055643Y-71764134D01*
X129107163Y-71933973D01*
X129124559Y-72110600D01*
X129107163Y-72287227D01*
X129055643Y-72457066D01*
X128971978Y-72613591D01*
X128942648Y-72649329D01*
X128859386Y-72750786D01*
X128757929Y-72834048D01*
X128722191Y-72863378D01*
X128565666Y-72947043D01*
X128395827Y-72998563D01*
X128329643Y-73005081D01*
X128263460Y-73011600D01*
X128174940Y-73011600D01*
X128108757Y-73005081D01*
X128042573Y-72998563D01*
X127872734Y-72947043D01*
X127716209Y-72863378D01*
X127680471Y-72834048D01*
X127579014Y-72750786D01*
X127495752Y-72649329D01*
X127466422Y-72613591D01*
X127382757Y-72457066D01*
X127331237Y-72287227D01*
X127313841Y-72110600D01*
X127331237Y-71933973D01*
X127382757Y-71764134D01*
X127466422Y-71607609D01*
X127495752Y-71571871D01*
X127579014Y-71470414D01*
X127680471Y-71387152D01*
X127716209Y-71357822D01*
X127872734Y-71274157D01*
X128042573Y-71222637D01*
X128108757Y-71216119D01*
X128174940Y-71209600D01*
X128263460Y-71209600D01*
X128329643Y-71216119D01*
X128329643Y-71216119D01*
G37*
G36*
X126580200Y-73011600D02*
G01*
X124778200Y-73011600D01*
X124778200Y-71209600D01*
X126580200Y-71209600D01*
X126580200Y-73011600D01*
X126580200Y-73011600D01*
G37*
G36*
X130869643Y-71216119D02*
G01*
X130935827Y-71222637D01*
X131105666Y-71274157D01*
X131262191Y-71357822D01*
X131297929Y-71387152D01*
X131399386Y-71470414D01*
X131482648Y-71571871D01*
X131511978Y-71607609D01*
X131595643Y-71764134D01*
X131647163Y-71933973D01*
X131664559Y-72110600D01*
X131647163Y-72287227D01*
X131595643Y-72457066D01*
X131511978Y-72613591D01*
X131482648Y-72649329D01*
X131399386Y-72750786D01*
X131297929Y-72834048D01*
X131262191Y-72863378D01*
X131105666Y-72947043D01*
X130935827Y-72998563D01*
X130869643Y-73005081D01*
X130803460Y-73011600D01*
X130714940Y-73011600D01*
X130648757Y-73005081D01*
X130582573Y-72998563D01*
X130412734Y-72947043D01*
X130256209Y-72863378D01*
X130220471Y-72834048D01*
X130119014Y-72750786D01*
X130035752Y-72649329D01*
X130006422Y-72613591D01*
X129922757Y-72457066D01*
X129871237Y-72287227D01*
X129853841Y-72110600D01*
X129871237Y-71933973D01*
X129922757Y-71764134D01*
X130006422Y-71607609D01*
X130035752Y-71571871D01*
X130119014Y-71470414D01*
X130220471Y-71387152D01*
X130256209Y-71357822D01*
X130412734Y-71274157D01*
X130582573Y-71222637D01*
X130648757Y-71216119D01*
X130714940Y-71209600D01*
X130803460Y-71209600D01*
X130869643Y-71216119D01*
X130869643Y-71216119D01*
G37*
G36*
X133409643Y-71216119D02*
G01*
X133475827Y-71222637D01*
X133645666Y-71274157D01*
X133802191Y-71357822D01*
X133837929Y-71387152D01*
X133939386Y-71470414D01*
X134022648Y-71571871D01*
X134051978Y-71607609D01*
X134135643Y-71764134D01*
X134187163Y-71933973D01*
X134204559Y-72110600D01*
X134187163Y-72287227D01*
X134135643Y-72457066D01*
X134051978Y-72613591D01*
X134022648Y-72649329D01*
X133939386Y-72750786D01*
X133837929Y-72834048D01*
X133802191Y-72863378D01*
X133645666Y-72947043D01*
X133475827Y-72998563D01*
X133409643Y-73005081D01*
X133343460Y-73011600D01*
X133254940Y-73011600D01*
X133188757Y-73005081D01*
X133122573Y-72998563D01*
X132952734Y-72947043D01*
X132796209Y-72863378D01*
X132760471Y-72834048D01*
X132659014Y-72750786D01*
X132575752Y-72649329D01*
X132546422Y-72613591D01*
X132462757Y-72457066D01*
X132411237Y-72287227D01*
X132393841Y-72110600D01*
X132411237Y-71933973D01*
X132462757Y-71764134D01*
X132546422Y-71607609D01*
X132575752Y-71571871D01*
X132659014Y-71470414D01*
X132760471Y-71387152D01*
X132796209Y-71357822D01*
X132952734Y-71274157D01*
X133122573Y-71222637D01*
X133188757Y-71216119D01*
X133254940Y-71209600D01*
X133343460Y-71209600D01*
X133409643Y-71216119D01*
X133409643Y-71216119D01*
G37*
G36*
X139127800Y-69921000D02*
G01*
X137325800Y-69921000D01*
X137325800Y-68919000D01*
X139127800Y-68919000D01*
X139127800Y-69921000D01*
X139127800Y-69921000D01*
G37*
G36*
X122719400Y-69921000D02*
G01*
X120917400Y-69921000D01*
X120917400Y-68919000D01*
X122719400Y-68919000D01*
X122719400Y-69921000D01*
X122719400Y-69921000D01*
G37*
G36*
X127469962Y-67846581D02*
G01*
X127507458Y-67857956D01*
X127542017Y-67876428D01*
X127577081Y-67905204D01*
X128099432Y-68427555D01*
X128128208Y-68462619D01*
X128146680Y-68497178D01*
X128158055Y-68534674D01*
X128161895Y-68573673D01*
X128158055Y-68612672D01*
X128146680Y-68650168D01*
X128128208Y-68684727D01*
X128099432Y-68719791D01*
X127647791Y-69171432D01*
X127612727Y-69200208D01*
X127578168Y-69218680D01*
X127540672Y-69230055D01*
X127501673Y-69233895D01*
X127462674Y-69230055D01*
X127425178Y-69218680D01*
X127390619Y-69200208D01*
X127355555Y-69171432D01*
X126833204Y-68649081D01*
X126804428Y-68614017D01*
X126785956Y-68579458D01*
X126774581Y-68541962D01*
X126770741Y-68502963D01*
X126774581Y-68463964D01*
X126785956Y-68426468D01*
X126804428Y-68391909D01*
X126833204Y-68356845D01*
X127284845Y-67905204D01*
X127319909Y-67876428D01*
X127354468Y-67857956D01*
X127391964Y-67846581D01*
X127430963Y-67842741D01*
X127469962Y-67846581D01*
X127469962Y-67846581D01*
G37*
G36*
X137908391Y-67321485D02*
G01*
X137942369Y-67331793D01*
X137973690Y-67348534D01*
X138001139Y-67371061D01*
X138023666Y-67398510D01*
X138040407Y-67429831D01*
X138050715Y-67463809D01*
X138054800Y-67505290D01*
X138054800Y-68181510D01*
X138050715Y-68222991D01*
X138040407Y-68256969D01*
X138023666Y-68288290D01*
X138001139Y-68315739D01*
X137973690Y-68338266D01*
X137942369Y-68355007D01*
X137908391Y-68365315D01*
X137866910Y-68369400D01*
X137265690Y-68369400D01*
X137224209Y-68365315D01*
X137190231Y-68355007D01*
X137158910Y-68338266D01*
X137131461Y-68315739D01*
X137108934Y-68288290D01*
X137092193Y-68256969D01*
X137081885Y-68222991D01*
X137077800Y-68181510D01*
X137077800Y-67505290D01*
X137081885Y-67463809D01*
X137092193Y-67429831D01*
X137108934Y-67398510D01*
X137131461Y-67371061D01*
X137158910Y-67348534D01*
X137190231Y-67331793D01*
X137224209Y-67321485D01*
X137265690Y-67317400D01*
X137866910Y-67317400D01*
X137908391Y-67321485D01*
X137908391Y-67321485D01*
G37*
G36*
X139483391Y-67321485D02*
G01*
X139517369Y-67331793D01*
X139548690Y-67348534D01*
X139576139Y-67371061D01*
X139598666Y-67398510D01*
X139615407Y-67429831D01*
X139625715Y-67463809D01*
X139629800Y-67505290D01*
X139629800Y-68181510D01*
X139625715Y-68222991D01*
X139615407Y-68256969D01*
X139598666Y-68288290D01*
X139576139Y-68315739D01*
X139548690Y-68338266D01*
X139517369Y-68355007D01*
X139483391Y-68365315D01*
X139441910Y-68369400D01*
X138840690Y-68369400D01*
X138799209Y-68365315D01*
X138765231Y-68355007D01*
X138733910Y-68338266D01*
X138706461Y-68315739D01*
X138683934Y-68288290D01*
X138667193Y-68256969D01*
X138656885Y-68222991D01*
X138652800Y-68181510D01*
X138652800Y-67505290D01*
X138656885Y-67463809D01*
X138667193Y-67429831D01*
X138683934Y-67398510D01*
X138706461Y-67371061D01*
X138733910Y-67348534D01*
X138765231Y-67331793D01*
X138799209Y-67321485D01*
X138840690Y-67317400D01*
X139441910Y-67317400D01*
X139483391Y-67321485D01*
X139483391Y-67321485D01*
G37*
G36*
X128533105Y-66746255D02*
G01*
X128567083Y-66756563D01*
X128598404Y-66773304D01*
X128630618Y-66799742D01*
X128670469Y-66839593D01*
X128670475Y-66839598D01*
X129015896Y-67185019D01*
X129015901Y-67185025D01*
X129055752Y-67224876D01*
X129082190Y-67257090D01*
X129098931Y-67288411D01*
X129109239Y-67322389D01*
X129112719Y-67357730D01*
X129109239Y-67393071D01*
X129098931Y-67427049D01*
X129082190Y-67458370D01*
X129055752Y-67490584D01*
X129015901Y-67530435D01*
X129015896Y-67530441D01*
X128617441Y-67928896D01*
X128617435Y-67928901D01*
X128577584Y-67968752D01*
X128545370Y-67995190D01*
X128514049Y-68011931D01*
X128480071Y-68022239D01*
X128444730Y-68025719D01*
X128409389Y-68022239D01*
X128375411Y-68011931D01*
X128344090Y-67995190D01*
X128311876Y-67968752D01*
X128272025Y-67928901D01*
X128272019Y-67928896D01*
X127926598Y-67583475D01*
X127926593Y-67583469D01*
X127886742Y-67543618D01*
X127860303Y-67511402D01*
X127843563Y-67480083D01*
X127833255Y-67446105D01*
X127829775Y-67410764D01*
X127833255Y-67375423D01*
X127843563Y-67341445D01*
X127860304Y-67310124D01*
X127886742Y-67277910D01*
X127926593Y-67238059D01*
X127926598Y-67238053D01*
X128325053Y-66839598D01*
X128325059Y-66839593D01*
X128364910Y-66799742D01*
X128397124Y-66773304D01*
X128428445Y-66756563D01*
X128462423Y-66746255D01*
X128497764Y-66742775D01*
X128533105Y-66746255D01*
X128533105Y-66746255D01*
G37*
G36*
X126232526Y-66609145D02*
G01*
X126270022Y-66620520D01*
X126304581Y-66638992D01*
X126339645Y-66667768D01*
X126861996Y-67190119D01*
X126890772Y-67225183D01*
X126909244Y-67259742D01*
X126920619Y-67297238D01*
X126924459Y-67336237D01*
X126920619Y-67375236D01*
X126909244Y-67412732D01*
X126890772Y-67447291D01*
X126861996Y-67482355D01*
X126410355Y-67933996D01*
X126375291Y-67962772D01*
X126340732Y-67981244D01*
X126303236Y-67992619D01*
X126264237Y-67996459D01*
X126225238Y-67992619D01*
X126187742Y-67981244D01*
X126153183Y-67962772D01*
X126118119Y-67933996D01*
X125595768Y-67411645D01*
X125566992Y-67376581D01*
X125548520Y-67342022D01*
X125537145Y-67304526D01*
X125533305Y-67265527D01*
X125537145Y-67226528D01*
X125548520Y-67189032D01*
X125566992Y-67154473D01*
X125595768Y-67119409D01*
X126047409Y-66667768D01*
X126082473Y-66638992D01*
X126117032Y-66620520D01*
X126154528Y-66609145D01*
X126193527Y-66605305D01*
X126232526Y-66609145D01*
X126232526Y-66609145D01*
G37*
G36*
X131127562Y-66474981D02*
G01*
X131165058Y-66486356D01*
X131199617Y-66504828D01*
X131234681Y-66533604D01*
X131757032Y-67055955D01*
X131785808Y-67091019D01*
X131804280Y-67125578D01*
X131815655Y-67163074D01*
X131819495Y-67202073D01*
X131815655Y-67241072D01*
X131804280Y-67278568D01*
X131785808Y-67313127D01*
X131757032Y-67348191D01*
X131305391Y-67799832D01*
X131270327Y-67828608D01*
X131235768Y-67847080D01*
X131198272Y-67858455D01*
X131159273Y-67862295D01*
X131120274Y-67858455D01*
X131082778Y-67847080D01*
X131048219Y-67828608D01*
X131013155Y-67799832D01*
X130490804Y-67277481D01*
X130462028Y-67242417D01*
X130443556Y-67207858D01*
X130432181Y-67170362D01*
X130428341Y-67131363D01*
X130432181Y-67092364D01*
X130443556Y-67054868D01*
X130462028Y-67020309D01*
X130490804Y-66985245D01*
X130942445Y-66533604D01*
X130977509Y-66504828D01*
X131012068Y-66486356D01*
X131049564Y-66474981D01*
X131088563Y-66471141D01*
X131127562Y-66474981D01*
X131127562Y-66474981D01*
G37*
G36*
X127419411Y-65632561D02*
G01*
X127453389Y-65642869D01*
X127484710Y-65659610D01*
X127516924Y-65686048D01*
X127556775Y-65725899D01*
X127556781Y-65725904D01*
X127902202Y-66071325D01*
X127902207Y-66071331D01*
X127942058Y-66111182D01*
X127968496Y-66143396D01*
X127985237Y-66174717D01*
X127995545Y-66208695D01*
X127999025Y-66244036D01*
X127995545Y-66279377D01*
X127985237Y-66313355D01*
X127968496Y-66344676D01*
X127942058Y-66376890D01*
X127902207Y-66416741D01*
X127902202Y-66416747D01*
X127503747Y-66815202D01*
X127503741Y-66815207D01*
X127463890Y-66855058D01*
X127431676Y-66881496D01*
X127400355Y-66898237D01*
X127366377Y-66908545D01*
X127331036Y-66912025D01*
X127295695Y-66908545D01*
X127261717Y-66898237D01*
X127230396Y-66881496D01*
X127198182Y-66855058D01*
X127158331Y-66815207D01*
X127158325Y-66815202D01*
X126812904Y-66469781D01*
X126812899Y-66469775D01*
X126773048Y-66429924D01*
X126746610Y-66397710D01*
X126729869Y-66366389D01*
X126719561Y-66332411D01*
X126716081Y-66297070D01*
X126719561Y-66261729D01*
X126729869Y-66227751D01*
X126746610Y-66196430D01*
X126773048Y-66164216D01*
X126812899Y-66124365D01*
X126812904Y-66124359D01*
X127211359Y-65725904D01*
X127211365Y-65725899D01*
X127251216Y-65686048D01*
X127283430Y-65659610D01*
X127314751Y-65642869D01*
X127348729Y-65632561D01*
X127384070Y-65629081D01*
X127419411Y-65632561D01*
X127419411Y-65632561D01*
G37*
G36*
X129890126Y-65237545D02*
G01*
X129927622Y-65248920D01*
X129962181Y-65267392D01*
X129997245Y-65296168D01*
X130519596Y-65818519D01*
X130548372Y-65853583D01*
X130566844Y-65888142D01*
X130578219Y-65925638D01*
X130582059Y-65964637D01*
X130578219Y-66003636D01*
X130566844Y-66041132D01*
X130548372Y-66075691D01*
X130519596Y-66110755D01*
X130067955Y-66562396D01*
X130032891Y-66591172D01*
X129998332Y-66609644D01*
X129960836Y-66621019D01*
X129921837Y-66624859D01*
X129882838Y-66621019D01*
X129845342Y-66609644D01*
X129810783Y-66591172D01*
X129775719Y-66562396D01*
X129253368Y-66040045D01*
X129224592Y-66004981D01*
X129206120Y-65970422D01*
X129194745Y-65932926D01*
X129190905Y-65893927D01*
X129194745Y-65854928D01*
X129206120Y-65817432D01*
X129224592Y-65782873D01*
X129253368Y-65747809D01*
X129705009Y-65296168D01*
X129740073Y-65267392D01*
X129774632Y-65248920D01*
X129812128Y-65237545D01*
X129851127Y-65233705D01*
X129890126Y-65237545D01*
X129890126Y-65237545D01*
G37*
G36*
X134019746Y-60006169D02*
G01*
X134026761Y-60008297D01*
X134033227Y-60011754D01*
X134043661Y-60020316D01*
X135096348Y-61073003D01*
X135104910Y-61083437D01*
X135108367Y-61089903D01*
X135110495Y-61096918D01*
X135111213Y-61104213D01*
X135110495Y-61111508D01*
X135108367Y-61118523D01*
X135104910Y-61124989D01*
X135096348Y-61135423D01*
X134874511Y-61357260D01*
X134864077Y-61365822D01*
X134857610Y-61369279D01*
X134842674Y-61373810D01*
X134820035Y-61383187D01*
X134799661Y-61396801D01*
X134782334Y-61414128D01*
X134768720Y-61434503D01*
X134759344Y-61457140D01*
X134754813Y-61472076D01*
X134751356Y-61478543D01*
X134742794Y-61488977D01*
X134520957Y-61710814D01*
X134510523Y-61719376D01*
X134504057Y-61722833D01*
X134489120Y-61727364D01*
X134466481Y-61736742D01*
X134446107Y-61750356D01*
X134428780Y-61767683D01*
X134415167Y-61788058D01*
X134405791Y-61810693D01*
X134401260Y-61825630D01*
X134397803Y-61832096D01*
X134389241Y-61842530D01*
X134167404Y-62064367D01*
X134156970Y-62072929D01*
X134150503Y-62076386D01*
X134135567Y-62080917D01*
X134112928Y-62090294D01*
X134092554Y-62103908D01*
X134075227Y-62121235D01*
X134061613Y-62141610D01*
X134052237Y-62164247D01*
X134047706Y-62179183D01*
X134044249Y-62185650D01*
X134035687Y-62196084D01*
X133813850Y-62417921D01*
X133803416Y-62426483D01*
X133796950Y-62429940D01*
X133782013Y-62434471D01*
X133759374Y-62443849D01*
X133739000Y-62457463D01*
X133721673Y-62474790D01*
X133708060Y-62495165D01*
X133698684Y-62517800D01*
X133694153Y-62532737D01*
X133690696Y-62539203D01*
X133682134Y-62549637D01*
X133460297Y-62771474D01*
X133449863Y-62780036D01*
X133443397Y-62783493D01*
X133428460Y-62788024D01*
X133405821Y-62797402D01*
X133385447Y-62811016D01*
X133368120Y-62828343D01*
X133354507Y-62848718D01*
X133345131Y-62871353D01*
X133340600Y-62886290D01*
X133337143Y-62892756D01*
X133328581Y-62903190D01*
X133106744Y-63125027D01*
X133096310Y-63133589D01*
X133089843Y-63137046D01*
X133074907Y-63141577D01*
X133052268Y-63150954D01*
X133031894Y-63164568D01*
X133014567Y-63181895D01*
X133000953Y-63202270D01*
X132991577Y-63224907D01*
X132987046Y-63239843D01*
X132983589Y-63246310D01*
X132975027Y-63256744D01*
X132753190Y-63478581D01*
X132742756Y-63487143D01*
X132736290Y-63490600D01*
X132721353Y-63495131D01*
X132698714Y-63504509D01*
X132678340Y-63518123D01*
X132661013Y-63535450D01*
X132647400Y-63555825D01*
X132638024Y-63578460D01*
X132633493Y-63593397D01*
X132630036Y-63599863D01*
X132621474Y-63610297D01*
X132399637Y-63832134D01*
X132389203Y-63840696D01*
X132382737Y-63844153D01*
X132367800Y-63848684D01*
X132345161Y-63858062D01*
X132324787Y-63871676D01*
X132307460Y-63889003D01*
X132293847Y-63909378D01*
X132284471Y-63932013D01*
X132279940Y-63946950D01*
X132276483Y-63953416D01*
X132267921Y-63963850D01*
X132046084Y-64185687D01*
X132035650Y-64194249D01*
X132029183Y-64197706D01*
X132014247Y-64202237D01*
X131991608Y-64211614D01*
X131971234Y-64225228D01*
X131953907Y-64242555D01*
X131940293Y-64262930D01*
X131930917Y-64285567D01*
X131926386Y-64300503D01*
X131922929Y-64306970D01*
X131914367Y-64317404D01*
X131692530Y-64539241D01*
X131682096Y-64547803D01*
X131675630Y-64551260D01*
X131660693Y-64555791D01*
X131638054Y-64565169D01*
X131617680Y-64578783D01*
X131600353Y-64596110D01*
X131586740Y-64616485D01*
X131577364Y-64639120D01*
X131572833Y-64654057D01*
X131569376Y-64660523D01*
X131560814Y-64670957D01*
X131338977Y-64892794D01*
X131328543Y-64901356D01*
X131322076Y-64904813D01*
X131307140Y-64909344D01*
X131284501Y-64918721D01*
X131264127Y-64932335D01*
X131246800Y-64949662D01*
X131233186Y-64970037D01*
X131223810Y-64992674D01*
X131219279Y-65007610D01*
X131215822Y-65014077D01*
X131207260Y-65024511D01*
X130985423Y-65246348D01*
X130974989Y-65254910D01*
X130968523Y-65258367D01*
X130961508Y-65260495D01*
X130954213Y-65261213D01*
X130946918Y-65260495D01*
X130939903Y-65258367D01*
X130933437Y-65254910D01*
X130923003Y-65246348D01*
X129870316Y-64193661D01*
X129861754Y-64183227D01*
X129858297Y-64176761D01*
X129856169Y-64169746D01*
X129855451Y-64162451D01*
X129856169Y-64155156D01*
X129858297Y-64148141D01*
X129861754Y-64141675D01*
X129870316Y-64131241D01*
X130092153Y-63909404D01*
X130102587Y-63900842D01*
X130109054Y-63897385D01*
X130123990Y-63892854D01*
X130146629Y-63883477D01*
X130167003Y-63869863D01*
X130184330Y-63852536D01*
X130197944Y-63832161D01*
X130207320Y-63809524D01*
X130211851Y-63794588D01*
X130215308Y-63788121D01*
X130223870Y-63777687D01*
X130445707Y-63555850D01*
X130456141Y-63547288D01*
X130462607Y-63543831D01*
X130477544Y-63539300D01*
X130500183Y-63529922D01*
X130520557Y-63516308D01*
X130537884Y-63498981D01*
X130551497Y-63478606D01*
X130560873Y-63455971D01*
X130565404Y-63441034D01*
X130568861Y-63434568D01*
X130577423Y-63424134D01*
X130799260Y-63202297D01*
X130809694Y-63193735D01*
X130816161Y-63190278D01*
X130831097Y-63185747D01*
X130853736Y-63176370D01*
X130874110Y-63162756D01*
X130891437Y-63145429D01*
X130905051Y-63125054D01*
X130914427Y-63102417D01*
X130918958Y-63087481D01*
X130922415Y-63081014D01*
X130930977Y-63070580D01*
X131152814Y-62848743D01*
X131163248Y-62840181D01*
X131169714Y-62836724D01*
X131184651Y-62832193D01*
X131207290Y-62822815D01*
X131227664Y-62809201D01*
X131244991Y-62791874D01*
X131258604Y-62771499D01*
X131267980Y-62748864D01*
X131272511Y-62733927D01*
X131275968Y-62727461D01*
X131284530Y-62717027D01*
X131506367Y-62495190D01*
X131516801Y-62486628D01*
X131523267Y-62483171D01*
X131538204Y-62478640D01*
X131560843Y-62469262D01*
X131581217Y-62455648D01*
X131598544Y-62438321D01*
X131612157Y-62417946D01*
X131621533Y-62395311D01*
X131626064Y-62380374D01*
X131629521Y-62373908D01*
X131638083Y-62363474D01*
X131859920Y-62141637D01*
X131870354Y-62133075D01*
X131876821Y-62129618D01*
X131891757Y-62125087D01*
X131914396Y-62115710D01*
X131934770Y-62102096D01*
X131952097Y-62084769D01*
X131965711Y-62064394D01*
X131975087Y-62041757D01*
X131979618Y-62026821D01*
X131983075Y-62020354D01*
X131991637Y-62009920D01*
X132213474Y-61788083D01*
X132223908Y-61779521D01*
X132230374Y-61776064D01*
X132245311Y-61771533D01*
X132267950Y-61762155D01*
X132288324Y-61748541D01*
X132305651Y-61731214D01*
X132319264Y-61710839D01*
X132328640Y-61688204D01*
X132333171Y-61673267D01*
X132336628Y-61666801D01*
X132345190Y-61656367D01*
X132567027Y-61434530D01*
X132577461Y-61425968D01*
X132583927Y-61422511D01*
X132598864Y-61417980D01*
X132621503Y-61408602D01*
X132641877Y-61394988D01*
X132659204Y-61377661D01*
X132672817Y-61357286D01*
X132682193Y-61334651D01*
X132686724Y-61319714D01*
X132690181Y-61313248D01*
X132698743Y-61302814D01*
X132920580Y-61080977D01*
X132931014Y-61072415D01*
X132937481Y-61068958D01*
X132952417Y-61064427D01*
X132975056Y-61055050D01*
X132995430Y-61041436D01*
X133012757Y-61024109D01*
X133026371Y-61003734D01*
X133035747Y-60981097D01*
X133040278Y-60966161D01*
X133043735Y-60959694D01*
X133052297Y-60949260D01*
X133274134Y-60727423D01*
X133284568Y-60718861D01*
X133291034Y-60715404D01*
X133305971Y-60710873D01*
X133328610Y-60701495D01*
X133348984Y-60687881D01*
X133366311Y-60670554D01*
X133379924Y-60650179D01*
X133389300Y-60627544D01*
X133393831Y-60612607D01*
X133397288Y-60606141D01*
X133405850Y-60595707D01*
X133627687Y-60373870D01*
X133638121Y-60365308D01*
X133644588Y-60361851D01*
X133659524Y-60357320D01*
X133682163Y-60347943D01*
X133702537Y-60334329D01*
X133719864Y-60317002D01*
X133733478Y-60296627D01*
X133742854Y-60273990D01*
X133747385Y-60259054D01*
X133750842Y-60252587D01*
X133759404Y-60242153D01*
X133981241Y-60020316D01*
X133991675Y-60011754D01*
X133998141Y-60008297D01*
X134005156Y-60006169D01*
X134012451Y-60005451D01*
X134019746Y-60006169D01*
X134019746Y-60006169D01*
G37*
G36*
X125074844Y-60006169D02*
G01*
X125081859Y-60008297D01*
X125088325Y-60011754D01*
X125098759Y-60020316D01*
X125320596Y-60242153D01*
X125329158Y-60252587D01*
X125332615Y-60259054D01*
X125337146Y-60273990D01*
X125346523Y-60296629D01*
X125360137Y-60317003D01*
X125377464Y-60334330D01*
X125397839Y-60347944D01*
X125420476Y-60357320D01*
X125435412Y-60361851D01*
X125441879Y-60365308D01*
X125452313Y-60373870D01*
X125674150Y-60595707D01*
X125682712Y-60606141D01*
X125686169Y-60612607D01*
X125690700Y-60627544D01*
X125700078Y-60650183D01*
X125713692Y-60670557D01*
X125731019Y-60687884D01*
X125751394Y-60701497D01*
X125774029Y-60710873D01*
X125788966Y-60715404D01*
X125795432Y-60718861D01*
X125805866Y-60727423D01*
X126027703Y-60949260D01*
X126036265Y-60959694D01*
X126039722Y-60966161D01*
X126044253Y-60981097D01*
X126053630Y-61003736D01*
X126067244Y-61024110D01*
X126084571Y-61041437D01*
X126104946Y-61055051D01*
X126127583Y-61064427D01*
X126142519Y-61068958D01*
X126148986Y-61072415D01*
X126159420Y-61080977D01*
X126381257Y-61302814D01*
X126389819Y-61313248D01*
X126393276Y-61319714D01*
X126397807Y-61334651D01*
X126407185Y-61357290D01*
X126420799Y-61377664D01*
X126438126Y-61394991D01*
X126458501Y-61408604D01*
X126481136Y-61417980D01*
X126496073Y-61422511D01*
X126502539Y-61425968D01*
X126512973Y-61434530D01*
X126734810Y-61656367D01*
X126743372Y-61666801D01*
X126746829Y-61673267D01*
X126751360Y-61688204D01*
X126760738Y-61710843D01*
X126774352Y-61731217D01*
X126791679Y-61748544D01*
X126812054Y-61762157D01*
X126834689Y-61771533D01*
X126849626Y-61776064D01*
X126856092Y-61779521D01*
X126866526Y-61788083D01*
X127088363Y-62009920D01*
X127096925Y-62020354D01*
X127100382Y-62026821D01*
X127104913Y-62041757D01*
X127114290Y-62064396D01*
X127127904Y-62084770D01*
X127145231Y-62102097D01*
X127165606Y-62115711D01*
X127188243Y-62125087D01*
X127203179Y-62129618D01*
X127209646Y-62133075D01*
X127220080Y-62141637D01*
X127441917Y-62363474D01*
X127450479Y-62373908D01*
X127453936Y-62380374D01*
X127458467Y-62395311D01*
X127467845Y-62417950D01*
X127481459Y-62438324D01*
X127498786Y-62455651D01*
X127519161Y-62469264D01*
X127541796Y-62478640D01*
X127556733Y-62483171D01*
X127563199Y-62486628D01*
X127573633Y-62495190D01*
X127795470Y-62717027D01*
X127804032Y-62727461D01*
X127807489Y-62733927D01*
X127812020Y-62748864D01*
X127821398Y-62771503D01*
X127835012Y-62791877D01*
X127852339Y-62809204D01*
X127872714Y-62822817D01*
X127895349Y-62832193D01*
X127910286Y-62836724D01*
X127916752Y-62840181D01*
X127927186Y-62848743D01*
X128149023Y-63070580D01*
X128157585Y-63081014D01*
X128161042Y-63087481D01*
X128165573Y-63102417D01*
X128174950Y-63125056D01*
X128188564Y-63145430D01*
X128205891Y-63162757D01*
X128226266Y-63176371D01*
X128248903Y-63185747D01*
X128263839Y-63190278D01*
X128270306Y-63193735D01*
X128280740Y-63202297D01*
X128502577Y-63424134D01*
X128511139Y-63434568D01*
X128514596Y-63441034D01*
X128519127Y-63455971D01*
X128528505Y-63478610D01*
X128542119Y-63498984D01*
X128559446Y-63516311D01*
X128579821Y-63529924D01*
X128602456Y-63539300D01*
X128617393Y-63543831D01*
X128623859Y-63547288D01*
X128634293Y-63555850D01*
X128856130Y-63777687D01*
X128864692Y-63788121D01*
X128868149Y-63794588D01*
X128872680Y-63809524D01*
X128882057Y-63832163D01*
X128895671Y-63852537D01*
X128912998Y-63869864D01*
X128933373Y-63883478D01*
X128956010Y-63892854D01*
X128970946Y-63897385D01*
X128977413Y-63900842D01*
X128987847Y-63909404D01*
X129209684Y-64131241D01*
X129218246Y-64141675D01*
X129221703Y-64148141D01*
X129223831Y-64155156D01*
X129224549Y-64162451D01*
X129223831Y-64169746D01*
X129221703Y-64176761D01*
X129218246Y-64183227D01*
X129209684Y-64193661D01*
X128156997Y-65246348D01*
X128146563Y-65254910D01*
X128140097Y-65258367D01*
X128133082Y-65260495D01*
X128125787Y-65261213D01*
X128118492Y-65260495D01*
X128111477Y-65258367D01*
X128105011Y-65254910D01*
X128094577Y-65246348D01*
X127872740Y-65024511D01*
X127864178Y-65014077D01*
X127860721Y-65007610D01*
X127856190Y-64992674D01*
X127846813Y-64970035D01*
X127833199Y-64949661D01*
X127815872Y-64932334D01*
X127795497Y-64918720D01*
X127772860Y-64909344D01*
X127757924Y-64904813D01*
X127751457Y-64901356D01*
X127741023Y-64892794D01*
X127519186Y-64670957D01*
X127510624Y-64660523D01*
X127507167Y-64654057D01*
X127502636Y-64639120D01*
X127493258Y-64616481D01*
X127479644Y-64596107D01*
X127462317Y-64578780D01*
X127441942Y-64565167D01*
X127419307Y-64555791D01*
X127404370Y-64551260D01*
X127397904Y-64547803D01*
X127387470Y-64539241D01*
X127165633Y-64317404D01*
X127157071Y-64306970D01*
X127153614Y-64300503D01*
X127149083Y-64285567D01*
X127139706Y-64262928D01*
X127126092Y-64242554D01*
X127108765Y-64225227D01*
X127088390Y-64211613D01*
X127065753Y-64202237D01*
X127050817Y-64197706D01*
X127044350Y-64194249D01*
X127033916Y-64185687D01*
X126812079Y-63963850D01*
X126803517Y-63953416D01*
X126800060Y-63946950D01*
X126795529Y-63932013D01*
X126786151Y-63909374D01*
X126772537Y-63889000D01*
X126755210Y-63871673D01*
X126734835Y-63858060D01*
X126712200Y-63848684D01*
X126697263Y-63844153D01*
X126690797Y-63840696D01*
X126680363Y-63832134D01*
X126458526Y-63610297D01*
X126449964Y-63599863D01*
X126446507Y-63593397D01*
X126441976Y-63578460D01*
X126432598Y-63555821D01*
X126418984Y-63535447D01*
X126401657Y-63518120D01*
X126381282Y-63504507D01*
X126358647Y-63495131D01*
X126343710Y-63490600D01*
X126337244Y-63487143D01*
X126326810Y-63478581D01*
X126104973Y-63256744D01*
X126096411Y-63246310D01*
X126092954Y-63239843D01*
X126088423Y-63224907D01*
X126079046Y-63202268D01*
X126065432Y-63181894D01*
X126048105Y-63164567D01*
X126027730Y-63150953D01*
X126005093Y-63141577D01*
X125990157Y-63137046D01*
X125983690Y-63133589D01*
X125973256Y-63125027D01*
X125751419Y-62903190D01*
X125742857Y-62892756D01*
X125739400Y-62886290D01*
X125734869Y-62871353D01*
X125725491Y-62848714D01*
X125711877Y-62828340D01*
X125694550Y-62811013D01*
X125674175Y-62797400D01*
X125651540Y-62788024D01*
X125636603Y-62783493D01*
X125630137Y-62780036D01*
X125619703Y-62771474D01*
X125397866Y-62549637D01*
X125389304Y-62539203D01*
X125385847Y-62532737D01*
X125381316Y-62517800D01*
X125371938Y-62495161D01*
X125358324Y-62474787D01*
X125340997Y-62457460D01*
X125320622Y-62443847D01*
X125297987Y-62434471D01*
X125283050Y-62429940D01*
X125276584Y-62426483D01*
X125266150Y-62417921D01*
X125044313Y-62196084D01*
X125035751Y-62185650D01*
X125032294Y-62179183D01*
X125027763Y-62164247D01*
X125018386Y-62141608D01*
X125004772Y-62121234D01*
X124987445Y-62103907D01*
X124967070Y-62090293D01*
X124944433Y-62080917D01*
X124929497Y-62076386D01*
X124923030Y-62072929D01*
X124912596Y-62064367D01*
X124690759Y-61842530D01*
X124682197Y-61832096D01*
X124678740Y-61825630D01*
X124674209Y-61810693D01*
X124664831Y-61788054D01*
X124651217Y-61767680D01*
X124633890Y-61750353D01*
X124613515Y-61736740D01*
X124590880Y-61727364D01*
X124575943Y-61722833D01*
X124569477Y-61719376D01*
X124559043Y-61710814D01*
X124337206Y-61488977D01*
X124328644Y-61478543D01*
X124325187Y-61472076D01*
X124320656Y-61457140D01*
X124311279Y-61434501D01*
X124297665Y-61414127D01*
X124280338Y-61396800D01*
X124259963Y-61383186D01*
X124237326Y-61373810D01*
X124222390Y-61369279D01*
X124215923Y-61365822D01*
X124205489Y-61357260D01*
X123983652Y-61135423D01*
X123975090Y-61124989D01*
X123971633Y-61118523D01*
X123969505Y-61111508D01*
X123968787Y-61104213D01*
X123969505Y-61096918D01*
X123971633Y-61089903D01*
X123975090Y-61083437D01*
X123983652Y-61073003D01*
X125036339Y-60020316D01*
X125046773Y-60011754D01*
X125053239Y-60008297D01*
X125060254Y-60006169D01*
X125067549Y-60005451D01*
X125074844Y-60006169D01*
X125074844Y-60006169D01*
G37*
G36*
X135406596Y-63269501D02*
G01*
X135444092Y-63280876D01*
X135478651Y-63299348D01*
X135513715Y-63328124D01*
X135965356Y-63779765D01*
X135994132Y-63814829D01*
X136012604Y-63849388D01*
X136023979Y-63886884D01*
X136027819Y-63925883D01*
X136023979Y-63964882D01*
X136012604Y-64002378D01*
X135994132Y-64036937D01*
X135965356Y-64072001D01*
X135443005Y-64594352D01*
X135407941Y-64623128D01*
X135373382Y-64641600D01*
X135335886Y-64652975D01*
X135296887Y-64656815D01*
X135257888Y-64652975D01*
X135220392Y-64641600D01*
X135185833Y-64623128D01*
X135150769Y-64594352D01*
X134699128Y-64142711D01*
X134670352Y-64107647D01*
X134651880Y-64073088D01*
X134640505Y-64035592D01*
X134636665Y-63996593D01*
X134640505Y-63957594D01*
X134651880Y-63920098D01*
X134670352Y-63885539D01*
X134699128Y-63850475D01*
X135221479Y-63328124D01*
X135256543Y-63299348D01*
X135291102Y-63280876D01*
X135328598Y-63269501D01*
X135367597Y-63265661D01*
X135406596Y-63269501D01*
X135406596Y-63269501D01*
G37*
G36*
X136644032Y-62032065D02*
G01*
X136681528Y-62043440D01*
X136716087Y-62061912D01*
X136751151Y-62090688D01*
X137202792Y-62542329D01*
X137231568Y-62577393D01*
X137250040Y-62611952D01*
X137261415Y-62649448D01*
X137265255Y-62688447D01*
X137261415Y-62727446D01*
X137250040Y-62764942D01*
X137231568Y-62799501D01*
X137202792Y-62834565D01*
X136680441Y-63356916D01*
X136645377Y-63385692D01*
X136610818Y-63404164D01*
X136573322Y-63415539D01*
X136534323Y-63419379D01*
X136495324Y-63415539D01*
X136457828Y-63404164D01*
X136423269Y-63385692D01*
X136388205Y-63356916D01*
X135936564Y-62905275D01*
X135907788Y-62870211D01*
X135889316Y-62835652D01*
X135877941Y-62798156D01*
X135874101Y-62759157D01*
X135877941Y-62720158D01*
X135889316Y-62682662D01*
X135907788Y-62648103D01*
X135936564Y-62613039D01*
X136458915Y-62090688D01*
X136493979Y-62061912D01*
X136528538Y-62043440D01*
X136566034Y-62032065D01*
X136605033Y-62028225D01*
X136644032Y-62032065D01*
X136644032Y-62032065D01*
G37*
G36*
X121639339Y-61888285D02*
G01*
X121676835Y-61899660D01*
X121711394Y-61918132D01*
X121741687Y-61942993D01*
X121766548Y-61973286D01*
X121785020Y-62007845D01*
X121796395Y-62045341D01*
X121800840Y-62090478D01*
X121800840Y-62829202D01*
X121796395Y-62874339D01*
X121785020Y-62911835D01*
X121766548Y-62946394D01*
X121741687Y-62976687D01*
X121711394Y-63001548D01*
X121676835Y-63020020D01*
X121639339Y-63031395D01*
X121594202Y-63035840D01*
X120955478Y-63035840D01*
X120910341Y-63031395D01*
X120872845Y-63020020D01*
X120838286Y-63001548D01*
X120807993Y-62976687D01*
X120783132Y-62946394D01*
X120764660Y-62911835D01*
X120753285Y-62874339D01*
X120748840Y-62829202D01*
X120748840Y-62090478D01*
X120753285Y-62045341D01*
X120764660Y-62007845D01*
X120783132Y-61973286D01*
X120807993Y-61942993D01*
X120838286Y-61918132D01*
X120872845Y-61899660D01*
X120910341Y-61888285D01*
X120955478Y-61883840D01*
X121594202Y-61883840D01*
X121639339Y-61888285D01*
X121639339Y-61888285D01*
G37*
G36*
X121639339Y-60138285D02*
G01*
X121676835Y-60149660D01*
X121711394Y-60168132D01*
X121741687Y-60192993D01*
X121766548Y-60223286D01*
X121785020Y-60257845D01*
X121796395Y-60295341D01*
X121800840Y-60340478D01*
X121800840Y-61079202D01*
X121796395Y-61124339D01*
X121785020Y-61161835D01*
X121766548Y-61196394D01*
X121741687Y-61226687D01*
X121711394Y-61251548D01*
X121676835Y-61270020D01*
X121639339Y-61281395D01*
X121594202Y-61285840D01*
X120955478Y-61285840D01*
X120910341Y-61281395D01*
X120872845Y-61270020D01*
X120838286Y-61251548D01*
X120807993Y-61226687D01*
X120783132Y-61196394D01*
X120764660Y-61161835D01*
X120753285Y-61124339D01*
X120748840Y-61079202D01*
X120748840Y-60340478D01*
X120753285Y-60295341D01*
X120764660Y-60257845D01*
X120783132Y-60223286D01*
X120807993Y-60192993D01*
X120838286Y-60168132D01*
X120872845Y-60149660D01*
X120910341Y-60138285D01*
X120955478Y-60133840D01*
X121594202Y-60133840D01*
X121639339Y-60138285D01*
X121639339Y-60138285D01*
G37*
G36*
X121629179Y-58494845D02*
G01*
X121666675Y-58506220D01*
X121701234Y-58524692D01*
X121731527Y-58549553D01*
X121756388Y-58579846D01*
X121774860Y-58614405D01*
X121786235Y-58651901D01*
X121790680Y-58697038D01*
X121790680Y-59435762D01*
X121786235Y-59480899D01*
X121774860Y-59518395D01*
X121756388Y-59552954D01*
X121731527Y-59583247D01*
X121701234Y-59608108D01*
X121666675Y-59626580D01*
X121629179Y-59637955D01*
X121584042Y-59642400D01*
X120945318Y-59642400D01*
X120900181Y-59637955D01*
X120862685Y-59626580D01*
X120828126Y-59608108D01*
X120797833Y-59583247D01*
X120772972Y-59552954D01*
X120754500Y-59518395D01*
X120743125Y-59480899D01*
X120738680Y-59435762D01*
X120738680Y-58697038D01*
X120743125Y-58651901D01*
X120754500Y-58614405D01*
X120772972Y-58579846D01*
X120797833Y-58549553D01*
X120828126Y-58524692D01*
X120862685Y-58506220D01*
X120900181Y-58494845D01*
X120945318Y-58490400D01*
X121584042Y-58490400D01*
X121629179Y-58494845D01*
X121629179Y-58494845D01*
G37*
G36*
X128133082Y-54119505D02*
G01*
X128140097Y-54121633D01*
X128146563Y-54125090D01*
X128156997Y-54133652D01*
X129209684Y-55186339D01*
X129218246Y-55196773D01*
X129221703Y-55203239D01*
X129223831Y-55210254D01*
X129224549Y-55217549D01*
X129223831Y-55224844D01*
X129221703Y-55231859D01*
X129218246Y-55238325D01*
X129209684Y-55248759D01*
X128987847Y-55470596D01*
X128977413Y-55479158D01*
X128970946Y-55482615D01*
X128956010Y-55487146D01*
X128933371Y-55496523D01*
X128912997Y-55510137D01*
X128895670Y-55527464D01*
X128882056Y-55547839D01*
X128872680Y-55570476D01*
X128868149Y-55585412D01*
X128864692Y-55591879D01*
X128856130Y-55602313D01*
X128634293Y-55824150D01*
X128623859Y-55832712D01*
X128617393Y-55836169D01*
X128602456Y-55840700D01*
X128579817Y-55850078D01*
X128559443Y-55863692D01*
X128542116Y-55881019D01*
X128528503Y-55901394D01*
X128519127Y-55924029D01*
X128514596Y-55938966D01*
X128511139Y-55945432D01*
X128502577Y-55955866D01*
X128280740Y-56177703D01*
X128270306Y-56186265D01*
X128263839Y-56189722D01*
X128248903Y-56194253D01*
X128226264Y-56203630D01*
X128205890Y-56217244D01*
X128188563Y-56234571D01*
X128174949Y-56254946D01*
X128165573Y-56277583D01*
X128161042Y-56292519D01*
X128157585Y-56298986D01*
X128149023Y-56309420D01*
X127927186Y-56531257D01*
X127916752Y-56539819D01*
X127910286Y-56543276D01*
X127895349Y-56547807D01*
X127872710Y-56557185D01*
X127852336Y-56570799D01*
X127835009Y-56588126D01*
X127821396Y-56608501D01*
X127812020Y-56631136D01*
X127807489Y-56646073D01*
X127804032Y-56652539D01*
X127795470Y-56662973D01*
X127573633Y-56884810D01*
X127563199Y-56893372D01*
X127556733Y-56896829D01*
X127541796Y-56901360D01*
X127519157Y-56910738D01*
X127498783Y-56924352D01*
X127481456Y-56941679D01*
X127467843Y-56962054D01*
X127458467Y-56984689D01*
X127453936Y-56999626D01*
X127450479Y-57006092D01*
X127441917Y-57016526D01*
X127220080Y-57238363D01*
X127209646Y-57246925D01*
X127203179Y-57250382D01*
X127188243Y-57254913D01*
X127165604Y-57264290D01*
X127145230Y-57277904D01*
X127127903Y-57295231D01*
X127114289Y-57315606D01*
X127104913Y-57338243D01*
X127100382Y-57353179D01*
X127096925Y-57359646D01*
X127088363Y-57370080D01*
X126866526Y-57591917D01*
X126856092Y-57600479D01*
X126849626Y-57603936D01*
X126834689Y-57608467D01*
X126812050Y-57617845D01*
X126791676Y-57631459D01*
X126774349Y-57648786D01*
X126760736Y-57669161D01*
X126751360Y-57691796D01*
X126746829Y-57706733D01*
X126743372Y-57713199D01*
X126734810Y-57723633D01*
X126512973Y-57945470D01*
X126502539Y-57954032D01*
X126496073Y-57957489D01*
X126481136Y-57962020D01*
X126458497Y-57971398D01*
X126438123Y-57985012D01*
X126420796Y-58002339D01*
X126407183Y-58022714D01*
X126397807Y-58045349D01*
X126393276Y-58060286D01*
X126389819Y-58066752D01*
X126381257Y-58077186D01*
X126159420Y-58299023D01*
X126148986Y-58307585D01*
X126142519Y-58311042D01*
X126127583Y-58315573D01*
X126104944Y-58324950D01*
X126084570Y-58338564D01*
X126067243Y-58355891D01*
X126053629Y-58376266D01*
X126044253Y-58398903D01*
X126039722Y-58413839D01*
X126036265Y-58420306D01*
X126027703Y-58430740D01*
X125805866Y-58652577D01*
X125795432Y-58661139D01*
X125788966Y-58664596D01*
X125774029Y-58669127D01*
X125751390Y-58678505D01*
X125731016Y-58692119D01*
X125713689Y-58709446D01*
X125700076Y-58729821D01*
X125690700Y-58752456D01*
X125686169Y-58767393D01*
X125682712Y-58773859D01*
X125674150Y-58784293D01*
X125452313Y-59006130D01*
X125441879Y-59014692D01*
X125435412Y-59018149D01*
X125420476Y-59022680D01*
X125397837Y-59032057D01*
X125377463Y-59045671D01*
X125360136Y-59062998D01*
X125346522Y-59083373D01*
X125337146Y-59106010D01*
X125332615Y-59120946D01*
X125329158Y-59127413D01*
X125320596Y-59137847D01*
X125098759Y-59359684D01*
X125088325Y-59368246D01*
X125081859Y-59371703D01*
X125074844Y-59373831D01*
X125067549Y-59374549D01*
X125060254Y-59373831D01*
X125053239Y-59371703D01*
X125046773Y-59368246D01*
X125036339Y-59359684D01*
X123983652Y-58306997D01*
X123975090Y-58296563D01*
X123971633Y-58290097D01*
X123969505Y-58283082D01*
X123968787Y-58275787D01*
X123969505Y-58268492D01*
X123971633Y-58261477D01*
X123975090Y-58255011D01*
X123983652Y-58244577D01*
X124205489Y-58022740D01*
X124215923Y-58014178D01*
X124222390Y-58010721D01*
X124237326Y-58006190D01*
X124259965Y-57996813D01*
X124280339Y-57983199D01*
X124297666Y-57965872D01*
X124311280Y-57945497D01*
X124320656Y-57922860D01*
X124325187Y-57907924D01*
X124328644Y-57901457D01*
X124337206Y-57891023D01*
X124559043Y-57669186D01*
X124569477Y-57660624D01*
X124575943Y-57657167D01*
X124590880Y-57652636D01*
X124613519Y-57643258D01*
X124633893Y-57629644D01*
X124651220Y-57612317D01*
X124664833Y-57591942D01*
X124674209Y-57569307D01*
X124678740Y-57554370D01*
X124682197Y-57547904D01*
X124690759Y-57537470D01*
X124912596Y-57315633D01*
X124923030Y-57307071D01*
X124929497Y-57303614D01*
X124944433Y-57299083D01*
X124967072Y-57289706D01*
X124987446Y-57276092D01*
X125004773Y-57258765D01*
X125018387Y-57238390D01*
X125027763Y-57215753D01*
X125032294Y-57200817D01*
X125035751Y-57194350D01*
X125044313Y-57183916D01*
X125266150Y-56962079D01*
X125276584Y-56953517D01*
X125283050Y-56950060D01*
X125297987Y-56945529D01*
X125320626Y-56936151D01*
X125341000Y-56922537D01*
X125358327Y-56905210D01*
X125371940Y-56884835D01*
X125381316Y-56862200D01*
X125385847Y-56847263D01*
X125389304Y-56840797D01*
X125397866Y-56830363D01*
X125619703Y-56608526D01*
X125630137Y-56599964D01*
X125636603Y-56596507D01*
X125651540Y-56591976D01*
X125674179Y-56582598D01*
X125694553Y-56568984D01*
X125711880Y-56551657D01*
X125725493Y-56531282D01*
X125734869Y-56508647D01*
X125739400Y-56493710D01*
X125742857Y-56487244D01*
X125751419Y-56476810D01*
X125973256Y-56254973D01*
X125983690Y-56246411D01*
X125990157Y-56242954D01*
X126005093Y-56238423D01*
X126027732Y-56229046D01*
X126048106Y-56215432D01*
X126065433Y-56198105D01*
X126079047Y-56177730D01*
X126088423Y-56155093D01*
X126092954Y-56140157D01*
X126096411Y-56133690D01*
X126104973Y-56123256D01*
X126326810Y-55901419D01*
X126337244Y-55892857D01*
X126343710Y-55889400D01*
X126358647Y-55884869D01*
X126381286Y-55875491D01*
X126401660Y-55861877D01*
X126418987Y-55844550D01*
X126432600Y-55824175D01*
X126441976Y-55801540D01*
X126446507Y-55786603D01*
X126449964Y-55780137D01*
X126458526Y-55769703D01*
X126680363Y-55547866D01*
X126690797Y-55539304D01*
X126697263Y-55535847D01*
X126712200Y-55531316D01*
X126734839Y-55521938D01*
X126755213Y-55508324D01*
X126772540Y-55490997D01*
X126786153Y-55470622D01*
X126795529Y-55447987D01*
X126800060Y-55433050D01*
X126803517Y-55426584D01*
X126812079Y-55416150D01*
X127033916Y-55194313D01*
X127044350Y-55185751D01*
X127050817Y-55182294D01*
X127065753Y-55177763D01*
X127088392Y-55168386D01*
X127108766Y-55154772D01*
X127126093Y-55137445D01*
X127139707Y-55117070D01*
X127149083Y-55094433D01*
X127153614Y-55079497D01*
X127157071Y-55073030D01*
X127165633Y-55062596D01*
X127387470Y-54840759D01*
X127397904Y-54832197D01*
X127404370Y-54828740D01*
X127419307Y-54824209D01*
X127441946Y-54814831D01*
X127462320Y-54801217D01*
X127479647Y-54783890D01*
X127493260Y-54763515D01*
X127502636Y-54740880D01*
X127507167Y-54725943D01*
X127510624Y-54719477D01*
X127519186Y-54709043D01*
X127741023Y-54487206D01*
X127751457Y-54478644D01*
X127757924Y-54475187D01*
X127772860Y-54470656D01*
X127795499Y-54461279D01*
X127815873Y-54447665D01*
X127833200Y-54430338D01*
X127846814Y-54409963D01*
X127856190Y-54387326D01*
X127860721Y-54372390D01*
X127864178Y-54365923D01*
X127872740Y-54355489D01*
X128094577Y-54133652D01*
X128105011Y-54125090D01*
X128111477Y-54121633D01*
X128118492Y-54119505D01*
X128125787Y-54118787D01*
X128133082Y-54119505D01*
X128133082Y-54119505D01*
G37*
G36*
X130961508Y-54119505D02*
G01*
X130968523Y-54121633D01*
X130974989Y-54125090D01*
X130985423Y-54133652D01*
X131207260Y-54355489D01*
X131215822Y-54365923D01*
X131219279Y-54372390D01*
X131223810Y-54387326D01*
X131233187Y-54409965D01*
X131246801Y-54430339D01*
X131264128Y-54447666D01*
X131284503Y-54461280D01*
X131307140Y-54470656D01*
X131322076Y-54475187D01*
X131328543Y-54478644D01*
X131338977Y-54487206D01*
X131560814Y-54709043D01*
X131569376Y-54719477D01*
X131572833Y-54725943D01*
X131577364Y-54740880D01*
X131586742Y-54763519D01*
X131600356Y-54783893D01*
X131617683Y-54801220D01*
X131638058Y-54814833D01*
X131660693Y-54824209D01*
X131675630Y-54828740D01*
X131682096Y-54832197D01*
X131692530Y-54840759D01*
X131914367Y-55062596D01*
X131922929Y-55073030D01*
X131926386Y-55079497D01*
X131930917Y-55094433D01*
X131940294Y-55117072D01*
X131953908Y-55137446D01*
X131971235Y-55154773D01*
X131991610Y-55168387D01*
X132014247Y-55177763D01*
X132029183Y-55182294D01*
X132035650Y-55185751D01*
X132046084Y-55194313D01*
X132267921Y-55416150D01*
X132276483Y-55426584D01*
X132279940Y-55433050D01*
X132284471Y-55447987D01*
X132293849Y-55470626D01*
X132307463Y-55491000D01*
X132324790Y-55508327D01*
X132345165Y-55521940D01*
X132367800Y-55531316D01*
X132382737Y-55535847D01*
X132389203Y-55539304D01*
X132399637Y-55547866D01*
X132621474Y-55769703D01*
X132630036Y-55780137D01*
X132633493Y-55786603D01*
X132638024Y-55801540D01*
X132647402Y-55824179D01*
X132661016Y-55844553D01*
X132678343Y-55861880D01*
X132698718Y-55875493D01*
X132721353Y-55884869D01*
X132736290Y-55889400D01*
X132742756Y-55892857D01*
X132753190Y-55901419D01*
X132975027Y-56123256D01*
X132983589Y-56133690D01*
X132987046Y-56140157D01*
X132991577Y-56155093D01*
X133000954Y-56177732D01*
X133014568Y-56198106D01*
X133031895Y-56215433D01*
X133052270Y-56229047D01*
X133074907Y-56238423D01*
X133089843Y-56242954D01*
X133096310Y-56246411D01*
X133106744Y-56254973D01*
X133328581Y-56476810D01*
X133337143Y-56487244D01*
X133340600Y-56493710D01*
X133345131Y-56508647D01*
X133354509Y-56531286D01*
X133368123Y-56551660D01*
X133385450Y-56568987D01*
X133405825Y-56582600D01*
X133428460Y-56591976D01*
X133443397Y-56596507D01*
X133449863Y-56599964D01*
X133460297Y-56608526D01*
X133682134Y-56830363D01*
X133690696Y-56840797D01*
X133694153Y-56847263D01*
X133698684Y-56862200D01*
X133708062Y-56884839D01*
X133721676Y-56905213D01*
X133739003Y-56922540D01*
X133759378Y-56936153D01*
X133782013Y-56945529D01*
X133796950Y-56950060D01*
X133803416Y-56953517D01*
X133813850Y-56962079D01*
X134035687Y-57183916D01*
X134044249Y-57194350D01*
X134047706Y-57200817D01*
X134052237Y-57215753D01*
X134061614Y-57238392D01*
X134075228Y-57258766D01*
X134092555Y-57276093D01*
X134112930Y-57289707D01*
X134135567Y-57299083D01*
X134150503Y-57303614D01*
X134156970Y-57307071D01*
X134167404Y-57315633D01*
X134389241Y-57537470D01*
X134397803Y-57547904D01*
X134401260Y-57554370D01*
X134405791Y-57569307D01*
X134415169Y-57591946D01*
X134428783Y-57612320D01*
X134446110Y-57629647D01*
X134466485Y-57643260D01*
X134489120Y-57652636D01*
X134504057Y-57657167D01*
X134510523Y-57660624D01*
X134520957Y-57669186D01*
X134742794Y-57891023D01*
X134751356Y-57901457D01*
X134754813Y-57907924D01*
X134759344Y-57922860D01*
X134768721Y-57945499D01*
X134782335Y-57965873D01*
X134799662Y-57983200D01*
X134820037Y-57996814D01*
X134842674Y-58006190D01*
X134857610Y-58010721D01*
X134864077Y-58014178D01*
X134874511Y-58022740D01*
X135096348Y-58244577D01*
X135104910Y-58255011D01*
X135108367Y-58261477D01*
X135110495Y-58268492D01*
X135111213Y-58275787D01*
X135110495Y-58283082D01*
X135108367Y-58290097D01*
X135104910Y-58296563D01*
X135096348Y-58306997D01*
X134043661Y-59359684D01*
X134033227Y-59368246D01*
X134026761Y-59371703D01*
X134019746Y-59373831D01*
X134012451Y-59374549D01*
X134005156Y-59373831D01*
X133998141Y-59371703D01*
X133991675Y-59368246D01*
X133981241Y-59359684D01*
X133759404Y-59137847D01*
X133750842Y-59127413D01*
X133747385Y-59120946D01*
X133742854Y-59106010D01*
X133733477Y-59083371D01*
X133719863Y-59062997D01*
X133702536Y-59045670D01*
X133682161Y-59032056D01*
X133659524Y-59022680D01*
X133644588Y-59018149D01*
X133638121Y-59014692D01*
X133627687Y-59006130D01*
X133405850Y-58784293D01*
X133397288Y-58773859D01*
X133393831Y-58767393D01*
X133389300Y-58752456D01*
X133379922Y-58729817D01*
X133366308Y-58709443D01*
X133348981Y-58692116D01*
X133328606Y-58678503D01*
X133305971Y-58669127D01*
X133291034Y-58664596D01*
X133284568Y-58661139D01*
X133274134Y-58652577D01*
X133052297Y-58430740D01*
X133043735Y-58420306D01*
X133040278Y-58413839D01*
X133035747Y-58398903D01*
X133026370Y-58376264D01*
X133012756Y-58355890D01*
X132995429Y-58338563D01*
X132975054Y-58324949D01*
X132952417Y-58315573D01*
X132937481Y-58311042D01*
X132931014Y-58307585D01*
X132920580Y-58299023D01*
X132698743Y-58077186D01*
X132690181Y-58066752D01*
X132686724Y-58060286D01*
X132682193Y-58045349D01*
X132672815Y-58022710D01*
X132659201Y-58002336D01*
X132641874Y-57985009D01*
X132621499Y-57971396D01*
X132598864Y-57962020D01*
X132583927Y-57957489D01*
X132577461Y-57954032D01*
X132567027Y-57945470D01*
X132345190Y-57723633D01*
X132336628Y-57713199D01*
X132333171Y-57706733D01*
X132328640Y-57691796D01*
X132319262Y-57669157D01*
X132305648Y-57648783D01*
X132288321Y-57631456D01*
X132267946Y-57617843D01*
X132245311Y-57608467D01*
X132230374Y-57603936D01*
X132223908Y-57600479D01*
X132213474Y-57591917D01*
X131991637Y-57370080D01*
X131983075Y-57359646D01*
X131979618Y-57353179D01*
X131975087Y-57338243D01*
X131965710Y-57315604D01*
X131952096Y-57295230D01*
X131934769Y-57277903D01*
X131914394Y-57264289D01*
X131891757Y-57254913D01*
X131876821Y-57250382D01*
X131870354Y-57246925D01*
X131859920Y-57238363D01*
X131638083Y-57016526D01*
X131629521Y-57006092D01*
X131626064Y-56999626D01*
X131621533Y-56984689D01*
X131612155Y-56962050D01*
X131598541Y-56941676D01*
X131581214Y-56924349D01*
X131560839Y-56910736D01*
X131538204Y-56901360D01*
X131523267Y-56896829D01*
X131516801Y-56893372D01*
X131506367Y-56884810D01*
X131284530Y-56662973D01*
X131275968Y-56652539D01*
X131272511Y-56646073D01*
X131267980Y-56631136D01*
X131258602Y-56608497D01*
X131244988Y-56588123D01*
X131227661Y-56570796D01*
X131207286Y-56557183D01*
X131184651Y-56547807D01*
X131169714Y-56543276D01*
X131163248Y-56539819D01*
X131152814Y-56531257D01*
X130930977Y-56309420D01*
X130922415Y-56298986D01*
X130918958Y-56292519D01*
X130914427Y-56277583D01*
X130905050Y-56254944D01*
X130891436Y-56234570D01*
X130874109Y-56217243D01*
X130853734Y-56203629D01*
X130831097Y-56194253D01*
X130816161Y-56189722D01*
X130809694Y-56186265D01*
X130799260Y-56177703D01*
X130577423Y-55955866D01*
X130568861Y-55945432D01*
X130565404Y-55938966D01*
X130560873Y-55924029D01*
X130551495Y-55901390D01*
X130537881Y-55881016D01*
X130520554Y-55863689D01*
X130500179Y-55850076D01*
X130477544Y-55840700D01*
X130462607Y-55836169D01*
X130456141Y-55832712D01*
X130445707Y-55824150D01*
X130223870Y-55602313D01*
X130215308Y-55591879D01*
X130211851Y-55585412D01*
X130207320Y-55570476D01*
X130197943Y-55547837D01*
X130184329Y-55527463D01*
X130167002Y-55510136D01*
X130146627Y-55496522D01*
X130123990Y-55487146D01*
X130109054Y-55482615D01*
X130102587Y-55479158D01*
X130092153Y-55470596D01*
X129870316Y-55248759D01*
X129861754Y-55238325D01*
X129858297Y-55231859D01*
X129856169Y-55224844D01*
X129855451Y-55217549D01*
X129856169Y-55210254D01*
X129858297Y-55203239D01*
X129861754Y-55196773D01*
X129870316Y-55186339D01*
X130923003Y-54133652D01*
X130933437Y-54125090D01*
X130939903Y-54121633D01*
X130946918Y-54119505D01*
X130954213Y-54118787D01*
X130961508Y-54119505D01*
X130961508Y-54119505D01*
G37*
G36*
X121629179Y-56744845D02*
G01*
X121666675Y-56756220D01*
X121701234Y-56774692D01*
X121731527Y-56799553D01*
X121756388Y-56829846D01*
X121774860Y-56864405D01*
X121786235Y-56901901D01*
X121790680Y-56947038D01*
X121790680Y-57685762D01*
X121786235Y-57730899D01*
X121774860Y-57768395D01*
X121756388Y-57802954D01*
X121731527Y-57833247D01*
X121701234Y-57858108D01*
X121666675Y-57876580D01*
X121629179Y-57887955D01*
X121584042Y-57892400D01*
X120945318Y-57892400D01*
X120900181Y-57887955D01*
X120862685Y-57876580D01*
X120828126Y-57858108D01*
X120797833Y-57833247D01*
X120772972Y-57802954D01*
X120754500Y-57768395D01*
X120743125Y-57730899D01*
X120738680Y-57685762D01*
X120738680Y-56947038D01*
X120743125Y-56901901D01*
X120754500Y-56864405D01*
X120772972Y-56829846D01*
X120797833Y-56799553D01*
X120828126Y-56774692D01*
X120862685Y-56756220D01*
X120900181Y-56744845D01*
X120945318Y-56740400D01*
X121584042Y-56740400D01*
X121629179Y-56744845D01*
X121629179Y-56744845D01*
G37*
G36*
X138987391Y-55954485D02*
G01*
X139021369Y-55964793D01*
X139052690Y-55981534D01*
X139080139Y-56004061D01*
X139102666Y-56031510D01*
X139119407Y-56062831D01*
X139129715Y-56096809D01*
X139133800Y-56138290D01*
X139133800Y-56739510D01*
X139129715Y-56780991D01*
X139119407Y-56814969D01*
X139102666Y-56846290D01*
X139080139Y-56873739D01*
X139052690Y-56896266D01*
X139021369Y-56913007D01*
X138987391Y-56923315D01*
X138945910Y-56927400D01*
X138269690Y-56927400D01*
X138228209Y-56923315D01*
X138194231Y-56913007D01*
X138162910Y-56896266D01*
X138135461Y-56873739D01*
X138112934Y-56846290D01*
X138096193Y-56814969D01*
X138085885Y-56780991D01*
X138081800Y-56739510D01*
X138081800Y-56138290D01*
X138085885Y-56096809D01*
X138096193Y-56062831D01*
X138112934Y-56031510D01*
X138135461Y-56004061D01*
X138162910Y-55981534D01*
X138194231Y-55964793D01*
X138228209Y-55954485D01*
X138269690Y-55950400D01*
X138945910Y-55950400D01*
X138987391Y-55954485D01*
X138987391Y-55954485D01*
G37*
G36*
X123943364Y-54510307D02*
G01*
X123979904Y-54521392D01*
X124013581Y-54539393D01*
X124043101Y-54563619D01*
X124067327Y-54593139D01*
X124085328Y-54626816D01*
X124096413Y-54663356D01*
X124100760Y-54707498D01*
X124100760Y-55656422D01*
X124096413Y-55700564D01*
X124085328Y-55737104D01*
X124067327Y-55770781D01*
X124043101Y-55800301D01*
X124013581Y-55824527D01*
X123979904Y-55842528D01*
X123943364Y-55853613D01*
X123899222Y-55857960D01*
X122450298Y-55857960D01*
X122406156Y-55853613D01*
X122369616Y-55842528D01*
X122335939Y-55824527D01*
X122306419Y-55800301D01*
X122282193Y-55770781D01*
X122264192Y-55737104D01*
X122253107Y-55700564D01*
X122248760Y-55656422D01*
X122248760Y-54707498D01*
X122253107Y-54663356D01*
X122264192Y-54626816D01*
X122282193Y-54593139D01*
X122306419Y-54563619D01*
X122335939Y-54539393D01*
X122369616Y-54521392D01*
X122406156Y-54510307D01*
X122450298Y-54505960D01*
X123899222Y-54505960D01*
X123943364Y-54510307D01*
X123943364Y-54510307D01*
G37*
G36*
X137400591Y-54392885D02*
G01*
X137434569Y-54403193D01*
X137465890Y-54419934D01*
X137493339Y-54442461D01*
X137515866Y-54469910D01*
X137532607Y-54501231D01*
X137542915Y-54535209D01*
X137547000Y-54576690D01*
X137547000Y-55252910D01*
X137542915Y-55294391D01*
X137532607Y-55328369D01*
X137515866Y-55359690D01*
X137493339Y-55387139D01*
X137465890Y-55409666D01*
X137434569Y-55426407D01*
X137400591Y-55436715D01*
X137359110Y-55440800D01*
X136757890Y-55440800D01*
X136716409Y-55436715D01*
X136682431Y-55426407D01*
X136651110Y-55409666D01*
X136623661Y-55387139D01*
X136601134Y-55359690D01*
X136584393Y-55328369D01*
X136574085Y-55294391D01*
X136570000Y-55252910D01*
X136570000Y-54576690D01*
X136574085Y-54535209D01*
X136584393Y-54501231D01*
X136601134Y-54469910D01*
X136623661Y-54442461D01*
X136651110Y-54419934D01*
X136682431Y-54403193D01*
X136716409Y-54392885D01*
X136757890Y-54388800D01*
X137359110Y-54388800D01*
X137400591Y-54392885D01*
X137400591Y-54392885D01*
G37*
G36*
X135825591Y-54392885D02*
G01*
X135859569Y-54403193D01*
X135890890Y-54419934D01*
X135918339Y-54442461D01*
X135940866Y-54469910D01*
X135957607Y-54501231D01*
X135967915Y-54535209D01*
X135972000Y-54576690D01*
X135972000Y-55252910D01*
X135967915Y-55294391D01*
X135957607Y-55328369D01*
X135940866Y-55359690D01*
X135918339Y-55387139D01*
X135890890Y-55409666D01*
X135859569Y-55426407D01*
X135825591Y-55436715D01*
X135784110Y-55440800D01*
X135182890Y-55440800D01*
X135141409Y-55436715D01*
X135107431Y-55426407D01*
X135076110Y-55409666D01*
X135048661Y-55387139D01*
X135026134Y-55359690D01*
X135009393Y-55328369D01*
X134999085Y-55294391D01*
X134995000Y-55252910D01*
X134995000Y-54576690D01*
X134999085Y-54535209D01*
X135009393Y-54501231D01*
X135026134Y-54469910D01*
X135048661Y-54442461D01*
X135076110Y-54419934D01*
X135107431Y-54403193D01*
X135141409Y-54392885D01*
X135182890Y-54388800D01*
X135784110Y-54388800D01*
X135825591Y-54392885D01*
X135825591Y-54392885D01*
G37*
G36*
X138987391Y-54379485D02*
G01*
X139021369Y-54389793D01*
X139052690Y-54406534D01*
X139080139Y-54429061D01*
X139102666Y-54456510D01*
X139119407Y-54487831D01*
X139129715Y-54521809D01*
X139133800Y-54563290D01*
X139133800Y-55164510D01*
X139129715Y-55205991D01*
X139119407Y-55239969D01*
X139102666Y-55271290D01*
X139080139Y-55298739D01*
X139052690Y-55321266D01*
X139021369Y-55338007D01*
X138987391Y-55348315D01*
X138945910Y-55352400D01*
X138269690Y-55352400D01*
X138228209Y-55348315D01*
X138194231Y-55338007D01*
X138162910Y-55321266D01*
X138135461Y-55298739D01*
X138112934Y-55271290D01*
X138096193Y-55239969D01*
X138085885Y-55205991D01*
X138081800Y-55164510D01*
X138081800Y-54563290D01*
X138085885Y-54521809D01*
X138096193Y-54487831D01*
X138112934Y-54456510D01*
X138135461Y-54429061D01*
X138162910Y-54406534D01*
X138194231Y-54389793D01*
X138228209Y-54379485D01*
X138269690Y-54375400D01*
X138945910Y-54375400D01*
X138987391Y-54379485D01*
X138987391Y-54379485D01*
G37*
G36*
X128892362Y-52682781D02*
G01*
X128929858Y-52694156D01*
X128964417Y-52712628D01*
X128999481Y-52741404D01*
X129521832Y-53263755D01*
X129550608Y-53298819D01*
X129569080Y-53333378D01*
X129580455Y-53370874D01*
X129584295Y-53409873D01*
X129580455Y-53448872D01*
X129569080Y-53486368D01*
X129550608Y-53520927D01*
X129521832Y-53555991D01*
X129070191Y-54007632D01*
X129035127Y-54036408D01*
X129000568Y-54054880D01*
X128963072Y-54066255D01*
X128924073Y-54070095D01*
X128885074Y-54066255D01*
X128847578Y-54054880D01*
X128813019Y-54036408D01*
X128777955Y-54007632D01*
X128255604Y-53485281D01*
X128226828Y-53450217D01*
X128208356Y-53415658D01*
X128196981Y-53378162D01*
X128193141Y-53339163D01*
X128196981Y-53300164D01*
X128208356Y-53262668D01*
X128226828Y-53228109D01*
X128255604Y-53193045D01*
X128707245Y-52741404D01*
X128742309Y-52712628D01*
X128776868Y-52694156D01*
X128814364Y-52682781D01*
X128853363Y-52678941D01*
X128892362Y-52682781D01*
X128892362Y-52682781D01*
G37*
G36*
X134315468Y-51990965D02*
G01*
X134354138Y-52002696D01*
X134389777Y-52021746D01*
X134421017Y-52047383D01*
X134446654Y-52078623D01*
X134465704Y-52114262D01*
X134477435Y-52152932D01*
X134482000Y-52199288D01*
X134482000Y-52850512D01*
X134477435Y-52896868D01*
X134465704Y-52935538D01*
X134446654Y-52971177D01*
X134421017Y-53002417D01*
X134389777Y-53028054D01*
X134354138Y-53047104D01*
X134315468Y-53058835D01*
X134269112Y-53063400D01*
X133192888Y-53063400D01*
X133146532Y-53058835D01*
X133107862Y-53047104D01*
X133072223Y-53028054D01*
X133040983Y-53002417D01*
X133015346Y-52971177D01*
X132996296Y-52935538D01*
X132984565Y-52896868D01*
X132980000Y-52850512D01*
X132980000Y-52199288D01*
X132984565Y-52152932D01*
X132996296Y-52114262D01*
X133015346Y-52078623D01*
X133040983Y-52047383D01*
X133072223Y-52021746D01*
X133107862Y-52002696D01*
X133146532Y-51990965D01*
X133192888Y-51986400D01*
X134269112Y-51986400D01*
X134315468Y-51990965D01*
X134315468Y-51990965D01*
G37*
G36*
X123943364Y-51710307D02*
G01*
X123979904Y-51721392D01*
X124013581Y-51739393D01*
X124043101Y-51763619D01*
X124067327Y-51793139D01*
X124085328Y-51826816D01*
X124096413Y-51863356D01*
X124100760Y-51907498D01*
X124100760Y-52856422D01*
X124096413Y-52900564D01*
X124085328Y-52937104D01*
X124067327Y-52970781D01*
X124043101Y-53000301D01*
X124013581Y-53024527D01*
X123979904Y-53042528D01*
X123943364Y-53053613D01*
X123899222Y-53057960D01*
X122450298Y-53057960D01*
X122406156Y-53053613D01*
X122369616Y-53042528D01*
X122335939Y-53024527D01*
X122306419Y-53000301D01*
X122282193Y-52970781D01*
X122264192Y-52937104D01*
X122253107Y-52900564D01*
X122248760Y-52856422D01*
X122248760Y-51907498D01*
X122253107Y-51863356D01*
X122264192Y-51826816D01*
X122282193Y-51793139D01*
X122306419Y-51763619D01*
X122335939Y-51739393D01*
X122369616Y-51721392D01*
X122406156Y-51710307D01*
X122450298Y-51705960D01*
X123899222Y-51705960D01*
X123943364Y-51710307D01*
X123943364Y-51710307D01*
G37*
G36*
X132266699Y-51890845D02*
G01*
X132304195Y-51902220D01*
X132338754Y-51920692D01*
X132369047Y-51945553D01*
X132393908Y-51975846D01*
X132412380Y-52010405D01*
X132423755Y-52047901D01*
X132428200Y-52093038D01*
X132428200Y-52831762D01*
X132423755Y-52876899D01*
X132412380Y-52914395D01*
X132393908Y-52948954D01*
X132369047Y-52979247D01*
X132338754Y-53004108D01*
X132304195Y-53022580D01*
X132266699Y-53033955D01*
X132221562Y-53038400D01*
X131582838Y-53038400D01*
X131537701Y-53033955D01*
X131500205Y-53022580D01*
X131465646Y-53004108D01*
X131435353Y-52979247D01*
X131410492Y-52948954D01*
X131392020Y-52914395D01*
X131380645Y-52876899D01*
X131376200Y-52831762D01*
X131376200Y-52093038D01*
X131380645Y-52047901D01*
X131392020Y-52010405D01*
X131410492Y-51975846D01*
X131435353Y-51945553D01*
X131465646Y-51920692D01*
X131500205Y-51902220D01*
X131537701Y-51890845D01*
X131582838Y-51886400D01*
X132221562Y-51886400D01*
X132266699Y-51890845D01*
X132266699Y-51890845D01*
G37*
G36*
X130035362Y-51615981D02*
G01*
X130072858Y-51627356D01*
X130107417Y-51645828D01*
X130142481Y-51674604D01*
X130664832Y-52196955D01*
X130693608Y-52232019D01*
X130712080Y-52266578D01*
X130723455Y-52304074D01*
X130727295Y-52343073D01*
X130723455Y-52382072D01*
X130712080Y-52419568D01*
X130693608Y-52454127D01*
X130664832Y-52489191D01*
X130213191Y-52940832D01*
X130178127Y-52969608D01*
X130143568Y-52988080D01*
X130106072Y-52999455D01*
X130067073Y-53003295D01*
X130028074Y-52999455D01*
X129990578Y-52988080D01*
X129956019Y-52969608D01*
X129920955Y-52940832D01*
X129398604Y-52418481D01*
X129369828Y-52383417D01*
X129351356Y-52348858D01*
X129339981Y-52311362D01*
X129336141Y-52272363D01*
X129339981Y-52233364D01*
X129351356Y-52195868D01*
X129369828Y-52161309D01*
X129398604Y-52126245D01*
X129850245Y-51674604D01*
X129885309Y-51645828D01*
X129919868Y-51627356D01*
X129957364Y-51615981D01*
X129996363Y-51612141D01*
X130035362Y-51615981D01*
X130035362Y-51615981D01*
G37*
G36*
X139000791Y-51802085D02*
G01*
X139034769Y-51812393D01*
X139066090Y-51829134D01*
X139093539Y-51851661D01*
X139116066Y-51879110D01*
X139132807Y-51910431D01*
X139143115Y-51944409D01*
X139147200Y-51985890D01*
X139147200Y-52662110D01*
X139143115Y-52703591D01*
X139132807Y-52737569D01*
X139116066Y-52768890D01*
X139093539Y-52796339D01*
X139066090Y-52818866D01*
X139034769Y-52835607D01*
X139000791Y-52845915D01*
X138959310Y-52850000D01*
X138358090Y-52850000D01*
X138316609Y-52845915D01*
X138282631Y-52835607D01*
X138251310Y-52818866D01*
X138223861Y-52796339D01*
X138201334Y-52768890D01*
X138184593Y-52737569D01*
X138174285Y-52703591D01*
X138170200Y-52662110D01*
X138170200Y-51985890D01*
X138174285Y-51944409D01*
X138184593Y-51910431D01*
X138201334Y-51879110D01*
X138223861Y-51851661D01*
X138251310Y-51829134D01*
X138282631Y-51812393D01*
X138316609Y-51802085D01*
X138358090Y-51798000D01*
X138959310Y-51798000D01*
X139000791Y-51802085D01*
X139000791Y-51802085D01*
G37*
G36*
X137425791Y-51802085D02*
G01*
X137459769Y-51812393D01*
X137491090Y-51829134D01*
X137518539Y-51851661D01*
X137541066Y-51879110D01*
X137557807Y-51910431D01*
X137568115Y-51944409D01*
X137572200Y-51985890D01*
X137572200Y-52662110D01*
X137568115Y-52703591D01*
X137557807Y-52737569D01*
X137541066Y-52768890D01*
X137518539Y-52796339D01*
X137491090Y-52818866D01*
X137459769Y-52835607D01*
X137425791Y-52845915D01*
X137384310Y-52850000D01*
X136783090Y-52850000D01*
X136741609Y-52845915D01*
X136707631Y-52835607D01*
X136676310Y-52818866D01*
X136648861Y-52796339D01*
X136626334Y-52768890D01*
X136609593Y-52737569D01*
X136599285Y-52703591D01*
X136595200Y-52662110D01*
X136595200Y-51985890D01*
X136599285Y-51944409D01*
X136609593Y-51910431D01*
X136626334Y-51879110D01*
X136648861Y-51851661D01*
X136676310Y-51829134D01*
X136707631Y-51812393D01*
X136741609Y-51802085D01*
X136783090Y-51798000D01*
X137384310Y-51798000D01*
X137425791Y-51802085D01*
X137425791Y-51802085D01*
G37*
G36*
X127654926Y-51445345D02*
G01*
X127692422Y-51456720D01*
X127726981Y-51475192D01*
X127762045Y-51503968D01*
X128284396Y-52026319D01*
X128313172Y-52061383D01*
X128331644Y-52095942D01*
X128343019Y-52133438D01*
X128346859Y-52172437D01*
X128343019Y-52211436D01*
X128331644Y-52248932D01*
X128313172Y-52283491D01*
X128284396Y-52318555D01*
X127832755Y-52770196D01*
X127797691Y-52798972D01*
X127763132Y-52817444D01*
X127725636Y-52828819D01*
X127686637Y-52832659D01*
X127647638Y-52828819D01*
X127610142Y-52817444D01*
X127575583Y-52798972D01*
X127540519Y-52770196D01*
X127018168Y-52247845D01*
X126989392Y-52212781D01*
X126970920Y-52178222D01*
X126959545Y-52140726D01*
X126955705Y-52101727D01*
X126959545Y-52062728D01*
X126970920Y-52025232D01*
X126989392Y-51990673D01*
X127018168Y-51955609D01*
X127469809Y-51503968D01*
X127504873Y-51475192D01*
X127539432Y-51456720D01*
X127576928Y-51445345D01*
X127615927Y-51441505D01*
X127654926Y-51445345D01*
X127654926Y-51445345D01*
G37*
G36*
X128797926Y-50378545D02*
G01*
X128835422Y-50389920D01*
X128869981Y-50408392D01*
X128905045Y-50437168D01*
X129427396Y-50959519D01*
X129456172Y-50994583D01*
X129474644Y-51029142D01*
X129486019Y-51066638D01*
X129489859Y-51105637D01*
X129486019Y-51144636D01*
X129474644Y-51182132D01*
X129456172Y-51216691D01*
X129427396Y-51251755D01*
X128975755Y-51703396D01*
X128940691Y-51732172D01*
X128906132Y-51750644D01*
X128868636Y-51762019D01*
X128829637Y-51765859D01*
X128790638Y-51762019D01*
X128753142Y-51750644D01*
X128718583Y-51732172D01*
X128683519Y-51703396D01*
X128161168Y-51181045D01*
X128132392Y-51145981D01*
X128113920Y-51111422D01*
X128102545Y-51073926D01*
X128098705Y-51034927D01*
X128102545Y-50995928D01*
X128113920Y-50958432D01*
X128132392Y-50923873D01*
X128161168Y-50888809D01*
X128612809Y-50437168D01*
X128647873Y-50408392D01*
X128682432Y-50389920D01*
X128719928Y-50378545D01*
X128758927Y-50374705D01*
X128797926Y-50378545D01*
X128797926Y-50378545D01*
G37*
G36*
X132266699Y-50140845D02*
G01*
X132304195Y-50152220D01*
X132338754Y-50170692D01*
X132369047Y-50195553D01*
X132393908Y-50225846D01*
X132412380Y-50260405D01*
X132423755Y-50297901D01*
X132428200Y-50343038D01*
X132428200Y-51081762D01*
X132423755Y-51126899D01*
X132412380Y-51164395D01*
X132393908Y-51198954D01*
X132369047Y-51229247D01*
X132338754Y-51254108D01*
X132304195Y-51272580D01*
X132266699Y-51283955D01*
X132221562Y-51288400D01*
X131582838Y-51288400D01*
X131537701Y-51283955D01*
X131500205Y-51272580D01*
X131465646Y-51254108D01*
X131435353Y-51229247D01*
X131410492Y-51198954D01*
X131392020Y-51164395D01*
X131380645Y-51126899D01*
X131376200Y-51081762D01*
X131376200Y-50343038D01*
X131380645Y-50297901D01*
X131392020Y-50260405D01*
X131410492Y-50225846D01*
X131435353Y-50195553D01*
X131465646Y-50170692D01*
X131500205Y-50152220D01*
X131537701Y-50140845D01*
X131582838Y-50136400D01*
X132221562Y-50136400D01*
X132266699Y-50140845D01*
X132266699Y-50140845D01*
G37*
G36*
X123246000Y-51211000D02*
G01*
X120594000Y-51211000D01*
X120594000Y-50049000D01*
X123246000Y-50049000D01*
X123246000Y-51211000D01*
X123246000Y-51211000D01*
G37*
G36*
X134315468Y-50115965D02*
G01*
X134354138Y-50127696D01*
X134389777Y-50146746D01*
X134421017Y-50172383D01*
X134446654Y-50203623D01*
X134465704Y-50239262D01*
X134477435Y-50277932D01*
X134482000Y-50324288D01*
X134482000Y-50975512D01*
X134477435Y-51021868D01*
X134465704Y-51060538D01*
X134446654Y-51096177D01*
X134421017Y-51127417D01*
X134389777Y-51153054D01*
X134354138Y-51172104D01*
X134315468Y-51183835D01*
X134269112Y-51188400D01*
X133192888Y-51188400D01*
X133146532Y-51183835D01*
X133107862Y-51172104D01*
X133072223Y-51153054D01*
X133040983Y-51127417D01*
X133015346Y-51096177D01*
X132996296Y-51060538D01*
X132984565Y-51021868D01*
X132980000Y-50975512D01*
X132980000Y-50324288D01*
X132984565Y-50277932D01*
X132996296Y-50239262D01*
X133015346Y-50203623D01*
X133040983Y-50172383D01*
X133072223Y-50146746D01*
X133107862Y-50127696D01*
X133146532Y-50115965D01*
X133192888Y-50111400D01*
X134269112Y-50111400D01*
X134315468Y-50115965D01*
X134315468Y-50115965D01*
G37*
G36*
X138841000Y-50856000D02*
G01*
X137679000Y-50856000D01*
X137679000Y-48204000D01*
X138841000Y-48204000D01*
X138841000Y-50856000D01*
X138841000Y-50856000D01*
G37*
G36*
X136641000Y-50856000D02*
G01*
X135479000Y-50856000D01*
X135479000Y-48204000D01*
X136641000Y-48204000D01*
X136641000Y-50856000D01*
X136641000Y-50856000D01*
G37*
G36*
X125269499Y-49008445D02*
G01*
X125306995Y-49019820D01*
X125341554Y-49038292D01*
X125371847Y-49063153D01*
X125396708Y-49093446D01*
X125415180Y-49128005D01*
X125426555Y-49165501D01*
X125431000Y-49210638D01*
X125431000Y-49849362D01*
X125426555Y-49894499D01*
X125415180Y-49931995D01*
X125396708Y-49966554D01*
X125371847Y-49996847D01*
X125341554Y-50021708D01*
X125306995Y-50040180D01*
X125269499Y-50051555D01*
X125224362Y-50056000D01*
X124485638Y-50056000D01*
X124440501Y-50051555D01*
X124403005Y-50040180D01*
X124368446Y-50021708D01*
X124338153Y-49996847D01*
X124313292Y-49966554D01*
X124294820Y-49931995D01*
X124283445Y-49894499D01*
X124279000Y-49849362D01*
X124279000Y-49210638D01*
X124283445Y-49165501D01*
X124294820Y-49128005D01*
X124313292Y-49093446D01*
X124338153Y-49063153D01*
X124368446Y-49038292D01*
X124403005Y-49019820D01*
X124440501Y-49008445D01*
X124485638Y-49004000D01*
X125224362Y-49004000D01*
X125269499Y-49008445D01*
X125269499Y-49008445D01*
G37*
G36*
X127019499Y-49008445D02*
G01*
X127056995Y-49019820D01*
X127091554Y-49038292D01*
X127121847Y-49063153D01*
X127146708Y-49093446D01*
X127165180Y-49128005D01*
X127176555Y-49165501D01*
X127181000Y-49210638D01*
X127181000Y-49849362D01*
X127176555Y-49894499D01*
X127165180Y-49931995D01*
X127146708Y-49966554D01*
X127121847Y-49996847D01*
X127091554Y-50021708D01*
X127056995Y-50040180D01*
X127019499Y-50051555D01*
X126974362Y-50056000D01*
X126235638Y-50056000D01*
X126190501Y-50051555D01*
X126153005Y-50040180D01*
X126118446Y-50021708D01*
X126088153Y-49996847D01*
X126063292Y-49966554D01*
X126044820Y-49931995D01*
X126033445Y-49894499D01*
X126029000Y-49849362D01*
X126029000Y-49210638D01*
X126033445Y-49165501D01*
X126044820Y-49128005D01*
X126063292Y-49093446D01*
X126088153Y-49063153D01*
X126118446Y-49038292D01*
X126153005Y-49019820D01*
X126190501Y-49008445D01*
X126235638Y-49004000D01*
X126974362Y-49004000D01*
X127019499Y-49008445D01*
X127019499Y-49008445D01*
G37*
G36*
X123246000Y-49011000D02*
G01*
X120594000Y-49011000D01*
X120594000Y-47849000D01*
X123246000Y-47849000D01*
X123246000Y-49011000D01*
X123246000Y-49011000D01*
G37*
G36*
X127039468Y-46243565D02*
G01*
X127078138Y-46255296D01*
X127113777Y-46274346D01*
X127145017Y-46299983D01*
X127170654Y-46331223D01*
X127189704Y-46366862D01*
X127201435Y-46405532D01*
X127206000Y-46451888D01*
X127206000Y-47528112D01*
X127201435Y-47574468D01*
X127189704Y-47613138D01*
X127170654Y-47648777D01*
X127145017Y-47680017D01*
X127113777Y-47705654D01*
X127078138Y-47724704D01*
X127039468Y-47736435D01*
X126993112Y-47741000D01*
X126341888Y-47741000D01*
X126295532Y-47736435D01*
X126256862Y-47724704D01*
X126221223Y-47705654D01*
X126189983Y-47680017D01*
X126164346Y-47648777D01*
X126145296Y-47613138D01*
X126133565Y-47574468D01*
X126129000Y-47528112D01*
X126129000Y-46451888D01*
X126133565Y-46405532D01*
X126145296Y-46366862D01*
X126164346Y-46331223D01*
X126189983Y-46299983D01*
X126221223Y-46274346D01*
X126256862Y-46255296D01*
X126295532Y-46243565D01*
X126341888Y-46239000D01*
X126993112Y-46239000D01*
X127039468Y-46243565D01*
X127039468Y-46243565D01*
G37*
G36*
X125164468Y-46243565D02*
G01*
X125203138Y-46255296D01*
X125238777Y-46274346D01*
X125270017Y-46299983D01*
X125295654Y-46331223D01*
X125314704Y-46366862D01*
X125326435Y-46405532D01*
X125331000Y-46451888D01*
X125331000Y-47528112D01*
X125326435Y-47574468D01*
X125314704Y-47613138D01*
X125295654Y-47648777D01*
X125270017Y-47680017D01*
X125238777Y-47705654D01*
X125203138Y-47724704D01*
X125164468Y-47736435D01*
X125118112Y-47741000D01*
X124466888Y-47741000D01*
X124420532Y-47736435D01*
X124381862Y-47724704D01*
X124346223Y-47705654D01*
X124314983Y-47680017D01*
X124289346Y-47648777D01*
X124270296Y-47613138D01*
X124258565Y-47574468D01*
X124254000Y-47528112D01*
X124254000Y-46451888D01*
X124258565Y-46405532D01*
X124270296Y-46366862D01*
X124289346Y-46331223D01*
X124314983Y-46299983D01*
X124346223Y-46274346D01*
X124381862Y-46255296D01*
X124420532Y-46243565D01*
X124466888Y-46239000D01*
X125118112Y-46239000D01*
X125164468Y-46243565D01*
X125164468Y-46243565D01*
G37*
G36*
X124465799Y-42198737D02*
G01*
X124475408Y-42201652D01*
X124484272Y-42206390D01*
X124492037Y-42212763D01*
X124498410Y-42220528D01*
X124503148Y-42229392D01*
X124506063Y-42239001D01*
X124507652Y-42255140D01*
X124507652Y-42662860D01*
X124506063Y-42678999D01*
X124503148Y-42688608D01*
X124498408Y-42697475D01*
X124492475Y-42704705D01*
X124478862Y-42725079D01*
X124469485Y-42747719D01*
X124464706Y-42771752D01*
X124464706Y-42796256D01*
X124469488Y-42820289D01*
X124478866Y-42842928D01*
X124492475Y-42863295D01*
X124498408Y-42870525D01*
X124503148Y-42879392D01*
X124506063Y-42889001D01*
X124507652Y-42905140D01*
X124507652Y-43312860D01*
X124506063Y-43328999D01*
X124503148Y-43338608D01*
X124498408Y-43347475D01*
X124492475Y-43354705D01*
X124478862Y-43375079D01*
X124469485Y-43397719D01*
X124464706Y-43421752D01*
X124464706Y-43446256D01*
X124469488Y-43470289D01*
X124478866Y-43492928D01*
X124492475Y-43513295D01*
X124498408Y-43520525D01*
X124503148Y-43529392D01*
X124506063Y-43539001D01*
X124507652Y-43555140D01*
X124507652Y-43962860D01*
X124506063Y-43978999D01*
X124503148Y-43988608D01*
X124498408Y-43997475D01*
X124492475Y-44004705D01*
X124478862Y-44025079D01*
X124469485Y-44047719D01*
X124464706Y-44071752D01*
X124464706Y-44096256D01*
X124469488Y-44120289D01*
X124478866Y-44142928D01*
X124492475Y-44163295D01*
X124498408Y-44170525D01*
X124503148Y-44179392D01*
X124506063Y-44189001D01*
X124507652Y-44205140D01*
X124507652Y-44612860D01*
X124506063Y-44628999D01*
X124503148Y-44638608D01*
X124498410Y-44647472D01*
X124492037Y-44655237D01*
X124484272Y-44661610D01*
X124475408Y-44666348D01*
X124465799Y-44669263D01*
X124449660Y-44670852D01*
X122211940Y-44670852D01*
X122195801Y-44669263D01*
X122186192Y-44666348D01*
X122177328Y-44661610D01*
X122169563Y-44655237D01*
X122163190Y-44647472D01*
X122158452Y-44638608D01*
X122155537Y-44628999D01*
X122153948Y-44612860D01*
X122153948Y-42255140D01*
X122155537Y-42239001D01*
X122158452Y-42229392D01*
X122163190Y-42220528D01*
X122169563Y-42212763D01*
X122177328Y-42206390D01*
X122186192Y-42201652D01*
X122195801Y-42198737D01*
X122211940Y-42197148D01*
X124449660Y-42197148D01*
X124465799Y-42198737D01*
X124465799Y-42198737D01*
G37*
G36*
X121506800Y-44670000D02*
G01*
X120704800Y-44670000D01*
X120704800Y-42198000D01*
X121506800Y-42198000D01*
X121506800Y-44670000D01*
X121506800Y-44670000D01*
G37*
G36*
X137488791Y-41298685D02*
G01*
X137522769Y-41308993D01*
X137554090Y-41325734D01*
X137581539Y-41348261D01*
X137604066Y-41375710D01*
X137620807Y-41407031D01*
X137631115Y-41441009D01*
X137635200Y-41482490D01*
X137635200Y-42083710D01*
X137631115Y-42125191D01*
X137620807Y-42159169D01*
X137604066Y-42190490D01*
X137581539Y-42217939D01*
X137554090Y-42240466D01*
X137522769Y-42257207D01*
X137488791Y-42267515D01*
X137447310Y-42271600D01*
X136771090Y-42271600D01*
X136729609Y-42267515D01*
X136695631Y-42257207D01*
X136664310Y-42240466D01*
X136636861Y-42217939D01*
X136614334Y-42190490D01*
X136597593Y-42159169D01*
X136587285Y-42125191D01*
X136583200Y-42083710D01*
X136583200Y-41482490D01*
X136587285Y-41441009D01*
X136597593Y-41407031D01*
X136614334Y-41375710D01*
X136636861Y-41348261D01*
X136664310Y-41325734D01*
X136695631Y-41308993D01*
X136729609Y-41298685D01*
X136771090Y-41294600D01*
X137447310Y-41294600D01*
X137488791Y-41298685D01*
X137488791Y-41298685D01*
G37*
G36*
X137488791Y-39723685D02*
G01*
X137522769Y-39733993D01*
X137554090Y-39750734D01*
X137581539Y-39773261D01*
X137604066Y-39800710D01*
X137620807Y-39832031D01*
X137631115Y-39866009D01*
X137635200Y-39907490D01*
X137635200Y-40508710D01*
X137631115Y-40550191D01*
X137620807Y-40584169D01*
X137604066Y-40615490D01*
X137581539Y-40642939D01*
X137554090Y-40665466D01*
X137522769Y-40682207D01*
X137488791Y-40692515D01*
X137447310Y-40696600D01*
X136771090Y-40696600D01*
X136729609Y-40692515D01*
X136695631Y-40682207D01*
X136664310Y-40665466D01*
X136636861Y-40642939D01*
X136614334Y-40615490D01*
X136597593Y-40584169D01*
X136587285Y-40550191D01*
X136583200Y-40508710D01*
X136583200Y-39907490D01*
X136587285Y-39866009D01*
X136597593Y-39832031D01*
X136614334Y-39800710D01*
X136636861Y-39773261D01*
X136664310Y-39750734D01*
X136695631Y-39733993D01*
X136729609Y-39723685D01*
X136771090Y-39719600D01*
X137447310Y-39719600D01*
X137488791Y-39723685D01*
X137488791Y-39723685D01*
G37*
G36*
X139236899Y-37984845D02*
G01*
X139274395Y-37996220D01*
X139308954Y-38014692D01*
X139339247Y-38039553D01*
X139364108Y-38069846D01*
X139382580Y-38104405D01*
X139393955Y-38141901D01*
X139398400Y-38187038D01*
X139398400Y-38825762D01*
X139393955Y-38870899D01*
X139382580Y-38908395D01*
X139364108Y-38942954D01*
X139339247Y-38973247D01*
X139308954Y-38998108D01*
X139274395Y-39016580D01*
X139236899Y-39027955D01*
X139191762Y-39032400D01*
X138453038Y-39032400D01*
X138407901Y-39027955D01*
X138370405Y-39016580D01*
X138335846Y-38998108D01*
X138305553Y-38973247D01*
X138280692Y-38942954D01*
X138262220Y-38908395D01*
X138250845Y-38870899D01*
X138246400Y-38825762D01*
X138246400Y-38187038D01*
X138250845Y-38141901D01*
X138262220Y-38104405D01*
X138280692Y-38069846D01*
X138305553Y-38039553D01*
X138335846Y-38014692D01*
X138370405Y-37996220D01*
X138407901Y-37984845D01*
X138453038Y-37980400D01*
X139191762Y-37980400D01*
X139236899Y-37984845D01*
X139236899Y-37984845D01*
G37*
G36*
X137486899Y-37984845D02*
G01*
X137524395Y-37996220D01*
X137558954Y-38014692D01*
X137589247Y-38039553D01*
X137614108Y-38069846D01*
X137632580Y-38104405D01*
X137643955Y-38141901D01*
X137648400Y-38187038D01*
X137648400Y-38825762D01*
X137643955Y-38870899D01*
X137632580Y-38908395D01*
X137614108Y-38942954D01*
X137589247Y-38973247D01*
X137558954Y-38998108D01*
X137524395Y-39016580D01*
X137486899Y-39027955D01*
X137441762Y-39032400D01*
X136703038Y-39032400D01*
X136657901Y-39027955D01*
X136620405Y-39016580D01*
X136585846Y-38998108D01*
X136555553Y-38973247D01*
X136530692Y-38942954D01*
X136512220Y-38908395D01*
X136500845Y-38870899D01*
X136496400Y-38825762D01*
X136496400Y-38187038D01*
X136500845Y-38141901D01*
X136512220Y-38104405D01*
X136530692Y-38069846D01*
X136555553Y-38039553D01*
X136585846Y-38014692D01*
X136620405Y-37996220D01*
X136657901Y-37984845D01*
X136703038Y-37980400D01*
X137441762Y-37980400D01*
X137486899Y-37984845D01*
X137486899Y-37984845D01*
G37*
G36*
X129274453Y-35955939D02*
G01*
X129436981Y-35988268D01*
X129619151Y-36063726D01*
X129783100Y-36173273D01*
X129922527Y-36312700D01*
X130032074Y-36476649D01*
X130107532Y-36658819D01*
X130113653Y-36689591D01*
X130139078Y-36817408D01*
X130146000Y-36852210D01*
X130146000Y-37049390D01*
X130107532Y-37242781D01*
X130032074Y-37424951D01*
X129922527Y-37588900D01*
X129783100Y-37728327D01*
X129619151Y-37837874D01*
X129436981Y-37913332D01*
X129340285Y-37932566D01*
X129243591Y-37951800D01*
X129046409Y-37951800D01*
X128853019Y-37913332D01*
X128670849Y-37837874D01*
X128506900Y-37728327D01*
X128367473Y-37588900D01*
X128257926Y-37424951D01*
X128182468Y-37242781D01*
X128144000Y-37049390D01*
X128144000Y-36852210D01*
X128150923Y-36817408D01*
X128176347Y-36689591D01*
X128182468Y-36658819D01*
X128257926Y-36476649D01*
X128367473Y-36312700D01*
X128506900Y-36173273D01*
X128670849Y-36063726D01*
X128853019Y-35988268D01*
X129015547Y-35955939D01*
X129046409Y-35949800D01*
X129243591Y-35949800D01*
X129274453Y-35955939D01*
X129274453Y-35955939D01*
G37*
G36*
X137463391Y-35888485D02*
G01*
X137497369Y-35898793D01*
X137528690Y-35915534D01*
X137556139Y-35938061D01*
X137578666Y-35965510D01*
X137595407Y-35996831D01*
X137605715Y-36030809D01*
X137609800Y-36072290D01*
X137609800Y-36673510D01*
X137605715Y-36714991D01*
X137595407Y-36748969D01*
X137578666Y-36780290D01*
X137556139Y-36807739D01*
X137528690Y-36830266D01*
X137497369Y-36847007D01*
X137463391Y-36857315D01*
X137421910Y-36861400D01*
X136745690Y-36861400D01*
X136704209Y-36857315D01*
X136670231Y-36847007D01*
X136638910Y-36830266D01*
X136611461Y-36807739D01*
X136588934Y-36780290D01*
X136572193Y-36748969D01*
X136561885Y-36714991D01*
X136557800Y-36673510D01*
X136557800Y-36072290D01*
X136561885Y-36030809D01*
X136572193Y-35996831D01*
X136588934Y-35965510D01*
X136611461Y-35938061D01*
X136638910Y-35915534D01*
X136670231Y-35898793D01*
X136704209Y-35888485D01*
X136745690Y-35884400D01*
X137421910Y-35884400D01*
X137463391Y-35888485D01*
X137463391Y-35888485D01*
G37*
G36*
X139139791Y-35863085D02*
G01*
X139173769Y-35873393D01*
X139205090Y-35890134D01*
X139232539Y-35912661D01*
X139255066Y-35940110D01*
X139271807Y-35971431D01*
X139282115Y-36005409D01*
X139286200Y-36046890D01*
X139286200Y-36648110D01*
X139282115Y-36689591D01*
X139271807Y-36723569D01*
X139255066Y-36754890D01*
X139232539Y-36782339D01*
X139205090Y-36804866D01*
X139173769Y-36821607D01*
X139139791Y-36831915D01*
X139098310Y-36836000D01*
X138422090Y-36836000D01*
X138380609Y-36831915D01*
X138346631Y-36821607D01*
X138315310Y-36804866D01*
X138287861Y-36782339D01*
X138265334Y-36754890D01*
X138248593Y-36723569D01*
X138238285Y-36689591D01*
X138234200Y-36648110D01*
X138234200Y-36046890D01*
X138238285Y-36005409D01*
X138248593Y-35971431D01*
X138265334Y-35940110D01*
X138287861Y-35912661D01*
X138315310Y-35890134D01*
X138346631Y-35873393D01*
X138380609Y-35863085D01*
X138422090Y-35859000D01*
X139098310Y-35859000D01*
X139139791Y-35863085D01*
X139139791Y-35863085D01*
G37*
G36*
X137463391Y-34313485D02*
G01*
X137497369Y-34323793D01*
X137528690Y-34340534D01*
X137556139Y-34363061D01*
X137578666Y-34390510D01*
X137595407Y-34421831D01*
X137605715Y-34455809D01*
X137609800Y-34497290D01*
X137609800Y-35098510D01*
X137605715Y-35139991D01*
X137595407Y-35173969D01*
X137578666Y-35205290D01*
X137556139Y-35232739D01*
X137528690Y-35255266D01*
X137497369Y-35272007D01*
X137463391Y-35282315D01*
X137421910Y-35286400D01*
X136745690Y-35286400D01*
X136704209Y-35282315D01*
X136670231Y-35272007D01*
X136638910Y-35255266D01*
X136611461Y-35232739D01*
X136588934Y-35205290D01*
X136572193Y-35173969D01*
X136561885Y-35139991D01*
X136557800Y-35098510D01*
X136557800Y-34497290D01*
X136561885Y-34455809D01*
X136572193Y-34421831D01*
X136588934Y-34390510D01*
X136611461Y-34363061D01*
X136638910Y-34340534D01*
X136670231Y-34323793D01*
X136704209Y-34313485D01*
X136745690Y-34309400D01*
X137421910Y-34309400D01*
X137463391Y-34313485D01*
X137463391Y-34313485D01*
G37*
G36*
X139139791Y-34288085D02*
G01*
X139173769Y-34298393D01*
X139205090Y-34315134D01*
X139232539Y-34337661D01*
X139255066Y-34365110D01*
X139271807Y-34396431D01*
X139282115Y-34430409D01*
X139286200Y-34471890D01*
X139286200Y-35073110D01*
X139282115Y-35114591D01*
X139271807Y-35148569D01*
X139255066Y-35179890D01*
X139232539Y-35207339D01*
X139205090Y-35229866D01*
X139173769Y-35246607D01*
X139139791Y-35256915D01*
X139098310Y-35261000D01*
X138422090Y-35261000D01*
X138380609Y-35256915D01*
X138346631Y-35246607D01*
X138315310Y-35229866D01*
X138287861Y-35207339D01*
X138265334Y-35179890D01*
X138248593Y-35148569D01*
X138238285Y-35114591D01*
X138234200Y-35073110D01*
X138234200Y-34471890D01*
X138238285Y-34430409D01*
X138248593Y-34396431D01*
X138265334Y-34365110D01*
X138287861Y-34337661D01*
X138315310Y-34315134D01*
X138346631Y-34298393D01*
X138380609Y-34288085D01*
X138422090Y-34284000D01*
X139098310Y-34284000D01*
X139139791Y-34288085D01*
X139139791Y-34288085D01*
G37*
G36*
X129436981Y-28988268D02*
G01*
X129619151Y-29063726D01*
X129783100Y-29173273D01*
X129922527Y-29312700D01*
X130032074Y-29476649D01*
X130107532Y-29658819D01*
X130146000Y-29852210D01*
X130146000Y-30049390D01*
X130107532Y-30242781D01*
X130032074Y-30424951D01*
X129922527Y-30588900D01*
X129783100Y-30728327D01*
X129619151Y-30837874D01*
X129436981Y-30913332D01*
X129340285Y-30932566D01*
X129243591Y-30951800D01*
X129046409Y-30951800D01*
X128853019Y-30913332D01*
X128670849Y-30837874D01*
X128506900Y-30728327D01*
X128367473Y-30588900D01*
X128257926Y-30424951D01*
X128182468Y-30242781D01*
X128144000Y-30049390D01*
X128144000Y-29852210D01*
X128182468Y-29658819D01*
X128257926Y-29476649D01*
X128367473Y-29312700D01*
X128506900Y-29173273D01*
X128670849Y-29063726D01*
X128853019Y-28988268D01*
X128949715Y-28969034D01*
X129046409Y-28949800D01*
X129243591Y-28949800D01*
X129436981Y-28988268D01*
X129436981Y-28988268D01*
G37*
M02*
