M48
; DRILL file {KiCad (5.1.0)-1} date 29.05.2019 20:43:49
; FORMAT={-:-/ absolute / inch / decimal}
; #@! TF.CreationDate,2019-05-29T20:43:49+02:00
; #@! TF.GenerationSoftware,Kicad,Pcbnew,(5.1.0)-1
; #@! TF.FileFunction,Plated,1,2,PTH
FMAT,2
INCH
T1C0.0157
T2C0.0394
%
G90
G05
T1
X4.761Y-2.05
X4.7618Y-4.7384
X4.764Y-1.808
X4.7662Y-4.6822
X4.7668Y-3.9358
X4.7736Y-3.292
X4.7736Y-3.3364
X4.7736Y-3.3804
X4.7736Y-3.4204
X4.7736Y-3.5124
X4.7736Y-3.5584
X4.7736Y-3.6544
X4.7744Y-4.6332
X4.775Y-3.459
X4.775Y-3.607
X4.775Y-3.705
X4.7914Y-4.0482
X4.8362Y-2.2294
X4.8364Y-1.8234
X4.837Y-1.5126
X4.837Y-1.552
X4.838Y-1.4714
X4.8396Y-1.5942
X4.8494Y-4.01
X4.8506Y-3.3842
X4.853Y-3.098
X4.854Y-3.201
X4.855Y-3.285
X4.8554Y-3.5956
X4.8576Y-3.7102
X4.8582Y-2.4476
X4.86Y-3.038
X4.872Y-2.3518
X4.8734Y-1.4342
X4.884Y-3.767
X4.893Y-4.881
X4.9042Y-3.8244
X4.9091Y-1.4005
X4.9131Y-1.7959
X4.926Y-2.0948
X4.9263Y-2.1427
X4.9362Y-3.5958
X4.9386Y-3.6866
X4.943Y-2.958
X4.945Y-1.689
X4.951Y-3.806
X4.9694Y-2.148
X4.9768Y-3.3358
X4.9852Y-3.5214
X4.986Y-1.905
X4.998Y-3.026
X5.0108Y-3.5856
X5.0126Y-3.658
X5.0194Y-3.3682
X5.055Y-1.796
X5.059Y-1.945
X5.069Y-1.693
X5.0802Y-2.688
X5.1Y-3.75
X5.1Y-3.808
X5.1Y-4.05
X5.116Y-3.3394
X5.1226Y-3.4102
X5.1276Y-3.2248
X5.1459Y-2.7331
X5.149Y-1.943
X5.15Y-3.8
X5.15Y-4.0
X5.1556Y-3.5482
X5.184Y-2.6
X5.1904Y-1.5932
X5.193Y-2.122
X5.199Y-2.724
X5.2Y-3.75
X5.2Y-3.85
X5.2Y-3.95
X5.2Y-4.05
X5.2154Y-3.2296
X5.217Y-3.395
X5.219Y-3.149
X5.219Y-3.5312
X5.221Y-3.6594
X5.225Y-1.931
X5.226Y-3.326
X5.2284Y-1.594
X5.2556Y-2.5446
X5.2582Y-2.1824
X5.263Y-2.125
X5.265Y-1.5942
X5.2734Y-2.624
X5.2782Y-1.2092
X5.28Y-1.93
X5.284Y-1.855
X5.3Y-3.75
X5.3Y-4.05
X5.301Y-2.5768
X5.318Y-2.112
X5.3308Y-2.3366
X5.333Y-1.365
X5.335Y-2.214
X5.337Y-1.512
X5.339Y-2.046
X5.342Y-2.732
X5.3454Y-3.012
X5.35Y-3.75
X5.35Y-3.8
X5.35Y-3.85
X5.35Y-3.9
X5.35Y-3.95
X5.35Y-4.0
X5.35Y-4.05
X5.384Y-2.603
X5.3944Y-3.3654
X5.3956Y-3.1486
X5.3974Y-2.959
X5.3976Y-3.454
X5.3986Y-3.5396
X5.3998Y-3.2392
X5.4Y-3.8
X5.4Y-3.9
X5.4Y-4.0
X5.407Y-1.865
X5.4174Y-3.0306
X5.4265Y-2.3843
X5.4296Y-2.3142
X5.4432Y-2.5142
X5.45Y-3.75
X5.45Y-3.8
X5.45Y-3.85
X5.45Y-3.9
X5.45Y-3.95
X5.45Y-4.0
X5.45Y-4.05
X5.4664Y-2.4464
X5.468Y-2.933
X5.4686Y-3.5364
X5.4706Y-3.3612
X5.4716Y-3.2694
X5.472Y-2.978
X5.4726Y-3.1036
X5.4728Y-2.2874
X5.4748Y-3.4718
X5.479Y-2.5894
X5.4794Y-2.3722
T2
X4.948Y-2.839
X5.048Y-2.839
X5.148Y-2.839
X5.248Y-2.839
T0
M30
