G04 #@! TF.GenerationSoftware,KiCad,Pcbnew,(5.1.0)-1*
G04 #@! TF.CreationDate,2019-05-27T22:44:18+02:00*
G04 #@! TF.ProjectId,WELLER,57454c4c-4552-42e6-9b69-6361645f7063,rev?*
G04 #@! TF.SameCoordinates,Original*
G04 #@! TF.FileFunction,Legend,Bot*
G04 #@! TF.FilePolarity,Positive*
%FSLAX46Y46*%
G04 Gerber Fmt 4.6, Leading zero omitted, Abs format (unit mm)*
G04 Created by KiCad (PCBNEW (5.1.0)-1) date 2019-05-27 22:44:18*
%MOMM*%
%LPD*%
G04 APERTURE LIST*
%ADD10C,0.150000*%
%ADD11C,0.120000*%
G04 APERTURE END LIST*
D10*
X125420380Y-102779771D02*
X124420380Y-102779771D01*
X125039428Y-102875009D02*
X125420380Y-103160723D01*
X124753714Y-103160723D02*
X125134666Y-102779771D01*
X124420380Y-103779771D02*
X124420380Y-103875009D01*
X124468000Y-103970247D01*
X124515619Y-104017866D01*
X124610857Y-104065485D01*
X124801333Y-104113104D01*
X125039428Y-104113104D01*
X125229904Y-104065485D01*
X125325142Y-104017866D01*
X125372761Y-103970247D01*
X125420380Y-103875009D01*
X125420380Y-103779771D01*
X125372761Y-103684533D01*
X125325142Y-103636914D01*
X125229904Y-103589295D01*
X125039428Y-103541676D01*
X124801333Y-103541676D01*
X124610857Y-103589295D01*
X124515619Y-103636914D01*
X124468000Y-103684533D01*
X124420380Y-103779771D01*
X124515619Y-104494057D02*
X124468000Y-104541676D01*
X124420380Y-104636914D01*
X124420380Y-104875009D01*
X124468000Y-104970247D01*
X124515619Y-105017866D01*
X124610857Y-105065485D01*
X124706095Y-105065485D01*
X124848952Y-105017866D01*
X125420380Y-104446438D01*
X125420380Y-105065485D01*
X124420380Y-105684533D02*
X124420380Y-105779771D01*
X124468000Y-105875009D01*
X124515619Y-105922628D01*
X124610857Y-105970247D01*
X124801333Y-106017866D01*
X125039428Y-106017866D01*
X125229904Y-105970247D01*
X125325142Y-105922628D01*
X125372761Y-105875009D01*
X125420380Y-105779771D01*
X125420380Y-105684533D01*
X125372761Y-105589295D01*
X125325142Y-105541676D01*
X125229904Y-105494057D01*
X125039428Y-105446438D01*
X124801333Y-105446438D01*
X124610857Y-105494057D01*
X124515619Y-105541676D01*
X124468000Y-105589295D01*
X124420380Y-105684533D01*
X125420380Y-106970247D02*
X125420380Y-106398819D01*
X125420380Y-106684533D02*
X124420380Y-106684533D01*
X124563238Y-106589295D01*
X124658476Y-106494057D01*
X124706095Y-106398819D01*
X121346980Y-90822238D02*
X122346980Y-91060333D01*
X121632695Y-91250809D01*
X122346980Y-91441285D01*
X121346980Y-91679380D01*
X122299361Y-92441285D02*
X122346980Y-92346047D01*
X122346980Y-92155571D01*
X122299361Y-92060333D01*
X122204123Y-92012714D01*
X121823171Y-92012714D01*
X121727933Y-92060333D01*
X121680314Y-92155571D01*
X121680314Y-92346047D01*
X121727933Y-92441285D01*
X121823171Y-92488904D01*
X121918409Y-92488904D01*
X122013647Y-92012714D01*
X122346980Y-93060333D02*
X122299361Y-92965095D01*
X122204123Y-92917476D01*
X121346980Y-92917476D01*
X122346980Y-93584142D02*
X122299361Y-93488904D01*
X122204123Y-93441285D01*
X121346980Y-93441285D01*
X122299361Y-94346047D02*
X122346980Y-94250809D01*
X122346980Y-94060333D01*
X122299361Y-93965095D01*
X122204123Y-93917476D01*
X121823171Y-93917476D01*
X121727933Y-93965095D01*
X121680314Y-94060333D01*
X121680314Y-94250809D01*
X121727933Y-94346047D01*
X121823171Y-94393666D01*
X121918409Y-94393666D01*
X122013647Y-93917476D01*
X122346980Y-94822238D02*
X121680314Y-94822238D01*
X121870790Y-94822238D02*
X121775552Y-94869857D01*
X121727933Y-94917476D01*
X121680314Y-95012714D01*
X121680314Y-95107952D01*
X122442219Y-95203190D02*
X122442219Y-95965095D01*
X122346980Y-96774619D02*
X121870790Y-96441285D01*
X122346980Y-96203190D02*
X121346980Y-96203190D01*
X121346980Y-96584142D01*
X121394600Y-96679380D01*
X121442219Y-96727000D01*
X121537457Y-96774619D01*
X121680314Y-96774619D01*
X121775552Y-96727000D01*
X121823171Y-96679380D01*
X121870790Y-96584142D01*
X121870790Y-96203190D01*
X121346980Y-97060333D02*
X121346980Y-97631761D01*
X122346980Y-97346047D02*
X121346980Y-97346047D01*
X122442219Y-97727000D02*
X122442219Y-98488904D01*
X121680314Y-98584142D02*
X121680314Y-98965095D01*
X121346980Y-98727000D02*
X122204123Y-98727000D01*
X122299361Y-98774619D01*
X122346980Y-98869857D01*
X122346980Y-98965095D01*
X122346980Y-99298428D02*
X121680314Y-99298428D01*
X121346980Y-99298428D02*
X121394600Y-99250809D01*
X121442219Y-99298428D01*
X121394600Y-99346047D01*
X121346980Y-99298428D01*
X121442219Y-99298428D01*
X121680314Y-99774619D02*
X122680314Y-99774619D01*
X121727933Y-99774619D02*
X121680314Y-99869857D01*
X121680314Y-100060333D01*
X121727933Y-100155571D01*
X121775552Y-100203190D01*
X121870790Y-100250809D01*
X122156504Y-100250809D01*
X122251742Y-100203190D01*
X122299361Y-100155571D01*
X122346980Y-100060333D01*
X122346980Y-99869857D01*
X122299361Y-99774619D01*
X122442219Y-100441285D02*
X122442219Y-101203190D01*
X122299361Y-101393666D02*
X122346980Y-101488904D01*
X122346980Y-101679380D01*
X122299361Y-101774619D01*
X122204123Y-101822238D01*
X122156504Y-101822238D01*
X122061266Y-101774619D01*
X122013647Y-101679380D01*
X122013647Y-101536523D01*
X121966028Y-101441285D01*
X121870790Y-101393666D01*
X121823171Y-101393666D01*
X121727933Y-101441285D01*
X121680314Y-101536523D01*
X121680314Y-101679380D01*
X121727933Y-101774619D01*
X122346980Y-102393666D02*
X122299361Y-102298428D01*
X122251742Y-102250809D01*
X122156504Y-102203190D01*
X121870790Y-102203190D01*
X121775552Y-102250809D01*
X121727933Y-102298428D01*
X121680314Y-102393666D01*
X121680314Y-102536523D01*
X121727933Y-102631761D01*
X121775552Y-102679380D01*
X121870790Y-102726999D01*
X122156504Y-102726999D01*
X122251742Y-102679380D01*
X122299361Y-102631761D01*
X122346980Y-102536523D01*
X122346980Y-102393666D01*
X122346980Y-103298428D02*
X122299361Y-103203190D01*
X122204123Y-103155571D01*
X121346980Y-103155571D01*
X122346980Y-104107952D02*
X121346980Y-104107952D01*
X122299361Y-104107952D02*
X122346980Y-104012714D01*
X122346980Y-103822238D01*
X122299361Y-103726999D01*
X122251742Y-103679380D01*
X122156504Y-103631761D01*
X121870790Y-103631761D01*
X121775552Y-103679380D01*
X121727933Y-103726999D01*
X121680314Y-103822238D01*
X121680314Y-104012714D01*
X121727933Y-104107952D01*
X122299361Y-104965095D02*
X122346980Y-104869857D01*
X122346980Y-104679380D01*
X122299361Y-104584142D01*
X122204123Y-104536523D01*
X121823171Y-104536523D01*
X121727933Y-104584142D01*
X121680314Y-104679380D01*
X121680314Y-104869857D01*
X121727933Y-104965095D01*
X121823171Y-105012714D01*
X121918409Y-105012714D01*
X122013647Y-104536523D01*
X122346980Y-105441285D02*
X121680314Y-105441285D01*
X121870790Y-105441285D02*
X121775552Y-105488904D01*
X121727933Y-105536523D01*
X121680314Y-105631761D01*
X121680314Y-105726999D01*
X121346980Y-107012714D02*
X121346980Y-107107952D01*
X121394600Y-107203190D01*
X121442219Y-107250809D01*
X121537457Y-107298428D01*
X121727933Y-107346047D01*
X121966028Y-107346047D01*
X122156504Y-107298428D01*
X122251742Y-107250809D01*
X122299361Y-107203190D01*
X122346980Y-107107952D01*
X122346980Y-107012714D01*
X122299361Y-106917476D01*
X122251742Y-106869857D01*
X122156504Y-106822238D01*
X121966028Y-106774619D01*
X121727933Y-106774619D01*
X121537457Y-106822238D01*
X121442219Y-106869857D01*
X121394600Y-106917476D01*
X121346980Y-107012714D01*
X121346980Y-108250809D02*
X121346980Y-107774619D01*
X121823171Y-107726999D01*
X121775552Y-107774619D01*
X121727933Y-107869857D01*
X121727933Y-108107952D01*
X121775552Y-108203190D01*
X121823171Y-108250809D01*
X121918409Y-108298428D01*
X122156504Y-108298428D01*
X122251742Y-108250809D01*
X122299361Y-108203190D01*
X122346980Y-108107952D01*
X122346980Y-107869857D01*
X122299361Y-107774619D01*
X122251742Y-107726999D01*
X122251742Y-108726999D02*
X122299361Y-108774619D01*
X122346980Y-108726999D01*
X122299361Y-108679380D01*
X122251742Y-108726999D01*
X122346980Y-108726999D01*
X121442219Y-109155571D02*
X121394600Y-109203190D01*
X121346980Y-109298428D01*
X121346980Y-109536523D01*
X121394600Y-109631761D01*
X121442219Y-109679380D01*
X121537457Y-109726999D01*
X121632695Y-109726999D01*
X121775552Y-109679380D01*
X122346980Y-109107952D01*
X122346980Y-109726999D01*
X121346980Y-110346047D02*
X121346980Y-110441285D01*
X121394600Y-110536523D01*
X121442219Y-110584142D01*
X121537457Y-110631761D01*
X121727933Y-110679380D01*
X121966028Y-110679380D01*
X122156504Y-110631761D01*
X122251742Y-110584142D01*
X122299361Y-110536523D01*
X122346980Y-110441285D01*
X122346980Y-110346047D01*
X122299361Y-110250809D01*
X122251742Y-110203190D01*
X122156504Y-110155571D01*
X121966028Y-110107952D01*
X121727933Y-110107952D01*
X121537457Y-110155571D01*
X121442219Y-110203190D01*
X121394600Y-110250809D01*
X121346980Y-110346047D01*
X122346980Y-111631761D02*
X122346980Y-111060333D01*
X122346980Y-111346047D02*
X121346980Y-111346047D01*
X121489838Y-111250809D01*
X121585076Y-111155571D01*
X121632695Y-111060333D01*
X122346980Y-112107952D02*
X122346980Y-112298428D01*
X122299361Y-112393666D01*
X122251742Y-112441285D01*
X122108885Y-112536523D01*
X121918409Y-112584142D01*
X121537457Y-112584142D01*
X121442219Y-112536523D01*
X121394600Y-112488904D01*
X121346980Y-112393666D01*
X121346980Y-112203190D01*
X121394600Y-112107952D01*
X121442219Y-112060333D01*
X121537457Y-112012714D01*
X121775552Y-112012714D01*
X121870790Y-112060333D01*
X121918409Y-112107952D01*
X121966028Y-112203190D01*
X121966028Y-112393666D01*
X121918409Y-112488904D01*
X121870790Y-112536523D01*
X121775552Y-112584142D01*
D11*
X124020000Y-46205000D02*
X126730000Y-46205000D01*
X124020000Y-47775000D02*
X124020000Y-46205000D01*
X126730000Y-47775000D02*
X124020000Y-47775000D01*
X120237300Y-47731800D02*
X122922300Y-47731800D01*
X120237300Y-49651800D02*
X120237300Y-47731800D01*
X122922300Y-49651800D02*
X120237300Y-49651800D01*
X121799533Y-46378400D02*
X122142067Y-46378400D01*
X121799533Y-47398400D02*
X122142067Y-47398400D01*
X124803200Y-67787600D02*
X124803200Y-67852600D01*
X128333200Y-67787600D02*
X128333200Y-67852600D01*
X124803200Y-62652600D02*
X124803200Y-62717600D01*
X128333200Y-62652600D02*
X128333200Y-62717600D01*
X129658200Y-62717600D02*
X128333200Y-62717600D01*
X128333200Y-67852600D02*
X124803200Y-67852600D01*
X128333200Y-62652600D02*
X124803200Y-62652600D01*
D10*
X126372857Y-48927142D02*
X126420476Y-48974761D01*
X126563333Y-49022380D01*
X126658571Y-49022380D01*
X126801428Y-48974761D01*
X126896666Y-48879523D01*
X126944285Y-48784285D01*
X126991904Y-48593809D01*
X126991904Y-48450952D01*
X126944285Y-48260476D01*
X126896666Y-48165238D01*
X126801428Y-48070000D01*
X126658571Y-48022380D01*
X126563333Y-48022380D01*
X126420476Y-48070000D01*
X126372857Y-48117619D01*
X125420476Y-49022380D02*
X125991904Y-49022380D01*
X125706190Y-49022380D02*
X125706190Y-48022380D01*
X125801428Y-48165238D01*
X125896666Y-48260476D01*
X125991904Y-48308095D01*
X124849047Y-48450952D02*
X124944285Y-48403333D01*
X124991904Y-48355714D01*
X125039523Y-48260476D01*
X125039523Y-48212857D01*
X124991904Y-48117619D01*
X124944285Y-48070000D01*
X124849047Y-48022380D01*
X124658571Y-48022380D01*
X124563333Y-48070000D01*
X124515714Y-48117619D01*
X124468095Y-48212857D01*
X124468095Y-48260476D01*
X124515714Y-48355714D01*
X124563333Y-48403333D01*
X124658571Y-48450952D01*
X124849047Y-48450952D01*
X124944285Y-48498571D01*
X124991904Y-48546190D01*
X125039523Y-48641428D01*
X125039523Y-48831904D01*
X124991904Y-48927142D01*
X124944285Y-48974761D01*
X124849047Y-49022380D01*
X124658571Y-49022380D01*
X124563333Y-48974761D01*
X124515714Y-48927142D01*
X124468095Y-48831904D01*
X124468095Y-48641428D01*
X124515714Y-48546190D01*
X124563333Y-48498571D01*
X124658571Y-48450952D01*
X122660395Y-50794180D02*
X122660395Y-49794180D01*
X122422300Y-49794180D01*
X122279442Y-49841800D01*
X122184204Y-49937038D01*
X122136585Y-50032276D01*
X122088966Y-50222752D01*
X122088966Y-50365609D01*
X122136585Y-50556085D01*
X122184204Y-50651323D01*
X122279442Y-50746561D01*
X122422300Y-50794180D01*
X122660395Y-50794180D01*
X121231823Y-49794180D02*
X121422300Y-49794180D01*
X121517538Y-49841800D01*
X121565157Y-49889419D01*
X121660395Y-50032276D01*
X121708014Y-50222752D01*
X121708014Y-50603704D01*
X121660395Y-50698942D01*
X121612776Y-50746561D01*
X121517538Y-50794180D01*
X121327061Y-50794180D01*
X121231823Y-50746561D01*
X121184204Y-50698942D01*
X121136585Y-50603704D01*
X121136585Y-50365609D01*
X121184204Y-50270371D01*
X121231823Y-50222752D01*
X121327061Y-50175133D01*
X121517538Y-50175133D01*
X121612776Y-50222752D01*
X121660395Y-50270371D01*
X121708014Y-50365609D01*
X122137466Y-46051742D02*
X122185085Y-46099361D01*
X122327942Y-46146980D01*
X122423180Y-46146980D01*
X122566038Y-46099361D01*
X122661276Y-46004123D01*
X122708895Y-45908885D01*
X122756514Y-45718409D01*
X122756514Y-45575552D01*
X122708895Y-45385076D01*
X122661276Y-45289838D01*
X122566038Y-45194600D01*
X122423180Y-45146980D01*
X122327942Y-45146980D01*
X122185085Y-45194600D01*
X122137466Y-45242219D01*
X121804133Y-45146980D02*
X121137466Y-45146980D01*
X121566038Y-46146980D01*
X126901533Y-61104980D02*
X126901533Y-61819266D01*
X126949152Y-61962123D01*
X127044390Y-62057361D01*
X127187247Y-62104980D01*
X127282485Y-62104980D01*
X126520580Y-61104980D02*
X125901533Y-61104980D01*
X126234866Y-61485933D01*
X126092009Y-61485933D01*
X125996771Y-61533552D01*
X125949152Y-61581171D01*
X125901533Y-61676409D01*
X125901533Y-61914504D01*
X125949152Y-62009742D01*
X125996771Y-62057361D01*
X126092009Y-62104980D01*
X126377723Y-62104980D01*
X126472961Y-62057361D01*
X126520580Y-62009742D01*
M02*
