G04 #@! TF.GenerationSoftware,KiCad,Pcbnew,(5.1.0)-1*
G04 #@! TF.CreationDate,2019-05-29T20:43:48+02:00*
G04 #@! TF.ProjectId,WELLER,57454c4c-4552-42e6-9b69-6361645f7063,rev?*
G04 #@! TF.SameCoordinates,Original*
G04 #@! TF.FileFunction,Soldermask,Bot*
G04 #@! TF.FilePolarity,Negative*
%FSLAX46Y46*%
G04 Gerber Fmt 4.6, Leading zero omitted, Abs format (unit mm)*
G04 Created by KiCad (PCBNEW (5.1.0)-1) date 2019-05-29 20:43:48*
%MOMM*%
%LPD*%
G04 APERTURE LIST*
%ADD10C,0.100000*%
G04 APERTURE END LIST*
D10*
G36*
X137867340Y-111138026D02*
G01*
X137915736Y-111147653D01*
X137953502Y-111163296D01*
X138006911Y-111185419D01*
X138006912Y-111185420D01*
X138088969Y-111240248D01*
X138158752Y-111310031D01*
X138158753Y-111310033D01*
X138213581Y-111392089D01*
X138251347Y-111483265D01*
X138270600Y-111580055D01*
X138270600Y-111678745D01*
X138251347Y-111775535D01*
X138213581Y-111866711D01*
X138213580Y-111866712D01*
X138158752Y-111948769D01*
X138088969Y-112018552D01*
X138047662Y-112046152D01*
X138006911Y-112073381D01*
X137953502Y-112095504D01*
X137915736Y-112111147D01*
X137867340Y-112120774D01*
X137818945Y-112130400D01*
X137720255Y-112130400D01*
X137671860Y-112120774D01*
X137623464Y-112111147D01*
X137585698Y-112095504D01*
X137532289Y-112073381D01*
X137491538Y-112046152D01*
X137450231Y-112018552D01*
X137380448Y-111948769D01*
X137325620Y-111866712D01*
X137325619Y-111866711D01*
X137287853Y-111775535D01*
X137268600Y-111678745D01*
X137268600Y-111580055D01*
X137287853Y-111483265D01*
X137325619Y-111392089D01*
X137380447Y-111310033D01*
X137380448Y-111310031D01*
X137450231Y-111240248D01*
X137532288Y-111185420D01*
X137532289Y-111185419D01*
X137585698Y-111163296D01*
X137623464Y-111147653D01*
X137671860Y-111138026D01*
X137720255Y-111128400D01*
X137818945Y-111128400D01*
X137867340Y-111138026D01*
X137867340Y-111138026D01*
G37*
G36*
X133326800Y-111912600D02*
G01*
X129224800Y-111912600D01*
X129224800Y-107810600D01*
X133326800Y-107810600D01*
X133326800Y-111912600D01*
X133326800Y-111912600D01*
G37*
G36*
X137867340Y-104338026D02*
G01*
X137915736Y-104347653D01*
X137953502Y-104363296D01*
X138006911Y-104385419D01*
X138006912Y-104385420D01*
X138088969Y-104440248D01*
X138158752Y-104510031D01*
X138158753Y-104510033D01*
X138213581Y-104592089D01*
X138251347Y-104683265D01*
X138270600Y-104780055D01*
X138270600Y-104878745D01*
X138251347Y-104975535D01*
X138213581Y-105066711D01*
X138213580Y-105066712D01*
X138158752Y-105148769D01*
X138088969Y-105218552D01*
X138047662Y-105246152D01*
X138006911Y-105273381D01*
X137953502Y-105295504D01*
X137915736Y-105311147D01*
X137867340Y-105320773D01*
X137818945Y-105330400D01*
X137720255Y-105330400D01*
X137671860Y-105320773D01*
X137623464Y-105311147D01*
X137585698Y-105295504D01*
X137532289Y-105273381D01*
X137491538Y-105246152D01*
X137450231Y-105218552D01*
X137380448Y-105148769D01*
X137325620Y-105066712D01*
X137325619Y-105066711D01*
X137287853Y-104975535D01*
X137268600Y-104878745D01*
X137268600Y-104780055D01*
X137287853Y-104683265D01*
X137325619Y-104592089D01*
X137380447Y-104510033D01*
X137380448Y-104510031D01*
X137450231Y-104440248D01*
X137532288Y-104385420D01*
X137532289Y-104385419D01*
X137585698Y-104363296D01*
X137623464Y-104347653D01*
X137671860Y-104338026D01*
X137720255Y-104328400D01*
X137818945Y-104328400D01*
X137867340Y-104338026D01*
X137867340Y-104338026D01*
G37*
G36*
X129244200Y-92636200D02*
G01*
X128342200Y-92636200D01*
X128342200Y-91634200D01*
X129244200Y-91634200D01*
X129244200Y-92636200D01*
X129244200Y-92636200D01*
G37*
G36*
X131144200Y-92636200D02*
G01*
X130242200Y-92636200D01*
X130242200Y-91634200D01*
X131144200Y-91634200D01*
X131144200Y-92636200D01*
X131144200Y-92636200D01*
G37*
G36*
X130194200Y-90636200D02*
G01*
X129292200Y-90636200D01*
X129292200Y-89634200D01*
X130194200Y-89634200D01*
X130194200Y-90636200D01*
X130194200Y-90636200D01*
G37*
G36*
X123857111Y-89201045D02*
G01*
X123891089Y-89211353D01*
X123922410Y-89228094D01*
X123949859Y-89250621D01*
X123972386Y-89278070D01*
X123989127Y-89309391D01*
X123999435Y-89343369D01*
X124003520Y-89384850D01*
X124003520Y-90061070D01*
X123999435Y-90102551D01*
X123989127Y-90136529D01*
X123972386Y-90167850D01*
X123949859Y-90195299D01*
X123922410Y-90217826D01*
X123891089Y-90234567D01*
X123857111Y-90244875D01*
X123815630Y-90248960D01*
X123214410Y-90248960D01*
X123172929Y-90244875D01*
X123138951Y-90234567D01*
X123107630Y-90217826D01*
X123080181Y-90195299D01*
X123057654Y-90167850D01*
X123040913Y-90136529D01*
X123030605Y-90102551D01*
X123026520Y-90061070D01*
X123026520Y-89384850D01*
X123030605Y-89343369D01*
X123040913Y-89309391D01*
X123057654Y-89278070D01*
X123080181Y-89250621D01*
X123107630Y-89228094D01*
X123138951Y-89211353D01*
X123172929Y-89201045D01*
X123214410Y-89196960D01*
X123815630Y-89196960D01*
X123857111Y-89201045D01*
X123857111Y-89201045D01*
G37*
G36*
X125432111Y-89201045D02*
G01*
X125466089Y-89211353D01*
X125497410Y-89228094D01*
X125524859Y-89250621D01*
X125547386Y-89278070D01*
X125564127Y-89309391D01*
X125574435Y-89343369D01*
X125578520Y-89384850D01*
X125578520Y-90061070D01*
X125574435Y-90102551D01*
X125564127Y-90136529D01*
X125547386Y-90167850D01*
X125524859Y-90195299D01*
X125497410Y-90217826D01*
X125466089Y-90234567D01*
X125432111Y-90244875D01*
X125390630Y-90248960D01*
X124789410Y-90248960D01*
X124747929Y-90244875D01*
X124713951Y-90234567D01*
X124682630Y-90217826D01*
X124655181Y-90195299D01*
X124632654Y-90167850D01*
X124615913Y-90136529D01*
X124605605Y-90102551D01*
X124601520Y-90061070D01*
X124601520Y-89384850D01*
X124605605Y-89343369D01*
X124615913Y-89309391D01*
X124632654Y-89278070D01*
X124655181Y-89250621D01*
X124682630Y-89228094D01*
X124713951Y-89211353D01*
X124747929Y-89201045D01*
X124789410Y-89196960D01*
X125390630Y-89196960D01*
X125432111Y-89201045D01*
X125432111Y-89201045D01*
G37*
G36*
X125437191Y-87550045D02*
G01*
X125471169Y-87560353D01*
X125502490Y-87577094D01*
X125529939Y-87599621D01*
X125552466Y-87627070D01*
X125569207Y-87658391D01*
X125579515Y-87692369D01*
X125583600Y-87733850D01*
X125583600Y-88410070D01*
X125579515Y-88451551D01*
X125569207Y-88485529D01*
X125552466Y-88516850D01*
X125529939Y-88544299D01*
X125502490Y-88566826D01*
X125471169Y-88583567D01*
X125437191Y-88593875D01*
X125395710Y-88597960D01*
X124794490Y-88597960D01*
X124753009Y-88593875D01*
X124719031Y-88583567D01*
X124687710Y-88566826D01*
X124660261Y-88544299D01*
X124637734Y-88516850D01*
X124620993Y-88485529D01*
X124610685Y-88451551D01*
X124606600Y-88410070D01*
X124606600Y-87733850D01*
X124610685Y-87692369D01*
X124620993Y-87658391D01*
X124637734Y-87627070D01*
X124660261Y-87599621D01*
X124687710Y-87577094D01*
X124719031Y-87560353D01*
X124753009Y-87550045D01*
X124794490Y-87545960D01*
X125395710Y-87545960D01*
X125437191Y-87550045D01*
X125437191Y-87550045D01*
G37*
G36*
X123862191Y-87550045D02*
G01*
X123896169Y-87560353D01*
X123927490Y-87577094D01*
X123954939Y-87599621D01*
X123977466Y-87627070D01*
X123994207Y-87658391D01*
X124004515Y-87692369D01*
X124008600Y-87733850D01*
X124008600Y-88410070D01*
X124004515Y-88451551D01*
X123994207Y-88485529D01*
X123977466Y-88516850D01*
X123954939Y-88544299D01*
X123927490Y-88566826D01*
X123896169Y-88583567D01*
X123862191Y-88593875D01*
X123820710Y-88597960D01*
X123219490Y-88597960D01*
X123178009Y-88593875D01*
X123144031Y-88583567D01*
X123112710Y-88566826D01*
X123085261Y-88544299D01*
X123062734Y-88516850D01*
X123045993Y-88485529D01*
X123035685Y-88451551D01*
X123031600Y-88410070D01*
X123031600Y-87733850D01*
X123035685Y-87692369D01*
X123045993Y-87658391D01*
X123062734Y-87627070D01*
X123085261Y-87599621D01*
X123112710Y-87577094D01*
X123144031Y-87560353D01*
X123178009Y-87550045D01*
X123219490Y-87545960D01*
X123820710Y-87545960D01*
X123862191Y-87550045D01*
X123862191Y-87550045D01*
G37*
G36*
X128329643Y-71216119D02*
G01*
X128395827Y-71222637D01*
X128565666Y-71274157D01*
X128722191Y-71357822D01*
X128757929Y-71387152D01*
X128859386Y-71470414D01*
X128942648Y-71571871D01*
X128971978Y-71607609D01*
X129055643Y-71764134D01*
X129107163Y-71933973D01*
X129124559Y-72110600D01*
X129107163Y-72287227D01*
X129055643Y-72457066D01*
X128971978Y-72613591D01*
X128942648Y-72649329D01*
X128859386Y-72750786D01*
X128757929Y-72834048D01*
X128722191Y-72863378D01*
X128565666Y-72947043D01*
X128395827Y-72998563D01*
X128329643Y-73005081D01*
X128263460Y-73011600D01*
X128174940Y-73011600D01*
X128108757Y-73005081D01*
X128042573Y-72998563D01*
X127872734Y-72947043D01*
X127716209Y-72863378D01*
X127680471Y-72834048D01*
X127579014Y-72750786D01*
X127495752Y-72649329D01*
X127466422Y-72613591D01*
X127382757Y-72457066D01*
X127331237Y-72287227D01*
X127313841Y-72110600D01*
X127331237Y-71933973D01*
X127382757Y-71764134D01*
X127466422Y-71607609D01*
X127495752Y-71571871D01*
X127579014Y-71470414D01*
X127680471Y-71387152D01*
X127716209Y-71357822D01*
X127872734Y-71274157D01*
X128042573Y-71222637D01*
X128108757Y-71216119D01*
X128174940Y-71209600D01*
X128263460Y-71209600D01*
X128329643Y-71216119D01*
X128329643Y-71216119D01*
G37*
G36*
X126580200Y-73011600D02*
G01*
X124778200Y-73011600D01*
X124778200Y-71209600D01*
X126580200Y-71209600D01*
X126580200Y-73011600D01*
X126580200Y-73011600D01*
G37*
G36*
X130869643Y-71216119D02*
G01*
X130935827Y-71222637D01*
X131105666Y-71274157D01*
X131262191Y-71357822D01*
X131297929Y-71387152D01*
X131399386Y-71470414D01*
X131482648Y-71571871D01*
X131511978Y-71607609D01*
X131595643Y-71764134D01*
X131647163Y-71933973D01*
X131664559Y-72110600D01*
X131647163Y-72287227D01*
X131595643Y-72457066D01*
X131511978Y-72613591D01*
X131482648Y-72649329D01*
X131399386Y-72750786D01*
X131297929Y-72834048D01*
X131262191Y-72863378D01*
X131105666Y-72947043D01*
X130935827Y-72998563D01*
X130869643Y-73005081D01*
X130803460Y-73011600D01*
X130714940Y-73011600D01*
X130648757Y-73005081D01*
X130582573Y-72998563D01*
X130412734Y-72947043D01*
X130256209Y-72863378D01*
X130220471Y-72834048D01*
X130119014Y-72750786D01*
X130035752Y-72649329D01*
X130006422Y-72613591D01*
X129922757Y-72457066D01*
X129871237Y-72287227D01*
X129853841Y-72110600D01*
X129871237Y-71933973D01*
X129922757Y-71764134D01*
X130006422Y-71607609D01*
X130035752Y-71571871D01*
X130119014Y-71470414D01*
X130220471Y-71387152D01*
X130256209Y-71357822D01*
X130412734Y-71274157D01*
X130582573Y-71222637D01*
X130648757Y-71216119D01*
X130714940Y-71209600D01*
X130803460Y-71209600D01*
X130869643Y-71216119D01*
X130869643Y-71216119D01*
G37*
G36*
X133409643Y-71216119D02*
G01*
X133475827Y-71222637D01*
X133645666Y-71274157D01*
X133802191Y-71357822D01*
X133837929Y-71387152D01*
X133939386Y-71470414D01*
X134022648Y-71571871D01*
X134051978Y-71607609D01*
X134135643Y-71764134D01*
X134187163Y-71933973D01*
X134204559Y-72110600D01*
X134187163Y-72287227D01*
X134135643Y-72457066D01*
X134051978Y-72613591D01*
X134022648Y-72649329D01*
X133939386Y-72750786D01*
X133837929Y-72834048D01*
X133802191Y-72863378D01*
X133645666Y-72947043D01*
X133475827Y-72998563D01*
X133409643Y-73005081D01*
X133343460Y-73011600D01*
X133254940Y-73011600D01*
X133188757Y-73005081D01*
X133122573Y-72998563D01*
X132952734Y-72947043D01*
X132796209Y-72863378D01*
X132760471Y-72834048D01*
X132659014Y-72750786D01*
X132575752Y-72649329D01*
X132546422Y-72613591D01*
X132462757Y-72457066D01*
X132411237Y-72287227D01*
X132393841Y-72110600D01*
X132411237Y-71933973D01*
X132462757Y-71764134D01*
X132546422Y-71607609D01*
X132575752Y-71571871D01*
X132659014Y-71470414D01*
X132760471Y-71387152D01*
X132796209Y-71357822D01*
X132952734Y-71274157D01*
X133122573Y-71222637D01*
X133188757Y-71216119D01*
X133254940Y-71209600D01*
X133343460Y-71209600D01*
X133409643Y-71216119D01*
X133409643Y-71216119D01*
G37*
G36*
X134250939Y-62394245D02*
G01*
X134288435Y-62405620D01*
X134322994Y-62424092D01*
X134353287Y-62448953D01*
X134378148Y-62479246D01*
X134396620Y-62513805D01*
X134407995Y-62551301D01*
X134412440Y-62596438D01*
X134412440Y-63235162D01*
X134407995Y-63280299D01*
X134396620Y-63317795D01*
X134378148Y-63352354D01*
X134353287Y-63382647D01*
X134322994Y-63407508D01*
X134288435Y-63425980D01*
X134250939Y-63437355D01*
X134205802Y-63441800D01*
X133467078Y-63441800D01*
X133421941Y-63437355D01*
X133384445Y-63425980D01*
X133349886Y-63407508D01*
X133319593Y-63382647D01*
X133294732Y-63352354D01*
X133276260Y-63317795D01*
X133264885Y-63280299D01*
X133260440Y-63235162D01*
X133260440Y-62596438D01*
X133264885Y-62551301D01*
X133276260Y-62513805D01*
X133294732Y-62479246D01*
X133319593Y-62448953D01*
X133349886Y-62424092D01*
X133384445Y-62405620D01*
X133421941Y-62394245D01*
X133467078Y-62389800D01*
X134205802Y-62389800D01*
X134250939Y-62394245D01*
X134250939Y-62394245D01*
G37*
G36*
X136000939Y-62394245D02*
G01*
X136038435Y-62405620D01*
X136072994Y-62424092D01*
X136103287Y-62448953D01*
X136128148Y-62479246D01*
X136146620Y-62513805D01*
X136157995Y-62551301D01*
X136162440Y-62596438D01*
X136162440Y-63235162D01*
X136157995Y-63280299D01*
X136146620Y-63317795D01*
X136128148Y-63352354D01*
X136103287Y-63382647D01*
X136072994Y-63407508D01*
X136038435Y-63425980D01*
X136000939Y-63437355D01*
X135955802Y-63441800D01*
X135217078Y-63441800D01*
X135171941Y-63437355D01*
X135134445Y-63425980D01*
X135099886Y-63407508D01*
X135069593Y-63382647D01*
X135044732Y-63352354D01*
X135026260Y-63317795D01*
X135014885Y-63280299D01*
X135010440Y-63235162D01*
X135010440Y-62596438D01*
X135014885Y-62551301D01*
X135026260Y-62513805D01*
X135044732Y-62479246D01*
X135069593Y-62448953D01*
X135099886Y-62424092D01*
X135134445Y-62405620D01*
X135171941Y-62394245D01*
X135217078Y-62389800D01*
X135955802Y-62389800D01*
X136000939Y-62394245D01*
X136000939Y-62394245D01*
G37*
G36*
X127121280Y-62941800D02*
G01*
X126279280Y-62941800D01*
X126279280Y-60439800D01*
X127121280Y-60439800D01*
X127121280Y-62941800D01*
X127121280Y-62941800D01*
G37*
G36*
X128391280Y-62941800D02*
G01*
X127549280Y-62941800D01*
X127549280Y-60439800D01*
X128391280Y-60439800D01*
X128391280Y-62941800D01*
X128391280Y-62941800D01*
G37*
G36*
X132201280Y-62941800D02*
G01*
X131359280Y-62941800D01*
X131359280Y-60439800D01*
X132201280Y-60439800D01*
X132201280Y-62941800D01*
X132201280Y-62941800D01*
G37*
G36*
X130931280Y-62941800D02*
G01*
X130089280Y-62941800D01*
X130089280Y-60439800D01*
X130931280Y-60439800D01*
X130931280Y-62941800D01*
X130931280Y-62941800D01*
G37*
G36*
X129661280Y-62941800D02*
G01*
X128819280Y-62941800D01*
X128819280Y-60439800D01*
X129661280Y-60439800D01*
X129661280Y-62941800D01*
X129661280Y-62941800D01*
G37*
G36*
X134179671Y-60814005D02*
G01*
X134213649Y-60824313D01*
X134244970Y-60841054D01*
X134272419Y-60863581D01*
X134294946Y-60891030D01*
X134311687Y-60922351D01*
X134321995Y-60956329D01*
X134326080Y-60997810D01*
X134326080Y-61674030D01*
X134321995Y-61715511D01*
X134311687Y-61749489D01*
X134294946Y-61780810D01*
X134272419Y-61808259D01*
X134244970Y-61830786D01*
X134213649Y-61847527D01*
X134179671Y-61857835D01*
X134138190Y-61861920D01*
X133536970Y-61861920D01*
X133495489Y-61857835D01*
X133461511Y-61847527D01*
X133430190Y-61830786D01*
X133402741Y-61808259D01*
X133380214Y-61780810D01*
X133363473Y-61749489D01*
X133353165Y-61715511D01*
X133349080Y-61674030D01*
X133349080Y-60997810D01*
X133353165Y-60956329D01*
X133363473Y-60922351D01*
X133380214Y-60891030D01*
X133402741Y-60863581D01*
X133430190Y-60841054D01*
X133461511Y-60824313D01*
X133495489Y-60814005D01*
X133536970Y-60809920D01*
X134138190Y-60809920D01*
X134179671Y-60814005D01*
X134179671Y-60814005D01*
G37*
G36*
X135754671Y-60814005D02*
G01*
X135788649Y-60824313D01*
X135819970Y-60841054D01*
X135847419Y-60863581D01*
X135869946Y-60891030D01*
X135886687Y-60922351D01*
X135896995Y-60956329D01*
X135901080Y-60997810D01*
X135901080Y-61674030D01*
X135896995Y-61715511D01*
X135886687Y-61749489D01*
X135869946Y-61780810D01*
X135847419Y-61808259D01*
X135819970Y-61830786D01*
X135788649Y-61847527D01*
X135754671Y-61857835D01*
X135713190Y-61861920D01*
X135111970Y-61861920D01*
X135070489Y-61857835D01*
X135036511Y-61847527D01*
X135005190Y-61830786D01*
X134977741Y-61808259D01*
X134955214Y-61780810D01*
X134938473Y-61749489D01*
X134928165Y-61715511D01*
X134924080Y-61674030D01*
X134924080Y-60997810D01*
X134928165Y-60956329D01*
X134938473Y-60922351D01*
X134955214Y-60891030D01*
X134977741Y-60863581D01*
X135005190Y-60841054D01*
X135036511Y-60824313D01*
X135070489Y-60814005D01*
X135111970Y-60809920D01*
X135713190Y-60809920D01*
X135754671Y-60814005D01*
X135754671Y-60814005D01*
G37*
G36*
X127121280Y-59041800D02*
G01*
X126279280Y-59041800D01*
X126279280Y-56539800D01*
X127121280Y-56539800D01*
X127121280Y-59041800D01*
X127121280Y-59041800D01*
G37*
G36*
X128391280Y-59041800D02*
G01*
X127549280Y-59041800D01*
X127549280Y-56539800D01*
X128391280Y-56539800D01*
X128391280Y-59041800D01*
X128391280Y-59041800D01*
G37*
G36*
X129661280Y-59041800D02*
G01*
X128819280Y-59041800D01*
X128819280Y-56539800D01*
X129661280Y-56539800D01*
X129661280Y-59041800D01*
X129661280Y-59041800D01*
G37*
G36*
X130931280Y-59041800D02*
G01*
X130089280Y-59041800D01*
X130089280Y-56539800D01*
X130931280Y-56539800D01*
X130931280Y-59041800D01*
X130931280Y-59041800D01*
G37*
G36*
X132201280Y-59041800D02*
G01*
X131359280Y-59041800D01*
X131359280Y-56539800D01*
X132201280Y-56539800D01*
X132201280Y-59041800D01*
X132201280Y-59041800D01*
G37*
G36*
X121356768Y-47945365D02*
G01*
X121395438Y-47957096D01*
X121431077Y-47976146D01*
X121462317Y-48001783D01*
X121487954Y-48033023D01*
X121507004Y-48068662D01*
X121518735Y-48107332D01*
X121523300Y-48153688D01*
X121523300Y-49229912D01*
X121518735Y-49276268D01*
X121507004Y-49314938D01*
X121487954Y-49350577D01*
X121462317Y-49381817D01*
X121431077Y-49407454D01*
X121395438Y-49426504D01*
X121356768Y-49438235D01*
X121310412Y-49442800D01*
X120659188Y-49442800D01*
X120612832Y-49438235D01*
X120574162Y-49426504D01*
X120538523Y-49407454D01*
X120507283Y-49381817D01*
X120481646Y-49350577D01*
X120462596Y-49314938D01*
X120450865Y-49276268D01*
X120446300Y-49229912D01*
X120446300Y-48153688D01*
X120450865Y-48107332D01*
X120462596Y-48068662D01*
X120481646Y-48033023D01*
X120507283Y-48001783D01*
X120538523Y-47976146D01*
X120574162Y-47957096D01*
X120612832Y-47945365D01*
X120659188Y-47940800D01*
X121310412Y-47940800D01*
X121356768Y-47945365D01*
X121356768Y-47945365D01*
G37*
G36*
X123231768Y-47945365D02*
G01*
X123270438Y-47957096D01*
X123306077Y-47976146D01*
X123337317Y-48001783D01*
X123362954Y-48033023D01*
X123382004Y-48068662D01*
X123393735Y-48107332D01*
X123398300Y-48153688D01*
X123398300Y-49229912D01*
X123393735Y-49276268D01*
X123382004Y-49314938D01*
X123362954Y-49350577D01*
X123337317Y-49381817D01*
X123306077Y-49407454D01*
X123270438Y-49426504D01*
X123231768Y-49438235D01*
X123185412Y-49442800D01*
X122534188Y-49442800D01*
X122487832Y-49438235D01*
X122449162Y-49426504D01*
X122413523Y-49407454D01*
X122382283Y-49381817D01*
X122356646Y-49350577D01*
X122337596Y-49314938D01*
X122325865Y-49276268D01*
X122321300Y-49229912D01*
X122321300Y-48153688D01*
X122325865Y-48107332D01*
X122337596Y-48068662D01*
X122356646Y-48033023D01*
X122382283Y-48001783D01*
X122413523Y-47976146D01*
X122449162Y-47957096D01*
X122487832Y-47945365D01*
X122534188Y-47940800D01*
X123185412Y-47940800D01*
X123231768Y-47945365D01*
X123231768Y-47945365D01*
G37*
G36*
X127062811Y-46418605D02*
G01*
X127101867Y-46430453D01*
X127137862Y-46449693D01*
X127169414Y-46475586D01*
X127195307Y-46507138D01*
X127214547Y-46543133D01*
X127226395Y-46582189D01*
X127231000Y-46628949D01*
X127231000Y-47351051D01*
X127226395Y-47397811D01*
X127214547Y-47436867D01*
X127195307Y-47472862D01*
X127169414Y-47504414D01*
X127137862Y-47530307D01*
X127101867Y-47549547D01*
X127062811Y-47561395D01*
X127016051Y-47566000D01*
X126218949Y-47566000D01*
X126172189Y-47561395D01*
X126133133Y-47549547D01*
X126097138Y-47530307D01*
X126065586Y-47504414D01*
X126039693Y-47472862D01*
X126020453Y-47436867D01*
X126008605Y-47397811D01*
X126004000Y-47351051D01*
X126004000Y-46628949D01*
X126008605Y-46582189D01*
X126020453Y-46543133D01*
X126039693Y-46507138D01*
X126065586Y-46475586D01*
X126097138Y-46449693D01*
X126133133Y-46430453D01*
X126172189Y-46418605D01*
X126218949Y-46414000D01*
X127016051Y-46414000D01*
X127062811Y-46418605D01*
X127062811Y-46418605D01*
G37*
G36*
X125287811Y-46418605D02*
G01*
X125326867Y-46430453D01*
X125362862Y-46449693D01*
X125394414Y-46475586D01*
X125420307Y-46507138D01*
X125439547Y-46543133D01*
X125451395Y-46582189D01*
X125456000Y-46628949D01*
X125456000Y-47351051D01*
X125451395Y-47397811D01*
X125439547Y-47436867D01*
X125420307Y-47472862D01*
X125394414Y-47504414D01*
X125362862Y-47530307D01*
X125326867Y-47549547D01*
X125287811Y-47561395D01*
X125241051Y-47566000D01*
X124443949Y-47566000D01*
X124397189Y-47561395D01*
X124358133Y-47549547D01*
X124322138Y-47530307D01*
X124290586Y-47504414D01*
X124264693Y-47472862D01*
X124245453Y-47436867D01*
X124233605Y-47397811D01*
X124229000Y-47351051D01*
X124229000Y-46628949D01*
X124233605Y-46582189D01*
X124245453Y-46543133D01*
X124264693Y-46507138D01*
X124290586Y-46475586D01*
X124322138Y-46449693D01*
X124358133Y-46430453D01*
X124397189Y-46418605D01*
X124443949Y-46414000D01*
X125241051Y-46414000D01*
X125287811Y-46418605D01*
X125287811Y-46418605D01*
G37*
G36*
X123260299Y-46366845D02*
G01*
X123297795Y-46378220D01*
X123332354Y-46396692D01*
X123362647Y-46421553D01*
X123387508Y-46451846D01*
X123405980Y-46486405D01*
X123417355Y-46523901D01*
X123421800Y-46569038D01*
X123421800Y-47207762D01*
X123417355Y-47252899D01*
X123405980Y-47290395D01*
X123387508Y-47324954D01*
X123362647Y-47355247D01*
X123332354Y-47380108D01*
X123297795Y-47398580D01*
X123260299Y-47409955D01*
X123215162Y-47414400D01*
X122476438Y-47414400D01*
X122431301Y-47409955D01*
X122393805Y-47398580D01*
X122359246Y-47380108D01*
X122328953Y-47355247D01*
X122304092Y-47324954D01*
X122285620Y-47290395D01*
X122274245Y-47252899D01*
X122269800Y-47207762D01*
X122269800Y-46569038D01*
X122274245Y-46523901D01*
X122285620Y-46486405D01*
X122304092Y-46451846D01*
X122328953Y-46421553D01*
X122359246Y-46396692D01*
X122393805Y-46378220D01*
X122431301Y-46366845D01*
X122476438Y-46362400D01*
X123215162Y-46362400D01*
X123260299Y-46366845D01*
X123260299Y-46366845D01*
G37*
G36*
X121510299Y-46366845D02*
G01*
X121547795Y-46378220D01*
X121582354Y-46396692D01*
X121612647Y-46421553D01*
X121637508Y-46451846D01*
X121655980Y-46486405D01*
X121667355Y-46523901D01*
X121671800Y-46569038D01*
X121671800Y-47207762D01*
X121667355Y-47252899D01*
X121655980Y-47290395D01*
X121637508Y-47324954D01*
X121612647Y-47355247D01*
X121582354Y-47380108D01*
X121547795Y-47398580D01*
X121510299Y-47409955D01*
X121465162Y-47414400D01*
X120726438Y-47414400D01*
X120681301Y-47409955D01*
X120643805Y-47398580D01*
X120609246Y-47380108D01*
X120578953Y-47355247D01*
X120554092Y-47324954D01*
X120535620Y-47290395D01*
X120524245Y-47252899D01*
X120519800Y-47207762D01*
X120519800Y-46569038D01*
X120524245Y-46523901D01*
X120535620Y-46486405D01*
X120554092Y-46451846D01*
X120578953Y-46421553D01*
X120609246Y-46396692D01*
X120643805Y-46378220D01*
X120681301Y-46366845D01*
X120726438Y-46362400D01*
X121465162Y-46362400D01*
X121510299Y-46366845D01*
X121510299Y-46366845D01*
G37*
G36*
X133812228Y-36713132D02*
G01*
X133936487Y-36750826D01*
X134051006Y-36812038D01*
X134151384Y-36894416D01*
X134233762Y-36994794D01*
X134294974Y-37109313D01*
X134332668Y-37233572D01*
X134346000Y-37368940D01*
X134346000Y-38932660D01*
X134332668Y-39068028D01*
X134294974Y-39192287D01*
X134233762Y-39306806D01*
X134151384Y-39407184D01*
X134051006Y-39489562D01*
X133936487Y-39550774D01*
X133812228Y-39588468D01*
X133676860Y-39601800D01*
X132013140Y-39601800D01*
X131877772Y-39588468D01*
X131753513Y-39550774D01*
X131638994Y-39489562D01*
X131538616Y-39407184D01*
X131456238Y-39306806D01*
X131395026Y-39192287D01*
X131357332Y-39068028D01*
X131344000Y-38932660D01*
X131344000Y-37368940D01*
X131357332Y-37233572D01*
X131395026Y-37109313D01*
X131456238Y-36994794D01*
X131538616Y-36894416D01*
X131638994Y-36812038D01*
X131753513Y-36750826D01*
X131877772Y-36713132D01*
X132013140Y-36699800D01*
X133676860Y-36699800D01*
X133812228Y-36713132D01*
X133812228Y-36713132D01*
G37*
G36*
X129436981Y-35988268D02*
G01*
X129619151Y-36063726D01*
X129783100Y-36173273D01*
X129922527Y-36312700D01*
X130032074Y-36476649D01*
X130107532Y-36658819D01*
X130146000Y-36852210D01*
X130146000Y-37049390D01*
X130107532Y-37242781D01*
X130032074Y-37424951D01*
X129922527Y-37588900D01*
X129783100Y-37728327D01*
X129619151Y-37837874D01*
X129436981Y-37913332D01*
X129340285Y-37932566D01*
X129243591Y-37951800D01*
X129046409Y-37951800D01*
X128853019Y-37913332D01*
X128670849Y-37837874D01*
X128506900Y-37728327D01*
X128367473Y-37588900D01*
X128257926Y-37424951D01*
X128182468Y-37242781D01*
X128144000Y-37049390D01*
X128144000Y-36852210D01*
X128182468Y-36658819D01*
X128257926Y-36476649D01*
X128367473Y-36312700D01*
X128506900Y-36173273D01*
X128670849Y-36063726D01*
X128853019Y-35988268D01*
X128949715Y-35969034D01*
X129046409Y-35949800D01*
X129243591Y-35949800D01*
X129436981Y-35988268D01*
X129436981Y-35988268D01*
G37*
G36*
X126663455Y-29808328D02*
G01*
X126740812Y-29831795D01*
X126812117Y-29869908D01*
X126874608Y-29921192D01*
X126925892Y-29983683D01*
X126964005Y-30054988D01*
X126987472Y-30132345D01*
X126996000Y-30218940D01*
X126996000Y-31282660D01*
X126987472Y-31369255D01*
X126964005Y-31446612D01*
X126925892Y-31517917D01*
X126874608Y-31580408D01*
X126812117Y-31631692D01*
X126740812Y-31669805D01*
X126663455Y-31693272D01*
X126576860Y-31701800D01*
X124413140Y-31701800D01*
X124326545Y-31693272D01*
X124249188Y-31669805D01*
X124177883Y-31631692D01*
X124115392Y-31580408D01*
X124064108Y-31517917D01*
X124025995Y-31446612D01*
X124002528Y-31369255D01*
X123994000Y-31282660D01*
X123994000Y-30218940D01*
X124002528Y-30132345D01*
X124025995Y-30054988D01*
X124064108Y-29983683D01*
X124115392Y-29921192D01*
X124177883Y-29869908D01*
X124249188Y-29831795D01*
X124326545Y-29808328D01*
X124413140Y-29799800D01*
X126576860Y-29799800D01*
X126663455Y-29808328D01*
X126663455Y-29808328D01*
G37*
G36*
X129436981Y-28988268D02*
G01*
X129619151Y-29063726D01*
X129783100Y-29173273D01*
X129922527Y-29312700D01*
X130032074Y-29476649D01*
X130090590Y-29617917D01*
X130107532Y-29658820D01*
X130146000Y-29852209D01*
X130146000Y-30049391D01*
X130137259Y-30093334D01*
X130107532Y-30242781D01*
X130032074Y-30424951D01*
X129922527Y-30588900D01*
X129783100Y-30728327D01*
X129619151Y-30837874D01*
X129436981Y-30913332D01*
X129340285Y-30932566D01*
X129243591Y-30951800D01*
X129046409Y-30951800D01*
X128853019Y-30913332D01*
X128670849Y-30837874D01*
X128506900Y-30728327D01*
X128367473Y-30588900D01*
X128257926Y-30424951D01*
X128182468Y-30242781D01*
X128152741Y-30093334D01*
X128144000Y-30049391D01*
X128144000Y-29852209D01*
X128182468Y-29658820D01*
X128199411Y-29617917D01*
X128257926Y-29476649D01*
X128367473Y-29312700D01*
X128506900Y-29173273D01*
X128670849Y-29063726D01*
X128853019Y-28988268D01*
X128949715Y-28969034D01*
X129046409Y-28949800D01*
X129243591Y-28949800D01*
X129436981Y-28988268D01*
X129436981Y-28988268D01*
G37*
G36*
X134013455Y-27908328D02*
G01*
X134090812Y-27931795D01*
X134162117Y-27969908D01*
X134224608Y-28021192D01*
X134275892Y-28083683D01*
X134314005Y-28154988D01*
X134337472Y-28232345D01*
X134346000Y-28318940D01*
X134346000Y-29382660D01*
X134337472Y-29469255D01*
X134314005Y-29546612D01*
X134275892Y-29617917D01*
X134224608Y-29680408D01*
X134162117Y-29731692D01*
X134090812Y-29769805D01*
X134013455Y-29793272D01*
X133926860Y-29801800D01*
X131763140Y-29801800D01*
X131676545Y-29793272D01*
X131599188Y-29769805D01*
X131527883Y-29731692D01*
X131465392Y-29680408D01*
X131414108Y-29617917D01*
X131375995Y-29546612D01*
X131352528Y-29469255D01*
X131344000Y-29382660D01*
X131344000Y-28318940D01*
X131352528Y-28232345D01*
X131375995Y-28154988D01*
X131414108Y-28083683D01*
X131465392Y-28021192D01*
X131527883Y-27969908D01*
X131599188Y-27931795D01*
X131676545Y-27908328D01*
X131763140Y-27899800D01*
X133926860Y-27899800D01*
X134013455Y-27908328D01*
X134013455Y-27908328D01*
G37*
G36*
X126663455Y-27008328D02*
G01*
X126740812Y-27031795D01*
X126812117Y-27069908D01*
X126874608Y-27121192D01*
X126925892Y-27183683D01*
X126964005Y-27254988D01*
X126987472Y-27332345D01*
X126996000Y-27418940D01*
X126996000Y-28482660D01*
X126987472Y-28569255D01*
X126964005Y-28646612D01*
X126925892Y-28717917D01*
X126874608Y-28780408D01*
X126812117Y-28831692D01*
X126740812Y-28869805D01*
X126663455Y-28893272D01*
X126576860Y-28901800D01*
X124413140Y-28901800D01*
X124326545Y-28893272D01*
X124249188Y-28869805D01*
X124177883Y-28831692D01*
X124115392Y-28780408D01*
X124064108Y-28717917D01*
X124025995Y-28646612D01*
X124002528Y-28569255D01*
X123994000Y-28482660D01*
X123994000Y-27418940D01*
X124002528Y-27332345D01*
X124025995Y-27254988D01*
X124064108Y-27183683D01*
X124115392Y-27121192D01*
X124177883Y-27069908D01*
X124249188Y-27031795D01*
X124326545Y-27008328D01*
X124413140Y-26999800D01*
X126576860Y-26999800D01*
X126663455Y-27008328D01*
X126663455Y-27008328D01*
G37*
G36*
X134184192Y-25405446D02*
G01*
X134233414Y-25420378D01*
X134278778Y-25444626D01*
X134318542Y-25477258D01*
X134351174Y-25517022D01*
X134375422Y-25562386D01*
X134390354Y-25611608D01*
X134396000Y-25668940D01*
X134396000Y-26432660D01*
X134390354Y-26489992D01*
X134375422Y-26539214D01*
X134351174Y-26584578D01*
X134318542Y-26624342D01*
X134278778Y-26656974D01*
X134233414Y-26681222D01*
X134184192Y-26696154D01*
X134126860Y-26701800D01*
X131663140Y-26701800D01*
X131605808Y-26696154D01*
X131556586Y-26681222D01*
X131511222Y-26656974D01*
X131471458Y-26624342D01*
X131438826Y-26584578D01*
X131414578Y-26539214D01*
X131399646Y-26489992D01*
X131394000Y-26432660D01*
X131394000Y-25668940D01*
X131399646Y-25611608D01*
X131414578Y-25562386D01*
X131438826Y-25517022D01*
X131471458Y-25477258D01*
X131511222Y-25444626D01*
X131556586Y-25420378D01*
X131605808Y-25405446D01*
X131663140Y-25399800D01*
X134126860Y-25399800D01*
X134184192Y-25405446D01*
X134184192Y-25405446D01*
G37*
M02*
