G04 #@! TF.GenerationSoftware,KiCad,Pcbnew,(5.1.0)-1*
G04 #@! TF.CreationDate,2019-05-27T20:51:44+02:00*
G04 #@! TF.ProjectId,WELLER,57454c4c-4552-42e6-9b69-6361645f7063,rev?*
G04 #@! TF.SameCoordinates,Original*
G04 #@! TF.FileFunction,Legend,Bot*
G04 #@! TF.FilePolarity,Positive*
%FSLAX46Y46*%
G04 Gerber Fmt 4.6, Leading zero omitted, Abs format (unit mm)*
G04 Created by KiCad (PCBNEW (5.1.0)-1) date 2019-05-27 20:51:44*
%MOMM*%
%LPD*%
G04 APERTURE LIST*
%ADD10C,0.120000*%
%ADD11C,0.150000*%
G04 APERTURE END LIST*
D10*
X124020000Y-46205000D02*
X126730000Y-46205000D01*
X124020000Y-47775000D02*
X124020000Y-46205000D01*
X126730000Y-47775000D02*
X124020000Y-47775000D01*
X120237300Y-47731800D02*
X122922300Y-47731800D01*
X120237300Y-49651800D02*
X120237300Y-47731800D01*
X122922300Y-49651800D02*
X120237300Y-49651800D01*
X121799533Y-46378400D02*
X122142067Y-46378400D01*
X121799533Y-47398400D02*
X122142067Y-47398400D01*
X124803200Y-67787600D02*
X124803200Y-67852600D01*
X128333200Y-67787600D02*
X128333200Y-67852600D01*
X124803200Y-62652600D02*
X124803200Y-62717600D01*
X128333200Y-62652600D02*
X128333200Y-62717600D01*
X129658200Y-62717600D02*
X128333200Y-62717600D01*
X128333200Y-67852600D02*
X124803200Y-67852600D01*
X128333200Y-62652600D02*
X124803200Y-62652600D01*
D11*
X126372857Y-48927142D02*
X126420476Y-48974761D01*
X126563333Y-49022380D01*
X126658571Y-49022380D01*
X126801428Y-48974761D01*
X126896666Y-48879523D01*
X126944285Y-48784285D01*
X126991904Y-48593809D01*
X126991904Y-48450952D01*
X126944285Y-48260476D01*
X126896666Y-48165238D01*
X126801428Y-48070000D01*
X126658571Y-48022380D01*
X126563333Y-48022380D01*
X126420476Y-48070000D01*
X126372857Y-48117619D01*
X125420476Y-49022380D02*
X125991904Y-49022380D01*
X125706190Y-49022380D02*
X125706190Y-48022380D01*
X125801428Y-48165238D01*
X125896666Y-48260476D01*
X125991904Y-48308095D01*
X124849047Y-48450952D02*
X124944285Y-48403333D01*
X124991904Y-48355714D01*
X125039523Y-48260476D01*
X125039523Y-48212857D01*
X124991904Y-48117619D01*
X124944285Y-48070000D01*
X124849047Y-48022380D01*
X124658571Y-48022380D01*
X124563333Y-48070000D01*
X124515714Y-48117619D01*
X124468095Y-48212857D01*
X124468095Y-48260476D01*
X124515714Y-48355714D01*
X124563333Y-48403333D01*
X124658571Y-48450952D01*
X124849047Y-48450952D01*
X124944285Y-48498571D01*
X124991904Y-48546190D01*
X125039523Y-48641428D01*
X125039523Y-48831904D01*
X124991904Y-48927142D01*
X124944285Y-48974761D01*
X124849047Y-49022380D01*
X124658571Y-49022380D01*
X124563333Y-48974761D01*
X124515714Y-48927142D01*
X124468095Y-48831904D01*
X124468095Y-48641428D01*
X124515714Y-48546190D01*
X124563333Y-48498571D01*
X124658571Y-48450952D01*
X122660395Y-50794180D02*
X122660395Y-49794180D01*
X122422300Y-49794180D01*
X122279442Y-49841800D01*
X122184204Y-49937038D01*
X122136585Y-50032276D01*
X122088966Y-50222752D01*
X122088966Y-50365609D01*
X122136585Y-50556085D01*
X122184204Y-50651323D01*
X122279442Y-50746561D01*
X122422300Y-50794180D01*
X122660395Y-50794180D01*
X121231823Y-49794180D02*
X121422300Y-49794180D01*
X121517538Y-49841800D01*
X121565157Y-49889419D01*
X121660395Y-50032276D01*
X121708014Y-50222752D01*
X121708014Y-50603704D01*
X121660395Y-50698942D01*
X121612776Y-50746561D01*
X121517538Y-50794180D01*
X121327061Y-50794180D01*
X121231823Y-50746561D01*
X121184204Y-50698942D01*
X121136585Y-50603704D01*
X121136585Y-50365609D01*
X121184204Y-50270371D01*
X121231823Y-50222752D01*
X121327061Y-50175133D01*
X121517538Y-50175133D01*
X121612776Y-50222752D01*
X121660395Y-50270371D01*
X121708014Y-50365609D01*
X122137466Y-48675542D02*
X122185085Y-48723161D01*
X122327942Y-48770780D01*
X122423180Y-48770780D01*
X122566038Y-48723161D01*
X122661276Y-48627923D01*
X122708895Y-48532685D01*
X122756514Y-48342209D01*
X122756514Y-48199352D01*
X122708895Y-48008876D01*
X122661276Y-47913638D01*
X122566038Y-47818400D01*
X122423180Y-47770780D01*
X122327942Y-47770780D01*
X122185085Y-47818400D01*
X122137466Y-47866019D01*
X121804133Y-47770780D02*
X121137466Y-47770780D01*
X121566038Y-48770780D01*
X126901533Y-61104980D02*
X126901533Y-61819266D01*
X126949152Y-61962123D01*
X127044390Y-62057361D01*
X127187247Y-62104980D01*
X127282485Y-62104980D01*
X126520580Y-61104980D02*
X125901533Y-61104980D01*
X126234866Y-61485933D01*
X126092009Y-61485933D01*
X125996771Y-61533552D01*
X125949152Y-61581171D01*
X125901533Y-61676409D01*
X125901533Y-61914504D01*
X125949152Y-62009742D01*
X125996771Y-62057361D01*
X126092009Y-62104980D01*
X126377723Y-62104980D01*
X126472961Y-62057361D01*
X126520580Y-62009742D01*
M02*
