G04 #@! TF.GenerationSoftware,KiCad,Pcbnew,(5.1.0)-1*
G04 #@! TF.CreationDate,2019-05-27T20:51:44+02:00*
G04 #@! TF.ProjectId,WELLER,57454c4c-4552-42e6-9b69-6361645f7063,rev?*
G04 #@! TF.SameCoordinates,Original*
G04 #@! TF.FileFunction,Legend,Top*
G04 #@! TF.FilePolarity,Positive*
%FSLAX46Y46*%
G04 Gerber Fmt 4.6, Leading zero omitted, Abs format (unit mm)*
G04 Created by KiCad (PCBNEW (5.1.0)-1) date 2019-05-27 20:51:44*
%MOMM*%
%LPD*%
G04 APERTURE LIST*
%ADD10C,0.120000*%
%ADD11C,0.150000*%
G04 APERTURE END LIST*
D10*
X123527073Y-53306122D02*
X123757278Y-53536327D01*
X124248322Y-52584873D02*
X124478527Y-52815078D01*
X138940000Y-92881267D02*
X138940000Y-92538733D01*
X137920000Y-92881267D02*
X137920000Y-92538733D01*
X136433779Y-54404800D02*
X136108221Y-54404800D01*
X136433779Y-55424800D02*
X136108221Y-55424800D01*
X130023471Y-66787520D02*
X130265680Y-67029729D01*
X130744720Y-66066271D02*
X130986929Y-66308480D01*
X129858198Y-64477113D02*
X130770366Y-65389281D01*
X129540000Y-64795311D02*
X129858198Y-64477113D01*
X129221802Y-64477113D02*
X129540000Y-64795311D01*
X124434689Y-59690000D02*
X124752887Y-59371802D01*
X124752887Y-60008198D02*
X124434689Y-59690000D01*
X134645311Y-59690000D02*
X134327113Y-60008198D01*
X134327113Y-59371802D02*
X134645311Y-59690000D01*
X129540000Y-54584689D02*
X129221802Y-54902887D01*
X129858198Y-54902887D02*
X129540000Y-54584689D01*
X127329329Y-67680080D02*
X127087120Y-67437871D01*
X126608080Y-68401329D02*
X126365871Y-68159120D01*
X124349200Y-73440600D02*
X124349200Y-72110600D01*
X125679200Y-73440600D02*
X124349200Y-73440600D01*
X126949200Y-73440600D02*
X126949200Y-70780600D01*
X126949200Y-70780600D02*
X134629200Y-70780600D01*
X126949200Y-73440600D02*
X134629200Y-73440600D01*
X134629200Y-73440600D02*
X134629200Y-70780600D01*
X125988578Y-46280000D02*
X125471422Y-46280000D01*
X125988578Y-47700000D02*
X125471422Y-47700000D01*
X129894729Y-51449480D02*
X129652520Y-51207271D01*
X129173480Y-52170729D02*
X128931271Y-51928520D01*
X139626800Y-72770000D02*
X139326800Y-72770000D01*
X139626800Y-69470000D02*
X139626800Y-72770000D01*
X139326800Y-69470000D02*
X139626800Y-69470000D01*
X136826800Y-72770000D02*
X137126800Y-72770000D01*
X137126800Y-69470000D02*
X136826800Y-69470000D01*
X136826800Y-69470000D02*
X136826800Y-72770000D01*
X139946800Y-72120000D02*
X139626800Y-72120000D01*
X140326800Y-71620000D02*
X139946800Y-72120000D01*
X140326800Y-70620000D02*
X140326800Y-71620000D01*
X139946800Y-70120000D02*
X139626800Y-70120000D01*
X140326800Y-70620000D02*
X139946800Y-70120000D01*
X120418400Y-69470000D02*
X120718400Y-69470000D01*
X120418400Y-72770000D02*
X120418400Y-69470000D01*
X120718400Y-72770000D02*
X120418400Y-72770000D01*
X123218400Y-69470000D02*
X122918400Y-69470000D01*
X122918400Y-72770000D02*
X123218400Y-72770000D01*
X123218400Y-72770000D02*
X123218400Y-69470000D01*
X120098400Y-70120000D02*
X120418400Y-70120000D01*
X119718400Y-70620000D02*
X120098400Y-70120000D01*
X119718400Y-71620000D02*
X119718400Y-70620000D01*
X120098400Y-72120000D02*
X120418400Y-72120000D01*
X119718400Y-71620000D02*
X120098400Y-72120000D01*
X142230000Y-109620000D02*
X142230000Y-109620000D01*
X142230000Y-108820000D02*
X142230000Y-109620000D01*
X142230000Y-108520000D02*
X142230000Y-108520000D01*
X142230000Y-108020000D02*
X142230000Y-108520000D01*
X142230000Y-109920000D02*
X142230000Y-109920000D01*
X142230000Y-110420000D02*
X142230000Y-109920000D01*
X140930000Y-111220000D02*
X140930000Y-111220000D01*
X141430000Y-111220000D02*
X140930000Y-111220000D01*
X140930000Y-107220000D02*
X140930000Y-107220000D01*
X141430000Y-107220000D02*
X140930000Y-107220000D01*
X141730000Y-107220000D02*
X141730000Y-107220000D01*
X142230000Y-107220000D02*
X141730000Y-107220000D01*
X142230000Y-107720000D02*
X142230000Y-107720000D01*
X142230000Y-107220000D02*
X142230000Y-107720000D01*
X142230000Y-110720000D02*
X142230000Y-110720000D01*
X142230000Y-111220000D02*
X142230000Y-110720000D01*
X141730000Y-111220000D02*
X141730000Y-111220000D01*
X142230000Y-111220000D02*
X141730000Y-111220000D01*
X140330000Y-113820000D02*
X140330000Y-113820000D01*
X140330000Y-112120000D02*
X140330000Y-113820000D01*
X140630000Y-112120000D02*
X140330000Y-112120000D01*
X140630000Y-111320000D02*
X140630000Y-112120000D01*
X140330000Y-111320000D02*
X140630000Y-111320000D01*
X140330000Y-109620000D02*
X140330000Y-111320000D01*
X140630000Y-109620000D02*
X140330000Y-109620000D01*
X140630000Y-108820000D02*
X140630000Y-109620000D01*
X140330000Y-108820000D02*
X140630000Y-108820000D01*
X140330000Y-107120000D02*
X140330000Y-108820000D01*
X140630000Y-107120000D02*
X140330000Y-107120000D01*
X140630000Y-106320000D02*
X140630000Y-107120000D01*
X140330000Y-106320000D02*
X140630000Y-106320000D01*
X140330000Y-104620000D02*
X140330000Y-106320000D01*
X136530000Y-111020000D02*
X136530000Y-111020000D01*
X136530000Y-109920000D02*
X136530000Y-111020000D01*
X136530000Y-108520000D02*
X136530000Y-108520000D01*
X136530000Y-107420000D02*
X136530000Y-108520000D01*
X136530000Y-113820000D02*
X136530000Y-112420000D01*
X140330000Y-113820000D02*
X136530000Y-113820000D01*
X136530000Y-104620000D02*
X140330000Y-104620000D01*
X136530000Y-106020000D02*
X136530000Y-104620000D01*
X127438673Y-67072922D02*
X127668878Y-67303127D01*
X128159922Y-66351673D02*
X128390127Y-66581878D01*
X134533421Y-66626200D02*
X134858979Y-66626200D01*
X134533421Y-65606200D02*
X134858979Y-65606200D01*
X139117800Y-55814179D02*
X139117800Y-55488621D01*
X138097800Y-55814179D02*
X138097800Y-55488621D01*
X137619200Y-41158379D02*
X137619200Y-40832821D01*
X136599200Y-41158379D02*
X136599200Y-40832821D01*
X138033979Y-51814000D02*
X137708421Y-51814000D01*
X138033979Y-52834000D02*
X137708421Y-52834000D01*
X137593800Y-35748179D02*
X137593800Y-35422621D01*
X136573800Y-35748179D02*
X136573800Y-35422621D01*
X138250200Y-35397221D02*
X138250200Y-35722779D01*
X139270200Y-35397221D02*
X139270200Y-35722779D01*
X121757221Y-118620000D02*
X122082779Y-118620000D01*
X121757221Y-117600000D02*
X122082779Y-117600000D01*
X127379800Y-31151800D02*
X125379800Y-31151800D01*
X127379800Y-28551800D02*
X125379800Y-28551800D01*
X127379800Y-37651800D02*
X127379800Y-31151800D01*
X127379800Y-42051800D02*
X127379800Y-40851800D01*
X129629800Y-42051800D02*
X127379800Y-42051800D01*
X133579800Y-42051800D02*
X132829800Y-42051800D01*
X133579800Y-33151800D02*
X133579800Y-42051800D01*
X133579800Y-27351800D02*
X133579800Y-30551800D01*
X133079800Y-27351800D02*
X133579800Y-27351800D01*
X133079800Y-24851800D02*
X133079800Y-27351800D01*
X127879800Y-24851800D02*
X133079800Y-24851800D01*
X127879800Y-27351800D02*
X127879800Y-24851800D01*
X127379800Y-27351800D02*
X127879800Y-27351800D01*
X127379800Y-28551800D02*
X127379800Y-27351800D01*
X124838400Y-113984200D02*
X127438400Y-113984200D01*
X124838400Y-128684200D02*
X124838400Y-113984200D01*
X134038400Y-113984200D02*
X134038400Y-115884200D01*
X131338400Y-113984200D02*
X134038400Y-113984200D01*
X134038400Y-128684200D02*
X124838400Y-128684200D01*
X134038400Y-119884200D02*
X134038400Y-128684200D01*
X124638400Y-114834200D02*
X124638400Y-113784200D01*
X125688400Y-113784200D02*
X124638400Y-113784200D01*
X120435000Y-116305000D02*
X122720000Y-116305000D01*
X120435000Y-114835000D02*
X120435000Y-116305000D01*
X122720000Y-114835000D02*
X120435000Y-114835000D01*
X120880000Y-108340000D02*
X128430000Y-108340000D01*
X120880000Y-112640000D02*
X128430000Y-112640000D01*
X120880000Y-108340000D02*
X120880000Y-112640000D01*
X136447929Y-63031880D02*
X136205720Y-62789671D01*
X135726680Y-63753129D02*
X135484471Y-63510920D01*
X122065867Y-58341800D02*
X121723333Y-58341800D01*
X122065867Y-59361800D02*
X121723333Y-59361800D01*
X128751729Y-52516280D02*
X128509520Y-52274071D01*
X128030480Y-53237529D02*
X127788271Y-52995320D01*
X122116667Y-59942000D02*
X121774133Y-59942000D01*
X122116667Y-60962000D02*
X121774133Y-60962000D01*
X134867467Y-67181000D02*
X134524933Y-67181000D01*
X134867467Y-68201000D02*
X134524933Y-68201000D01*
X134441000Y-51845978D02*
X134441000Y-51328822D01*
X133021000Y-51845978D02*
X133021000Y-51328822D01*
X132412200Y-51758667D02*
X132412200Y-51416133D01*
X131392200Y-51758667D02*
X131392200Y-51416133D01*
X125558733Y-50040000D02*
X125901267Y-50040000D01*
X125558733Y-49020000D02*
X125901267Y-49020000D01*
X138118667Y-37996400D02*
X137776133Y-37996400D01*
X138118667Y-39016400D02*
X137776133Y-39016400D01*
X137311200Y-92968578D02*
X137311200Y-92451422D01*
X135891200Y-92968578D02*
X135891200Y-92451422D01*
X124783667Y-100099400D02*
X124441133Y-100099400D01*
X124783667Y-101119400D02*
X124441133Y-101119400D01*
X124845578Y-101702800D02*
X124328422Y-101702800D01*
X124845578Y-103122800D02*
X124328422Y-103122800D01*
X124890400Y-105643400D02*
X120980400Y-105643400D01*
X124890400Y-107513400D02*
X124890400Y-105643400D01*
X120980400Y-107513400D02*
X124890400Y-107513400D01*
X136260000Y-51140000D02*
X138710000Y-51140000D01*
X138060000Y-47920000D02*
X136260000Y-47920000D01*
X120310000Y-48630000D02*
X120310000Y-51080000D01*
X123530000Y-50430000D02*
X123530000Y-48630000D01*
X126710000Y-95650000D02*
X132720000Y-95650000D01*
X128960000Y-102470000D02*
X132720000Y-102470000D01*
X132720000Y-95650000D02*
X132720000Y-96910000D01*
X132720000Y-102470000D02*
X132720000Y-101210000D01*
X138191021Y-68353400D02*
X138516579Y-68353400D01*
X138191021Y-67333400D02*
X138516579Y-67333400D01*
X120521000Y-75046621D02*
X120521000Y-75372179D01*
X121541000Y-75046621D02*
X121541000Y-75372179D01*
X128081821Y-88673400D02*
X128407379Y-88673400D01*
X128081821Y-87653400D02*
X128407379Y-87653400D01*
X128157921Y-78382400D02*
X128483479Y-78382400D01*
X128157921Y-79402400D02*
X128483479Y-79402400D01*
X128183421Y-83999800D02*
X128508979Y-83999800D01*
X128183421Y-82979800D02*
X128508979Y-82979800D01*
X120835800Y-45204000D02*
X120835800Y-44834000D01*
X124375800Y-45204000D02*
X124375800Y-44834000D01*
X124375800Y-41664000D02*
X124375800Y-42034000D01*
X120835800Y-45204000D02*
X124375800Y-45204000D01*
X124375800Y-41664000D02*
X120605800Y-41664000D01*
X133285700Y-87403000D02*
X131000700Y-87403000D01*
X133285700Y-88873000D02*
X133285700Y-87403000D01*
X131000700Y-88873000D02*
X133285700Y-88873000D01*
X133285700Y-78170100D02*
X131000700Y-78170100D01*
X133285700Y-79640100D02*
X133285700Y-78170100D01*
X131000700Y-79640100D02*
X133285700Y-79640100D01*
X133260300Y-82786550D02*
X130975300Y-82786550D01*
X133260300Y-84256550D02*
X133260300Y-82786550D01*
X130975300Y-84256550D02*
X133260300Y-84256550D01*
D11*
X124576230Y-52251467D02*
X124677245Y-51679047D01*
X124172169Y-51847406D02*
X124879275Y-51140299D01*
X125148650Y-51409673D01*
X125182321Y-51510688D01*
X125182321Y-51578032D01*
X125148650Y-51679047D01*
X125047634Y-51780062D01*
X124946619Y-51813734D01*
X124879275Y-51813734D01*
X124778260Y-51780062D01*
X124508886Y-51510688D01*
X125519039Y-51780062D02*
X125990443Y-52251467D01*
X124980291Y-52655528D01*
X124307695Y-89682980D02*
X124307695Y-88682980D01*
X124307695Y-89159171D02*
X124879123Y-89159171D01*
X124879123Y-89682980D02*
X124879123Y-88682980D01*
X125260076Y-88682980D02*
X125879123Y-88682980D01*
X125545790Y-89063933D01*
X125688647Y-89063933D01*
X125783885Y-89111552D01*
X125831504Y-89159171D01*
X125879123Y-89254409D01*
X125879123Y-89492504D01*
X125831504Y-89587742D01*
X125783885Y-89635361D01*
X125688647Y-89682980D01*
X125402933Y-89682980D01*
X125307695Y-89635361D01*
X125260076Y-89587742D01*
X137357142Y-92876666D02*
X137404761Y-92924285D01*
X137452380Y-93067142D01*
X137452380Y-93162380D01*
X137404761Y-93305238D01*
X137309523Y-93400476D01*
X137214285Y-93448095D01*
X137023809Y-93495714D01*
X136880952Y-93495714D01*
X136690476Y-93448095D01*
X136595238Y-93400476D01*
X136500000Y-93305238D01*
X136452380Y-93162380D01*
X136452380Y-93067142D01*
X136500000Y-92924285D01*
X136547619Y-92876666D01*
X136452380Y-91971904D02*
X136452380Y-92448095D01*
X136928571Y-92495714D01*
X136880952Y-92448095D01*
X136833333Y-92352857D01*
X136833333Y-92114761D01*
X136880952Y-92019523D01*
X136928571Y-91971904D01*
X137023809Y-91924285D01*
X137261904Y-91924285D01*
X137357142Y-91971904D01*
X137404761Y-92019523D01*
X137452380Y-92114761D01*
X137452380Y-92352857D01*
X137404761Y-92448095D01*
X137357142Y-92495714D01*
X135628142Y-56701942D02*
X135580523Y-56749561D01*
X135437666Y-56797180D01*
X135342428Y-56797180D01*
X135199571Y-56749561D01*
X135104333Y-56654323D01*
X135056714Y-56559085D01*
X135009095Y-56368609D01*
X135009095Y-56225752D01*
X135056714Y-56035276D01*
X135104333Y-55940038D01*
X135199571Y-55844800D01*
X135342428Y-55797180D01*
X135437666Y-55797180D01*
X135580523Y-55844800D01*
X135628142Y-55892419D01*
X136580523Y-56797180D02*
X136009095Y-56797180D01*
X136294809Y-56797180D02*
X136294809Y-55797180D01*
X136199571Y-55940038D01*
X136104333Y-56035276D01*
X136009095Y-56082895D01*
X137532904Y-56797180D02*
X136961476Y-56797180D01*
X137247190Y-56797180D02*
X137247190Y-55797180D01*
X137151952Y-55940038D01*
X137056714Y-56035276D01*
X136961476Y-56082895D01*
X130809256Y-65334806D02*
X130741912Y-65334806D01*
X130607225Y-65267462D01*
X130539882Y-65200119D01*
X130472538Y-65065432D01*
X130472538Y-64930745D01*
X130506210Y-64829730D01*
X130607225Y-64661371D01*
X130708240Y-64560356D01*
X130876599Y-64459340D01*
X130977614Y-64425669D01*
X131112301Y-64425669D01*
X131246988Y-64493012D01*
X131314332Y-64560356D01*
X131381675Y-64695043D01*
X131381675Y-64762386D01*
X131651050Y-65031760D02*
X131718393Y-65031760D01*
X131819408Y-65065432D01*
X131987767Y-65233791D01*
X132021439Y-65334806D01*
X132021439Y-65402149D01*
X131987767Y-65503165D01*
X131920424Y-65570508D01*
X131785737Y-65637852D01*
X130977614Y-65637852D01*
X131415347Y-66075585D01*
X132560187Y-65806211D02*
X132627530Y-65873554D01*
X132661202Y-65974569D01*
X132661202Y-66041913D01*
X132627530Y-66142928D01*
X132526515Y-66311287D01*
X132358156Y-66479646D01*
X132189798Y-66580661D01*
X132088782Y-66614333D01*
X132021439Y-66614333D01*
X131920424Y-66580661D01*
X131853080Y-66513317D01*
X131819408Y-66412302D01*
X131819408Y-66344959D01*
X131853080Y-66243943D01*
X131954095Y-66075585D01*
X132122454Y-65907226D01*
X132290813Y-65806211D01*
X132391828Y-65772539D01*
X132459172Y-65772539D01*
X132560187Y-65806211D01*
X125251902Y-62900601D02*
X124679482Y-63473021D01*
X124645810Y-63574036D01*
X124645810Y-63641380D01*
X124679482Y-63742395D01*
X124814169Y-63877082D01*
X124915184Y-63910754D01*
X124982528Y-63910754D01*
X125083543Y-63877082D01*
X125655963Y-63304662D01*
X126060024Y-64180128D02*
X125588619Y-64651532D01*
X126161039Y-63742395D02*
X125487604Y-64079113D01*
X125925337Y-64516845D01*
X125061986Y-68796075D02*
X125163001Y-68223656D01*
X124657925Y-68392014D02*
X125365032Y-67684908D01*
X125634406Y-67954282D01*
X125668078Y-68055297D01*
X125668078Y-68122640D01*
X125634406Y-68223656D01*
X125533391Y-68324671D01*
X125432375Y-68358343D01*
X125365032Y-68358343D01*
X125264017Y-68324671D01*
X124994643Y-68055297D01*
X125735421Y-69469511D02*
X125331360Y-69065450D01*
X125533391Y-69267480D02*
X126240498Y-68560373D01*
X126072139Y-68594045D01*
X125937452Y-68594045D01*
X125836437Y-68560373D01*
X126812917Y-69604198D02*
X126341513Y-70075602D01*
X126913933Y-69166465D02*
X126240498Y-69503182D01*
X126678230Y-69940915D01*
X122801580Y-72443933D02*
X123515866Y-72443933D01*
X123658723Y-72491552D01*
X123753961Y-72586790D01*
X123801580Y-72729647D01*
X123801580Y-72824885D01*
X123134914Y-71539171D02*
X123801580Y-71539171D01*
X122753961Y-71777266D02*
X123468247Y-72015361D01*
X123468247Y-71396314D01*
X125087142Y-48997142D02*
X125039523Y-49044761D01*
X124896666Y-49092380D01*
X124801428Y-49092380D01*
X124658571Y-49044761D01*
X124563333Y-48949523D01*
X124515714Y-48854285D01*
X124468095Y-48663809D01*
X124468095Y-48520952D01*
X124515714Y-48330476D01*
X124563333Y-48235238D01*
X124658571Y-48140000D01*
X124801428Y-48092380D01*
X124896666Y-48092380D01*
X125039523Y-48140000D01*
X125087142Y-48187619D01*
X126039523Y-49092380D02*
X125468095Y-49092380D01*
X125753809Y-49092380D02*
X125753809Y-48092380D01*
X125658571Y-48235238D01*
X125563333Y-48330476D01*
X125468095Y-48378095D01*
X126515714Y-49092380D02*
X126706190Y-49092380D01*
X126801428Y-49044761D01*
X126849047Y-48997142D01*
X126944285Y-48854285D01*
X126991904Y-48663809D01*
X126991904Y-48282857D01*
X126944285Y-48187619D01*
X126896666Y-48140000D01*
X126801428Y-48092380D01*
X126610952Y-48092380D01*
X126515714Y-48140000D01*
X126468095Y-48187619D01*
X126420476Y-48282857D01*
X126420476Y-48520952D01*
X126468095Y-48616190D01*
X126515714Y-48663809D01*
X126610952Y-48711428D01*
X126801428Y-48711428D01*
X126896666Y-48663809D01*
X126944285Y-48616190D01*
X126991904Y-48520952D01*
X127694730Y-52498132D02*
X127627386Y-52498132D01*
X127492699Y-52430788D01*
X127425356Y-52363445D01*
X127358012Y-52228758D01*
X127358012Y-52094071D01*
X127391684Y-51993056D01*
X127492699Y-51824697D01*
X127593714Y-51723682D01*
X127762073Y-51622666D01*
X127863088Y-51588995D01*
X127997775Y-51588995D01*
X128132462Y-51656338D01*
X128199806Y-51723682D01*
X128267149Y-51858369D01*
X128267149Y-51925712D01*
X128300821Y-53238911D02*
X127896760Y-52834850D01*
X128098791Y-53036880D02*
X128805898Y-52329773D01*
X128637539Y-52363445D01*
X128502852Y-52363445D01*
X128401837Y-52329773D01*
X129614020Y-53137895D02*
X129479333Y-53003208D01*
X129378317Y-52969537D01*
X129310974Y-52969537D01*
X129142615Y-53003208D01*
X128974256Y-53104224D01*
X128704882Y-53373598D01*
X128671211Y-53474613D01*
X128671211Y-53541956D01*
X128704882Y-53642972D01*
X128839569Y-53777659D01*
X128940585Y-53811330D01*
X129007928Y-53811330D01*
X129108943Y-53777659D01*
X129277302Y-53609300D01*
X129310974Y-53508285D01*
X129310974Y-53440941D01*
X129277302Y-53339926D01*
X129142615Y-53205239D01*
X129041600Y-53171567D01*
X128974256Y-53171567D01*
X128873241Y-53205239D01*
X141631561Y-72453333D02*
X141679180Y-72310476D01*
X141679180Y-72072380D01*
X141631561Y-71977142D01*
X141583942Y-71929523D01*
X141488704Y-71881904D01*
X141393466Y-71881904D01*
X141298228Y-71929523D01*
X141250609Y-71977142D01*
X141202990Y-72072380D01*
X141155371Y-72262857D01*
X141107752Y-72358095D01*
X141060133Y-72405714D01*
X140964895Y-72453333D01*
X140869657Y-72453333D01*
X140774419Y-72405714D01*
X140726800Y-72358095D01*
X140679180Y-72262857D01*
X140679180Y-72024761D01*
X140726800Y-71881904D01*
X140679180Y-71548571D02*
X141679180Y-71310476D01*
X140964895Y-71120000D01*
X141679180Y-70929523D01*
X140679180Y-70691428D01*
X140679180Y-70405714D02*
X140679180Y-69786666D01*
X141060133Y-70120000D01*
X141060133Y-69977142D01*
X141107752Y-69881904D01*
X141155371Y-69834285D01*
X141250609Y-69786666D01*
X141488704Y-69786666D01*
X141583942Y-69834285D01*
X141631561Y-69881904D01*
X141679180Y-69977142D01*
X141679180Y-70262857D01*
X141631561Y-70358095D01*
X141583942Y-70405714D01*
X119223161Y-72453333D02*
X119270780Y-72310476D01*
X119270780Y-72072380D01*
X119223161Y-71977142D01*
X119175542Y-71929523D01*
X119080304Y-71881904D01*
X118985066Y-71881904D01*
X118889828Y-71929523D01*
X118842209Y-71977142D01*
X118794590Y-72072380D01*
X118746971Y-72262857D01*
X118699352Y-72358095D01*
X118651733Y-72405714D01*
X118556495Y-72453333D01*
X118461257Y-72453333D01*
X118366019Y-72405714D01*
X118318400Y-72358095D01*
X118270780Y-72262857D01*
X118270780Y-72024761D01*
X118318400Y-71881904D01*
X118270780Y-71548571D02*
X119270780Y-71310476D01*
X118556495Y-71120000D01*
X119270780Y-70929523D01*
X118270780Y-70691428D01*
X118366019Y-70358095D02*
X118318400Y-70310476D01*
X118270780Y-70215238D01*
X118270780Y-69977142D01*
X118318400Y-69881904D01*
X118366019Y-69834285D01*
X118461257Y-69786666D01*
X118556495Y-69786666D01*
X118699352Y-69834285D01*
X119270780Y-70405714D01*
X119270780Y-69786666D01*
X134034761Y-110553333D02*
X134082380Y-110410476D01*
X134082380Y-110172380D01*
X134034761Y-110077142D01*
X133987142Y-110029523D01*
X133891904Y-109981904D01*
X133796666Y-109981904D01*
X133701428Y-110029523D01*
X133653809Y-110077142D01*
X133606190Y-110172380D01*
X133558571Y-110362857D01*
X133510952Y-110458095D01*
X133463333Y-110505714D01*
X133368095Y-110553333D01*
X133272857Y-110553333D01*
X133177619Y-110505714D01*
X133130000Y-110458095D01*
X133082380Y-110362857D01*
X133082380Y-110124761D01*
X133130000Y-109981904D01*
X133082380Y-109648571D02*
X134082380Y-109410476D01*
X133368095Y-109220000D01*
X134082380Y-109029523D01*
X133082380Y-108791428D01*
X134082380Y-107886666D02*
X134082380Y-108458095D01*
X134082380Y-108172380D02*
X133082380Y-108172380D01*
X133225238Y-108267619D01*
X133320476Y-108362857D01*
X133368095Y-108458095D01*
X128151112Y-65681549D02*
X128252127Y-65109130D01*
X127747051Y-65277488D02*
X128454158Y-64570382D01*
X128723532Y-64839756D01*
X128757204Y-64940771D01*
X128757204Y-65008114D01*
X128723532Y-65109130D01*
X128622517Y-65210145D01*
X128521501Y-65243817D01*
X128454158Y-65243817D01*
X128353143Y-65210145D01*
X128083769Y-64940771D01*
X128824547Y-66354985D02*
X128420486Y-65950924D01*
X128622517Y-66152954D02*
X129329624Y-65445847D01*
X129161265Y-65479519D01*
X129026578Y-65479519D01*
X128925563Y-65445847D01*
X130171417Y-66287641D02*
X129834700Y-65950924D01*
X129464311Y-66253969D01*
X129531654Y-66253969D01*
X129632669Y-66287641D01*
X129801028Y-66456000D01*
X129834700Y-66557015D01*
X129834700Y-66624359D01*
X129801028Y-66725374D01*
X129632669Y-66893733D01*
X129531654Y-66927404D01*
X129464311Y-66927404D01*
X129363295Y-66893733D01*
X129194937Y-66725374D01*
X129161265Y-66624359D01*
X129161265Y-66557015D01*
X134053342Y-65138580D02*
X133720009Y-64662390D01*
X133481914Y-65138580D02*
X133481914Y-64138580D01*
X133862866Y-64138580D01*
X133958104Y-64186200D01*
X134005723Y-64233819D01*
X134053342Y-64329057D01*
X134053342Y-64471914D01*
X134005723Y-64567152D01*
X133958104Y-64614771D01*
X133862866Y-64662390D01*
X133481914Y-64662390D01*
X135005723Y-65138580D02*
X134434295Y-65138580D01*
X134720009Y-65138580D02*
X134720009Y-64138580D01*
X134624771Y-64281438D01*
X134529533Y-64376676D01*
X134434295Y-64424295D01*
X135339057Y-64138580D02*
X135958104Y-64138580D01*
X135624771Y-64519533D01*
X135767628Y-64519533D01*
X135862866Y-64567152D01*
X135910485Y-64614771D01*
X135958104Y-64710009D01*
X135958104Y-64948104D01*
X135910485Y-65043342D01*
X135862866Y-65090961D01*
X135767628Y-65138580D01*
X135481914Y-65138580D01*
X135386676Y-65090961D01*
X135339057Y-65043342D01*
X137630180Y-56294257D02*
X137153990Y-56627590D01*
X137630180Y-56865685D02*
X136630180Y-56865685D01*
X136630180Y-56484733D01*
X136677800Y-56389495D01*
X136725419Y-56341876D01*
X136820657Y-56294257D01*
X136963514Y-56294257D01*
X137058752Y-56341876D01*
X137106371Y-56389495D01*
X137153990Y-56484733D01*
X137153990Y-56865685D01*
X137630180Y-55341876D02*
X137630180Y-55913304D01*
X137630180Y-55627590D02*
X136630180Y-55627590D01*
X136773038Y-55722828D01*
X136868276Y-55818066D01*
X136915895Y-55913304D01*
X136725419Y-54960923D02*
X136677800Y-54913304D01*
X136630180Y-54818066D01*
X136630180Y-54579971D01*
X136677800Y-54484733D01*
X136725419Y-54437114D01*
X136820657Y-54389495D01*
X136915895Y-54389495D01*
X137058752Y-54437114D01*
X137630180Y-55008542D01*
X137630180Y-54389495D01*
X136131580Y-41638457D02*
X135655390Y-41971790D01*
X136131580Y-42209885D02*
X135131580Y-42209885D01*
X135131580Y-41828933D01*
X135179200Y-41733695D01*
X135226819Y-41686076D01*
X135322057Y-41638457D01*
X135464914Y-41638457D01*
X135560152Y-41686076D01*
X135607771Y-41733695D01*
X135655390Y-41828933D01*
X135655390Y-42209885D01*
X136131580Y-40686076D02*
X136131580Y-41257504D01*
X136131580Y-40971790D02*
X135131580Y-40971790D01*
X135274438Y-41067028D01*
X135369676Y-41162266D01*
X135417295Y-41257504D01*
X136131580Y-39733695D02*
X136131580Y-40305123D01*
X136131580Y-40019409D02*
X135131580Y-40019409D01*
X135274438Y-40114647D01*
X135369676Y-40209885D01*
X135417295Y-40305123D01*
X137228342Y-54206380D02*
X136895009Y-53730190D01*
X136656914Y-54206380D02*
X136656914Y-53206380D01*
X137037866Y-53206380D01*
X137133104Y-53254000D01*
X137180723Y-53301619D01*
X137228342Y-53396857D01*
X137228342Y-53539714D01*
X137180723Y-53634952D01*
X137133104Y-53682571D01*
X137037866Y-53730190D01*
X136656914Y-53730190D01*
X138180723Y-54206380D02*
X137609295Y-54206380D01*
X137895009Y-54206380D02*
X137895009Y-53206380D01*
X137799771Y-53349238D01*
X137704533Y-53444476D01*
X137609295Y-53492095D01*
X138799771Y-53206380D02*
X138895009Y-53206380D01*
X138990247Y-53254000D01*
X139037866Y-53301619D01*
X139085485Y-53396857D01*
X139133104Y-53587333D01*
X139133104Y-53825428D01*
X139085485Y-54015904D01*
X139037866Y-54111142D01*
X138990247Y-54158761D01*
X138895009Y-54206380D01*
X138799771Y-54206380D01*
X138704533Y-54158761D01*
X138656914Y-54111142D01*
X138609295Y-54015904D01*
X138561676Y-53825428D01*
X138561676Y-53587333D01*
X138609295Y-53396857D01*
X138656914Y-53301619D01*
X138704533Y-53254000D01*
X138799771Y-53206380D01*
X136106180Y-35752066D02*
X135629990Y-36085400D01*
X136106180Y-36323495D02*
X135106180Y-36323495D01*
X135106180Y-35942542D01*
X135153800Y-35847304D01*
X135201419Y-35799685D01*
X135296657Y-35752066D01*
X135439514Y-35752066D01*
X135534752Y-35799685D01*
X135582371Y-35847304D01*
X135629990Y-35942542D01*
X135629990Y-36323495D01*
X136106180Y-35275876D02*
X136106180Y-35085400D01*
X136058561Y-34990161D01*
X136010942Y-34942542D01*
X135868085Y-34847304D01*
X135677609Y-34799685D01*
X135296657Y-34799685D01*
X135201419Y-34847304D01*
X135153800Y-34894923D01*
X135106180Y-34990161D01*
X135106180Y-35180638D01*
X135153800Y-35275876D01*
X135201419Y-35323495D01*
X135296657Y-35371114D01*
X135534752Y-35371114D01*
X135629990Y-35323495D01*
X135677609Y-35275876D01*
X135725228Y-35180638D01*
X135725228Y-34990161D01*
X135677609Y-34894923D01*
X135629990Y-34847304D01*
X135534752Y-34799685D01*
X140642580Y-35726666D02*
X140166390Y-36060000D01*
X140642580Y-36298095D02*
X139642580Y-36298095D01*
X139642580Y-35917142D01*
X139690200Y-35821904D01*
X139737819Y-35774285D01*
X139833057Y-35726666D01*
X139975914Y-35726666D01*
X140071152Y-35774285D01*
X140118771Y-35821904D01*
X140166390Y-35917142D01*
X140166390Y-36298095D01*
X140071152Y-35155238D02*
X140023533Y-35250476D01*
X139975914Y-35298095D01*
X139880676Y-35345714D01*
X139833057Y-35345714D01*
X139737819Y-35298095D01*
X139690200Y-35250476D01*
X139642580Y-35155238D01*
X139642580Y-34964761D01*
X139690200Y-34869523D01*
X139737819Y-34821904D01*
X139833057Y-34774285D01*
X139880676Y-34774285D01*
X139975914Y-34821904D01*
X140023533Y-34869523D01*
X140071152Y-34964761D01*
X140071152Y-35155238D01*
X140118771Y-35250476D01*
X140166390Y-35298095D01*
X140261628Y-35345714D01*
X140452104Y-35345714D01*
X140547342Y-35298095D01*
X140594961Y-35250476D01*
X140642580Y-35155238D01*
X140642580Y-34964761D01*
X140594961Y-34869523D01*
X140547342Y-34821904D01*
X140452104Y-34774285D01*
X140261628Y-34774285D01*
X140166390Y-34821904D01*
X140118771Y-34869523D01*
X140071152Y-34964761D01*
X121753333Y-117132380D02*
X121420000Y-116656190D01*
X121181904Y-117132380D02*
X121181904Y-116132380D01*
X121562857Y-116132380D01*
X121658095Y-116180000D01*
X121705714Y-116227619D01*
X121753333Y-116322857D01*
X121753333Y-116465714D01*
X121705714Y-116560952D01*
X121658095Y-116608571D01*
X121562857Y-116656190D01*
X121181904Y-116656190D01*
X122705714Y-117132380D02*
X122134285Y-117132380D01*
X122420000Y-117132380D02*
X122420000Y-116132380D01*
X122324761Y-116275238D01*
X122229523Y-116370476D01*
X122134285Y-116418095D01*
X130146466Y-23004180D02*
X130146466Y-23718466D01*
X130098847Y-23861323D01*
X130003609Y-23956561D01*
X129860752Y-24004180D01*
X129765514Y-24004180D01*
X130575038Y-23099419D02*
X130622657Y-23051800D01*
X130717895Y-23004180D01*
X130955990Y-23004180D01*
X131051228Y-23051800D01*
X131098847Y-23099419D01*
X131146466Y-23194657D01*
X131146466Y-23289895D01*
X131098847Y-23432752D01*
X130527419Y-24004180D01*
X131146466Y-24004180D01*
X134640780Y-123667533D02*
X135355066Y-123667533D01*
X135497923Y-123715152D01*
X135593161Y-123810390D01*
X135640780Y-123953247D01*
X135640780Y-124048485D01*
X135640780Y-122667533D02*
X135640780Y-123238961D01*
X135640780Y-122953247D02*
X134640780Y-122953247D01*
X134783638Y-123048485D01*
X134878876Y-123143723D01*
X134926495Y-123238961D01*
X121158095Y-119172380D02*
X121158095Y-118172380D01*
X121158095Y-118648571D02*
X121729523Y-118648571D01*
X121729523Y-119172380D02*
X121729523Y-118172380D01*
X122634285Y-118505714D02*
X122634285Y-119172380D01*
X122396190Y-118124761D02*
X122158095Y-118839047D01*
X122777142Y-118839047D01*
X137668095Y-25192380D02*
X137668095Y-24192380D01*
X137668095Y-24668571D02*
X138239523Y-24668571D01*
X138239523Y-25192380D02*
X138239523Y-24192380D01*
X138668095Y-24287619D02*
X138715714Y-24240000D01*
X138810952Y-24192380D01*
X139049047Y-24192380D01*
X139144285Y-24240000D01*
X139191904Y-24287619D01*
X139239523Y-24382857D01*
X139239523Y-24478095D01*
X139191904Y-24620952D01*
X138620476Y-25192380D01*
X139239523Y-25192380D01*
X137668095Y-75992380D02*
X137668095Y-74992380D01*
X137668095Y-75468571D02*
X138239523Y-75468571D01*
X138239523Y-75992380D02*
X138239523Y-74992380D01*
X139239523Y-75992380D02*
X138668095Y-75992380D01*
X138953809Y-75992380D02*
X138953809Y-74992380D01*
X138858571Y-75135238D01*
X138763333Y-75230476D01*
X138668095Y-75278095D01*
X121181904Y-114592380D02*
X121181904Y-113592380D01*
X121420000Y-113592380D01*
X121562857Y-113640000D01*
X121658095Y-113735238D01*
X121705714Y-113830476D01*
X121753333Y-114020952D01*
X121753333Y-114163809D01*
X121705714Y-114354285D01*
X121658095Y-114449523D01*
X121562857Y-114544761D01*
X121420000Y-114592380D01*
X121181904Y-114592380D01*
X122134285Y-113687619D02*
X122181904Y-113640000D01*
X122277142Y-113592380D01*
X122515238Y-113592380D01*
X122610476Y-113640000D01*
X122658095Y-113687619D01*
X122705714Y-113782857D01*
X122705714Y-113878095D01*
X122658095Y-114020952D01*
X122086666Y-114592380D01*
X122705714Y-114592380D01*
X124991904Y-107942380D02*
X124991904Y-106942380D01*
X125230000Y-106942380D01*
X125372857Y-106990000D01*
X125468095Y-107085238D01*
X125515714Y-107180476D01*
X125563333Y-107370952D01*
X125563333Y-107513809D01*
X125515714Y-107704285D01*
X125468095Y-107799523D01*
X125372857Y-107894761D01*
X125230000Y-107942380D01*
X124991904Y-107942380D01*
X126515714Y-107942380D02*
X125944285Y-107942380D01*
X126230000Y-107942380D02*
X126230000Y-106942380D01*
X126134761Y-107085238D01*
X126039523Y-107180476D01*
X125944285Y-107228095D01*
X134247930Y-64080532D02*
X134180586Y-64080532D01*
X134045899Y-64013188D01*
X133978556Y-63945845D01*
X133911212Y-63811158D01*
X133911212Y-63676471D01*
X133944884Y-63575456D01*
X134045899Y-63407097D01*
X134146914Y-63306082D01*
X134315273Y-63205066D01*
X134416288Y-63171395D01*
X134550975Y-63171395D01*
X134685662Y-63238738D01*
X134753006Y-63306082D01*
X134820349Y-63440769D01*
X134820349Y-63508112D01*
X134854021Y-64821311D02*
X134449960Y-64417250D01*
X134651991Y-64619280D02*
X135359098Y-63912173D01*
X135190739Y-63945845D01*
X135056052Y-63945845D01*
X134955037Y-63912173D01*
X135796830Y-64349906D02*
X136268235Y-64821311D01*
X135258082Y-65225372D01*
X121251742Y-60638942D02*
X121204123Y-60686561D01*
X121061266Y-60734180D01*
X120966028Y-60734180D01*
X120823171Y-60686561D01*
X120727933Y-60591323D01*
X120680314Y-60496085D01*
X120632695Y-60305609D01*
X120632695Y-60162752D01*
X120680314Y-59972276D01*
X120727933Y-59877038D01*
X120823171Y-59781800D01*
X120966028Y-59734180D01*
X121061266Y-59734180D01*
X121204123Y-59781800D01*
X121251742Y-59829419D01*
X122204123Y-60734180D02*
X121632695Y-60734180D01*
X121918409Y-60734180D02*
X121918409Y-59734180D01*
X121823171Y-59877038D01*
X121727933Y-59972276D01*
X121632695Y-60019895D01*
X123108885Y-59734180D02*
X122632695Y-59734180D01*
X122585076Y-60210371D01*
X122632695Y-60162752D01*
X122727933Y-60115133D01*
X122966028Y-60115133D01*
X123061266Y-60162752D01*
X123108885Y-60210371D01*
X123156504Y-60305609D01*
X123156504Y-60543704D01*
X123108885Y-60638942D01*
X123061266Y-60686561D01*
X122966028Y-60734180D01*
X122727933Y-60734180D01*
X122632695Y-60686561D01*
X122585076Y-60638942D01*
X126551730Y-53564932D02*
X126484386Y-53564932D01*
X126349699Y-53497588D01*
X126282356Y-53430245D01*
X126215012Y-53295558D01*
X126215012Y-53160871D01*
X126248684Y-53059856D01*
X126349699Y-52891497D01*
X126450714Y-52790482D01*
X126619073Y-52689466D01*
X126720088Y-52655795D01*
X126854775Y-52655795D01*
X126989462Y-52723138D01*
X127056806Y-52790482D01*
X127124149Y-52925169D01*
X127124149Y-52992512D01*
X127157821Y-54305711D02*
X126753760Y-53901650D01*
X126955791Y-54103680D02*
X127662898Y-53396573D01*
X127494539Y-53430245D01*
X127359852Y-53430245D01*
X127258837Y-53396573D01*
X128235317Y-54440398D02*
X127763913Y-54911802D01*
X128336333Y-54002665D02*
X127662898Y-54339382D01*
X128100630Y-54777115D01*
X121302542Y-62239142D02*
X121254923Y-62286761D01*
X121112066Y-62334380D01*
X121016828Y-62334380D01*
X120873971Y-62286761D01*
X120778733Y-62191523D01*
X120731114Y-62096285D01*
X120683495Y-61905809D01*
X120683495Y-61762952D01*
X120731114Y-61572476D01*
X120778733Y-61477238D01*
X120873971Y-61382000D01*
X121016828Y-61334380D01*
X121112066Y-61334380D01*
X121254923Y-61382000D01*
X121302542Y-61429619D01*
X122254923Y-62334380D02*
X121683495Y-62334380D01*
X121969209Y-62334380D02*
X121969209Y-61334380D01*
X121873971Y-61477238D01*
X121778733Y-61572476D01*
X121683495Y-61620095D01*
X122588257Y-61334380D02*
X123207304Y-61334380D01*
X122873971Y-61715333D01*
X123016828Y-61715333D01*
X123112066Y-61762952D01*
X123159685Y-61810571D01*
X123207304Y-61905809D01*
X123207304Y-62143904D01*
X123159685Y-62239142D01*
X123112066Y-62286761D01*
X123016828Y-62334380D01*
X122731114Y-62334380D01*
X122635876Y-62286761D01*
X122588257Y-62239142D01*
X134053342Y-69478142D02*
X134005723Y-69525761D01*
X133862866Y-69573380D01*
X133767628Y-69573380D01*
X133624771Y-69525761D01*
X133529533Y-69430523D01*
X133481914Y-69335285D01*
X133434295Y-69144809D01*
X133434295Y-69001952D01*
X133481914Y-68811476D01*
X133529533Y-68716238D01*
X133624771Y-68621000D01*
X133767628Y-68573380D01*
X133862866Y-68573380D01*
X134005723Y-68621000D01*
X134053342Y-68668619D01*
X135005723Y-69573380D02*
X134434295Y-69573380D01*
X134720009Y-69573380D02*
X134720009Y-68573380D01*
X134624771Y-68716238D01*
X134529533Y-68811476D01*
X134434295Y-68859095D01*
X135386676Y-68668619D02*
X135434295Y-68621000D01*
X135529533Y-68573380D01*
X135767628Y-68573380D01*
X135862866Y-68621000D01*
X135910485Y-68668619D01*
X135958104Y-68763857D01*
X135958104Y-68859095D01*
X135910485Y-69001952D01*
X135339057Y-69573380D01*
X135958104Y-69573380D01*
X132438142Y-52230257D02*
X132485761Y-52277876D01*
X132533380Y-52420733D01*
X132533380Y-52515971D01*
X132485761Y-52658828D01*
X132390523Y-52754066D01*
X132295285Y-52801685D01*
X132104809Y-52849304D01*
X131961952Y-52849304D01*
X131771476Y-52801685D01*
X131676238Y-52754066D01*
X131581000Y-52658828D01*
X131533380Y-52515971D01*
X131533380Y-52420733D01*
X131581000Y-52277876D01*
X131628619Y-52230257D01*
X132533380Y-51277876D02*
X132533380Y-51849304D01*
X132533380Y-51563590D02*
X131533380Y-51563590D01*
X131676238Y-51658828D01*
X131771476Y-51754066D01*
X131819095Y-51849304D01*
X131533380Y-50658828D02*
X131533380Y-50563590D01*
X131581000Y-50468352D01*
X131628619Y-50420733D01*
X131723857Y-50373114D01*
X131914333Y-50325495D01*
X132152428Y-50325495D01*
X132342904Y-50373114D01*
X132438142Y-50420733D01*
X132485761Y-50468352D01*
X132533380Y-50563590D01*
X132533380Y-50658828D01*
X132485761Y-50754066D01*
X132438142Y-50801685D01*
X132342904Y-50849304D01*
X132152428Y-50896923D01*
X131914333Y-50896923D01*
X131723857Y-50849304D01*
X131628619Y-50801685D01*
X131581000Y-50754066D01*
X131533380Y-50658828D01*
X130829342Y-51754066D02*
X130876961Y-51801685D01*
X130924580Y-51944542D01*
X130924580Y-52039780D01*
X130876961Y-52182638D01*
X130781723Y-52277876D01*
X130686485Y-52325495D01*
X130496009Y-52373114D01*
X130353152Y-52373114D01*
X130162676Y-52325495D01*
X130067438Y-52277876D01*
X129972200Y-52182638D01*
X129924580Y-52039780D01*
X129924580Y-51944542D01*
X129972200Y-51801685D01*
X130019819Y-51754066D01*
X130924580Y-51277876D02*
X130924580Y-51087400D01*
X130876961Y-50992161D01*
X130829342Y-50944542D01*
X130686485Y-50849304D01*
X130496009Y-50801685D01*
X130115057Y-50801685D01*
X130019819Y-50849304D01*
X129972200Y-50896923D01*
X129924580Y-50992161D01*
X129924580Y-51182638D01*
X129972200Y-51277876D01*
X130019819Y-51325495D01*
X130115057Y-51373114D01*
X130353152Y-51373114D01*
X130448390Y-51325495D01*
X130496009Y-51277876D01*
X130543628Y-51182638D01*
X130543628Y-50992161D01*
X130496009Y-50896923D01*
X130448390Y-50849304D01*
X130353152Y-50801685D01*
X125563333Y-48457142D02*
X125515714Y-48504761D01*
X125372857Y-48552380D01*
X125277619Y-48552380D01*
X125134761Y-48504761D01*
X125039523Y-48409523D01*
X124991904Y-48314285D01*
X124944285Y-48123809D01*
X124944285Y-47980952D01*
X124991904Y-47790476D01*
X125039523Y-47695238D01*
X125134761Y-47600000D01*
X125277619Y-47552380D01*
X125372857Y-47552380D01*
X125515714Y-47600000D01*
X125563333Y-47647619D01*
X126134761Y-47980952D02*
X126039523Y-47933333D01*
X125991904Y-47885714D01*
X125944285Y-47790476D01*
X125944285Y-47742857D01*
X125991904Y-47647619D01*
X126039523Y-47600000D01*
X126134761Y-47552380D01*
X126325238Y-47552380D01*
X126420476Y-47600000D01*
X126468095Y-47647619D01*
X126515714Y-47742857D01*
X126515714Y-47790476D01*
X126468095Y-47885714D01*
X126420476Y-47933333D01*
X126325238Y-47980952D01*
X126134761Y-47980952D01*
X126039523Y-48028571D01*
X125991904Y-48076190D01*
X125944285Y-48171428D01*
X125944285Y-48361904D01*
X125991904Y-48457142D01*
X126039523Y-48504761D01*
X126134761Y-48552380D01*
X126325238Y-48552380D01*
X126420476Y-48504761D01*
X126468095Y-48457142D01*
X126515714Y-48361904D01*
X126515714Y-48171428D01*
X126468095Y-48076190D01*
X126420476Y-48028571D01*
X126325238Y-47980952D01*
X137780733Y-40293542D02*
X137733114Y-40341161D01*
X137590257Y-40388780D01*
X137495019Y-40388780D01*
X137352161Y-40341161D01*
X137256923Y-40245923D01*
X137209304Y-40150685D01*
X137161685Y-39960209D01*
X137161685Y-39817352D01*
X137209304Y-39626876D01*
X137256923Y-39531638D01*
X137352161Y-39436400D01*
X137495019Y-39388780D01*
X137590257Y-39388780D01*
X137733114Y-39436400D01*
X137780733Y-39484019D01*
X138637876Y-39388780D02*
X138447400Y-39388780D01*
X138352161Y-39436400D01*
X138304542Y-39484019D01*
X138209304Y-39626876D01*
X138161685Y-39817352D01*
X138161685Y-40198304D01*
X138209304Y-40293542D01*
X138256923Y-40341161D01*
X138352161Y-40388780D01*
X138542638Y-40388780D01*
X138637876Y-40341161D01*
X138685495Y-40293542D01*
X138733114Y-40198304D01*
X138733114Y-39960209D01*
X138685495Y-39864971D01*
X138637876Y-39817352D01*
X138542638Y-39769733D01*
X138352161Y-39769733D01*
X138256923Y-39817352D01*
X138209304Y-39864971D01*
X138161685Y-39960209D01*
X135308342Y-92876666D02*
X135355961Y-92924285D01*
X135403580Y-93067142D01*
X135403580Y-93162380D01*
X135355961Y-93305238D01*
X135260723Y-93400476D01*
X135165485Y-93448095D01*
X134975009Y-93495714D01*
X134832152Y-93495714D01*
X134641676Y-93448095D01*
X134546438Y-93400476D01*
X134451200Y-93305238D01*
X134403580Y-93162380D01*
X134403580Y-93067142D01*
X134451200Y-92924285D01*
X134498819Y-92876666D01*
X134736914Y-92019523D02*
X135403580Y-92019523D01*
X134355961Y-92257619D02*
X135070247Y-92495714D01*
X135070247Y-91876666D01*
X124445733Y-102396542D02*
X124398114Y-102444161D01*
X124255257Y-102491780D01*
X124160019Y-102491780D01*
X124017161Y-102444161D01*
X123921923Y-102348923D01*
X123874304Y-102253685D01*
X123826685Y-102063209D01*
X123826685Y-101920352D01*
X123874304Y-101729876D01*
X123921923Y-101634638D01*
X124017161Y-101539400D01*
X124160019Y-101491780D01*
X124255257Y-101491780D01*
X124398114Y-101539400D01*
X124445733Y-101587019D01*
X124779066Y-101491780D02*
X125398114Y-101491780D01*
X125064780Y-101872733D01*
X125207638Y-101872733D01*
X125302876Y-101920352D01*
X125350495Y-101967971D01*
X125398114Y-102063209D01*
X125398114Y-102301304D01*
X125350495Y-102396542D01*
X125302876Y-102444161D01*
X125207638Y-102491780D01*
X124921923Y-102491780D01*
X124826685Y-102444161D01*
X124779066Y-102396542D01*
X124420333Y-104419942D02*
X124372714Y-104467561D01*
X124229857Y-104515180D01*
X124134619Y-104515180D01*
X123991761Y-104467561D01*
X123896523Y-104372323D01*
X123848904Y-104277085D01*
X123801285Y-104086609D01*
X123801285Y-103943752D01*
X123848904Y-103753276D01*
X123896523Y-103658038D01*
X123991761Y-103562800D01*
X124134619Y-103515180D01*
X124229857Y-103515180D01*
X124372714Y-103562800D01*
X124420333Y-103610419D01*
X124801285Y-103610419D02*
X124848904Y-103562800D01*
X124944142Y-103515180D01*
X125182238Y-103515180D01*
X125277476Y-103562800D01*
X125325095Y-103610419D01*
X125372714Y-103705657D01*
X125372714Y-103800895D01*
X125325095Y-103943752D01*
X124753666Y-104515180D01*
X125372714Y-104515180D01*
X122413733Y-108685542D02*
X122366114Y-108733161D01*
X122223257Y-108780780D01*
X122128019Y-108780780D01*
X121985161Y-108733161D01*
X121889923Y-108637923D01*
X121842304Y-108542685D01*
X121794685Y-108352209D01*
X121794685Y-108209352D01*
X121842304Y-108018876D01*
X121889923Y-107923638D01*
X121985161Y-107828400D01*
X122128019Y-107780780D01*
X122223257Y-107780780D01*
X122366114Y-107828400D01*
X122413733Y-107876019D01*
X123366114Y-108780780D02*
X122794685Y-108780780D01*
X123080400Y-108780780D02*
X123080400Y-107780780D01*
X122985161Y-107923638D01*
X122889923Y-108018876D01*
X122794685Y-108066495D01*
X136398095Y-51882380D02*
X136398095Y-52691904D01*
X136445714Y-52787142D01*
X136493333Y-52834761D01*
X136588571Y-52882380D01*
X136779047Y-52882380D01*
X136874285Y-52834761D01*
X136921904Y-52787142D01*
X136969523Y-52691904D01*
X136969523Y-51882380D01*
X137350476Y-51882380D02*
X137969523Y-51882380D01*
X137636190Y-52263333D01*
X137779047Y-52263333D01*
X137874285Y-52310952D01*
X137921904Y-52358571D01*
X137969523Y-52453809D01*
X137969523Y-52691904D01*
X137921904Y-52787142D01*
X137874285Y-52834761D01*
X137779047Y-52882380D01*
X137493333Y-52882380D01*
X137398095Y-52834761D01*
X137350476Y-52787142D01*
X118472380Y-50291904D02*
X119281904Y-50291904D01*
X119377142Y-50244285D01*
X119424761Y-50196666D01*
X119472380Y-50101428D01*
X119472380Y-49910952D01*
X119424761Y-49815714D01*
X119377142Y-49768095D01*
X119281904Y-49720476D01*
X118472380Y-49720476D01*
X118567619Y-49291904D02*
X118520000Y-49244285D01*
X118472380Y-49149047D01*
X118472380Y-48910952D01*
X118520000Y-48815714D01*
X118567619Y-48768095D01*
X118662857Y-48720476D01*
X118758095Y-48720476D01*
X118900952Y-48768095D01*
X119472380Y-49339523D01*
X119472380Y-48720476D01*
X130048095Y-94012380D02*
X130048095Y-94821904D01*
X130095714Y-94917142D01*
X130143333Y-94964761D01*
X130238571Y-95012380D01*
X130429047Y-95012380D01*
X130524285Y-94964761D01*
X130571904Y-94917142D01*
X130619523Y-94821904D01*
X130619523Y-94012380D01*
X131619523Y-95012380D02*
X131048095Y-95012380D01*
X131333809Y-95012380D02*
X131333809Y-94012380D01*
X131238571Y-94155238D01*
X131143333Y-94250476D01*
X131048095Y-94298095D01*
X138187133Y-66865780D02*
X137853800Y-66389590D01*
X137615704Y-66865780D02*
X137615704Y-65865780D01*
X137996657Y-65865780D01*
X138091895Y-65913400D01*
X138139514Y-65961019D01*
X138187133Y-66056257D01*
X138187133Y-66199114D01*
X138139514Y-66294352D01*
X138091895Y-66341971D01*
X137996657Y-66389590D01*
X137615704Y-66389590D01*
X139044276Y-65865780D02*
X138853800Y-65865780D01*
X138758561Y-65913400D01*
X138710942Y-65961019D01*
X138615704Y-66103876D01*
X138568085Y-66294352D01*
X138568085Y-66675304D01*
X138615704Y-66770542D01*
X138663323Y-66818161D01*
X138758561Y-66865780D01*
X138949038Y-66865780D01*
X139044276Y-66818161D01*
X139091895Y-66770542D01*
X139139514Y-66675304D01*
X139139514Y-66437209D01*
X139091895Y-66341971D01*
X139044276Y-66294352D01*
X138949038Y-66246733D01*
X138758561Y-66246733D01*
X138663323Y-66294352D01*
X138615704Y-66341971D01*
X138568085Y-66437209D01*
X122913380Y-75376066D02*
X122437190Y-75709400D01*
X122913380Y-75947495D02*
X121913380Y-75947495D01*
X121913380Y-75566542D01*
X121961000Y-75471304D01*
X122008619Y-75423685D01*
X122103857Y-75376066D01*
X122246714Y-75376066D01*
X122341952Y-75423685D01*
X122389571Y-75471304D01*
X122437190Y-75566542D01*
X122437190Y-75947495D01*
X121913380Y-74471304D02*
X121913380Y-74947495D01*
X122389571Y-74995114D01*
X122341952Y-74947495D01*
X122294333Y-74852257D01*
X122294333Y-74614161D01*
X122341952Y-74518923D01*
X122389571Y-74471304D01*
X122484809Y-74423685D01*
X122722904Y-74423685D01*
X122818142Y-74471304D01*
X122865761Y-74518923D01*
X122913380Y-74614161D01*
X122913380Y-74852257D01*
X122865761Y-74947495D01*
X122818142Y-74995114D01*
X128077933Y-87185780D02*
X127744600Y-86709590D01*
X127506504Y-87185780D02*
X127506504Y-86185780D01*
X127887457Y-86185780D01*
X127982695Y-86233400D01*
X128030314Y-86281019D01*
X128077933Y-86376257D01*
X128077933Y-86519114D01*
X128030314Y-86614352D01*
X127982695Y-86661971D01*
X127887457Y-86709590D01*
X127506504Y-86709590D01*
X128935076Y-86519114D02*
X128935076Y-87185780D01*
X128696980Y-86138161D02*
X128458885Y-86852447D01*
X129077933Y-86852447D01*
X128154033Y-77914780D02*
X127820700Y-77438590D01*
X127582604Y-77914780D02*
X127582604Y-76914780D01*
X127963557Y-76914780D01*
X128058795Y-76962400D01*
X128106414Y-77010019D01*
X128154033Y-77105257D01*
X128154033Y-77248114D01*
X128106414Y-77343352D01*
X128058795Y-77390971D01*
X127963557Y-77438590D01*
X127582604Y-77438590D01*
X128487366Y-76914780D02*
X129106414Y-76914780D01*
X128773080Y-77295733D01*
X128915938Y-77295733D01*
X129011176Y-77343352D01*
X129058795Y-77390971D01*
X129106414Y-77486209D01*
X129106414Y-77724304D01*
X129058795Y-77819542D01*
X129011176Y-77867161D01*
X128915938Y-77914780D01*
X128630223Y-77914780D01*
X128534985Y-77867161D01*
X128487366Y-77819542D01*
X128179533Y-82512180D02*
X127846200Y-82035990D01*
X127608104Y-82512180D02*
X127608104Y-81512180D01*
X127989057Y-81512180D01*
X128084295Y-81559800D01*
X128131914Y-81607419D01*
X128179533Y-81702657D01*
X128179533Y-81845514D01*
X128131914Y-81940752D01*
X128084295Y-81988371D01*
X127989057Y-82035990D01*
X127608104Y-82035990D01*
X128560485Y-81607419D02*
X128608104Y-81559800D01*
X128703342Y-81512180D01*
X128941438Y-81512180D01*
X129036676Y-81559800D01*
X129084295Y-81607419D01*
X129131914Y-81702657D01*
X129131914Y-81797895D01*
X129084295Y-81940752D01*
X128512866Y-82512180D01*
X129131914Y-82512180D01*
X122510561Y-41331619D02*
X122415323Y-41284000D01*
X122320085Y-41188761D01*
X122177228Y-41045904D01*
X122081990Y-40998285D01*
X121986752Y-40998285D01*
X122034371Y-41236380D02*
X121939133Y-41188761D01*
X121843895Y-41093523D01*
X121796276Y-40903047D01*
X121796276Y-40569714D01*
X121843895Y-40379238D01*
X121939133Y-40284000D01*
X122034371Y-40236380D01*
X122224847Y-40236380D01*
X122320085Y-40284000D01*
X122415323Y-40379238D01*
X122462942Y-40569714D01*
X122462942Y-40903047D01*
X122415323Y-41093523D01*
X122320085Y-41188761D01*
X122224847Y-41236380D01*
X122034371Y-41236380D01*
X123415323Y-41236380D02*
X122843895Y-41236380D01*
X123129609Y-41236380D02*
X123129609Y-40236380D01*
X123034371Y-40379238D01*
X122939133Y-40474476D01*
X122843895Y-40522095D01*
X131062604Y-90020380D02*
X131062604Y-89020380D01*
X131300700Y-89020380D01*
X131443557Y-89068000D01*
X131538795Y-89163238D01*
X131586414Y-89258476D01*
X131634033Y-89448952D01*
X131634033Y-89591809D01*
X131586414Y-89782285D01*
X131538795Y-89877523D01*
X131443557Y-89972761D01*
X131300700Y-90020380D01*
X131062604Y-90020380D01*
X132538795Y-89020380D02*
X132062604Y-89020380D01*
X132014985Y-89496571D01*
X132062604Y-89448952D01*
X132157842Y-89401333D01*
X132395938Y-89401333D01*
X132491176Y-89448952D01*
X132538795Y-89496571D01*
X132586414Y-89591809D01*
X132586414Y-89829904D01*
X132538795Y-89925142D01*
X132491176Y-89972761D01*
X132395938Y-90020380D01*
X132157842Y-90020380D01*
X132062604Y-89972761D01*
X132014985Y-89925142D01*
X131062604Y-80787480D02*
X131062604Y-79787480D01*
X131300700Y-79787480D01*
X131443557Y-79835100D01*
X131538795Y-79930338D01*
X131586414Y-80025576D01*
X131634033Y-80216052D01*
X131634033Y-80358909D01*
X131586414Y-80549385D01*
X131538795Y-80644623D01*
X131443557Y-80739861D01*
X131300700Y-80787480D01*
X131062604Y-80787480D01*
X132491176Y-80120814D02*
X132491176Y-80787480D01*
X132253080Y-79739861D02*
X132014985Y-80454147D01*
X132634033Y-80454147D01*
X131037204Y-85403930D02*
X131037204Y-84403930D01*
X131275300Y-84403930D01*
X131418157Y-84451550D01*
X131513395Y-84546788D01*
X131561014Y-84642026D01*
X131608633Y-84832502D01*
X131608633Y-84975359D01*
X131561014Y-85165835D01*
X131513395Y-85261073D01*
X131418157Y-85356311D01*
X131275300Y-85403930D01*
X131037204Y-85403930D01*
X131941966Y-84403930D02*
X132561014Y-84403930D01*
X132227680Y-84784883D01*
X132370538Y-84784883D01*
X132465776Y-84832502D01*
X132513395Y-84880121D01*
X132561014Y-84975359D01*
X132561014Y-85213454D01*
X132513395Y-85308692D01*
X132465776Y-85356311D01*
X132370538Y-85403930D01*
X132084823Y-85403930D01*
X131989585Y-85356311D01*
X131941966Y-85308692D01*
M02*
